<?xml version="1.0" standalone="no"?>
<!DOCTYPE svg PUBLIC "-//W3C//DTD SVG 1.1//EN" "http://www.w3.org/Graphics/SVG/1.1/DTD/svg11.dtd" >
<svg>
<metadata>
Created by FontForge 20120731 at Fri Sep  9 15:09:32 2016
 By Nicolas Joyard,,,
Copyright (c) Apostrophe, 2002. All rights reserved. www.apostrophiclab.com
</metadata>
<defs>
<font id="Propaganda" horiz-adv-x="797" >
  <font-face 
    font-family="Propaganda"
    font-weight="400"
    font-stretch="normal"
    units-per-em="1000"
    panose-1="2 0 5 3 0 0 0 2 0 4"
    ascent="800"
    descent="-200"
    x-height="783"
    cap-height="801"
    bbox="-131 -367 1464 1281.51"
    underline-thickness="20"
    underline-position="-123"
    unicode-range="U+0020-F004"
  />
<missing-glyph horiz-adv-x="353" 
 />
    <glyph glyph-name=".notdef" horiz-adv-x="353" 
 />
    <glyph glyph-name=".null" horiz-adv-x="0" 
 />
    <glyph glyph-name="nonmarkingreturn" horiz-adv-x="353" 
 />
    <glyph glyph-name="space" unicode=" " horiz-adv-x="353" 
 />
    <glyph glyph-name="space" unicode="&#xa0;" horiz-adv-x="353" 
 />
    <glyph glyph-name="exclam" unicode="!" horiz-adv-x="315" 
d="M267 593l1 -1q0 -23 2 -45.5t2 -44.5q0 -50 -3.5 -77.5t-17 -41.5t-40.5 -17.5t-74 -4.5l-21 -1q-9 0 -20.5 0.5t-21.5 3.5t-17 10t-7 20q0 14 3.5 29t8 31.5t8 33.5t3.5 35q0 41 -8 81.5t-8 81.5q0 12 1 29.5t5 34.5t12.5 29t24.5 12h36q19 0 38 5t39 5q23 0 35 -11.5
t17.5 -29t6.5 -37.5t1 -37v-3q0 -22 -2 -45t-4 -45zM276 151q-1 4 1.5 0t5 -8.5t2.5 -5.5q5 -18 5 -32t-4.5 -25t-15.5 -19q-14 -10 -31 -20.5t-36 -19.5t-38.5 -15t-36.5 -6q-23 0 -36.5 7t-21 19.5t-10 29t-2.5 35.5q0 12 1 24.5t1 24.5v32t4 39.5t13 33.5t26 14h36
q19 0 38 5t39 5q24 0 36 -12t17 -30t5 -39q0 -20 2 -37z" />
    <glyph glyph-name="quotedbl" unicode="&#x22;" horiz-adv-x="478" 
d="M148 823q9 0 20.5 -0.5t21.5 -3.5t17 -10t7 -20q0 -14 -3.5 -29t-8 -31.5t-8 -33.5t-3.5 -35q0 -20 2 -26.5t4 -10t4 -10t2 -26.5q0 -12 -1 -29.5t-5 -34.5t-12.5 -29t-24.5 -12h-36q-9 0 -9.5 -1.5t1 -3.5t1.5 -4q0 -1 -10 -1q-23 0 -35 11.5t-17.5 29t-6.5 37.5t-1 37
q0 23 2 46.5t4 46.5q0 50 -1 78t5 41.5t22 17t48 5.5zM375 822q9 0 20.5 -0.5t21.5 -3.5t17 -10t7 -20q0 -14 -3.5 -29t-8 -31.5t-8 -33.5t-3.5 -35q0 -20 2 -26.5t4 -10t4 -10t2 -26.5q0 -12 -1 -29.5t-5 -34.5t-12.5 -29t-24.5 -12h-36q-9 0 -9.5 -1.5t1 -3.5t1.5 -4
q0 -1 -10 -1q-23 0 -35 11.5t-17.5 29t-6.5 37.5t-1 37q0 23 2 46.5t4 46.5q0 50 -1 78t5 41.5t22 17t48 5.5z" />
    <glyph glyph-name="quotesingle" unicode="'" horiz-adv-x="250" 
d="M148 823q9 0 20.5 -0.5t21.5 -3.5t17 -10t7 -20q0 -14 -3.5 -29t-8 -31.5t-8 -33.5t-3.5 -35q0 -20 2 -26.5t4 -10t4 -10t2 -26.5q0 -12 -1 -29.5t-5 -34.5t-12.5 -29t-24.5 -12h-36q-9 0 -9.5 -1.5t1 -3.5t1.5 -4q0 -1 -10 -1q-23 0 -35 11.5t-17.5 29t-6.5 37.5t-1 37
q0 23 2 46.5t4 46.5q0 50 -1 78t5 41.5t22 17t48 5.5z" />
    <glyph glyph-name="plus" unicode="+" horiz-adv-x="680" 
d="M132 292q-16 0 -33 2.5t-31.5 10t-23.5 20t-9 32.5v25q0 31 3.5 49t13.5 29t26.5 17.5t42.5 14.5q20 -3 51 -8t60 -7q-2 34 -4 67.5t-2 68.5q0 21 13 37.5t35 16.5q21 0 40.5 1t40.5 4q18 -6 35.5 -8.5t31 -8t22 -18t8.5 -38.5q0 -32 -7 -63t-7 -62q32 0 64.5 2.5
t64.5 2.5q22 0 37 -1t24 -7.5t12.5 -20.5t3.5 -39v-12t-1 -12q2 -9 2 -20v-20q0 -15 -11.5 -29t-22.5 -24l-167 -1q-1 -8 -1 -1q0 8 -1 24q-1 -11 -1 -21v-21q0 -12 -0.5 -24.5t1.5 -24.5q2 -17 5 -35t3 -35q0 -5 -1 -6q-15 -36 -40.5 -43t-61.5 -7h-30q-16 0 -32 3
t-28.5 10.5t-18.5 22.5q-3 0 -3 9v12q-2 34 -5 67.5t-4 68.5h-94z" />
    <glyph glyph-name="comma" unicode="," horiz-adv-x="324" 
d="M57 -21l-1 1q0 23 -2 45.5t-2 44.5q0 49 3.5 77t17 42t40.5 17.5t74 4.5l21 1q9 0 20.5 -0.5t21.5 -3.5t17 -10t7 -20q0 -14 -3.5 -29t-8 -31.5t-8 -33.5t-3.5 -35q0 -41 8 -81.5t8 -81.5q0 -12 -1 -29.5t-5 -34.5t-12.5 -29t-24.5 -12h-36q-19 0 -38 -5t-39 -5
q-23 0 -35 11.5t-17.5 29t-6.5 37.5t-1 37q0 23 2 46.5t4 46.5z" />
    <glyph glyph-name="hyphen" unicode="-" horiz-adv-x="518" 
d="M128 278q-16 0 -33 2.5t-31.5 10t-23.5 20t-9 32.5v25q0 31 3.5 47.5t13.5 25.5t26.5 14t42.5 13q13 -2 33.5 -3.5t42 -2t41.5 -0.5t33 1q16 1 35.5 1.5t38.5 0.5h38h34q22 0 37 -1t24 -7.5t12.5 -20.5t3.5 -39v-12t-1 -12q2 -9 2 -20v-20q0 -15 -11.5 -29t-22.5 -24z
" />
    <glyph glyph-name="hyphen" unicode="&#xad;" horiz-adv-x="518" 
d="M128 278q-16 0 -33 2.5t-31.5 10t-23.5 20t-9 32.5v25q0 31 3.5 47.5t13.5 25.5t26.5 14t42.5 13q13 -2 33.5 -3.5t42 -2t41.5 -0.5t33 1q16 1 35.5 1.5t38.5 0.5h38h34q22 0 37 -1t24 -7.5t12.5 -20.5t3.5 -39v-12t-1 -12q2 -9 2 -20v-20q0 -15 -11.5 -29t-22.5 -24z
" />
    <glyph glyph-name="period" unicode="." horiz-adv-x="332" 
d="M64 113q1 -4 -1.5 0t-5 8.5t-2.5 5.5q-5 18 -5 32t4.5 25t15.5 19q13 10 30.5 20.5t36.5 19.5t38.5 15t36.5 6q22 0 36 -7t21.5 -19.5t10 -29t2.5 -35.5q0 -12 -1 -24.5t-1 -24.5t-0.5 -32t-4 -39.5t-12.5 -33.5t-26 -14h-36q-19 0 -38 -5t-39 -5q-24 0 -36 12t-17 30
t-5.5 38.5t-1.5 37.5z" />
    <glyph glyph-name="slash" unicode="/" horiz-adv-x="545" 
d="M195 -127q-14 -14 -27 -19.5t-27 -5.5q-13 0 -27.5 4.5t-31.5 10.5q-12 4 -27.5 10t-29 14.5t-23 20t-9.5 27.5q-3 2 0.5 10.5t3.5 10.5q12 35 21 70t23 70q7 17 17.5 33.5t17.5 33.5q1 2 4.5 13.5t9 28t12 35t12 34.5t9 27.5t4.5 13.5q8 21 19 41t19 41q8 20 13.5 41.5
t13.5 41.5q2 7 9 24.5t16 41t19.5 49t19.5 49t16 41t9 24.5q16 43 28.5 86.5t29.5 86.5q8 20 26 30.5t38 2.5t38.5 -13.5t38.5 -10.5q15 -12 30.5 -20.5t26.5 -18.5t14 -24.5t-6 -38.5q-11 -30 -29 -58t-29 -57q-6 -17 -9.5 -38.5t-11.5 -40.5q-1 -3 -6.5 -16.5t-13.5 -33
t-17 -41t-16.5 -41t-13.5 -33t-7 -16.5q-4 -11 -7 -22.5t-8 -22.5q-10 -28 -21.5 -52.5t-28.5 -48.5q-1 -5 -5 -20t-10 -34.5t-12.5 -41t-13 -40.5t-11 -33.5t-6.5 -19.5q-8 -22 -18.5 -43t-18.5 -43q-5 -11 -9.5 -22.5t-7.5 -23.5q-5 -17 -8 -34.5t-9 -33.5
q-1 -2 -1.5 -3.5t-1.5 -2.5z" />
    <glyph glyph-name="colon" unicode=":" horiz-adv-x="341" 
d="M73 113q1 -4 -1.5 0t-5 8.5t-2.5 5.5q-5 18 -5 32t4.5 25t15.5 19q13 10 30.5 20.5t36.5 19.5t38.5 15t36.5 6q22 0 36 -7t21.5 -19.5t10 -29t2.5 -35.5q0 -12 -1 -24.5t-1 -24.5t-0.5 -32t-4 -39.5t-12.5 -33.5t-26 -14h-36q-19 0 -38 -5t-39 -5q-24 0 -36 12t-17 30
t-5.5 38.5t-1.5 37.5zM64 651q1 -4 -1.5 0t-5 8.5t-2.5 5.5q-5 18 -5 32t4.5 25t15.5 19q13 10 30.5 20.5t36.5 19.5t38.5 15t36.5 6q22 0 36 -7t21.5 -19.5t10 -29t2.5 -35.5q0 -12 -1 -24.5t-1 -24.5t-0.5 -32t-4 -39.5t-12.5 -33.5t-26 -14h-36q-19 0 -38 -5t-39 -5
q-24 0 -36 12t-17 30t-5.5 38.5t-1.5 37.5z" />
    <glyph glyph-name="semicolon" unicode=";" horiz-adv-x="340" 
d="M73 -21l-1 1q0 23 -2 45.5t-2 44.5q0 49 3.5 77t17 42t40.5 17.5t74 4.5l21 1q9 0 20.5 -0.5t21.5 -3.5t17 -10t7 -20q0 -14 -3.5 -29t-8 -31.5t-8 -33.5t-3.5 -35q0 -41 8 -81.5t8 -81.5q0 -12 -1 -29.5t-5 -34.5t-12.5 -29t-24.5 -12h-36q-19 0 -38 -5t-39 -5
q-23 0 -35 11.5t-17.5 29t-6.5 37.5t-1 37v3q0 22 2 45t4 45zM64 651q1 -4 -1.5 0t-5 8.5t-2.5 5.5q-5 18 -5 32t4.5 25t15.5 19q13 10 30.5 20.5t36.5 19.5t38.5 15t36.5 6q22 0 36 -7t21.5 -19.5t10 -29t2.5 -35.5q0 -12 -1 -24.5t-1 -24.5t-0.5 -32t-4 -39.5t-12.5 -33.5
t-26 -14h-36q-19 0 -38 -5t-39 -5q-24 0 -36 12t-17 30t-5.5 38.5t-1.5 37.5z" />
    <glyph glyph-name="semicolon" unicode="&#x37e;" horiz-adv-x="340" 
d="M73 -21l-1 1q0 23 -2 45.5t-2 44.5q0 49 3.5 77t17 42t40.5 17.5t74 4.5l21 1q9 0 20.5 -0.5t21.5 -3.5t17 -10t7 -20q0 -14 -3.5 -29t-8 -31.5t-8 -33.5t-3.5 -35q0 -41 8 -81.5t8 -81.5q0 -12 -1 -29.5t-5 -34.5t-12.5 -29t-24.5 -12h-36q-19 0 -38 -5t-39 -5
q-23 0 -35 11.5t-17.5 29t-6.5 37.5t-1 37v3q0 22 2 45t4 45zM64 651q1 -4 -1.5 0t-5 8.5t-2.5 5.5q-5 18 -5 32t4.5 25t15.5 19q13 10 30.5 20.5t36.5 19.5t38.5 15t36.5 6q22 0 36 -7t21.5 -19.5t10 -29t2.5 -35.5q0 -12 -1 -24.5t-1 -24.5t-0.5 -32t-4 -39.5t-12.5 -33.5
t-26 -14h-36q-19 0 -38 -5t-39 -5q-24 0 -36 12t-17 30t-5.5 38.5t-1.5 37.5z" />
    <glyph glyph-name="A" unicode="A" 
d="M627 0q-29 0 -48.5 10t-31 27t-16.5 40t-5 49h-5q0 5 -5 5q-4 0 -8 -1.5t-7 -3.5q-6 0 -33.5 0.5t-59.5 0.5q-31 0 -60 -1t-38 -4q-20 -6 -29.5 -18t-14.5 -27t-8 -31t-10 -29t-21.5 -21.5t-41.5 -8.5q-14 0 -27 1t-27 1q-9 0 -18 -2t-17 -2q-14 0 -29.5 2t-28 8
t-20.5 17t-8 29t5.5 34.5t13.5 32.5t16.5 31.5t14.5 31.5q2 6 2.5 13.5t2.5 14.5q5 22 10 47.5t14 46.5q11 25 21.5 49.5t21.5 49.5q5 11 5 25q0 15 4 27q5 15 15 30t14 30q3 11 5 24t5.5 25.5t8.5 24.5t13 21q4 25 14 48t24 44q3 18 8 36t15 33t24.5 25t35.5 12
q23 3 36.5 5.5t25.5 2.5q19 0 44.5 -4.5t49.5 -14.5t42.5 -25.5t24.5 -37.5q12 -48 27 -93t22 -96q7 -11 17 -30t20.5 -40t19 -40t11.5 -30t5.5 -21.5t5.5 -21.5t12.5 -24.5t14.5 -24.5q4 -10 6.5 -22l5 -24t5.5 -23.5t8 -20.5t15 -28.5t20.5 -41.5t18 -42.5t7.5 -31.5
q0 -12 -7 -21t-17.5 -16.5t-22 -13t-19.5 -10.5q-5 0 -18.5 -1t-29 -1.5t-29 -2t-17.5 -2.5zM393 556q-6 -20 -10 -38t-8 -38t-11 -40.5t-14 -40.5t-12.5 -40.5t-5.5 -41.5q0 -8 6 -12.5t14 -6.5t16.5 -2.5t14.5 -0.5q8 0 20 0.5t25 2.5t24 5.5t17 9.5q1 0 1 1v1
q0 3 -2.5 8.5t-4.5 7.5q-9 20 -14.5 43t-10.5 45q-3 13 -9.5 25t-8.5 24l-14 77q-1 3 -5.5 6.5t-7.5 4.5z" />
    <glyph glyph-name="B" unicode="B" horiz-adv-x="771" 
d="M736 212q0 -21 -9 -46t-23 -48t-32.5 -42t-36.5 -29q-6 -3 -13.5 -5.5t-14.5 -4.5q-14 -6 -28.5 -12.5t-28.5 -13.5q-15 0 -31 -2t-30 -9q-26 1 -50.5 1.5t-50.5 0.5q-18 0 -36 -1t-36 -1q-11 0 -20.5 1t-19.5 1t-17 -3q-10 2 -20 2.5t-20 2.5q-17 -5 -34 -7.5t-35 -2.5
q-54 0 -74 25.5t-20 76.5q0 25 4 50.5t4 50.5q0 49 -2.5 97.5t-2.5 97.5q0 21 3.5 43.5t1.5 43.5q-4 36 -4.5 71t-0.5 71q0 26 -4.5 52t-4.5 52v13q0 7 2 14q4 4 5 6q9 15 30.5 21t46 8t49 1.5t40.5 -0.5l57 2q14 1 29 -2t29 -3q13 0 26.5 3.5t27.5 3.5q27 0 54 -2.5
t54 -4.5q61 -5 103.5 -24.5t74.5 -74.5q3 -5 8 -13.5t10 -18.5t9 -19t4 -14q0 -6 -2 -20.5t-6 -19.5q0 -7 1.5 -13.5t1.5 -14.5q0 -30 -10 -51t-27 -36t-39.5 -26t-46.5 -21q-2 -1 -3 -4t-1 -5h4q3 -4 8 -4q8 0 15.5 1.5t15.5 1.5t13 -2q35 -13 55.5 -32.5t31 -44.5
t13.5 -54.5t3 -63.5zM293 324q-6 -6 -8.5 -13.5t-4.5 -15.5q-2 -1 -2.5 -7.5t-0.5 -14.5v-14v-9q0 -16 1 -29t6 -22t15 -14t28 -5q12 0 24.5 2.5t24.5 4.5q23 4 48 6t45.5 8t33.5 20t13 43q0 27 -12.5 39.5t-31 16t-41 2t-41.5 -1.5q-24 0 -48.5 2t-48.5 2zM289 610
q-8 -17 -14.5 -36t-6.5 -38q0 -26 13.5 -40t39.5 -14q18 0 35 5.5t34 7.5q16 1 33.5 2.5t31.5 7t23 17t9 34.5q0 21 -16.5 31t-39 14t-46 3.5t-36.5 0.5l-30 2t-30 3z" />
    <glyph glyph-name="C" unicode="C" horiz-adv-x="748" 
d="M516 -6q-27 2 -52 -5t-45 -7q-77 0 -149.5 23.5t-126.5 82.5l-50 54q-5 16 -13.5 34t-17.5 37t-15.5 37.5t-6.5 34.5q0 35 3 70.5t3 70.5v46t2 46q3 28 14.5 58.5t28.5 59t37.5 54t41.5 42.5q22 18 56 37t61 30q1 1 12.5 3.5t25.5 5.5t25.5 5t12.5 2q37 0 76.5 -4.5
t78 -15.5t73.5 -29t62 -46q8 -9 16 -19t16 -19q12 -14 26 -33.5t14 -39.5q0 -5 -6 -14t-14 -19t-16 -18.5t-11 -12.5q-11 -6 -21 -14t-20 -15t-21.5 -11.5t-25.5 -4.5q-13 0 -24 6.5t-20 16.5t-17 21t-15 19q-8 9 -19 17t-23.5 15t-25.5 11t-25 4q-20 0 -36.5 -8.5
t-32.5 -18.5q-11 -8 -23.5 -14.5t-23.5 -14.5q-15 -11 -25.5 -29t-16.5 -39t-8.5 -42.5t-2.5 -39.5q0 -51 21.5 -100.5t51.5 -89.5q44 -29 97 -29q43 0 66.5 17t39 38t29 38t36.5 17q14 0 37 -8.5t44.5 -22t37.5 -30.5t16 -33q0 -25 -25 -57t-59 -62.5t-70 -54.5t-58 -33z
" />
    <glyph glyph-name="D" unicode="D" horiz-adv-x="790" 
d="M738 278q-11 -26 -20 -52t-19 -52q-3 -9 -14 -23t-23.5 -28.5t-25.5 -27.5l-20 -20q-8 -8 -28 -17.5t-43 -18t-44.5 -14.5t-32.5 -6q-30 0 -58 -5.5t-57 -7.5q-16 -2 -31 -0.5t-30 -2.5q-56 -12 -117 -12q-16 0 -37 2t-39.5 9t-31.5 20t-13 36q0 8 2 16.5t2 16.5t-2 15.5
t-2 15.5q0 26 1 52.5t1 52.5q0 60 -1.5 120.5t-3.5 120.5v8q-1 28 2 55.5t3 55.5q0 29 -3 56.5t-3 56.5q0 20 1 33.5t6 24t14.5 19.5t27.5 20q58 -6 116.5 -9t117.5 -5h4q20 -1 40.5 3t40.5 4q25 0 47.5 -5t44.5 -13t43.5 -17.5t44.5 -18.5q25 -24 44 -43t34.5 -38.5t30 -43
t31.5 -55.5q5 -42 8.5 -83.5t3.5 -83.5q0 -28 -5.5 -55.5t-6.5 -55.5zM285 601q-4 -8 -4.5 -17.5t-0.5 -17.5q0 -5 0.5 -10.5t0.5 -10.5q-1 -60 -3 -120.5t-4 -121.5l-1 -55l-1 -14v-3q0 -22 16.5 -29.5t35.5 -7.5q56 0 95.5 10t64 34t36 63t11.5 97q0 12 -2 32t-6 41
t-10.5 39.5t-15.5 27.5q-19 18 -45 30t-54.5 19.5t-58 10.5t-54.5 3z" />
    <glyph glyph-name="E" unicode="E" horiz-adv-x="710" 
d="M620 3h-81q-21 0 -42.5 2.5t-43.5 2.5q-11 0 -32 0.5t-43 -0.5t-41.5 -3t-27.5 -7q-20 0 -42.5 1t-42.5 -3t-42 -6.5t-42 -2.5q-48 0 -69 28t-21 73q0 36 7 71.5t7 70.5q0 10 -2 20t-3 20q-1 15 0 30.5t0 30.5q0 8 -2 16t-2 16q0 26 3.5 51.5t3.5 51.5q0 11 -1.5 21.5
t-1.5 21.5q0 26 2.5 53t2.5 53q0 34 -3 67.5t-3 67.5q0 9 7 16.5t16.5 12.5t20 9t18.5 7q8 0 17 0.5t17 0.5q27 0 53 -4t52 -9l7 1l33 1q69 3 138 3q10 0 20 -1.5t20 -3.5q-1 0 3 0.5t6 1.5l13 1l49 6q5 1 10 1h11q11 0 23 -2t23 -8q4 -3 8 -20t6.5 -38t4 -40t1.5 -25
q0 -34 -18.5 -48.5t-50.5 -14.5q-29 0 -56.5 5t-56.5 5t-58.5 2.5t-58.5 2.5q-17 0 -35.5 -4.5t-29.5 -19.5q-3 0 -3 -3q0 -1 1 -2q1 -10 1 -25t2.5 -29t9.5 -24t23 -10q22 0 43.5 4.5t43.5 4.5t43 -1.5t43 -0.5q20 1 39.5 3.5t39.5 2.5q26 0 41.5 -10.5t15.5 -38.5
q0 -4 -0.5 -7.5t-0.5 -7.5q-1 -17 -1 -38q0 -20 -4.5 -37.5t-16.5 -29.5t-37 -12q-32 0 -64 -1.5t-64 -1.5q-15 0 -39.5 8.5t-47.5 8.5q-8 0 -15 -1t-15 -4q-19 0 -28 -5.5t-12.5 -15t-3 -23t0.5 -28.5v-27t3.5 -25t12 -18.5t25.5 -7.5q21 0 44 4t46 6q37 2 73 2.5t73 2.5
q17 1 33.5 2.5t33.5 1.5q26 0 43 -10t17 -39q0 -11 -2.5 -20.5t-2.5 -20.5q0 -14 2 -27t2 -27q0 -20 -13.5 -39t-35.5 -19z" />
    <glyph glyph-name="F" unicode="F" horiz-adv-x="700" 
d="M664 706q0 -27 -3 -48.5t-12 -47.5q-5 -6 -25 -8.5t-43.5 -4t-45.5 -1.5h-31q-22 0 -44 0.5t-45 1.5q-22 1 -42.5 9t-43.5 8q-26 0 -37.5 -6t-16 -17t-3.5 -27t1 -36q0 -32 18.5 -40t47.5 -8l7 1l16 2q13 2 26.5 3t26.5 1h174q12 0 19 -5.5t10.5 -13.5t4.5 -18t1 -19
q0 -14 -1.5 -28t-0.5 -28q1 -16 -1 -32.5t-8 -30.5q-3 -6 -13 -9.5t-22 -4.5t-23.5 -1.5t-17.5 -0.5q-8 -1 -16.5 -1.5t-16.5 -0.5q-40 0 -78.5 7.5t-77.5 7.5q-7 0 -14.5 -1t-14.5 -3q-28 2 -35 -10.5t-7 -38.5q0 -11 1.5 -21.5t1.5 -21.5v-111q0 -12 4.5 -24.5t4.5 -25.5
q0 -21 -8.5 -32t-22 -16t-30 -5.5t-31.5 -1.5q-16 -1 -31.5 -1.5t-31.5 -0.5q-9 0 -24 0.5t-23 3.5q-12 4 -19 14.5t-11 23t-5.5 25.5t-1.5 24q0 32 6 63.5t6 63.5q0 23 -0.5 46.5t-1.5 46.5l-1 21v6l-1 -3q2 13 3 27t1 27q0 20 -2.5 40.5t-1.5 40.5q1 26 2.5 52.5t1.5 52.5
q0 32 -5 63t-5 63q0 27 2 42.5t9 25.5t20 18t35 20q37 -3 75.5 -8t75.5 -5q20 0 40.5 3t40.5 3t43 -5t43 -8q14 -2 34 2.5t35 4.5q30 0 61.5 -1t60.5 -4q15 -2 22.5 -10t10.5 -20t3.5 -25t0.5 -24z" />
    <glyph glyph-name="G" unicode="G" horiz-adv-x="818" 
d="M772 355q0 -24 1 -48t1 -49q0 -23 -3.5 -45.5t-3.5 -44.5q0 -29 5.5 -57t5.5 -57q0 -19 -8 -30t-21 -16t-28 -6.5t-30 -1.5q-24 0 -40 1.5t-25.5 8.5t-14 21t-4.5 38h-6q-4 -4 -14.5 -14t-22.5 -20.5t-22 -19t-13 -9.5q-17 -6 -34 -11.5t-34 -10.5q-14 2 -29.5 0
t-29.5 -2q-75 0 -132 23t-110 76q-6 6 -13 11.5t-14 10.5q-5 4 -15.5 19t-21.5 33t-20.5 34.5t-12.5 23.5q-4 8 -6.5 21.5t-4 28.5t-2 29.5t-0.5 23.5q0 24 4 48t4 47q0 19 -1 38t-1 38q0 42 10.5 74.5t29 60t43.5 52t54 50.5q13 11 26.5 23t27.5 20q2 1 21.5 7t42 13
t40.5 12.5l18 5.5q33 0 67.5 -1.5t69 -7t67 -16t61.5 -27.5q26 -16 51 -40.5t48 -44.5q5 -5 12.5 -12t15 -15.5t12.5 -17.5t5 -16q0 -14 -19.5 -30.5t-44.5 -30.5t-49 -23.5t-33 -9.5q-27 0 -42.5 13.5t-33 30t-43 30t-70.5 13.5q-50 0 -83.5 -16t-54 -44.5t-29 -67
t-8.5 -83.5q0 -41 9.5 -78.5t30.5 -66t54 -45.5t79 -17q30 0 50 8t36 21t31 30t34 35v5h-5q0 5 -7 5q-5 0 -9 -1.5t-9 -3.5q-38 -7 -64 -5.5t-42.5 14t-23.5 37t-7 63.5q0 25 5 39.5t15.5 22t27.5 9.5t40 2q37 0 74 -4.5t74 -4.5q17 0 33.5 2.5t33.5 2.5q20 0 34 -9t16 -30
l-2 -4q-1 -4 -1 -8q0 -3 -1 -7q-1 -11 -1.5 -23t-0.5 -23z" />
    <glyph glyph-name="H" unicode="H" horiz-adv-x="790" 
d="M740 747q0 -25 -4 -49t-4 -48q0 -66 -3 -130t-3 -129q0 -13 1.5 -26t2.5 -26q3 -33 5 -67t2 -67q0 -14 -2.5 -28.5t-2.5 -28.5q0 -26 2.5 -52.5t2.5 -52.5q0 -9 -10.5 -21t-16.5 -18q-17 0 -36 1t-36 -3q-5 -2 -12.5 -3t-12.5 -1q-8 0 -20.5 0.5t-26 3t-25 6.5t-16.5 12
q-3 4 -8 16.5t-5 17.5q0 68 4.5 136t6.5 136h-4q0 6 -6 6t-13.5 -3.5t-12.5 -6.5h-76q-30 0 -56.5 3t-47 -1.5t-32 -20.5t-11.5 -53q0 -43 8 -85t8 -84q0 -39 -17 -64t-60 -25q-14 0 -31 0.5t-35 2t-34.5 4.5t-29.5 8q-8 3 -12.5 14.5t-6.5 26t-3 28t-1 21.5q0 13 3.5 25.5
t3.5 25.5q0 14 -3 28.5t-3 28.5q0 23 2 46t2 46q0 78 2.5 156.5t2.5 156.5q0 26 -2.5 53t-2.5 54q0 35 7.5 52t23 23t38.5 5t53 -1h35t34.5 -4.5t26 -16t10.5 -34.5q0 -17 -5 -33t-5 -33q0 -22 2.5 -44t2.5 -44q0 -15 -3.5 -30t-3.5 -30q0 -17 10 -20t24 -3q31 0 61.5 8
t57.5 8q12 0 25 -2t25 -3q14 -1 27 -1t27 -1v4h2q-4 14 -4.5 28.5t-2.5 28.5q-3 38 -11.5 76t-8.5 77q0 34 15.5 50.5t51.5 16.5q32 0 63 1.5t63 5.5q21 -8 32.5 -19.5t11.5 -34.5z" />
    <glyph glyph-name="I" unicode="I" horiz-adv-x="326" 
d="M273 40q-15 -36 -40.5 -43t-61.5 -7h-30q-16 0 -32 3t-28.5 10.5t-18.5 22.5q-3 0 -3 9v12q-2 37 -5.5 73t-3.5 73q0 19 4.5 38t4.5 38q0 7 -3 15t-3 15q0 23 3 45t3 45q0 22 -2 43.5t-2 43.5t1 43t1 43q0 46 -3.5 91t-3.5 91q0 21 13 37.5t35 16.5q21 0 40.5 1t40.5 4
q18 -6 35.5 -8.5t31 -8t22 -18t8.5 -38.5q0 -32 -7 -64t-7 -64q0 -17 4.5 -39t4.5 -42q0 -9 -2.5 -18t-2.5 -18q0 -11 1 -23t1 -24q0 -29 -2 -56t-9 -56q3 -16 7.5 -34t4.5 -34q0 -23 -2 -46.5t-2 -46.5q0 -12 -0.5 -24.5t1.5 -24.5q2 -17 5 -35t3 -35q0 -5 -1 -6z" />
    <glyph glyph-name="J" unicode="J" horiz-adv-x="441" 
d="M380 221q-1 -5 0 -11t1 -11q0 -26 -2 -54.5t-8 -53.5q-3 -13 -16.5 -28t-30.5 -29t-35 -24.5t-31 -13.5q-7 -2 -15.5 -1.5t-15.5 -0.5q-6 0 -19 -0.5t-27.5 -1.5t-27 -2.5t-16.5 -4.5q-30 0 -52 3t-36.5 13.5t-21 30t-6.5 52.5q0 13 0.5 28.5t3.5 31t9.5 28.5t18.5 20
q11 6 32 8t41 4.5t35.5 6.5t15.5 15q1 22 1.5 43.5t0.5 43.5q0 17 -4.5 35t-4.5 35q0 8 1.5 14.5t1.5 14.5q0 28 -3.5 56.5t-3.5 56.5q0 16 1.5 32.5t0.5 32.5q-1 12 -4 25t-3 25t2.5 25.5t4.5 25.5q2 16 0.5 30t-0.5 26t6.5 23t22.5 23l66 -3q10 0 26 1t32 0.5t30.5 -4
t21.5 -12.5q3 -3 4.5 -12t2.5 -18.5t1.5 -19t0.5 -13.5q3 -23 6 -44.5t3 -45.5q0 -17 -4.5 -34t-4.5 -34q0 -63 6 -124l1 3q-1 -13 -3 -25t-2 -25q0 -6 1.5 -14.5t3.5 -14.5q-3 -8 -5 -22.5t-2 -22.5v-44t-2 -44z" />
    <glyph glyph-name="K" unicode="K" horiz-adv-x="796" 
d="M660 -3h-19q-14 0 -30 1t-30 1.5t-17 2.5q-14 7 -25.5 20.5t-19.5 26.5q-8 14 -21.5 35t-27.5 43.5t-25.5 42.5t-15.5 32q-9 26 -18.5 52t-17.5 52q-2 5 -6 13.5t-10 8.5h-5q-10 0 -25.5 -13t-31 -30.5t-28 -35.5t-16.5 -27q-2 -5 -3 -14.5t-1 -14.5q0 -31 7.5 -62
t7.5 -62q0 -29 -7.5 -42t-19.5 -18t-27 -7t-31 -9q-8 0 -26.5 0.5t-39 2t-38 5t-22.5 10.5q-14 18 -14 42v46q0 10 -2 20t-2 20q0 22 2 43t2 43q0 42 -3.5 82.5t-3.5 82.5q0 33 2.5 65.5t2.5 64.5v164q0 17 -1.5 35t-1.5 35q0 11 9.5 16.5t18.5 9.5v5h76t75 -7
q15 -3 24.5 -13t14 -23t6 -27.5t1.5 -27.5q0 -23 -4 -45t-11 -44h-2q-2 -16 -3.5 -33t-1.5 -32q0 -11 1.5 -22.5t3.5 -22.5h2q0 -2 2 -3t4 -1q18 0 28 9.5t18 23.5q17 29 35 54.5t37 51.5q8 11 14 24.5t15 22.5l36 36q14 14 25 28.5t27 27.5q4 3 17.5 6t29.5 6t30.5 4.5
t19.5 1.5q35 0 70.5 -1t70.5 -1l39 -27q0 -7 -4 -13.5t-8 -11.5q-11 -12 -24.5 -22.5t-24.5 -22.5q-28 -29 -60.5 -63t-63.5 -60q-5 -5 -12 -8t-13 -8q-18 -13 -34 -28t-31 -31q0 -6 6.5 -14.5t15.5 -18t17.5 -18.5t12.5 -16q13 -23 24 -47t25 -45q9 -14 26 -31t28 -32
q14 -17 21.5 -38t19.5 -39t20 -31.5t18 -33.5q3 -5 8.5 -11.5t12 -13.5t13 -14.5t9.5 -14.5q4 -10 4 -20q0 -19 -13 -28.5t-29 -14.5q-24 3 -43 -1t-41 -4z" />
    <glyph glyph-name="L" unicode="L" horiz-adv-x="597" 
d="M459 0h1l-2 1l-17 1l-72 4q-6 0 -12 0.5t-12 0.5q-14 0 -29.5 -2t-27.5 -10q-23 0 -45.5 -2t-44.5 -2q-47 0 -75 3.5t-42.5 17t-19 40.5t-4.5 74q0 14 3.5 28t2.5 28q-1 21 -2.5 42.5t-1.5 42.5q0 32 3.5 63t3.5 63q0 22 -6 43t-6 43q0 18 3.5 37.5t3.5 38.5v26
q1 26 0.5 52.5t-2.5 52.5q-1 14 -5 28.5t-4 29.5q0 23 13 33t30.5 14t34.5 5.5t25 8.5q20 -4 43 -6t42 -8t31.5 -20t12.5 -42q0 -12 -2.5 -25t-2.5 -25q0 -14 1 -29t1 -29q0 -15 -2 -30.5t-2 -30.5q0 -11 3.5 -23.5t3.5 -23.5q0 -18 -7 -35t-7 -35q0 -17 3.5 -35t3.5 -35
q0 -9 -2.5 -20t-4.5 -20q2 -11 5.5 -22.5t5.5 -22.5q-4 -14 -5 -29t-1 -30q0 -9 6.5 -14.5t15.5 -8t18.5 -3.5t15.5 -1q34 0 67 7t66 7q12 0 29.5 -1t34.5 -5t29 -12.5t12 -24.5v-36q0 -19 5 -38t5 -39q0 -24 -12 -36t-30 -17t-38.5 -5.5t-37.5 -1.5z" />
    <glyph glyph-name="M" unicode="M" horiz-adv-x="950" 
d="M651 389q0 -13 -4.5 -27t-7.5 -27q-2 -8 -2.5 -15.5t-1.5 -15.5q-4 -40 -15 -78.5t-14 -79.5q-7 -5 -8.5 -18.5t-2.5 -30.5t-3 -35.5t-10.5 -33.5t-25.5 -25t-47 -10h-34q-17 0 -34.5 3t-32.5 10.5t-25 22.5q-7 10 -9.5 24t-4.5 26l-9 54q-6 37 -17 74t-16 74q-1 7 -1 14
q0 8 -2 15q-2 8 -6 17t-7 17q0 2 -4.5 20t-7.5 33t-4 17q-2 14 -2 29t-2 29t-10.5 29.5t-10.5 29.5q-1 10 -1 20t-1 20q-2 4 -4.5 8t-7.5 4t-10.5 -6t-5.5 -12q0 -13 2.5 -27t3.5 -27q2 -25 4 -50.5t2 -51.5q0 -19 -1 -37.5t-1 -38.5q0 -60 5 -118.5t13 -117.5
q2 -12 5.5 -23t3.5 -23q0 -17 -10 -27.5t-24.5 -16.5t-31 -8.5t-29.5 -2.5q-10 0 -28.5 1.5t-37.5 6t-34.5 11.5t-18.5 19q-1 2 -1 7v8q0 42 -0.5 84.5t1.5 84.5q1 14 3 27t2 27q0 30 -7 61t-7 61q0 14 3.5 28t3.5 28q0 11 -2 24t-4 24q-2 26 -3.5 52t-1.5 52q0 14 1 27.5
t1 27.5q0 24 1.5 51t7.5 50q2 7 9 13t16 10t18 6.5t16 2.5q20 0 53 -1t67.5 -3t66 -6t49.5 -11q13 -5 19 -23t8 -31q2 -16 1.5 -32.5t2.5 -32.5q3 -17 9.5 -34t11.5 -33q-3 -9 -3 -21v-22q14 -38 22 -74t14 -75q3 -19 4.5 -40.5t4.5 -43t8 -41.5t15 -37q7 0 12 10.5t8 24
t4.5 26.5t2.5 18q2 14 5.5 27t5.5 27q2 12 2.5 25t2.5 25q2 8 5.5 16.5t5.5 16.5q1 10 0.5 21.5t0 23t4.5 21t15 15.5q-2 8 -3 17t-1 17q0 32 11 64t20 62q4 12 5 25t6 25q10 23 30.5 32t43.5 9t43 0.5t43 3.5q14 -6 34 -6h40q21 0 39 -4t29 -17q5 -6 5.5 -15.5t0.5 -16.5
q0 -26 -2 -50.5t-2 -50.5v-17t2 -17q-3 -26 -5 -44.5t-3.5 -31.5t-2 -22t-0.5 -18q0 -7 1 -20t1 -27q0 -13 -0.5 -25t-3.5 -17q1 -8 4.5 -19t6.5 -19q-3 -18 -2.5 -31.5t2 -26t3.5 -24.5t2 -27q0 -12 -3.5 -24t-3.5 -24q0 -31 6.5 -61t6.5 -61q0 -20 -5.5 -32.5t-15.5 -20.5
t-23.5 -14t-29.5 -12q-27 0 -52 0.5t-44 8t-30 25.5t-11 52q0 20 4 40.5t5 40.5l9 252q2 36 3 71t6 71q1 1 1 4q0 2 -0.5 4.5t-0.5 4.5l-7 2v-2q-11 0 -17 -9t-8 -18q-2 -8 -1.5 -17t-0.5 -17q-2 -11 -4 -26.5t-5.5 -31t-9 -29.5t-12.5 -23z" />
    <glyph glyph-name="N" unicode="N" horiz-adv-x="796" 
d="M602 -8q-38 0 -60.5 11t-38 29t-29 41.5t-34.5 49.5q-5 28 -19 51.5t-28 47.5q-12 22 -22 45t-21 45q-5 9 -11 17.5t-11 18.5q-14 26 -25.5 53t-22.5 55v2q-4 0 -6.5 -5.5t-3.5 -12.5t-1 -14v-8q0 -17 4.5 -33t4.5 -33q0 -42 -1 -83.5t3 -82.5l6 -66t3 -66t-11.5 -45
t-27 -15t-33.5 -3q-17 0 -29 -8q-10 0 -25.5 0.5t-31 3t-29.5 7.5t-20 14q-4 5 -6 15.5t-3 22t-1.5 22.5t-0.5 17q-2 35 -3 70t-1 70q0 30 3 60t3 61q0 22 -4 44t-4 45q0 37 1.5 74.5t-0.5 74.5q-1 8 -2.5 16.5t-1.5 16.5q0 9 0.5 25t0.5 32q0 17 -1.5 31.5t-4.5 21.5
q-2 5 -4.5 11t-2.5 12q0 17 17 26t40 13t45.5 4.5t33.5 0.5q10 0 28 -1t37 -3.5t36 -7t25 -12.5t13 -18t9 -20.5l8 -21t10 -19.5q23 -35 43 -71t36 -74q4 -10 11 -19.5t12 -18.5q17 -29 34.5 -59.5t30.5 -60.5q5 -12 9.5 -27.5t8.5 -28.5v-2h11q0 41 -5 82t-9 82
q-5 49 -9 97.5t-4 97.5q0 32 2 51t11 29.5t27.5 14.5t51.5 6q7 0 18 1t22 2.5t21 4t16 6.5q31 -8 43 -24t13 -46v-150q0 -11 -3.5 -21.5t-3.5 -21.5q0 -14 2.5 -29t2.5 -29q0 -21 -3.5 -43t-3.5 -43q0 -17 0.5 -33.5t1.5 -33.5q0 -10 -2.5 -22.5l-4.5 -22.5q4 -13 6.5 -27
t2.5 -27q0 -21 -1 -41.5t-1 -41.5q0 -6 0.5 -23t0.5 -36v-34q0 -15 -1 -18q-6 -19 -23 -26t-33 -14h-18q-11 0 -23.5 -0.5t-23.5 -1.5t-16 -3z" />
    <glyph glyph-name="O" unicode="O" horiz-adv-x="866" 
d="M826 476q0 -56 -5.5 -116.5t-19.5 -114.5q-4 -16 -14.5 -35.5t-24 -39t-27.5 -37t-24 -30.5q-6 -8 -22 -21t-34 -26.5t-35 -24.5t-26 -14t-22 -7.5t-26 -8.5t-25.5 -7.5t-21.5 -5.5q-6 -2 -14.5 -3t-14.5 -1h-76q-9 0 -29.5 4.5t-44 11t-44.5 13.5t-31 11
q-27 11 -57.5 36t-57.5 56.5t-46.5 65.5t-25.5 63q-2 6 -5 21t-6 31.5t-5 30.5t-2 18q0 17 2.5 32.5t2.5 32.5q0 64 10.5 115.5t36.5 109.5q2 4 9.5 13t16 19t17 19t11.5 12q25 26 51.5 50t56.5 42t63 28.5t71 10.5q7 0 26.5 -1t41 -3t40 -4t24.5 -4q14 -5 27 -10t27 -10
q16 -5 32.5 -7.5t32.5 -10.5q3 -1 8.5 -5.5t12.5 -10t13 -11t9 -7.5q14 -11 31.5 -26.5t33.5 -33t29 -36.5t18 -36q5 -18 8 -38t8 -39q1 -4 3.5 -13.5t5.5 -19t5 -18t2 -10.5zM592 467q-9 18 -15.5 36t-14.5 36q-7 18 -21 33.5t-31 26.5t-37 17.5t-39 6.5q-12 0 -26.5 -4
t-25.5 -8q-32 -12 -54.5 -31.5t-37.5 -44.5t-22 -55t-7 -62q0 -38 10.5 -76.5t32 -69.5t53.5 -50.5t75 -19.5q15 0 29.5 6t28.5 12q21 10 32.5 15t18 11.5t12 17.5t14.5 32q4 8 9 15t9 15q1 3 2 22.5t2 43t1.5 45t1.5 30.5z" />
    <glyph glyph-name="P" unicode="P" horiz-adv-x="779" 
d="M739 551q0 -45 -6.5 -83t-22 -70.5t-41.5 -60t-65 -51.5q-8 -5 -16 -9.5t-18 -8.5q-27 0 -53 -9t-52 -9q-33 0 -65.5 6.5t-65.5 6.5q-20 0 -34.5 -6.5t-14.5 -29.5q0 -27 2 -54t2 -54q0 -8 -0.5 -22t-2 -28.5t-4.5 -27.5t-9 -19q-13 -2 -25 -7.5t-24 -10.5q-25 0 -49 -2
t-48 -2q-32 0 -52 12.5t-20 48.5q0 38 2 76.5t2 76.5q0 10 -2 20t-2 20q0 73 3.5 145.5t3.5 145.5q0 9 -4.5 18t-4.5 17q0 17 2 33t2 33q0 21 -3.5 42.5t-3.5 42.5q0 25 8.5 45.5t32.5 31.5q21 2 43 -0.5t42 -2.5q26 0 51 1.5t51 1.5q21 0 42.5 -3.5t42.5 -3.5
q20 0 41.5 3.5t41.5 3.5q13 0 35 -3t46 -8t46 -10.5t35 -10.5q39 -14 64.5 -36.5t40 -52t20.5 -64t6 -72.5zM280 625q-3 -8 -5 -27.5t-3 -42t-1 -43.5v-31q0 -23 11 -37t35 -14q17 0 34.5 3.5t34.5 5.5q9 1 24 1q16 0 32 2t30 6t19 13q10 17 17.5 40t7.5 43q0 21 -12.5 42
t-36.5 24q-48 7 -93.5 11t-93.5 4z" />
    <glyph glyph-name="Q" unicode="Q" horiz-adv-x="889" 
d="M859 94q0 -18 -5 -43t-15.5 -48t-27 -39t-38.5 -16t-41 8t-39 17q-16 16 -35 29t-39 25l-4 1q-8 0 -21 -3.5t-27 -9t-26.5 -11t-18.5 -9.5q-17 -2 -32.5 -2.5t-32.5 -1.5q-12 -1 -29 -5t-25 -4q-76 0 -141 30.5t-120 81.5q-20 19 -38.5 40.5t-29.5 47.5t-13 51t-9 50
q0 1 -2 7t-4.5 12t-4 11.5l-1.5 5.5v86q0 21 2 51t7.5 61.5t14 60t21.5 45.5q14 18 36 43.5t47 50.5t51 44.5t49 25.5q3 1 17.5 5t31.5 9t31 9l14 4q63 0 127 -8.5t125 -22.5q4 -1 12.5 -7.5t18 -14.5t17.5 -15t11 -10q62 -55 97 -121t40 -149q1 -16 1.5 -32t4.5 -31
q-4 -39 -10 -72t-12 -68q-14 -19 -24 -41t-19 -44q0 -22 17 -29.5t37 -12.5t37 -12.5t17 -29.5zM416 616q-8 0 -23 -5t-31 -12.5t-29.5 -15.5t-19.5 -14q-33 -35 -47 -80t-14 -93q0 -29 4 -56t14.5 -51t28 -44.5t43.5 -35.5q14 -8 31.5 -16.5t33.5 -8.5q15 0 35 2.5
t39.5 8.5t36 16t24.5 25q23 41 35 88t12 94q0 39 -11 75t-33 63t-54.5 43.5t-74.5 16.5zM817 405q0 -1 -0.5 -1.5l-0.5 -0.5q3 0 1 2z" />
    <glyph glyph-name="R" unicode="R" horiz-adv-x="776" 
d="M736 55q0 -21 -12.5 -31t-30 -14t-37 -4.5t-33.5 -0.5l-26 -1q-21 0 -50 3t-48 14q-4 2 -8 9.5t-7.5 16t-6.5 16.5t-5 12q-10 22 -21.5 41.5t-25.5 39.5q0 1 -2 6t-4 11t-3.5 11.5t-2.5 7.5q-4 9 -9.5 17t-8.5 17q-3 10 -4.5 20t-6.5 20q-5 8 -13.5 13.5t-17.5 5.5
q-8 0 -14 -3q-17 0 -31 0.5t-24 -2.5t-15 -12.5t-5 -30.5q0 -25 5 -48.5t5 -47.5q0 -9 -1 -18.5t-1 -18.5q0 -14 2.5 -29.5t2.5 -30.5q0 -10 -1.5 -15.5t-4.5 -9.5t-8.5 -7t-13.5 -7q-15 -8 -26.5 -11t-22.5 -4.5t-23.5 -1t-28.5 0.5q-27 0 -45.5 3t-30 12t-17 26t-5.5 45
q0 18 1.5 36t1.5 36q0 10 -1.5 19.5t-1.5 20.5q0 51 3.5 100t3.5 100q0 14 -1 27t0 26q1 11 2.5 22.5t1.5 22.5q0 14 -3.5 28t-3.5 28q0 11 3.5 21.5t3.5 21.5q0 17 -3.5 36t-5.5 36q-2 14 2.5 30t4.5 30q0 11 -2 20.5t-2 20.5q0 14 5 25.5t22 11.5q5 0 8.5 -1t8.5 -2
q10 -2 23.5 -2.5t27.5 -0.5h29h26q29 -2 58.5 -5.5t58.5 -3.5q15 0 30.5 3.5t31.5 3.5q20 0 39 -3.5t39 -3.5q11 0 23.5 2.5t23.5 2.5q18 0 38 -6t40.5 -15.5t38.5 -21t31 -22.5q42 -37 57 -90t15 -107q0 -60 -24.5 -102.5t-74.5 -74.5q-8 -5 -17.5 -9t-18.5 -9
q-6 -4 -6 -13q0 -19 15 -34q24 -25 38 -47.5t32 -51.5q6 -11 17 -28t21.5 -35t18 -35t7.5 -28zM290 620q-5 -4 -16 -14t-11 -18q0 -17 1 -32.5t1 -31.5v-21q0 -13 1.5 -27t5 -26t11.5 -16q5 -3 11 -2.5t11 -0.5q3 0 6 -0.5t7 -0.5q24 0 47 9t46 12q14 2 28 3t28 1
q20 8 31.5 31.5t11.5 43.5q0 5 -2 15q-9 33 -34.5 49t-57.5 21.5t-66 5t-60 -0.5z" />
    <glyph glyph-name="S" unicode="S" horiz-adv-x="778" 
d="M723 654q0 -14 -16 -33t-37.5 -36t-44.5 -29t-37 -12q-7 0 -32 12.5l-56 28t-62 28t-50 12.5q-13 0 -29.5 -2.5t-31 -8.5t-24.5 -17t-10 -27q0 -13 6 -22.5t16 -16t21.5 -10.5t22.5 -6q23 -4 47 -5.5t47 -3.5q17 -2 38 -4.5t43 -7t42 -9.5t35 -11q18 -7 38.5 -21.5
t38.5 -33t30.5 -39.5t15.5 -41q2 -14 3 -27.5t1 -27.5q0 -47 -13.5 -90.5t-39 -80t-62 -63.5t-82.5 -39q-14 -4 -26 -3.5t-26 -7.5q-10 0 -19 -2t-17 -7h-18h-28t-27.5 -1t-16.5 -2q-22 2 -54.5 4.5t-66 7.5t-63 14t-45.5 24q-17 14 -32 31t-31 32l-11 11t-13.5 15.5
t-11.5 17t-5 14.5q0 8 2.5 13.5t6.5 11.5q5 7 26.5 22t46.5 31t47 28t29 12q14 0 30.5 -14t40 -31t54.5 -31t74 -14q13 0 34 1.5t41 7t36 15t20 25.5q2 11 3 22.5t2 22.5h-5q-37 14 -83 20t-92 10.5t-87.5 10.5t-70.5 20q-6 3 -15.5 10.5t-19.5 16.5t-18.5 17.5l-13.5 13.5
q-27 27 -36.5 63.5t-9.5 73.5q0 60 17 120q2 9 19.5 28.5t39 41t42 39.5t29.5 23q7 4 17.5 4.5t18.5 2.5q11 3 27.5 8.5t34 11t33.5 9t27 3.5q41 0 82.5 -7.5t81.5 -15.5q12 -8 25 -16.5t27 -14.5q19 -8 41.5 -18.5t42 -24.5t33 -33t13.5 -44z" />
    <glyph glyph-name="T" unicode="T" horiz-adv-x="651" 
d="M423 610l9 -48l-9 -54q4 -13 5.5 -46.5t2 -71t0 -71.5t-0.5 -49q0 -16 -2.5 -32.5t-4.5 -32.5q-1 -11 0.5 -26t4 -31l5 -32t2.5 -29q0 -35 -16 -53t-50 -25v-5q-26 0 -52 -3t-52 -3q-27 0 -42.5 19t-15.5 45q0 16 1 32.5t1 33.5q-1 11 -2.5 23.5t-1.5 23.5q0 16 4.5 33
t4.5 33q0 18 -2.5 38t-4.5 38q-2 15 2.5 32t4.5 33q0 14 -2.5 29.5t-4.5 29.5q-2 11 0 34t5 48.5t6 48.5t5 35q-16 0 -28.5 -4t-24.5 -8.5t-24.5 -8t-28.5 -3.5t-33 2.5t-31.5 10t-23.5 20t-9 32.5v47q0 31 3.5 49t13.5 29t26.5 17.5t42.5 14.5q13 -2 33.5 -5t42 -5.5
t41.5 -4t33 -0.5q15 2 31.5 4t31.5 2q23 0 47.5 -4.5t47.5 -4.5q35 0 69 2.5t69 2.5q22 0 37 -1t24 -7.5t12.5 -20.5t3.5 -39v-12t-1 -12q2 -9 2 -20v-20q0 -15 -11.5 -29t-22.5 -24q-31 0 -62 7t-62 7q-25 0 -49 -11z" />
    <glyph glyph-name="U" unicode="U" horiz-adv-x="767" 
d="M712 245q0 -7 -2.5 -19.5t-6 -26.5t-7.5 -26.5t-7 -19.5q-9 -19 -26 -37.5t-32 -32.5q-6 -6 -14.5 -13.5t-18.5 -15.5t-19.5 -14t-17.5 -9q-28 -9 -54.5 -18t-53.5 -20q-24 0 -57.5 1t-69 4t-68 10t-53.5 19q-25 14 -47.5 36t-42.5 43q-16 17 -29.5 37t-24.5 41v38
q0 19 -2 39q-1 2 -2.5 11t-2.5 19.5t-1.5 19.5t-0.5 11q0 23 3 47t3 48q0 17 -1.5 33.5t-1.5 33.5q0 28 1.5 55.5t1.5 55.5q0 41 -3.5 80.5t-4.5 80.5q7 19 23.5 28t37 11.5t41.5 1.5t38 -1h36t29.5 -5t19.5 -17.5t7 -37.5q0 -20 -4.5 -40.5t-6.5 -40.5t-2 -41v-41
q0 -25 1 -49.5t1 -49.5q0 -23 -4 -46.5t-4 -46.5q0 -16 2.5 -34.5t7.5 -33.5q-2 -12 0 -27t4 -27q13 -17 24.5 -32.5t25.5 -27t31 -18.5t41 -7q34 0 54.5 16t31 40.5t14 54t3.5 56.5v26q0 14 -2 27q-2 11 -4.5 22.5t-2.5 22.5q0 23 1.5 47t1.5 47q0 1 -1 5.5t-2 10t-2.5 10
t-1.5 6.5q3 19 3 38q0 26 -2 50.5t-2 49.5q0 43 7 61.5t22 25t38 8t55 12.5q13 0 31 -1.5t35 -6.5t29 -15t12 -28q0 -11 -3 -21.5t-3 -21.5q0 -4 1 -5q0 -17 2 -32.5t2 -32.5q0 -14 -5.5 -28.5t-5.5 -28.5q0 -12 2 -24.5t2 -24.5q0 -26 -2 -52l-4 -52q-2 -23 3.5 -53.5
t5.5 -55.5q0 -13 -1.5 -25.5t-1.5 -24.5q0 -8 1.5 -16t1.5 -16z" />
    <glyph glyph-name="V" unicode="V" horiz-adv-x="743" 
d="M733 756q-13 -23 -23 -54t-18 -56q-4 -13 -5 -26t-6 -26q-6 -17 -13 -34.5t-12 -35.5q-4 -12 -5 -23.5t-6 -23.5q-9 -20 -19 -41t-17 -42q-7 -19 -11 -40t-9 -41q-2 -6 -7.5 -19t-13 -28t-14.5 -30t-10 -25q-4 -12 -6 -25t-5 -26t-8 -31t-10.5 -37t-11.5 -36t-11 -27
q-5 -11 -19.5 -23.5t-27.5 -12.5q-20 0 -46 0.5t-44 -9.5q-29 0 -62 7t-53 31q-1 27 -14 67.5t-30 84.5t-33.5 84.5t-23.5 67.5q-2 8 -3.5 16t-3.5 16q-6 19 -13 37t-14 37q-10 28 -15 55.5t-19 59.5q-5 11 -15 39t-20.5 59t-18 58t-7.5 36q0 17 11 27.5t26.5 16.5t32.5 8
t29 2h14q7 0 14 -1q25 -2 46 -2.5t36.5 -6.5t26 -21.5t14.5 -46.5q2 -16 2 -33q0 -16 3 -32q2 -14 8.5 -32.5t13.5 -38.5l14 -40t11 -35q5 -17 5 -36t4 -36q5 -25 14.5 -49t14.5 -50q4 -22 8.5 -41t12.5 -40q6 0 10 4t6.5 10t3.5 12t2 10q8 37 16 73.5t15 74.5
q5 23 8.5 48.5t10.5 48.5q6 21 10.5 41t9.5 42t14 43.5t13 44.5q3 15 4.5 29.5t6.5 29.5q16 7 31 16t30 17l61 -6q14 -2 29 1.5t29 3.5q19 0 34.5 -8.5t17.5 -30.5z" />
    <glyph glyph-name="W" unicode="W" horiz-adv-x="1059" 
d="M1049 738q0 -2 -3.5 -14t-9 -29t-12 -36.5t-12 -37.5t-10 -31.5t-5.5 -18.5q-4 -16 -5.5 -33t-5.5 -34q-11 -45 -20.5 -90t-22.5 -90q-2 -9 -7 -17.5t-8 -16.5q0 -7 -0.5 -20t-2.5 -18q-5 -11 -9 -21.5t-9 -21.5q-7 -18 -11.5 -42t-8 -50l-7 -52t-9.5 -47l-47 -34
q-19 0 -37.5 -0.5t-38.5 -0.5q-29 0 -56 5t-48 28q-5 5 -13.5 40t-19 85t-21.5 107.5t-20 107.5t-14.5 86t-5.5 42q0 8 2 18t4 18h-4v4h-9q-6 -6 -12 -16t-8 -18q-4 -12 -5.5 -26t-4.5 -27q-6 -30 -14 -59.5t-17 -58.5q3 -19 0.5 -35t-7.5 -32t-10.5 -31.5t-9.5 -33.5
q-5 -23 -6.5 -46.5t-4.5 -46.5q-3 -22 -6 -38t-9.5 -28t-19.5 -20t-35 -13l-45 -11q-15 0 -33 -0.5t-36 2.5t-33.5 10t-25.5 22q-1 1 -4 9.5t-6 18t-6 18.5l-4 12q-6 17 -13 33t-12 33q-6 23 -7 48.5t-9 47.5q-6 15 -13 31t-12 32q-5 17 -5.5 36t-5.5 36q-3 13 -9 27t-11 27
q-5 12 -3.5 27t-3.5 27q-3 8 -6.5 16t-6.5 16q-6 16 -8 37.5t-4 38.5q-4 6 -11 27.5t-14 46.5t-12 47.5t-5 30.5q0 5 2 13q7 23 25.5 31t39.5 13q5 2 10.5 3.5t9.5 1.5h39t42.5 -3.5t37.5 -14t23 -31.5q-3 -18 -1 -33t6 -30l8 -30t5 -31q1 -13 1 -25t1 -25q0 -8 4 -17.5
t5 -18.5q2 -14 2 -29q0 -14 3 -27q4 -17 10 -33.5t10 -33.5q5 -24 6.5 -48.5t7.5 -48.5q-1 -5 -1.5 -16t1 -22.5t5.5 -20.5t10 -9h4q2 0 5.5 5t4.5 7q2 23 5.5 46t7.5 46q9 53 18.5 105.5t20.5 105.5q5 26 11.5 53t10.5 53q3 22 5 43.5t9 42.5q3 9 11.5 19t19.5 10t37.5 0.5
t55 -1.5t53 -7t32.5 -15q11 -14 15.5 -32t6.5 -35q5 -37 11 -73.5t14 -72.5q3 -13 8.5 -25.5t7.5 -26.5l9 -90q1 -11 5 -25.5t8.5 -30.5l9 -32t6.5 -29q1 -11 5.5 -26t19.5 -15h4l7 9q-4 30 -1 61.5t8 62.5t10.5 61t5.5 58v39q0 20 8.5 41.5t9.5 41.5q0 11 1.5 30.5t4 40.5
t6 40t8.5 28t19 14.5t30.5 8t32 3.5t24.5 1q15 0 34 -1.5t36.5 -7.5t29.5 -17.5t12 -31.5z" />
    <glyph glyph-name="X" unicode="X" horiz-adv-x="821" 
d="M672 -11q-17 0 -33 -1t-33 -3l5 -1q-30 3 -49 27q-3 4 -9 15t-13.5 23.5t-14.5 25t-11 19.5q-29 45 -47 88.5t-40 91.5q-3 3 -9 3q-10 0 -15.5 -11l-9.5 -19q-6 -13 -14.5 -24.5t-14.5 -24.5q-10 -21 -23 -49.5t-28 -57t-32.5 -53.5t-36.5 -40q-3 -2 -11 -3.5t-17 -2.5
t-17.5 -1.5t-12.5 -0.5q-17 0 -34 2.5t-34 2.5q-8 0 -20.5 0.5t-25.5 2t-25 4t-19 5.5q-8 4 -13 13.5t-5 17.5q0 19 10.5 37.5t25.5 35.5t30 33.5t24 30.5q14 21 26.5 42t23.5 44q21 16 34 36l26 40t28.5 39t41.5 33q0 3 -9 15.5t-20.5 26.5t-21.5 26.5t-12 15.5
q-32 39 -60 80.5t-57 83.5q-14 19 -30.5 36.5t-27.5 37.5q-2 4 -3 9t-1 9q0 12 7 21t17.5 14.5t22.5 8.5t22 3q29 0 58.5 -3.5t58.5 -7.5q9 -1 23.5 -4t29 -7.5t26.5 -11t18 -15.5q4 -7 9.5 -18t11 -23t10.5 -23t9 -19q12 -27 25 -54.5t27 -53.5q9 -5 23 -5q0 14 5 29.5
t12 30.5t14.5 29t13.5 26q3 7 5 16t5 17q6 17 13 33t15 33q7 6 22 10t31.5 5.5t32 2t24.5 0.5q11 0 34 -0.5t46.5 -4t41 -13t17.5 -27.5q0 -5 -1 -9t-3 -9q-12 -12 -20 -21t-14.5 -18.5t-13 -20.5t-15.5 -26q-13 -22 -30.5 -41.5t-32.5 -39.5q-6 -8 -10 -19t-10 -19l-77 -90
q22 -34 47 -65.5t48 -64.5q33 -49 67 -103.5t72 -99.5q9 -11 18.5 -21t15.5 -24q2 -3 2 -7v-7q0 -15 -8 -27t-19 -20q-17 -1 -32.5 -1.5t-32.5 -0.5q-11 0 -23.5 2.5t-23.5 2.5z" />
    <glyph glyph-name="Y" unicode="Y" horiz-adv-x="777" 
d="M767 737q0 -9 -5 -16.5t-10 -13.5q-33 -39 -65 -78.5t-63 -81.5q-19 -25 -33.5 -53t-33.5 -53q-12 -17 -27.5 -34t-29.5 -35q-1 -2 -2.5 -19.5t-3 -37.5t-2.5 -38t-1 -22q0 -13 3.5 -25t3.5 -25q0 -21 -0.5 -41.5t-1.5 -41.5q-1 -14 4 -28t5 -29q0 -25 -12.5 -38
t-30.5 -19t-39.5 -6.5t-39.5 -0.5q-20 0 -40.5 2t-36.5 9t-26 21.5t-10 40.5q0 20 4 41t4 42q0 16 -2.5 31t-2.5 31q0 17 2 35t2 36v38t-2 39q0 4 -10.5 17.5t-23 28.5t-24.5 29t-16 20q-14 23 -27 42.5t-29 40.5q-11 14 -19 31.5t-19 31.5q-22 29 -49 56.5t-44 60.5
q-2 4 -3 11.5t-1 12.5q0 22 12.5 32t28.5 13t30.5 2.5t18.5 2.5q6 0 25 -1.5t40.5 -3.5t40.5 -4.5t24 -3.5q9 -3 23.5 -20t30.5 -41t33 -53t32.5 -56.5t28 -50t19.5 -34.5v-4h9q0 3 2 7q14 27 22 55t21 55q2 5 11.5 15.5t13.5 15.5q6 21 16 40.5t24.5 34.5t33.5 24t43 9
q7 0 28.5 -1t44.5 -3t42 -4.5t22 -4.5q12 -2 24.5 -11t12.5 -22z" />
    <glyph glyph-name="Z" unicode="Z" horiz-adv-x="716" 
d="M503 -18q-27 0 -54 6t-54 6q-14 0 -26 -3.5t-25 -4.5q-9 0 -18 0.5t-18 -0.5q-10 -1 -20.5 -2.5t-20.5 -1.5q-23 0 -47 5.5t-48 5.5q-23 0 -40 -7q-66 0 -89 30.5t-23 91.5q0 14 2.5 33t8.5 32q2 5 10.5 15t19 20.5l20 20t13.5 14.5q9 10 17 23.5t19 21.5q8 7 17 13.5
t17 13.5t15.5 16t14.5 17q23 25 45.5 50.5t45.5 49.5q14 14 31 27t32 27q12 11 22.5 23.5t24.5 23.5q10 8 23.5 14.5t24.5 12.5h2v7h-2q0 5 -8 5q-11 0 -26.5 -1t-26.5 -7h-18t-22.5 -1t-22 -2.5t-16.5 -5.5h-205q-11 0 -22.5 12t-15.5 22q-2 7 -2.5 19.5t-0.5 20.5v28
q0 15 1 29q1 22 3.5 34.5t9 20.5t18.5 13t32 13q34 0 67.5 -9t67.5 -9h52q19 0 38 -3.5t38 -3.5q15 0 30.5 1t30.5 1q37 1 74 -5t74 -6q6 0 12.5 1.5t12.5 1.5q16 0 31.5 -2.5t31.5 -4.5l5 -7q7 -10 7 -25q0 -12 -2.5 -23.5t-2.5 -23.5q0 -31 -1 -60t-17 -57q-8 -15 -20 -26
t-25.5 -21.5t-27 -20.5t-24.5 -22q-32 -35 -63 -72t-64 -72.5t-69 -67.5t-76 -58v-11q34 -10 66 -11.5t67 -1.5q43 0 85 2t85 4q11 -1 27 -3t30.5 -7t24.5 -14t10 -23q0 -11 -4.5 -21.5t-4.5 -21.5q0 -29 -3.5 -57t-27.5 -49q-30 0 -60 6.5t-60 6.5q-8 0 -16.5 -1t-16.5 -5z
" />
    <glyph glyph-name="backslash" unicode="\" horiz-adv-x="545" 
d="M347 -127q13 -14 26.5 -19.5t26.5 -5.5q14 0 28.5 4.5t31.5 10.5q12 4 27.5 10t29 14.5t23 20t9.5 27.5q3 2 -0.5 10.5t-3.5 10.5q-12 35 -21 70t-23 70q-7 17 -17.5 33.5t-17.5 33.5q-1 2 -4.5 13.5t-9 28t-12 35t-12 34.5t-9 27.5t-4.5 13.5q-8 21 -19 41t-19 41
q-8 20 -13.5 41.5t-13.5 41.5q-3 7 -9.5 24.5t-15.5 41t-19.5 49t-19.5 49t-16 41t-9 24.5q-16 43 -28.5 86.5t-29.5 86.5q-8 20 -26 30.5t-38 2.5t-38.5 -13.5t-38.5 -10.5q-15 -12 -30.5 -20.5t-26.5 -18.5t-14 -24.5t6 -38.5q11 -30 29 -58t29 -57q6 -17 9.5 -38.5
t11.5 -40.5q1 -3 6.5 -16.5t13.5 -33t17 -41t16.5 -41t13.5 -33t7 -16.5q4 -11 7 -22.5t8 -22.5q10 -28 21.5 -52.5t28.5 -48.5q1 -5 5 -20t10 -34.5t12.5 -41t13 -40.5t11 -33.5t6.5 -19.5q8 -22 18.5 -43t18.5 -43q5 -11 9.5 -22.5t7.5 -23.5q5 -17 8 -34.5t9 -33.5
q1 -2 1.5 -3.5t1.5 -2.5z" />
    <glyph glyph-name="grave" unicode="`" horiz-adv-x="598" 
d="M448 920q13 10 15.5 22t-1.5 24.5t-12.5 25t-15.5 22.5q-9 14 -20.5 27.5t-22.5 26.5v1q-8 11 -14.5 22t-13.5 22q-2 8 -6.5 14t-10.5 11q-24 27 -45 40t-40.5 10.5t-40 -20.5t-44.5 -52q37 -60 60 -95t36 -54.5t19.5 -28t12.5 -16.5q5 -7 13 -17.5t18 -19t20.5 -12
t19.5 3.5l22 15q11 8 25 13.5t26 14.5z" />
    <glyph glyph-name="a" unicode="a" 
d="M627 0q-29 0 -48.5 10t-31 27t-16.5 40t-5 49h-5q0 5 -5 5q-4 0 -8 -1.5t-7 -3.5q-6 0 -33.5 0.5t-59.5 0.5q-31 0 -60 -1t-38 -4q-20 -6 -29.5 -18t-14.5 -27t-8 -31t-10 -29t-21.5 -21.5t-41.5 -8.5q-14 0 -27 1t-27 1q-9 0 -18 -2t-17 -2q-14 0 -29.5 2t-28 8
t-20.5 17t-8 29t5.5 34.5t13.5 32.5t16.5 31.5t14.5 31.5q2 6 2.5 13.5t2.5 14.5q5 22 10 47.5t14 46.5q11 25 21.5 49.5t21.5 49.5q5 11 5 25q0 15 4 27q5 15 15 30t14 30q3 11 5 24t5.5 25.5t8.5 24.5t13 21q4 25 14 48t24 44q3 18 8 36t15 33t24.5 25t35.5 12
q23 3 36.5 5.5t25.5 2.5q19 0 44.5 -4.5t49.5 -14.5t42.5 -25.5t24.5 -37.5q12 -48 27 -93t22 -96q7 -11 17 -30t20.5 -40t19 -40t11.5 -30t5.5 -21.5t5.5 -21.5t12.5 -24.5t14.5 -24.5q4 -10 6.5 -22l5 -24t5.5 -23.5t8 -20.5t15 -28.5t20.5 -41.5t18 -42.5t7.5 -31.5
q0 -12 -7 -21t-17.5 -16.5t-22 -13t-19.5 -10.5q-5 0 -18.5 -1t-29 -1.5t-29 -2t-17.5 -2.5zM393 556q-6 -20 -10 -38t-8 -38t-11 -40.5t-14 -40.5t-12.5 -40.5t-5.5 -41.5q0 -8 6 -12.5t14 -6.5t16.5 -2.5t14.5 -0.5q8 0 20 0.5t25 2.5t24 5.5t17 9.5q1 0 1 1v1
q0 3 -2.5 8.5t-4.5 7.5q-9 20 -14.5 43t-10.5 45q-3 13 -9.5 25t-8.5 24l-14 77q-1 3 -5.5 6.5t-7.5 4.5z" />
    <glyph glyph-name="b" unicode="b" horiz-adv-x="771" 
d="M736 212q0 -21 -9 -46t-23 -48t-32.5 -42t-36.5 -29q-6 -3 -13.5 -5.5t-14.5 -4.5q-14 -6 -28.5 -12.5t-28.5 -13.5q-15 0 -31 -2t-30 -9q-26 1 -50.5 1.5t-50.5 0.5q-18 0 -36 -1t-36 -1q-11 0 -20.5 1t-19.5 1t-17 -3q-10 2 -20 2.5t-20 2.5q-17 -5 -34 -7.5t-35 -2.5
q-54 0 -74 25.5t-20 76.5q0 25 4 50.5t4 50.5q0 49 -2.5 97.5t-2.5 97.5q0 21 3.5 43.5t1.5 43.5q-4 36 -4.5 71t-0.5 71q0 26 -4.5 52t-4.5 52v13q0 7 2 14q4 4 5 6q9 15 30.5 21t46 8t49 1.5t40.5 -0.5l57 2q14 1 29 -2t29 -3q13 0 26.5 3.5t27.5 3.5q27 0 54 -2.5
t54 -4.5q61 -5 103.5 -24.5t74.5 -74.5q3 -5 8 -13.5t10 -18.5t9 -19t4 -14q0 -6 -2 -20.5t-6 -19.5q0 -7 1.5 -13.5t1.5 -14.5q0 -30 -10 -51t-27 -36t-39.5 -26t-46.5 -21q-2 -1 -3 -4t-1 -5h4q3 -4 8 -4q8 0 15.5 1.5t15.5 1.5t13 -2q35 -13 55.5 -32.5t31 -44.5
t13.5 -54.5t3 -63.5zM293 324q-6 -6 -8.5 -13.5t-4.5 -15.5q-2 -1 -2.5 -7.5t-0.5 -14.5v-14v-9q0 -16 1 -29t6 -22t15 -14t28 -5q12 0 24.5 2.5t24.5 4.5q23 4 48 6t45.5 8t33.5 20t13 43q0 27 -12.5 39.5t-31 16t-41 2t-41.5 -1.5q-24 0 -48.5 2t-48.5 2zM289 610
q-8 -17 -14.5 -36t-6.5 -38q0 -26 13.5 -40t39.5 -14q18 0 35 5.5t34 7.5q16 1 33.5 2.5t31.5 7t23 17t9 34.5q0 21 -16.5 31t-39 14t-46 3.5t-36.5 0.5l-30 2t-30 3z" />
    <glyph glyph-name="c" unicode="c" horiz-adv-x="748" 
d="M516 -6q-27 2 -52 -5t-45 -7q-77 0 -149.5 23.5t-126.5 82.5l-50 54q-5 16 -13.5 34t-17.5 37t-15.5 37.5t-6.5 34.5q0 35 3 70.5t3 70.5v46t2 46q3 28 14.5 58.5t28.5 59t37.5 54t41.5 42.5q22 18 56 37t61 30q1 1 12.5 3.5t25.5 5.5t25.5 5t12.5 2q37 0 76.5 -4.5
t78 -15.5t73.5 -29t62 -46q8 -9 16 -19t16 -19q12 -14 26 -33.5t14 -39.5q0 -5 -6 -14t-14 -19t-16 -18.5t-11 -12.5q-11 -6 -21 -14t-20 -15t-21.5 -11.5t-25.5 -4.5q-13 0 -24 6.5t-20 16.5t-17 21t-15 19q-8 9 -19 17t-23.5 15t-25.5 11t-25 4q-20 0 -36.5 -8.5
t-32.5 -18.5q-11 -8 -23.5 -14.5t-23.5 -14.5q-15 -11 -25.5 -29t-16.5 -39t-8.5 -42.5t-2.5 -39.5q0 -51 21.5 -100.5t51.5 -89.5q44 -29 97 -29q43 0 66.5 17t39 38t29 38t36.5 17q14 0 37 -8.5t44.5 -22t37.5 -30.5t16 -33q0 -25 -25 -57t-59 -62.5t-70 -54.5t-58 -33z
" />
    <glyph glyph-name="d" unicode="d" horiz-adv-x="790" 
d="M738 278q-11 -26 -20 -52t-19 -52q-3 -9 -14 -23t-23.5 -28.5t-25.5 -27.5l-20 -20q-8 -8 -28 -17.5t-43 -18t-44.5 -14.5t-32.5 -6q-30 0 -58 -5.5t-57 -7.5q-16 -2 -31 -0.5t-30 -2.5q-56 -12 -117 -12q-16 0 -37 2t-39.5 9t-31.5 20t-13 36q0 8 2 16.5t2 16.5t-2 15.5
t-2 15.5q0 26 1 52.5t1 52.5q0 60 -1.5 120.5t-3.5 120.5v8q-1 28 2 55.5t3 55.5q0 29 -3 56.5t-3 56.5q0 20 1 33.5t6 24t14.5 19.5t27.5 20q58 -6 116.5 -9t117.5 -5h4q20 -1 40.5 3t40.5 4q25 0 47.5 -5t44.5 -13t43.5 -17.5t44.5 -18.5q25 -24 44 -43t34.5 -38.5t30 -43
t31.5 -55.5q5 -42 8.5 -83.5t3.5 -83.5q0 -28 -5.5 -55.5t-6.5 -55.5zM285 601q-4 -8 -4.5 -17.5t-0.5 -17.5q0 -5 0.5 -10.5t0.5 -10.5q-1 -60 -3 -120.5t-4 -121.5l-1 -55l-1 -14v-3q0 -22 16.5 -29.5t35.5 -7.5q56 0 95.5 10t64 34t36 63t11.5 97q0 12 -2 32t-6 41
t-10.5 39.5t-15.5 27.5q-19 18 -45 30t-54.5 19.5t-58 10.5t-54.5 3z" />
    <glyph glyph-name="e" unicode="e" horiz-adv-x="710" 
d="M620 3h-81q-21 0 -42.5 2.5t-43.5 2.5q-11 0 -32 0.5t-43 -0.5t-41.5 -3t-27.5 -7q-20 0 -42.5 1t-42.5 -3t-42 -6.5t-42 -2.5q-48 0 -69 28t-21 73q0 36 7 71.5t7 70.5q0 10 -2 20t-3 20q-1 15 0 30.5t0 30.5q0 8 -2 16t-2 16q0 26 3.5 51.5t3.5 51.5q0 11 -1.5 21.5
t-1.5 21.5q0 26 2.5 53t2.5 53q0 34 -3 67.5t-3 67.5q0 9 7 16.5t16.5 12.5t20 9t18.5 7q8 0 17 0.5t17 0.5q27 0 53 -4t52 -9l7 1l33 1q69 3 138 3q10 0 20 -1.5t20 -3.5q-1 0 3 0.5t6 1.5l13 1l49 6q5 1 10 1h11q11 0 23 -2t23 -8q4 -3 8 -20t6.5 -38t4 -40t1.5 -25
q0 -34 -18.5 -48.5t-50.5 -14.5q-29 0 -56.5 5t-56.5 5t-58.5 2.5t-58.5 2.5q-17 0 -35.5 -4.5t-29.5 -19.5q-3 0 -3 -3q0 -1 1 -2q1 -10 1 -25t2.5 -29t9.5 -24t23 -10q22 0 43.5 4.5t43.5 4.5t43 -1.5t43 -0.5q20 1 39.5 3.5t39.5 2.5q26 0 41.5 -10.5t15.5 -38.5
q0 -4 -0.5 -7.5t-0.5 -7.5q-1 -17 -1 -38q0 -20 -4.5 -37.5t-16.5 -29.5t-37 -12q-32 0 -64 -1.5t-64 -1.5q-15 0 -39.5 8.5t-47.5 8.5q-8 0 -15 -1t-15 -4q-19 0 -28 -5.5t-12.5 -15t-3 -23t0.5 -28.5v-27t3.5 -25t12 -18.5t25.5 -7.5q21 0 44 4t46 6q37 2 73 2.5t73 2.5
q17 1 33.5 2.5t33.5 1.5q26 0 43 -10t17 -39q0 -11 -2.5 -20.5t-2.5 -20.5q0 -14 2 -27t2 -27q0 -20 -13.5 -39t-35.5 -19z" />
    <glyph glyph-name="f" unicode="f" horiz-adv-x="700" 
d="M664 706q0 -27 -3 -48.5t-12 -47.5q-5 -6 -25 -8.5t-43.5 -4t-45.5 -1.5h-31q-22 0 -44 0.5t-45 1.5q-22 1 -42.5 9t-43.5 8q-26 0 -37.5 -6t-16 -17t-3.5 -27t1 -36q0 -32 18.5 -40t47.5 -8l7 1l16 2q13 2 26.5 3t26.5 1h174q12 0 19 -5.5t10.5 -13.5t4.5 -18t1 -19
q0 -14 -1.5 -28t-0.5 -28q1 -16 -1 -32.5t-8 -30.5q-3 -6 -13 -9.5t-22 -4.5t-23.5 -1.5t-17.5 -0.5q-8 -1 -16.5 -1.5t-16.5 -0.5q-40 0 -78.5 7.5t-77.5 7.5q-7 0 -14.5 -1t-14.5 -3q-28 2 -35 -10.5t-7 -38.5q0 -11 1.5 -21.5t1.5 -21.5v-111q0 -12 4.5 -24.5t4.5 -25.5
q0 -21 -8.5 -32t-22 -16t-30 -5.5t-31.5 -1.5q-16 -1 -31.5 -1.5t-31.5 -0.5q-9 0 -24 0.5t-23 3.5q-12 4 -19 14.5t-11 23t-5.5 25.5t-1.5 24q0 32 6 63.5t6 63.5q0 23 -0.5 46.5t-1.5 46.5l-1 21v6l-1 -3q2 13 3 27t1 27q0 20 -2.5 40.5t-1.5 40.5q1 26 2.5 52.5t1.5 52.5
q0 32 -5 63t-5 63q0 27 2 42.5t9 25.5t20 18t35 20q37 -3 75.5 -8t75.5 -5q20 0 40.5 3t40.5 3t43 -5t43 -8q14 -2 34 2.5t35 4.5q30 0 61.5 -1t60.5 -4q15 -2 22.5 -10t10.5 -20t3.5 -25t0.5 -24z" />
    <glyph glyph-name="g" unicode="g" horiz-adv-x="818" 
d="M772 355q0 -24 1 -48t1 -49q0 -23 -3.5 -45.5t-3.5 -44.5q0 -29 5.5 -57t5.5 -57q0 -19 -8 -30t-21 -16t-28 -6.5t-30 -1.5q-24 0 -40 1.5t-25.5 8.5t-14 21t-4.5 38h-6q-4 -4 -14.5 -14t-22.5 -20.5t-22 -19t-13 -9.5q-17 -6 -34 -11.5t-34 -10.5q-14 2 -29.5 0
t-29.5 -2q-75 0 -132 23t-110 76q-6 6 -13 11.5t-14 10.5q-5 4 -15.5 19t-21.5 33t-20.5 34.5t-12.5 23.5q-4 8 -6.5 21.5t-4 28.5t-2 29.5t-0.5 23.5q0 24 4 48t4 47q0 19 -1 38t-1 38q0 42 10.5 74.5t29 60t43.5 52t54 50.5q13 11 26.5 23t27.5 20q2 1 21.5 7t42 13
t40.5 12.5l18 5.5q33 0 67.5 -1.5t69 -7t67 -16t61.5 -27.5q26 -16 51 -40.5t48 -44.5q5 -5 12.5 -12t15 -15.5t12.5 -17.5t5 -16q0 -14 -19.5 -30.5t-44.5 -30.5t-49 -23.5t-33 -9.5q-27 0 -42.5 13.5t-33 30t-43 30t-70.5 13.5q-50 0 -83.5 -16t-54 -44.5t-29 -67
t-8.5 -83.5q0 -41 9.5 -78.5t30.5 -66t54 -45.5t79 -17q30 0 50 8t36 21t31 30t34 35v5h-5q0 5 -7 5q-5 0 -9 -1.5t-9 -3.5q-38 -7 -64 -5.5t-42.5 14t-23.5 37t-7 63.5q0 25 5 39.5t15.5 22t27.5 9.5t40 2q37 0 74 -4.5t74 -4.5q17 0 33.5 2.5t33.5 2.5q20 0 34 -9t16 -30
l-2 -4q-1 -4 -1 -8q0 -3 -1 -7q-1 -11 -1.5 -23t-0.5 -23z" />
    <glyph glyph-name="h" unicode="h" horiz-adv-x="790" 
d="M740 747q0 -25 -4 -49t-4 -48q0 -66 -3 -130t-3 -129q0 -13 1.5 -26t2.5 -26q3 -33 5 -67t2 -67q0 -14 -2.5 -28.5t-2.5 -28.5q0 -26 2.5 -52.5t2.5 -52.5q0 -9 -10.5 -21t-16.5 -18q-17 0 -36 1t-36 -3q-5 -2 -12.5 -3t-12.5 -1q-8 0 -20.5 0.5t-26 3t-25 6.5t-16.5 12
q-3 4 -8 16.5t-5 17.5q0 68 4.5 136t6.5 136h-4q0 6 -6 6t-13.5 -3.5t-12.5 -6.5h-76q-30 0 -56.5 3t-47 -1.5t-32 -20.5t-11.5 -53q0 -43 8 -85t8 -84q0 -39 -17 -64t-60 -25q-14 0 -31 0.5t-35 2t-34.5 4.5t-29.5 8q-8 3 -12.5 14.5t-6.5 26t-3 28t-1 21.5q0 13 3.5 25.5
t3.5 25.5q0 14 -3 28.5t-3 28.5q0 23 2 46t2 46q0 78 2.5 156.5t2.5 156.5q0 26 -2.5 53t-2.5 54q0 35 7.5 52t23 23t38.5 5t53 -1h35t34.5 -4.5t26 -16t10.5 -34.5q0 -17 -5 -33t-5 -33q0 -22 2.5 -44t2.5 -44q0 -15 -3.5 -30t-3.5 -30q0 -17 10 -20t24 -3q31 0 61.5 8
t57.5 8q12 0 25 -2t25 -3q14 -1 27 -1t27 -1v4h2q-4 14 -4.5 28.5t-2.5 28.5q-3 38 -11.5 76t-8.5 77q0 34 15.5 50.5t51.5 16.5q32 0 63 1.5t63 5.5q21 -8 32.5 -19.5t11.5 -34.5z" />
    <glyph glyph-name="i" unicode="i" horiz-adv-x="326" 
d="M273 40q-15 -36 -40.5 -43t-61.5 -7h-30q-16 0 -32 3t-28.5 10.5t-18.5 22.5q-3 0 -3 9v12q-2 37 -5.5 73t-3.5 73q0 19 4.5 38t4.5 38q0 7 -3 15t-3 15q0 23 3 45t3 45q0 22 -2 43.5t-2 43.5t1 43t1 43q0 46 -3.5 91t-3.5 91q0 21 13 37.5t35 16.5q21 0 40.5 1t40.5 4
q18 -6 35.5 -8.5t31 -8t22 -18t8.5 -38.5q0 -32 -7 -64t-7 -64q0 -17 4.5 -39t4.5 -42q0 -9 -2.5 -18t-2.5 -18q0 -11 1 -23t1 -24q0 -29 -2 -56t-9 -56q3 -16 7.5 -34t4.5 -34q0 -23 -2 -46.5t-2 -46.5q0 -12 -0.5 -24.5t1.5 -24.5q2 -17 5 -35t3 -35q0 -5 -1 -6z" />
    <glyph glyph-name="j" unicode="j" horiz-adv-x="441" 
d="M380 221q-1 -5 0 -11t1 -11q0 -26 -2 -54.5t-8 -53.5q-3 -13 -16.5 -28t-30.5 -29t-35 -24.5t-31 -13.5q-7 -2 -15.5 -1.5t-15.5 -0.5q-6 0 -19 -0.5t-27.5 -1.5t-27 -2.5t-16.5 -4.5q-30 0 -52 3t-36.5 13.5t-21 30t-6.5 52.5q0 13 0.5 28.5t3.5 31t9.5 28.5t18.5 20
q11 6 32 8t41 4.5t35.5 6.5t15.5 15q1 22 1.5 43.5t0.5 43.5q0 17 -4.5 35t-4.5 35q0 8 1.5 14.5t1.5 14.5q0 28 -3.5 56.5t-3.5 56.5q0 16 1.5 32.5t0.5 32.5q-1 12 -4 25t-3 25t2.5 25.5t4.5 25.5q2 16 0.5 30t-0.5 26t6.5 23t22.5 23l66 -3q10 0 26 1t32 0.5t30.5 -4
t21.5 -12.5q3 -3 4.5 -12t2.5 -18.5t1.5 -19t0.5 -13.5q3 -23 6 -44.5t3 -45.5q0 -17 -4.5 -34t-4.5 -34q0 -63 6 -124l1 3q-1 -13 -3 -25t-2 -25q0 -6 1.5 -14.5t3.5 -14.5q-3 -8 -5 -22.5t-2 -22.5v-44t-2 -44z" />
    <glyph glyph-name="k" unicode="k" horiz-adv-x="796" 
d="M660 -3h-19q-14 0 -30 1t-30 1.5t-17 2.5q-14 7 -25.5 20.5t-19.5 26.5q-8 14 -21.5 35t-27.5 43.5t-25.5 42.5t-15.5 32q-9 26 -18.5 52t-17.5 52q-2 5 -6 13.5t-10 8.5h-5q-10 0 -25.5 -13t-31 -30.5t-28 -35.5t-16.5 -27q-2 -5 -3 -14.5t-1 -14.5q0 -31 7.5 -62
t7.5 -62q0 -29 -7.5 -42t-19.5 -18t-27 -7t-31 -9q-8 0 -26.5 0.5t-39 2t-38 5t-22.5 10.5q-14 18 -14 42v46q0 10 -2 20t-2 20q0 22 2 43t2 43q0 42 -3.5 82.5t-3.5 82.5q0 33 2.5 65.5t2.5 64.5v164q0 17 -1.5 35t-1.5 35q0 11 9.5 16.5t18.5 9.5v5h76t75 -7
q15 -3 24.5 -13t14 -23t6 -27.5t1.5 -27.5q0 -23 -4 -45t-11 -44h-2q-2 -16 -3.5 -33t-1.5 -32q0 -11 1.5 -22.5t3.5 -22.5h2q0 -2 2 -3t4 -1q18 0 28 9.5t18 23.5q17 29 35 54.5t37 51.5q8 11 14 24.5t15 22.5l36 36q14 14 25 28.5t27 27.5q4 3 17.5 6t29.5 6t30.5 4.5
t19.5 1.5q35 0 70.5 -1t70.5 -1l39 -27q0 -7 -4 -13.5t-8 -11.5q-11 -12 -24.5 -22.5t-24.5 -22.5q-28 -29 -60.5 -63t-63.5 -60q-5 -5 -12 -8t-13 -8q-18 -13 -34 -28t-31 -31q0 -6 6.5 -14.5t15.5 -18t17.5 -18.5t12.5 -16q13 -23 24 -47t25 -45q9 -14 26 -31t28 -32
q14 -17 21.5 -38t19.5 -39t20 -31.5t18 -33.5q3 -5 8.5 -11.5t12 -13.5t13 -14.5t9.5 -14.5q4 -10 4 -20q0 -19 -13 -28.5t-29 -14.5q-24 3 -43 -1t-41 -4z" />
    <glyph glyph-name="l" unicode="l" horiz-adv-x="597" 
d="M459 0h1l-2 1l-17 1l-72 4q-6 0 -12 0.5t-12 0.5q-14 0 -29.5 -2t-27.5 -10q-23 0 -45.5 -2t-44.5 -2q-47 0 -75 3.5t-42.5 17t-19 40.5t-4.5 74q0 14 3.5 28t2.5 28q-1 21 -2.5 42.5t-1.5 42.5q0 32 3.5 63t3.5 63q0 22 -6 43t-6 43q0 18 3.5 37.5t3.5 38.5v26
q1 26 0.5 52.5t-2.5 52.5q-1 14 -5 28.5t-4 29.5q0 23 13 33t30.5 14t34.5 5.5t25 8.5q20 -4 43 -6t42 -8t31.5 -20t12.5 -42q0 -12 -2.5 -25t-2.5 -25q0 -14 1 -29t1 -29q0 -15 -2 -30.5t-2 -30.5q0 -11 3.5 -23.5t3.5 -23.5q0 -18 -7 -35t-7 -35q0 -17 3.5 -35t3.5 -35
q0 -9 -2.5 -20t-4.5 -20q2 -11 5.5 -22.5t5.5 -22.5q-4 -14 -5 -29t-1 -30q0 -9 6.5 -14.5t15.5 -8t18.5 -3.5t15.5 -1q34 0 67 7t66 7q12 0 29.5 -1t34.5 -5t29 -12.5t12 -24.5v-36q0 -19 5 -38t5 -39q0 -24 -12 -36t-30 -17t-38.5 -5.5t-37.5 -1.5z" />
    <glyph glyph-name="m" unicode="m" horiz-adv-x="950" 
d="M651 389q0 -13 -4.5 -27t-7.5 -27q-2 -8 -2.5 -15.5t-1.5 -15.5q-4 -40 -15 -78.5t-14 -79.5q-7 -5 -8.5 -18.5t-2.5 -30.5t-3 -35.5t-10.5 -33.5t-25.5 -25t-47 -10h-34q-17 0 -34.5 3t-32.5 10.5t-25 22.5q-7 10 -9.5 24t-4.5 26l-9 54q-6 37 -17 74t-16 74q-1 7 -1 14
q0 8 -2 15q-2 8 -6 17t-7 17q0 2 -4.5 20t-7.5 33t-4 17q-2 14 -2 29t-2 29t-10.5 29.5t-10.5 29.5q-1 10 -1 20t-1 20q-2 4 -4.5 8t-7.5 4t-10.5 -6t-5.5 -12q0 -13 2.5 -27t3.5 -27q2 -25 4 -50.5t2 -51.5q0 -19 -1 -37.5t-1 -38.5q0 -60 5 -118.5t13 -117.5
q2 -12 5.5 -23t3.5 -23q0 -17 -10 -27.5t-24.5 -16.5t-31 -8.5t-29.5 -2.5q-10 0 -28.5 1.5t-37.5 6t-34.5 11.5t-18.5 19q-1 2 -1 7v8q0 42 -0.5 84.5t1.5 84.5q1 14 3 27t2 27q0 30 -7 61t-7 61q0 14 3.5 28t3.5 28q0 11 -2 24t-4 24q-2 26 -3.5 52t-1.5 52q0 14 1 27.5
t1 27.5q0 24 1.5 51t7.5 50q2 7 9 13t16 10t18 6.5t16 2.5q20 0 53 -1t67.5 -3t66 -6t49.5 -11q13 -5 19 -23t8 -31q2 -16 1.5 -32.5t2.5 -32.5q3 -17 9.5 -34t11.5 -33q-3 -9 -3 -21v-22q14 -38 22 -74t14 -75q3 -19 4.5 -40.5t4.5 -43t8 -41.5t15 -37q7 0 12 10.5t8 24
t4.5 26.5t2.5 18q2 14 5.5 27t5.5 27q2 12 2.5 25t2.5 25q2 8 5.5 16.5t5.5 16.5q1 10 0.5 21.5t0 23t4.5 21t15 15.5q-2 8 -3 17t-1 17q0 32 11 64t20 62q4 12 5 25t6 25q10 23 30.5 32t43.5 9t43 0.5t43 3.5q14 -6 34 -6h40q21 0 39 -4t29 -17q5 -6 5.5 -15.5t0.5 -16.5
q0 -26 -2 -50.5t-2 -50.5v-17t2 -17q-3 -26 -5 -44.5t-3.5 -31.5t-2 -22t-0.5 -18q0 -7 1 -20t1 -27q0 -13 -0.5 -25t-3.5 -17q1 -8 4.5 -19t6.5 -19q-3 -18 -2.5 -31.5t2 -26t3.5 -24.5t2 -27q0 -12 -3.5 -24t-3.5 -24q0 -31 6.5 -61t6.5 -61q0 -20 -5.5 -32.5t-15.5 -20.5
t-23.5 -14t-29.5 -12q-27 0 -52 0.5t-44 8t-30 25.5t-11 52q0 20 4 40.5t5 40.5l9 252q2 36 3 71t6 71q1 1 1 4q0 2 -0.5 4.5t-0.5 4.5l-7 2v-2q-11 0 -17 -9t-8 -18q-2 -8 -1.5 -17t-0.5 -17q-2 -11 -4 -26.5t-5.5 -31t-9 -29.5t-12.5 -23z" />
    <glyph glyph-name="n" unicode="n" horiz-adv-x="796" 
d="M602 -8q-38 0 -60.5 11t-38 29t-29 41.5t-34.5 49.5q-5 28 -19 51.5t-28 47.5q-12 22 -22 45t-21 45q-5 9 -11 17.5t-11 18.5q-14 26 -25.5 53t-22.5 55v2q-4 0 -6.5 -5.5t-3.5 -12.5t-1 -14v-8q0 -17 4.5 -33t4.5 -33q0 -42 -1 -83.5t3 -82.5l6 -66t3 -66t-11.5 -45
t-27 -15t-33.5 -3q-17 0 -29 -8q-10 0 -25.5 0.5t-31 3t-29.5 7.5t-20 14q-4 5 -6 15.5t-3 22t-1.5 22.5t-0.5 17q-2 35 -3 70t-1 70q0 30 3 60t3 61q0 22 -4 44t-4 45q0 37 1.5 74.5t-0.5 74.5q-1 8 -2.5 16.5t-1.5 16.5q0 9 0.5 25t0.5 32q0 17 -1.5 31.5t-4.5 21.5
q-2 5 -4.5 11t-2.5 12q0 17 17 26t40 13t45.5 4.5t33.5 0.5q10 0 28 -1t37 -3.5t36 -7t25 -12.5t13 -18t9 -20.5l8 -21t10 -19.5q23 -35 43 -71t36 -74q4 -10 11 -19.5t12 -18.5q17 -29 34.5 -59.5t30.5 -60.5q5 -12 9.5 -27.5t8.5 -28.5v-2h11q0 41 -5 82t-9 82
q-5 49 -9 97.5t-4 97.5q0 32 2 51t11 29.5t27.5 14.5t51.5 6q7 0 18 1t22 2.5t21 4t16 6.5q31 -8 43 -24t13 -46v-150q0 -11 -3.5 -21.5t-3.5 -21.5q0 -14 2.5 -29t2.5 -29q0 -21 -3.5 -43t-3.5 -43q0 -17 0.5 -33.5t1.5 -33.5q0 -10 -2.5 -22.5l-4.5 -22.5q4 -13 6.5 -27
t2.5 -27q0 -21 -1 -41.5t-1 -41.5q0 -6 0.5 -23t0.5 -36v-34q0 -15 -1 -18q-6 -19 -23 -26t-33 -14h-18q-11 0 -23.5 -0.5t-23.5 -1.5t-16 -3z" />
    <glyph glyph-name="o" unicode="o" horiz-adv-x="866" 
d="M826 476q0 -56 -5.5 -116.5t-19.5 -114.5q-4 -16 -14.5 -35.5t-24 -39t-27.5 -37t-24 -30.5q-6 -8 -22 -21t-34 -26.5t-35 -24.5t-26 -14t-22 -7.5t-26 -8.5t-25.5 -7.5t-21.5 -5.5q-6 -2 -14.5 -3t-14.5 -1h-76q-9 0 -29.5 4.5t-44 11t-44.5 13.5t-31 11
q-27 11 -57.5 36t-57.5 56.5t-46.5 65.5t-25.5 63q-2 6 -5 21t-6 31.5t-5 30.5t-2 18q0 17 2.5 32.5t2.5 32.5q0 64 10.5 115.5t36.5 109.5q2 4 9.5 13t16 19t17 19t11.5 12q25 26 51.5 50t56.5 42t63 28.5t71 10.5q7 0 26.5 -1t41 -3t40 -4t24.5 -4q14 -5 27 -10t27 -10
q16 -5 32.5 -7.5t32.5 -10.5q3 -1 8.5 -5.5t12.5 -10t13 -11t9 -7.5q14 -11 31.5 -26.5t33.5 -33t29 -36.5t18 -36q5 -18 8 -38t8 -39q1 -4 3.5 -13.5t5.5 -19t5 -18t2 -10.5zM592 467q-9 18 -15.5 36t-14.5 36q-7 18 -21 33.5t-31 26.5t-37 17.5t-39 6.5q-12 0 -26.5 -4
t-25.5 -8q-32 -12 -54.5 -31.5t-37.5 -44.5t-22 -55t-7 -62q0 -38 10.5 -76.5t32 -69.5t53.5 -50.5t75 -19.5q15 0 29.5 6t28.5 12q21 10 32.5 15t18 11.5t12 17.5t14.5 32q4 8 9 15t9 15q1 3 2 22.5t2 43t1.5 45t1.5 30.5z" />
    <glyph glyph-name="p" unicode="p" horiz-adv-x="779" 
d="M739 551q0 -45 -6.5 -83t-22 -70.5t-41.5 -60t-65 -51.5q-8 -5 -16 -9.5t-18 -8.5q-27 0 -53 -9t-52 -9q-33 0 -65.5 6.5t-65.5 6.5q-20 0 -34.5 -6.5t-14.5 -29.5q0 -27 2 -54t2 -54q0 -8 -0.5 -22t-2 -28.5t-4.5 -27.5t-9 -19q-13 -2 -25 -7.5t-24 -10.5q-25 0 -49 -2
t-48 -2q-32 0 -52 12.5t-20 48.5q0 38 2 76.5t2 76.5q0 10 -2 20t-2 20q0 73 3.5 145.5t3.5 145.5q0 9 -4.5 18t-4.5 17q0 17 2 33t2 33q0 21 -3.5 42.5t-3.5 42.5q0 25 8.5 45.5t32.5 31.5q21 2 43 -0.5t42 -2.5q26 0 51 1.5t51 1.5q21 0 42.5 -3.5t42.5 -3.5
q20 0 41.5 3.5t41.5 3.5q13 0 35 -3t46 -8t46 -10.5t35 -10.5q39 -14 64.5 -36.5t40 -52t20.5 -64t6 -72.5zM280 625q-3 -8 -5 -27.5t-3 -42t-1 -43.5v-31q0 -23 11 -37t35 -14q17 0 34.5 3.5t34.5 5.5q9 1 24 1q16 0 32 2t30 6t19 13q10 17 17.5 40t7.5 43q0 21 -12.5 42
t-36.5 24q-48 7 -93.5 11t-93.5 4z" />
    <glyph glyph-name="q" unicode="q" horiz-adv-x="889" 
d="M859 94q0 -18 -5 -43t-15.5 -48t-27 -39t-38.5 -16t-41 8t-39 17q-16 16 -35 29t-39 25l-4 1q-8 0 -21 -3.5t-27 -9t-26.5 -11t-18.5 -9.5q-17 -2 -32.5 -2.5t-32.5 -1.5q-12 -1 -29 -5t-25 -4q-76 0 -141 30.5t-120 81.5q-20 19 -38.5 40.5t-29.5 47.5t-13 51t-9 50
q0 1 -2 7t-4.5 12t-4 11.5l-1.5 5.5v86q0 21 2 51t7.5 61.5t14 60t21.5 45.5q14 18 36 43.5t47 50.5t51 44.5t49 25.5q3 1 17.5 5t31.5 9t31 9l14 4q63 0 127 -8.5t125 -22.5q4 -1 12.5 -7.5t18 -14.5t17.5 -15t11 -10q62 -55 97 -121t40 -149q1 -16 1.5 -32t4.5 -31
q-4 -39 -10 -72t-12 -68q-14 -19 -24 -41t-19 -44q0 -22 17 -29.5t37 -12.5t37 -12.5t17 -29.5zM416 616q-8 0 -23 -5t-31 -12.5t-29.5 -15.5t-19.5 -14q-33 -35 -47 -80t-14 -93q0 -29 4 -56t14.5 -51t28 -44.5t43.5 -35.5q14 -8 31.5 -16.5t33.5 -8.5q15 0 35 2.5
t39.5 8.5t36 16t24.5 25q23 41 35 88t12 94q0 39 -11 75t-33 63t-54.5 43.5t-74.5 16.5zM817 405q0 -1 -0.5 -1.5l-0.5 -0.5q3 0 1 2z" />
    <glyph glyph-name="r" unicode="r" horiz-adv-x="776" 
d="M736 55q0 -21 -12.5 -31t-30 -14t-37 -4.5t-33.5 -0.5l-26 -1q-21 0 -50 3t-48 14q-4 2 -8 9.5t-7.5 16t-6.5 16.5t-5 12q-10 22 -21.5 41.5t-25.5 39.5q0 1 -2 6t-4 11t-3.5 11.5t-2.5 7.5q-4 9 -9.5 17t-8.5 17q-3 10 -4.5 20t-6.5 20q-5 8 -13.5 13.5t-17.5 5.5
q-8 0 -14 -3q-17 0 -31 0.5t-24 -2.5t-15 -12.5t-5 -30.5q0 -25 5 -48.5t5 -47.5q0 -9 -1 -18.5t-1 -18.5q0 -14 2.5 -29.5t2.5 -30.5q0 -10 -1.5 -15.5t-4.5 -9.5t-8.5 -7t-13.5 -7q-15 -8 -26.5 -11t-22.5 -4.5t-23.5 -1t-28.5 0.5q-27 0 -45.5 3t-30 12t-17 26t-5.5 45
q0 18 1.5 36t1.5 36q0 10 -1.5 19.5t-1.5 20.5q0 51 3.5 100t3.5 100q0 14 -1 27t0 26q1 11 2.5 22.5t1.5 22.5q0 14 -3.5 28t-3.5 28q0 11 3.5 21.5t3.5 21.5q0 17 -3.5 36t-5.5 36q-2 14 2.5 30t4.5 30q0 11 -2 20.5t-2 20.5q0 14 5 25.5t22 11.5q5 0 8.5 -1t8.5 -2
q10 -2 23.5 -2.5t27.5 -0.5h29h26q29 -2 58.5 -5.5t58.5 -3.5q15 0 30.5 3.5t31.5 3.5q20 0 39 -3.5t39 -3.5q11 0 23.5 2.5t23.5 2.5q18 0 38 -6t40.5 -15.5t38.5 -21t31 -22.5q42 -37 57 -90t15 -107q0 -60 -24.5 -102.5t-74.5 -74.5q-8 -5 -17.5 -9t-18.5 -9
q-6 -4 -6 -13q0 -19 15 -34q24 -25 38 -47.5t32 -51.5q6 -11 17 -28t21.5 -35t18 -35t7.5 -28zM290 620q-5 -4 -16 -14t-11 -18q0 -17 1 -32.5t1 -31.5v-21q0 -13 1.5 -27t5 -26t11.5 -16q5 -3 11 -2.5t11 -0.5q3 0 6 -0.5t7 -0.5q24 0 47 9t46 12q14 2 28 3t28 1
q20 8 31.5 31.5t11.5 43.5q0 5 -2 15q-9 33 -34.5 49t-57.5 21.5t-66 5t-60 -0.5z" />
    <glyph glyph-name="s" unicode="s" horiz-adv-x="778" 
d="M723 654q0 -14 -16 -33t-37.5 -36t-44.5 -29t-37 -12q-7 0 -32 12.5l-56 28t-62 28t-50 12.5q-13 0 -29.5 -2.5t-31 -8.5t-24.5 -17t-10 -27q0 -13 6 -22.5t16 -16t21.5 -10.5t22.5 -6q23 -4 47 -5.5t47 -3.5q17 -2 38 -4.5t43 -7t42 -9.5t35 -11q18 -7 38.5 -21.5
t38.5 -33t30.5 -39.5t15.5 -41q2 -14 3 -27.5t1 -27.5q0 -47 -13.5 -90.5t-39 -80t-62 -63.5t-82.5 -39q-14 -4 -26 -3.5t-26 -7.5q-10 0 -19 -2t-17 -7h-18h-28t-27.5 -1t-16.5 -2q-22 2 -54.5 4.5t-66 7.5t-63 14t-45.5 24q-17 14 -32 31t-31 32l-11 11t-13.5 15.5
t-11.5 17t-5 14.5q0 8 2.5 13.5t6.5 11.5q5 7 26.5 22t46.5 31t47 28t29 12q14 0 30.5 -14t40 -31t54.5 -31t74 -14q13 0 34 1.5t41 7t36 15t20 25.5q2 11 3 22.5t2 22.5h-5q-37 14 -83 20t-92 10.5t-87.5 10.5t-70.5 20q-6 3 -15.5 10.5t-19.5 16.5t-18.5 17.5l-13.5 13.5
q-27 27 -36.5 63.5t-9.5 73.5q0 60 17 120q2 9 19.5 28.5t39 41t42 39.5t29.5 23q7 4 17.5 4.5t18.5 2.5q11 3 27.5 8.5t34 11t33.5 9t27 3.5q41 0 82.5 -7.5t81.5 -15.5q12 -8 25 -16.5t27 -14.5q19 -8 41.5 -18.5t42 -24.5t33 -33t13.5 -44z" />
    <glyph glyph-name="t" unicode="t" horiz-adv-x="651" 
d="M423 610l9 -48l-9 -54q4 -13 5.5 -46.5t2 -71t0 -71.5t-0.5 -49q0 -16 -2.5 -32.5t-4.5 -32.5q-1 -11 0.5 -26t4 -31l5 -32t2.5 -29q0 -35 -16 -53t-50 -25v-5q-26 0 -52 -3t-52 -3q-27 0 -42.5 19t-15.5 45q0 16 1 32.5t1 33.5q-1 11 -2.5 23.5t-1.5 23.5q0 16 4.5 33
t4.5 33q0 18 -2.5 38t-4.5 38q-2 15 2.5 32t4.5 33q0 14 -2.5 29.5t-4.5 29.5q-2 11 0 34t5 48.5t6 48.5t5 35q-16 0 -28.5 -4t-24.5 -8.5t-24.5 -8t-28.5 -3.5t-33 2.5t-31.5 10t-23.5 20t-9 32.5v47q0 31 3.5 49t13.5 29t26.5 17.5t42.5 14.5q13 -2 33.5 -5t42 -5.5
t41.5 -4t33 -0.5q15 2 31.5 4t31.5 2q23 0 47.5 -4.5t47.5 -4.5q35 0 69 2.5t69 2.5q22 0 37 -1t24 -7.5t12.5 -20.5t3.5 -39v-12t-1 -12q2 -9 2 -20v-20q0 -15 -11.5 -29t-22.5 -24q-31 0 -62 7t-62 7q-25 0 -49 -11z" />
    <glyph glyph-name="u" unicode="u" horiz-adv-x="767" 
d="M712 245q0 -7 -2.5 -19.5t-6 -26.5t-7.5 -26.5t-7 -19.5q-9 -19 -26 -37.5t-32 -32.5q-6 -6 -14.5 -13.5t-18.5 -15.5t-19.5 -14t-17.5 -9q-28 -9 -54.5 -18t-53.5 -20q-24 0 -57.5 1t-69 4t-68 10t-53.5 19q-25 14 -47.5 36t-42.5 43q-16 17 -29.5 37t-24.5 41v38
q0 19 -2 39q-1 2 -2.5 11t-2.5 19.5t-1.5 19.5t-0.5 11q0 23 3 47t3 48q0 17 -1.5 33.5t-1.5 33.5q0 28 1.5 55.5t1.5 55.5q0 41 -3.5 80.5t-4.5 80.5q7 19 23.5 28t37 11.5t41.5 1.5t38 -1h36t29.5 -5t19.5 -17.5t7 -37.5q0 -20 -4.5 -40.5t-6.5 -40.5t-2 -41v-41
q0 -25 1 -49.5t1 -49.5q0 -23 -4 -46.5t-4 -46.5q0 -16 2.5 -34.5t7.5 -33.5q-2 -12 0 -27t4 -27q13 -17 24.5 -32.5t25.5 -27t31 -18.5t41 -7q34 0 54.5 16t31 40.5t14 54t3.5 56.5v26q0 14 -2 27q-2 11 -4.5 22.5t-2.5 22.5q0 23 1.5 47t1.5 47q0 1 -1 5.5t-2 10t-2.5 10
t-1.5 6.5q3 19 3 38q0 26 -2 50.5t-2 49.5q0 43 7 61.5t22 25t38 8t55 12.5q13 0 31 -1.5t35 -6.5t29 -15t12 -28q0 -11 -3 -21.5t-3 -21.5q0 -4 1 -5q0 -17 2 -32.5t2 -32.5q0 -14 -5.5 -28.5t-5.5 -28.5q0 -12 2 -24.5t2 -24.5q0 -26 -2 -52l-4 -52q-2 -23 3.5 -53.5
t5.5 -55.5q0 -13 -1.5 -25.5t-1.5 -24.5q0 -8 1.5 -16t1.5 -16z" />
    <glyph glyph-name="v" unicode="v" horiz-adv-x="743" 
d="M733 756q-13 -23 -23 -54t-18 -56q-4 -13 -5 -26t-6 -26q-6 -17 -13 -34.5t-12 -35.5q-4 -12 -5 -23.5t-6 -23.5q-9 -20 -19 -41t-17 -42q-7 -19 -11 -40t-9 -41q-2 -6 -7.5 -19t-13 -28t-14.5 -30t-10 -25q-4 -12 -6 -25t-5 -26t-8 -31t-10.5 -37t-11.5 -36t-11 -27
q-5 -11 -19.5 -23.5t-27.5 -12.5q-20 0 -46 0.5t-44 -9.5q-29 0 -62 7t-53 31q-1 27 -14 67.5t-30 84.5t-33.5 84.5t-23.5 67.5q-2 8 -3.5 16t-3.5 16q-6 19 -13 37t-14 37q-10 28 -15 55.5t-19 59.5q-5 11 -15 39t-20.5 59t-18 58t-7.5 36q0 17 11 27.5t26.5 16.5t32.5 8
t29 2h14q7 0 14 -1q25 -2 46 -2.5t36.5 -6.5t26 -21.5t14.5 -46.5q2 -16 2 -33q0 -16 3 -32q2 -14 8.5 -32.5t13.5 -38.5l14 -40t11 -35q5 -17 5 -36t4 -36q5 -25 14.5 -49t14.5 -50q4 -22 8.5 -41t12.5 -40q6 0 10 4t6.5 10t3.5 12t2 10q8 37 16 73.5t15 74.5
q5 23 8.5 48.5t10.5 48.5q6 21 10.5 41t9.5 42t14 43.5t13 44.5q3 15 4.5 29.5t6.5 29.5q16 7 31 16t30 17l61 -6q14 -2 29 1.5t29 3.5q19 0 34.5 -8.5t17.5 -30.5z" />
    <glyph glyph-name="w" unicode="w" horiz-adv-x="1059" 
d="M1049 738q0 -2 -3.5 -14t-9 -29t-12 -36.5t-12 -37.5t-10 -31.5t-5.5 -18.5q-4 -16 -5.5 -33t-5.5 -34q-11 -45 -20.5 -90t-22.5 -90q-2 -9 -7 -17.5t-8 -16.5q0 -7 -0.5 -20t-2.5 -18q-5 -11 -9 -21.5t-9 -21.5q-7 -18 -11.5 -42t-8 -50l-7 -52t-9.5 -47l-47 -34
q-19 0 -37.5 -0.5t-38.5 -0.5q-29 0 -56 5t-48 28q-5 5 -13.5 40t-19 85t-21.5 107.5t-20 107.5t-14.5 86t-5.5 42q0 8 2 18t4 18h-4v4h-9q-6 -6 -12 -16t-8 -18q-4 -12 -5.5 -26t-4.5 -27q-6 -30 -14 -59.5t-17 -58.5q3 -19 0.5 -35t-7.5 -32t-10.5 -31.5t-9.5 -33.5
q-5 -23 -6.5 -46.5t-4.5 -46.5q-3 -22 -6 -38t-9.5 -28t-19.5 -20t-35 -13l-45 -11q-15 0 -33 -0.5t-36 2.5t-33.5 10t-25.5 22q-1 1 -4 9.5t-6 18t-6 18.5l-4 12q-6 17 -13 33t-12 33q-6 23 -7 48.5t-9 47.5q-6 15 -13 31t-12 32q-5 17 -5.5 36t-5.5 36q-3 13 -9 27t-11 27
q-5 12 -3.5 27t-3.5 27q-3 8 -6.5 16t-6.5 16q-6 16 -8 37.5t-4 38.5q-4 6 -11 27.5t-14 46.5t-12 47.5t-5 30.5q0 5 2 13q7 23 25.5 31t39.5 13q5 2 10.5 3.5t9.5 1.5h39t42.5 -3.5t37.5 -14t23 -31.5q-3 -18 -1 -33t6 -30l8 -30t5 -31q1 -13 1 -25t1 -25q0 -8 4 -17.5
t5 -18.5q2 -14 2 -29q0 -14 3 -27q4 -17 10 -33.5t10 -33.5q5 -24 6.5 -48.5t7.5 -48.5q-1 -5 -1.5 -16t1 -22.5t5.5 -20.5t10 -9h4q2 0 5.5 5t4.5 7q2 23 5.5 46t7.5 46q9 53 18.5 105.5t20.5 105.5q5 26 11.5 53t10.5 53q3 22 5 43.5t9 42.5q3 9 11.5 19t19.5 10t37.5 0.5
t55 -1.5t53 -7t32.5 -15q11 -14 15.5 -32t6.5 -35q5 -37 11 -73.5t14 -72.5q3 -13 8.5 -25.5t7.5 -26.5l9 -90q1 -11 5 -25.5t8.5 -30.5l9 -32t6.5 -29q1 -11 5.5 -26t19.5 -15h4l7 9q-4 30 -1 61.5t8 62.5t10.5 61t5.5 58v39q0 20 8.5 41.5t9.5 41.5q0 11 1.5 30.5t4 40.5
t6 40t8.5 28t19 14.5t30.5 8t32 3.5t24.5 1q15 0 34 -1.5t36.5 -7.5t29.5 -17.5t12 -31.5z" />
    <glyph glyph-name="x" unicode="x" horiz-adv-x="821" 
d="M672 -11q-17 0 -33 -1t-33 -3l5 -1q-30 3 -49 27q-3 4 -9 15t-13.5 23.5t-14.5 25t-11 19.5q-29 45 -47 88.5t-40 91.5q-3 3 -9 3q-10 0 -15.5 -11l-9.5 -19q-6 -13 -14.5 -24.5t-14.5 -24.5q-10 -21 -23 -49.5t-28 -57t-32.5 -53.5t-36.5 -40q-3 -2 -11 -3.5t-17 -2.5
t-17.5 -1.5t-12.5 -0.5q-17 0 -34 2.5t-34 2.5q-8 0 -20.5 0.5t-25.5 2t-25 4t-19 5.5q-8 4 -13 13.5t-5 17.5q0 19 10.5 37.5t25.5 35.5t30 33.5t24 30.5q14 21 26.5 42t23.5 44q21 16 34 36l26 40t28.5 39t41.5 33q0 3 -9 15.5t-20.5 26.5t-21.5 26.5t-12 15.5
q-32 39 -60 80.5t-57 83.5q-14 19 -30.5 36.5t-27.5 37.5q-2 4 -3 9t-1 9q0 12 7 21t17.5 14.5t22.5 8.5t22 3q29 0 58.5 -3.5t58.5 -7.5q9 -1 23.5 -4t29 -7.5t26.5 -11t18 -15.5q4 -7 9.5 -18t11 -23t10.5 -23t9 -19q12 -27 25 -54.5t27 -53.5q9 -5 23 -5q0 14 5 29.5
t12 30.5t14.5 29t13.5 26q3 7 5 16t5 17q6 17 13 33t15 33q7 6 22 10t31.5 5.5t32 2t24.5 0.5q11 0 34 -0.5t46.5 -4t41 -13t17.5 -27.5q0 -5 -1 -9t-3 -9q-12 -12 -20 -21t-14.5 -18.5t-13 -20.5t-15.5 -26q-13 -22 -30.5 -41.5t-32.5 -39.5q-6 -8 -10 -19t-10 -19l-77 -90
q22 -34 47 -65.5t48 -64.5q33 -49 67 -103.5t72 -99.5q9 -11 18.5 -21t15.5 -24q2 -3 2 -7v-7q0 -15 -8 -27t-19 -20q-17 -1 -32.5 -1.5t-32.5 -0.5q-11 0 -23.5 2.5t-23.5 2.5z" />
    <glyph glyph-name="y" unicode="y" horiz-adv-x="777" 
d="M767 737q0 -9 -5 -16.5t-10 -13.5q-33 -39 -65 -78.5t-63 -81.5q-19 -25 -33.5 -53t-33.5 -53q-12 -17 -27.5 -34t-29.5 -35q-1 -2 -2.5 -19.5t-3 -37.5t-2.5 -38t-1 -22q0 -13 3.5 -25t3.5 -25q0 -21 -0.5 -41.5t-1.5 -41.5q-1 -14 4 -28t5 -29q0 -25 -12.5 -38
t-30.5 -19t-39.5 -6.5t-39.5 -0.5q-20 0 -40.5 2t-36.5 9t-26 21.5t-10 40.5q0 20 4 41t4 42q0 16 -2.5 31t-2.5 31q0 17 2 35t2 36v38t-2 39q0 4 -10.5 17.5t-23 28.5t-24.5 29t-16 20q-14 23 -27 42.5t-29 40.5q-11 14 -19 31.5t-19 31.5q-22 29 -49 56.5t-44 60.5
q-2 4 -3 11.5t-1 12.5q0 22 12.5 32t28.5 13t30.5 2.5t18.5 2.5q6 0 25 -1.5t40.5 -3.5t40.5 -4.5t24 -3.5q9 -3 23.5 -20t30.5 -41t33 -53t32.5 -56.5t28 -50t19.5 -34.5v-4h9q0 3 2 7q14 27 22 55t21 55q2 5 11.5 15.5t13.5 15.5q6 21 16 40.5t24.5 34.5t33.5 24t43 9
q7 0 28.5 -1t44.5 -3t42 -4.5t22 -4.5q12 -2 24.5 -11t12.5 -22z" />
    <glyph glyph-name="z" unicode="z" horiz-adv-x="716" 
d="M503 -18q-27 0 -54 6t-54 6q-14 0 -26 -3.5t-25 -4.5q-9 0 -18 0.5t-18 -0.5q-10 -1 -20.5 -2.5t-20.5 -1.5q-23 0 -47 5.5t-48 5.5q-23 0 -40 -7q-66 0 -89 30.5t-23 91.5q0 14 2.5 33t8.5 32q2 5 10.5 15t19 20.5l20 20t13.5 14.5q9 10 17 23.5t19 21.5q8 7 17 13.5
t17 13.5t15.5 16t14.5 17q23 25 45.5 50.5t45.5 49.5q14 14 31 27t32 27q12 11 22.5 23.5t24.5 23.5q10 8 23.5 14.5t24.5 12.5h2v7h-2q0 5 -8 5q-11 0 -26.5 -1t-26.5 -7h-18t-22.5 -1t-22 -2.5t-16.5 -5.5h-205q-11 0 -22.5 12t-15.5 22q-2 7 -2.5 19.5t-0.5 20.5v28
q0 15 1 29q1 22 3.5 34.5t9 20.5t18.5 13t32 13q34 0 67.5 -9t67.5 -9h52q19 0 38 -3.5t38 -3.5q15 0 30.5 1t30.5 1q37 1 74 -5t74 -6q6 0 12.5 1.5t12.5 1.5q16 0 31.5 -2.5t31.5 -4.5l5 -7q7 -10 7 -25q0 -12 -2.5 -23.5t-2.5 -23.5q0 -31 -1 -60t-17 -57q-8 -15 -20 -26
t-25.5 -21.5t-27 -20.5t-24.5 -22q-32 -35 -63 -72t-64 -72.5t-69 -67.5t-76 -58v-11q34 -10 66 -11.5t67 -1.5q43 0 85 2t85 4q11 -1 27 -3t30.5 -7t24.5 -14t10 -23q0 -11 -4.5 -21.5t-4.5 -21.5q0 -29 -3.5 -57t-27.5 -49q-30 0 -60 6.5t-60 6.5q-8 0 -16.5 -1t-16.5 -5z
" />
    <glyph glyph-name="bar" unicode="|" horiz-adv-x="326" 
d="M273 -120q-15 -36 -40.5 -43t-61.5 -7h-30q-16 0 -32 3t-28.5 10.5t-18.5 22.5q-3 0 -3 10v11q-2 37 -5.5 73t-3.5 73q0 19 4.5 38t4.5 38q0 3 -1 27.5t-2 52.5t-2 52.5t-1 27.5q0 23 3 45t3 45q0 22 -2 43.5t-2 43.5q0 11 0.5 46.5t0.5 76.5t0.5 76.5t0.5 46.5
q0 46 -3.5 91t-3.5 91q0 21 13 37.5t35 16.5q21 0 40.5 1t40.5 4q18 -6 35.5 -8.5t31 -8t22 -18t8.5 -38.5q0 -32 -7 -64t-7 -64q0 -17 4.5 -39t4.5 -42q0 -3 -0.5 -18t-1 -35.5t-1 -44.5t-1 -44.5t-1 -35.5t-0.5 -18q0 -11 1 -23t1 -24q0 -29 -2 -56t-9 -56q1 -8 3.5 -37
t4 -62t3 -62t1.5 -37q0 -23 -2 -46.5t-2 -46.5q0 -12 -0.5 -24.5t1.5 -24.5q2 -17 5 -35t3 -35q0 -5 -1 -6z" />
    <glyph glyph-name="exclamdown" unicode="&#xa1;" horiz-adv-x="315" 
d="M73 207l-1 1q0 23 -2 45.5t-2 44.5q0 49 3.5 77t17 42t40.5 17.5t74 4.5l21 1q9 0 20.5 -0.5t21.5 -3.5t17 -10t7 -20q0 -14 -3.5 -29t-8 -31.5t-8 -33.5t-3.5 -35q0 -41 8 -81.5t8 -81.5q0 -12 -1 -29.5t-5 -34.5t-12.5 -29t-24.5 -12h-36q-19 0 -38 -5t-39 -5
q-23 0 -35 11.5t-17.5 29t-6.5 37.5t-1 37v3q0 22 2 45t4 45zM64 649q1 -4 -1.5 0t-5 8.5t-2.5 5.5q-5 18 -5 32t4.5 25t15.5 19q13 10 30.5 20.5t36.5 19.5t38.5 15t36.5 6q22 0 36 -7t21.5 -19.5t10 -29t2.5 -35.5q0 -12 -1 -24.5t-1 -24.5t-0.5 -32t-4 -39.5t-12.5 -33.5
t-26 -14h-36q-19 0 -38 -5t-39 -5q-24 0 -36 12t-17 30t-5.5 38.5t-1.5 37.5z" />
    <glyph glyph-name="dieresis" unicode="&#xa8;" horiz-adv-x="675" 
d="M59 997q1 -4 -1.5 0t-5 8.5t-2.5 5.5q-5 18 -5 32t4.5 25t15.5 19q13 10 30.5 20.5t36.5 19.5t38.5 15t36.5 6q22 0 36 -7t21.5 -19.5t10 -29t2.5 -35.5q0 -12 -1 -24.5t-1 -24.5t-0.5 -32t-4 -39.5t-12.5 -33.5t-26 -14h-36q-19 0 -38 -5t-39 -5q-24 0 -36 12t-17 30
t-5.5 38.5t-1.5 37.5zM412 1005q1 -4 -1.5 0t-5 8.5t-2.5 5.5q-5 18 -5 32t4.5 25t15.5 19q13 10 30.5 20.5t36.5 19.5t38.5 15t36.5 6q22 0 36 -7t21.5 -19.5t10 -29t2.5 -35.5q0 -12 -1 -24.5t-1 -24.5t-0.5 -32t-4 -39.5t-12.5 -33.5t-26 -14h-36q-19 0 -38 -5t-39 -5
q-24 0 -36 12t-17 30t-5.5 38.5t-1.5 37.5z" />
    <glyph glyph-name="macron" unicode="&#xaf;" horiz-adv-x="866" 
d="M305 904q-16 0 -33 2.5t-31.5 10t-23.5 20t-9 32.5v25q0 31 3.5 47.5t13.5 25.5t26.5 14t42.5 13q13 -2 33.5 -3.5t42 -2t41.5 -0.5t33 1q16 1 35.5 1.5t38.5 0.5h38h34q22 0 37 -1t24 -7.5t12.5 -20.5t3.5 -39v-12t-1 -12q2 -9 2 -20v-20q0 -15 -11.5 -29t-22.5 -24z
" />
    <glyph glyph-name="macron" unicode="&#x2c9;" horiz-adv-x="866" 
d="M305 904q-16 0 -33 2.5t-31.5 10t-23.5 20t-9 32.5v25q0 31 3.5 47.5t13.5 25.5t26.5 14t42.5 13q13 -2 33.5 -3.5t42 -2t41.5 -0.5t33 1q16 1 35.5 1.5t38.5 0.5h38h34q22 0 37 -1t24 -7.5t12.5 -20.5t3.5 -39v-12t-1 -12q2 -9 2 -20v-20q0 -15 -11.5 -29t-22.5 -24z
" />
    <glyph glyph-name="acute" unicode="&#xb4;" horiz-adv-x="598" 
d="M194 920q-14 10 -16 22t2 24.5t12 25t16 22.5q9 14 20.5 27.5t22.5 26.5v1q8 11 14.5 22t13.5 22q2 8 6.5 14t10.5 11q24 27 45 40t40.5 10.5t40 -20.5t44.5 -52q-38 -60 -60.5 -95t-35.5 -54.5t-19.5 -28t-12.5 -16.5q-5 -7 -13 -17.5t-18 -19t-20.5 -12t-19.5 3.5
l-22 15q-11 8 -25 13.5t-26 14.5z" />
    <glyph glyph-name="mu" unicode="&#xb5;" horiz-adv-x="950" 
d="M651 389q0 -13 -4.5 -27t-7.5 -27q-2 -8 -2.5 -15.5t-1.5 -15.5q-4 -40 -15 -78.5t-14 -79.5q-7 -5 -8.5 -18.5t-2.5 -30.5t-3 -35.5t-10.5 -33.5t-25.5 -25t-47 -10h-34q-17 0 -34.5 3t-32.5 10.5t-25 22.5q-7 10 -9.5 24t-4.5 26l-9 54q-6 37 -17 74t-16 74q-1 7 -1 14
q0 8 -2 15q-2 8 -6 17t-7 17q0 2 -4.5 20t-7.5 33t-4 17q-2 14 -2 29t-2 29t-10.5 29.5t-10.5 29.5q-1 10 -1 20t-1 20q-2 4 -4.5 8t-7.5 4t-10.5 -6t-5.5 -12q0 -13 2.5 -27t3.5 -27q2 -25 4 -50.5t2 -51.5q0 -19 -1 -37.5t-1 -38.5q0 -60 5 -118.5t13 -117.5
q2 -12 5.5 -23t3.5 -23q0 -17 -10 -27.5t-24.5 -16.5t-31 -8.5t-29.5 -2.5q-10 0 -28.5 1.5t-37.5 6t-34.5 11.5t-18.5 19q-1 2 -1 7v8q0 42 -0.5 84.5t1.5 84.5q1 14 3 27t2 27q0 30 -7 61t-7 61q0 14 3.5 28t3.5 28q0 11 -2 24t-4 24q-2 26 -3.5 52t-1.5 52q0 14 1 27.5
t1 27.5q0 24 1.5 51t7.5 50q2 7 9 13t16 10t18 6.5t16 2.5q20 0 53 -1t67.5 -3t66 -6t49.5 -11q13 -5 19 -23t8 -31q2 -16 1.5 -32.5t2.5 -32.5q3 -17 9.5 -34t11.5 -33q-3 -9 -3 -21v-22q14 -38 22 -74t14 -75q3 -19 4.5 -40.5t4.5 -43t8 -41.5t15 -37q7 0 12 10.5t8 24
t4.5 26.5t2.5 18q2 14 5.5 27t5.5 27q2 12 2.5 25t2.5 25q2 8 5.5 16.5t5.5 16.5q1 10 0.5 21.5t0 23t4.5 21t15 15.5q-2 8 -3 17t-1 17q0 32 11 64t20 62q4 12 5 25t6 25q10 23 30.5 32t43.5 9t43 0.5t43 3.5q14 -6 34 -6h40q21 0 39 -4t29 -17q5 -6 5.5 -15.5t0.5 -16.5
q0 -26 -2 -50.5t-2 -50.5v-17t2 -17l-11 -11l9 -36q-4 -17 -6.5 -34.5t-2.5 -34.5q0 -7 1 -20t1 -27q0 -13 -0.5 -25t-3.5 -17q1 -8 4.5 -19t6.5 -19q-3 -18 -2.5 -31.5t2 -26t3.5 -24.5t2 -27q0 -12 -3.5 -24t-3.5 -24q0 -31 6.5 -61t6.5 -61q0 -20 -5.5 -32.5t-15.5 -20.5
t-23.5 -14t-29.5 -12q-27 0 -52 0.5t-44 8t-30 25.5t-11 52q0 20 4 40.5t5 40.5l9 252q2 36 3 71t6 71q1 1 1 4q0 2 -0.5 4.5t-0.5 4.5l-7 2v-2q-11 0 -17 -9t-8 -18q-2 -8 -1.5 -17t-0.5 -17q-2 -11 -4 -26.5t-5.5 -31t-9 -29.5t-12.5 -23z" />
    <glyph glyph-name="mu" unicode="&#x3bc;" horiz-adv-x="950" 
d="M651 389q0 -13 -4.5 -27t-7.5 -27q-2 -8 -2.5 -15.5t-1.5 -15.5q-4 -40 -15 -78.5t-14 -79.5q-7 -5 -8.5 -18.5t-2.5 -30.5t-3 -35.5t-10.5 -33.5t-25.5 -25t-47 -10h-34q-17 0 -34.5 3t-32.5 10.5t-25 22.5q-7 10 -9.5 24t-4.5 26l-9 54q-6 37 -17 74t-16 74q-1 7 -1 14
q0 8 -2 15q-2 8 -6 17t-7 17q0 2 -4.5 20t-7.5 33t-4 17q-2 14 -2 29t-2 29t-10.5 29.5t-10.5 29.5q-1 10 -1 20t-1 20q-2 4 -4.5 8t-7.5 4t-10.5 -6t-5.5 -12q0 -13 2.5 -27t3.5 -27q2 -25 4 -50.5t2 -51.5q0 -19 -1 -37.5t-1 -38.5q0 -60 5 -118.5t13 -117.5
q2 -12 5.5 -23t3.5 -23q0 -17 -10 -27.5t-24.5 -16.5t-31 -8.5t-29.5 -2.5q-10 0 -28.5 1.5t-37.5 6t-34.5 11.5t-18.5 19q-1 2 -1 7v8q0 42 -0.5 84.5t1.5 84.5q1 14 3 27t2 27q0 30 -7 61t-7 61q0 14 3.5 28t3.5 28q0 11 -2 24t-4 24q-2 26 -3.5 52t-1.5 52q0 14 1 27.5
t1 27.5q0 24 1.5 51t7.5 50q2 7 9 13t16 10t18 6.5t16 2.5q20 0 53 -1t67.5 -3t66 -6t49.5 -11q13 -5 19 -23t8 -31q2 -16 1.5 -32.5t2.5 -32.5q3 -17 9.5 -34t11.5 -33q-3 -9 -3 -21v-22q14 -38 22 -74t14 -75q3 -19 4.5 -40.5t4.5 -43t8 -41.5t15 -37q7 0 12 10.5t8 24
t4.5 26.5t2.5 18q2 14 5.5 27t5.5 27q2 12 2.5 25t2.5 25q2 8 5.5 16.5t5.5 16.5q1 10 0.5 21.5t0 23t4.5 21t15 15.5q-2 8 -3 17t-1 17q0 32 11 64t20 62q4 12 5 25t6 25q10 23 30.5 32t43.5 9t43 0.5t43 3.5q14 -6 34 -6h40q21 0 39 -4t29 -17q5 -6 5.5 -15.5t0.5 -16.5
q0 -26 -2 -50.5t-2 -50.5v-17t2 -17l-11 -11l9 -36q-4 -17 -6.5 -34.5t-2.5 -34.5q0 -7 1 -20t1 -27q0 -13 -0.5 -25t-3.5 -17q1 -8 4.5 -19t6.5 -19q-3 -18 -2.5 -31.5t2 -26t3.5 -24.5t2 -27q0 -12 -3.5 -24t-3.5 -24q0 -31 6.5 -61t6.5 -61q0 -20 -5.5 -32.5t-15.5 -20.5
t-23.5 -14t-29.5 -12q-27 0 -52 0.5t-44 8t-30 25.5t-11 52q0 20 4 40.5t5 40.5l9 252q2 36 3 71t6 71q1 1 1 4q0 2 -0.5 4.5t-0.5 4.5l-7 2v-2q-11 0 -17 -9t-8 -18q-2 -8 -1.5 -17t-0.5 -17q-2 -11 -4 -26.5t-5.5 -31t-9 -29.5t-12.5 -23z" />
    <glyph glyph-name="periodcentered" unicode="&#xb7;" horiz-adv-x="332" 
d="M65 418q1 -4 -1.5 0t-5 8.5t-2.5 5.5q-5 18 -5 32t4.5 25t15.5 19q13 10 30.5 20.5t36.5 19.5t38.5 15t36.5 6q22 0 36 -7t21.5 -19.5t10 -29t2.5 -35.5q0 -12 -1 -24.5t-1 -24.5t-0.5 -32t-4 -39.5t-12.5 -33.5t-26 -14h-36q-19 0 -38 -5t-39 -5q-24 0 -36 12t-17 30
t-5.5 38.5t-1.5 37.5z" />
    <glyph glyph-name="periodcentered" unicode="&#x2219;" horiz-adv-x="332" 
d="M65 418q1 -4 -1.5 0t-5 8.5t-2.5 5.5q-5 18 -5 32t4.5 25t15.5 19q13 10 30.5 20.5t36.5 19.5t38.5 15t36.5 6q22 0 36 -7t21.5 -19.5t10 -29t2.5 -35.5q0 -12 -1 -24.5t-1 -24.5t-0.5 -32t-4 -39.5t-12.5 -33.5t-26 -14h-36q-19 0 -38 -5t-39 -5q-24 0 -36 12t-17 30
t-5.5 38.5t-1.5 37.5z" />
    <glyph glyph-name="cedilla" unicode="&#xb8;" horiz-adv-x="324" 
d="M57 -21l-1 1q0 23 -2 45.5t-2 44.5q0 49 3.5 77t17 42t40.5 17.5t74 4.5l21 1q9 0 20.5 -0.5t21.5 -3.5t17 -10t7 -20q0 -14 -3.5 -29t-8 -31.5t-8 -33.5t-3.5 -35q0 -41 8 -81.5t8 -81.5q0 -12 -1 -29.5t-5 -34.5t-12.5 -29t-24.5 -12h-36q-19 0 -38 -5t-39 -5
q-23 0 -35 11.5t-17.5 29t-6.5 37.5t-1 37q0 23 2 46.5t4 46.5z" />
    <glyph glyph-name="Agrave" unicode="&#xc0;" 
d="M627 0q-29 0 -48.5 10t-31 27t-16.5 40t-5 49h-5q0 5 -5 5q-4 0 -8 -1.5t-7 -3.5q-6 0 -33.5 0.5t-59.5 0.5q-31 0 -60 -1t-38 -4q-20 -6 -29.5 -18t-14.5 -27t-8 -31t-10 -29t-21.5 -21.5t-41.5 -8.5q-14 0 -27 1t-27 1q-9 0 -18 -2t-17 -2q-14 0 -29.5 2t-28 8
t-20.5 17t-8 29t5.5 34.5t13.5 32.5t16.5 31.5t14.5 31.5q2 6 2.5 13.5t2.5 14.5q5 22 10 47.5t14 46.5q11 25 21.5 49.5t21.5 49.5q5 11 5 25q0 15 4 27q5 15 15 30t14 30q3 11 5 24t5.5 25.5t8.5 24.5t13 21q4 25 14 48t24 44q3 18 8 36t15 33t24.5 25t35.5 12
q23 3 36.5 5.5t25.5 2.5q19 0 44.5 -4.5t49.5 -14.5t42.5 -25.5t24.5 -37.5q12 -48 27 -93t22 -96q7 -11 17 -30t20.5 -40t19 -40t11.5 -30t5.5 -21.5t5.5 -21.5t12.5 -24.5t14.5 -24.5q4 -10 6.5 -22l5 -24t5.5 -23.5t8 -20.5t15 -28.5t20.5 -41.5t18 -42.5t7.5 -31.5
q0 -12 -7 -21t-17.5 -16.5t-22 -13t-19.5 -10.5q-5 0 -18.5 -1t-29 -1.5t-29 -2t-17.5 -2.5zM512 941q13 10 15.5 22t-1.5 24.5t-12.5 25t-15.5 22.5q-9 14 -20.5 27.5t-22.5 26.5v1q-8 11 -14.5 22t-13.5 22q-2 8 -6.5 14t-10.5 11q-24 27 -45 40t-40.5 10.5t-40 -20.5
t-44.5 -52q37 -60 60 -95t36 -54.5t19.5 -28t12.5 -16.5q5 -7 13 -17.5t18 -19t20.5 -12t19.5 3.5l22 15q11 8 25 13.5t26 14.5zM393 556q-6 -20 -10 -38t-8 -38t-11 -40.5t-14 -40.5t-12.5 -40.5t-5.5 -41.5q0 -8 6 -12.5t14 -6.5t16.5 -2.5t14.5 -0.5q8 0 20 0.5t25 2.5
t24 5.5t17 9.5q1 0 1 1v1q0 3 -2.5 8.5t-4.5 7.5q-9 20 -14.5 43t-10.5 45q-3 13 -9.5 25t-8.5 24l-14 77q-1 3 -5.5 6.5t-7.5 4.5z" />
    <glyph glyph-name="Aacute" unicode="&#xc1;" 
d="M627 0q-29 0 -48.5 10t-31 27t-16.5 40t-5 49h-5q0 5 -5 5q-4 0 -8 -1.5t-7 -3.5q-6 0 -33.5 0.5t-59.5 0.5q-31 0 -60 -1t-38 -4q-20 -6 -29.5 -18t-14.5 -27t-8 -31t-10 -29t-21.5 -21.5t-41.5 -8.5q-14 0 -27 1t-27 1q-9 0 -18 -2t-17 -2q-14 0 -29.5 2t-28 8
t-20.5 17t-8 29t5.5 34.5t13.5 32.5t16.5 31.5t14.5 31.5q2 6 2.5 13.5t2.5 14.5q5 22 10 47.5t14 46.5q11 25 21.5 49.5t21.5 49.5q5 11 5 25q0 15 4 27q5 15 15 30t14 30q3 11 5 24t5.5 25.5t8.5 24.5t13 21q4 25 14 48t24 44q3 18 8 36t15 33t24.5 25t35.5 12
q23 3 36.5 5.5t25.5 2.5q19 0 44.5 -4.5t49.5 -14.5t42.5 -25.5t24.5 -37.5q12 -48 27 -93t22 -96q7 -11 17 -30t20.5 -40t19 -40t11.5 -30t5.5 -21.5t5.5 -21.5t12.5 -24.5t14.5 -24.5q4 -10 6.5 -22l5 -24t5.5 -23.5t8 -20.5t15 -28.5t20.5 -41.5t18 -42.5t7.5 -31.5
q0 -12 -7 -21t-17.5 -16.5t-22 -13t-19.5 -10.5q-5 0 -18.5 -1t-29 -1.5t-29 -2t-17.5 -2.5zM299 939q-14 10 -16 22t2 24.5t12 25t16 22.5q9 14 20.5 27.5t22.5 26.5v1q8 11 14.5 22t13.5 22q2 8 6.5 14t10.5 11q24 27 45 40t40.5 10.5t40 -20.5t44.5 -52
q-38 -60 -60.5 -95t-35.5 -54.5t-19.5 -28t-12.5 -16.5q-5 -7 -13 -17.5t-18 -19t-20.5 -12t-19.5 3.5l-22 15q-11 8 -25 13.5t-26 14.5zM393 556q-6 -20 -10 -38t-8 -38t-11 -40.5t-14 -40.5t-12.5 -40.5t-5.5 -41.5q0 -8 6 -12.5t14 -6.5t16.5 -2.5t14.5 -0.5q8 0 20 0.5
t25 2.5t24 5.5t17 9.5q1 0 1 1v1q0 3 -2.5 8.5t-4.5 7.5q-9 20 -14.5 43t-10.5 45q-3 13 -9.5 25t-8.5 24l-14 77q-1 3 -5.5 6.5t-7.5 4.5z" />
    <glyph glyph-name="Acircumflex" unicode="&#xc2;" 
d="M627 0q-29 0 -48.5 10t-31 27t-16.5 40t-5 49h-5q0 5 -5 5q-4 0 -8 -1.5t-7 -3.5q-6 0 -33.5 0.5t-59.5 0.5q-31 0 -60 -1t-38 -4q-20 -6 -29.5 -18t-14.5 -27t-8 -31t-10 -29t-21.5 -21.5t-41.5 -8.5q-14 0 -27 1t-27 1q-9 0 -18 -2t-17 -2q-14 0 -29.5 2t-28 8
t-20.5 17t-8 29t5.5 34.5t13.5 32.5t16.5 31.5t14.5 31.5q2 6 2.5 13.5t2.5 14.5q5 22 10 47.5t14 46.5q11 25 21.5 49.5t21.5 49.5q5 11 5 25q0 15 4 27q5 15 15 30t14 30q3 11 5 24t5.5 25.5t8.5 24.5t13 21q4 25 14 48t24 44q3 18 8 36t15 33t24.5 25t35.5 12
q23 3 36.5 5.5t25.5 2.5q19 0 44.5 -4.5t49.5 -14.5t42.5 -25.5t24.5 -37.5q12 -48 27 -93t22 -96q7 -11 17 -30t20.5 -40t19 -40t11.5 -30t5.5 -21.5t5.5 -21.5t12.5 -24.5t14.5 -24.5q4 -10 6.5 -22l5 -24t5.5 -23.5t8 -20.5t15 -28.5t20.5 -41.5t18 -42.5t7.5 -31.5
q0 -12 -7 -21t-17.5 -16.5t-22 -13t-19.5 -10.5q-5 0 -18.5 -1t-29 -1.5t-29 -2t-17.5 -2.5zM522 1062q11 -13 22.5 -26t20.5 -27q7 -10 15 -22.5t12.5 -25.5t2 -25t-15.5 -22q-12 -8 -26 -13.5t-25 -13.5l-22 -15q-9 -7 -19.5 -3.5t-20 11.5t-18 18.5t-13.5 18.5
q-11 15 -19.5 32t-16.5 34q-10 -18 -19 -35.5t-20 -33.5q-5 -7 -13 -17.5t-17.5 -19t-20 -12t-20.5 3.5l-21 15q-11 8 -25 13.5t-26 13.5q-14 10 -16 22t2 25t12 25.5t15 22.5q10 14 21.5 27t22.5 26v1q8 11 14 22t14 22q1 8 6 14t11 11q24 27 44 41.5t39 14.5t39.5 -16
t44.5 -50q9 -13 17.5 -27.5t18.5 -28.5v-1zM393 556q-6 -20 -10 -38t-8 -38t-11 -40.5t-14 -40.5t-12.5 -40.5t-5.5 -41.5q0 -8 6 -12.5t14 -6.5t16.5 -2.5t14.5 -0.5q8 0 20 0.5t25 2.5t24 5.5t17 9.5q1 0 1 1v1q0 3 -2.5 8.5t-4.5 7.5q-9 20 -14.5 43t-10.5 45
q-3 13 -9.5 25t-8.5 24l-14 77q-1 3 -5.5 6.5t-7.5 4.5z" />
    <glyph glyph-name="Atilde" unicode="&#xc3;" 
d="M627 0q-29 0 -48.5 10t-31 27t-16.5 40t-5 49h-5q0 5 -5 5q-4 0 -8 -1.5t-7 -3.5q-6 0 -33.5 0.5t-59.5 0.5q-31 0 -60 -1t-38 -4q-20 -6 -29.5 -18t-14.5 -27t-8 -31t-10 -29t-21.5 -21.5t-41.5 -8.5q-14 0 -27 1t-27 1q-9 0 -18 -2t-17 -2q-14 0 -29.5 2t-28 8
t-20.5 17t-8 29t5.5 34.5t13.5 32.5t16.5 31.5t14.5 31.5q2 6 2.5 13.5t2.5 14.5q5 22 10 47.5t14 46.5q11 25 21.5 49.5t21.5 49.5q5 11 5 25q0 15 4 27q5 15 15 30t14 30q3 11 5 24t5.5 25.5t8.5 24.5t13 21q4 25 14 48t24 44q3 18 8 36t15 33t24.5 25t35.5 12
q23 3 36.5 5.5t25.5 2.5q19 0 44.5 -4.5t49.5 -14.5t42.5 -25.5t24.5 -37.5q12 -48 27 -93t22 -96q7 -11 17 -30t20.5 -40t19 -40t11.5 -30t5.5 -21.5t5.5 -21.5t12.5 -24.5t14.5 -24.5q4 -10 6.5 -22l5 -24t5.5 -23.5t8 -20.5t15 -28.5t20.5 -41.5t18 -42.5t7.5 -31.5
q0 -12 -7 -21t-17.5 -16.5t-22 -13t-19.5 -10.5q-5 0 -18.5 -1t-29 -1.5t-29 -2t-17.5 -2.5zM258 883q-16 0 -33 2.5t-31.5 10t-23.5 20t-9 32.5v25q0 31 3.5 47.5t13.5 25.5t26.5 14t42.5 13q13 -2 33.5 -3.5t42 -2t41.5 -0.5t33 1q16 1 35.5 1.5t38.5 0.5h38h34
q22 0 37 -1t24 -7.5t12.5 -20.5t3.5 -39v-12t-1 -12q2 -9 2 -20v-20q0 -15 -11.5 -29t-22.5 -24zM393 556q-6 -20 -10 -38t-8 -38t-11 -40.5t-14 -40.5t-12.5 -40.5t-5.5 -41.5q0 -8 6 -12.5t14 -6.5t16.5 -2.5t14.5 -0.5q8 0 20 0.5t25 2.5t24 5.5t17 9.5q1 0 1 1v1
q0 3 -2.5 8.5t-4.5 7.5q-9 20 -14.5 43t-10.5 45q-3 13 -9.5 25t-8.5 24l-14 77q-1 3 -5.5 6.5t-7.5 4.5z" />
    <glyph glyph-name="Adieresis" unicode="&#xc4;" 
d="M627 0q-29 0 -48.5 10t-31 27t-16.5 40t-5 49h-5q0 5 -5 5q-4 0 -8 -1.5t-7 -3.5q-6 0 -33.5 0.5t-59.5 0.5q-31 0 -60 -1t-38 -4q-20 -6 -29.5 -18t-14.5 -27t-8 -31t-10 -29t-21.5 -21.5t-41.5 -8.5q-14 0 -27 1t-27 1q-9 0 -18 -2t-17 -2q-14 0 -29.5 2t-28 8
t-20.5 17t-8 29t5.5 34.5t13.5 32.5t16.5 31.5t14.5 31.5q2 6 2.5 13.5t2.5 14.5q5 22 10 47.5t14 46.5q11 25 21.5 49.5t21.5 49.5q5 11 5 25q0 15 4 27q5 15 15 30t14 30q3 11 5 24t5.5 25.5t8.5 24.5t13 21q4 25 14 48t24 44q3 18 8 36t15 33t24.5 25t35.5 12
q23 3 36.5 5.5t25.5 2.5q19 0 44.5 -4.5t49.5 -14.5t42.5 -25.5t24.5 -37.5q12 -48 27 -93t22 -96q7 -11 17 -30t20.5 -40t19 -40t11.5 -30t5.5 -21.5t5.5 -21.5t12.5 -24.5t14.5 -24.5q4 -10 6.5 -22l5 -24t5.5 -23.5t8 -20.5t15 -28.5t20.5 -41.5t18 -42.5t7.5 -31.5
q0 -12 -7 -21t-17.5 -16.5t-22 -13t-19.5 -10.5q-5 0 -18.5 -1t-29 -1.5t-29 -2t-17.5 -2.5zM466 988q1 -4 -1.5 0t-5 8.5t-2.5 5.5q-5 18 -5 32t4.5 25t15.5 19q13 10 30.5 20.5t36.5 19.5t38.5 15t36.5 6q22 0 36 -7t21.5 -19.5t10 -29t2.5 -35.5q0 -12 -1 -24.5t-1 -24.5
t-0.5 -32t-4 -39.5t-12.5 -33.5t-26 -14h-36q-19 0 -38 -5t-39 -5q-24 0 -36 12t-17 30t-5.5 38.5t-1.5 37.5zM113 980q1 -4 -1.5 0t-5 8.5t-2.5 5.5q-5 18 -5 32t4.5 25t15.5 19q13 10 30.5 20.5t36.5 19.5t38.5 15t36.5 6q22 0 36 -7t21.5 -19.5t10 -29t2.5 -35.5
q0 -12 -1 -24.5t-1 -24.5t-0.5 -32t-4 -39.5t-12.5 -33.5t-26 -14h-36q-19 0 -38 -5t-39 -5q-24 0 -36 12t-17 30t-5.5 38.5t-1.5 37.5zM393 556q-6 -20 -10 -38t-8 -38t-11 -40.5t-14 -40.5t-12.5 -40.5t-5.5 -41.5q0 -8 6 -12.5t14 -6.5t16.5 -2.5t14.5 -0.5q8 0 20 0.5
t25 2.5t24 5.5t17 9.5q1 0 1 1v1q0 3 -2.5 8.5t-4.5 7.5q-9 20 -14.5 43t-10.5 45q-3 13 -9.5 25t-8.5 24l-14 77q-1 3 -5.5 6.5t-7.5 4.5z" />
    <glyph glyph-name="Aring" unicode="&#xc5;" 
d="M627 0q-29 0 -48.5 10t-31 27t-16.5 40t-5 49h-5q0 5 -5 5q-4 0 -8 -1.5t-7 -3.5q-6 0 -33.5 0.5t-59.5 0.5q-31 0 -60 -1t-38 -4q-20 -6 -29.5 -18t-14.5 -27t-8 -31t-10 -29t-21.5 -21.5t-41.5 -8.5q-14 0 -27 1t-27 1q-9 0 -18 -2t-17 -2q-14 0 -29.5 2t-28 8
t-20.5 17t-8 29t5.5 34.5t13.5 32.5t16.5 31.5t14.5 31.5q2 6 2.5 13.5t2.5 14.5q5 22 10 47.5t14 46.5q11 25 21.5 49.5t21.5 49.5q5 11 5 25q0 15 4 27q5 15 15 30t14 30q3 11 5 24t5.5 25.5t8.5 24.5t13 21q4 25 14 48t24 44q3 18 8 36t15 33t24.5 25t35.5 12
q23 3 36.5 5.5t25.5 2.5q19 0 44.5 -4.5t49.5 -14.5t42.5 -25.5t24.5 -37.5q12 -48 27 -93t22 -96q7 -11 17 -30t20.5 -40t19 -40t11.5 -30t5.5 -21.5t5.5 -21.5t12.5 -24.5t14.5 -24.5q4 -10 6.5 -22l5 -24t5.5 -23.5t8 -20.5t15 -28.5t20.5 -41.5t18 -42.5t7.5 -31.5
q0 -12 -7 -21t-17.5 -16.5t-22 -13t-19.5 -10.5q-5 0 -18.5 -1t-29 -1.5t-29 -2t-17.5 -2.5zM527 1019q0 2 -2.5 9.5t-3.5 11.5q-2 6 -3 13t-3 13q-3 11 -16 24.5t-22 20.5q-2 2 -7.5 7t-7.5 6q-5 2 -11 3.5t-12 3.5q-5 1 -9 2.5t-9 3.5q-2 0 -8.5 1t-14 1.5t-14.5 1
t-10 0.5q-26 0 -45.5 -13.5t-36.5 -31.5q-3 -2 -10.5 -10.5t-9.5 -11.5q-9 -20 -12 -37.5t-3 -40.5q0 -6 -1.5 -11.5t-1.5 -11.5q0 -1 1 -6t2 -10.5l2 -11t1 -7.5q2 -10 9 -21.5t16 -22.5t20 -19.5t21 -12.5q3 -1 10 -3.5t15 -5t15.5 -4.5t10.5 -2h26q3 0 5.5 1t4.5 2
q7 1 17 4t15 5q4 1 10 5t12 8.5t11.5 9t8.5 7.5q7 8 17.5 23t13.5 26q9 39 9 81zM393 556q-6 -20 -10 -38t-8 -38t-11 -40.5t-14 -40.5t-12.5 -40.5t-5.5 -41.5q0 -8 6 -12.5t14 -6.5t16.5 -2.5t14.5 -0.5q8 0 20 0.5t25 2.5t24 5.5t17 9.5q1 0 1 1v1q0 3 -2.5 8.5t-4.5 7.5
q-9 20 -14.5 43t-10.5 45q-3 13 -9.5 25t-8.5 24l-14 77q-1 3 -5.5 6.5t-7.5 4.5zM436 1004q0 -3 -0.5 -8.5t-0.5 -12.5v-11v-6q-1 -2 -2.5 -4t-1.5 -4q-5 -11 -8 -13.5t-15 -8.5q-3 0 -7 -1.5t-8 -1.5q-24 0 -35 19t-11 40q0 17 7.5 31t24.5 21q3 1 7 2t8 1q11 0 21 -6
t13 -17q5 -11 8 -20z" />
    <glyph glyph-name="AE" unicode="&#xc6;" horiz-adv-x="1238" 
d="M1159 3h-81q-21 0 -42.5 2.5t-43.5 2.5q-11 0 -32 0.5t-43 -0.5t-41.5 -3t-26.5 -7q-20 0 -42.5 1t-42.5 -3q-14 -3 -34 -3t-41 1.5t-40 3.5t-31 2q-29 0 -46 10t-24 27t-5.5 40t8.5 49h-5q2 5 -4 5q-4 0 -8.5 -1.5t-7.5 -3.5q-6 0 -33 0.5t-59 0.5t-61 -1t-39 -4
q-22 -6 -34.5 -18t-21.5 -27t-16.5 -31t-18 -29t-27.5 -21.5t-44 -8.5q-14 0 -26.5 1t-26.5 1q-9 0 -18 -2t-17 -2q-14 0 -29 2t-26 8t-16 17t0 29t15 34.5t22.5 32.5t25 31.5t22.5 31.5q3 6 5.5 13.5t6.5 14.5q10 22 22 47.5t27 46.5q17 25 35 49.5t35 49.5q7 11 11 25.5
t12 26.5q8 15 22.5 30t22.5 30q11 22 23.5 49.5t34.5 45.5q10 25 26.5 48t35.5 44q7 18 17.5 36t24.5 33t31.5 25t38.5 12q24 3 38 5.5t26 2.5q17 0 37.5 -2t40.5 -10q48 -1 82.5 -2t59.5 -1.5t43.5 -1t35.5 -0.5l110 4q5 1 10 1h11q11 0 23.5 -2t23.5 -8q5 -3 10.5 -20
t10.5 -38t8.5 -40t3.5 -25q4 -34 -13 -48.5t-49 -14.5q-29 0 -57 5t-57 5t-58.5 2.5t-58.5 2.5q-17 0 -35 -4.5t-28 -19.5q-1 0 -2 -1t0 -2q0 -1 1 -2q2 -10 3.5 -25t5.5 -29t12 -24t24 -10q22 0 43 4.5t43 4.5t43.5 -1.5t43.5 -0.5q19 1 38.5 3.5t39.5 2.5q26 0 42.5 -10.5
t19.5 -38.5q1 -4 0.5 -7.5t0.5 -7.5q1 -17 3 -37.5t-0.5 -38t-13.5 -29.5t-36 -12q-32 0 -63.5 -1.5t-63.5 -1.5q-8 0 -18.5 2.5t-22.5 6t-24.5 6t-23.5 2.5q-8 0 -15 -1t-15 -4q-25 0 -32.5 -9.5t-6.5 -24.5q0 -3 0.5 -6t0.5 -6q1 -6 1.5 -12.5t1.5 -13.5q1 -13 3 -27
t6.5 -25t14 -18.5t26.5 -7.5q21 0 43.5 4t45.5 6q36 2 72 2.5t73 2.5q17 1 33.5 2.5t33.5 1.5q26 0 44 -10t21 -39q1 -11 -0.5 -20.5t-0.5 -20.5q2 -14 5 -27t5 -27q2 -20 -9.5 -39t-33.5 -19zM534 556q-11 -20 -20 -38l-19 -38q-9 -20 -21.5 -40.5t-25 -40.5t-23.5 -40.5
t-17 -41.5q-2 -8 3 -12.5t12.5 -6.5t16 -2.5t14.5 -0.5q8 0 20 0.5t25 2.5t25 5.5t20 9.5q1 0 1.5 1l0.5 1q1 3 5.5 8t3.5 7q-3 20 -2.5 43t1.5 45q1 13 -2.5 25t-2.5 24q2 25 1 40t-3 23.5t-4.5 13t-2.5 7.5q-4 4 -6 5z" />
    <glyph glyph-name="Ccedilla" unicode="&#xc7;" horiz-adv-x="748" 
d="M266 -56l-1 1q0 16 -1.5 32t-2.5 32q-33 13 -62.5 32t-55.5 47l-50 54q-5 16 -13.5 34t-17.5 37t-15.5 37.5t-6.5 34.5q0 35 3 70.5t3 70.5v46t2 46q3 28 14.5 58.5t28.5 59t37.5 54t41.5 42.5q22 18 56 37t61 30q1 1 12.5 3.5t25.5 5.5t25.5 5t12.5 2q37 0 76.5 -4.5
t78 -15.5t73.5 -29t62 -46q8 -9 16 -19t16 -19q12 -14 26 -33.5t14 -39.5q0 -5 -6 -14t-14 -19t-16 -18.5t-11 -12.5q-11 -6 -21 -14t-20 -15t-21.5 -11.5t-25.5 -4.5q-13 0 -24 6.5t-20 16.5t-17 21t-15 19q-8 9 -19 17t-23.5 15t-25.5 11t-25 4q-20 0 -36.5 -8.5
t-32.5 -18.5q-11 -8 -23.5 -14.5t-23.5 -14.5q-15 -11 -25.5 -29t-16.5 -39t-8.5 -42.5t-2.5 -39.5q0 -51 21.5 -100.5t51.5 -89.5q44 -29 97 -29q43 0 66.5 17t39 38t29 38t36.5 17q14 0 37 -8.5t44.5 -22t37.5 -30.5t16 -33q0 -25 -25 -57t-59 -62.5t-70 -54.5t-58 -33
q-14 2 -28 -0.5t-27 -4.5q2 -35 8.5 -69t6.5 -69q0 -12 -1 -29.5t-5 -34.5t-12.5 -29t-24.5 -12h-36q-19 0 -38 -5t-39 -5q-23 0 -35 11.5t-17.5 29t-6.5 37.5t-1 37q0 23 2 46.5t4 46.5z" />
    <glyph glyph-name="Egrave" unicode="&#xc8;" horiz-adv-x="710" 
d="M620 3h-81q-21 0 -42.5 2.5t-43.5 2.5q-11 0 -32 0.5t-43 -0.5t-41.5 -3t-27.5 -7q-20 0 -42.5 1t-42.5 -3t-42 -6.5t-42 -2.5q-48 0 -69 28t-21 73q0 36 7 71.5t7 70.5q0 10 -2 20t-3 20q-1 15 0 30.5t0 30.5q0 8 -2 16t-2 16q0 26 3.5 51.5t3.5 51.5q0 11 -1.5 21.5
t-1.5 21.5q0 26 2.5 53t2.5 53q0 34 -3 67.5t-3 67.5q0 9 7 16.5t16.5 12.5t20 9t18.5 7q8 0 17 0.5t17 0.5q27 0 53 -4t52 -9l7 1l33 1q69 3 138 3q10 0 20 -1.5t20 -3.5q-1 0 3 0.5t6 1.5l13 1l49 6q5 1 10 1h11q11 0 23 -2t23 -8q4 -3 8 -20t6.5 -38t4 -40t1.5 -25
q0 -34 -18.5 -48.5t-50.5 -14.5q-29 0 -56.5 5t-56.5 5t-58.5 2.5t-58.5 2.5q-17 0 -35.5 -4.5t-29.5 -19.5q-3 0 -3 -3q0 -1 1 -2q1 -10 1 -25t2.5 -29t9.5 -24t23 -10q22 0 43.5 4.5t43.5 4.5t43 -1.5t43 -0.5q20 1 39.5 3.5t39.5 2.5q26 0 41.5 -10.5t15.5 -38.5
q0 -4 -0.5 -7.5t-0.5 -7.5q-1 -17 -1 -38q0 -20 -4.5 -37.5t-16.5 -29.5t-37 -12q-32 0 -64 -1.5t-64 -1.5q-15 0 -39.5 8.5t-47.5 8.5q-8 0 -15 -1t-15 -4q-19 0 -28 -5.5t-12.5 -15t-3 -23t0.5 -28.5v-27t3.5 -25t12 -18.5t25.5 -7.5q21 0 44 4t46 6q37 2 73 2.5t73 2.5
q17 1 33.5 2.5t33.5 1.5q26 0 43 -10t17 -39q0 -11 -2.5 -20.5t-2.5 -20.5q0 -14 2 -27t2 -27q0 -20 -13.5 -39t-35.5 -19zM448 920q13 10 15.5 22t-1.5 24.5t-12.5 25t-15.5 22.5q-9 14 -20.5 27.5t-22.5 26.5v1q-8 11 -14.5 22t-13.5 22q-2 8 -6.5 14t-10.5 11
q-24 27 -45 40t-40.5 10.5t-40 -20.5t-44.5 -52q37 -60 60 -95t36 -54.5t19.5 -28t12.5 -16.5q5 -7 13 -17.5t18 -19t20.5 -12t19.5 3.5l22 15q11 8 25 13.5t26 14.5z" />
    <glyph glyph-name="Eacute" unicode="&#xc9;" horiz-adv-x="710" 
d="M620 3h-81q-21 0 -42.5 2.5t-43.5 2.5q-11 0 -32 0.5t-43 -0.5t-41.5 -3t-27.5 -7q-20 0 -42.5 1t-42.5 -3t-42 -6.5t-42 -2.5q-48 0 -69 28t-21 73q0 36 7 71.5t7 70.5q0 10 -2 20t-3 20q-1 15 0 30.5t0 30.5q0 8 -2 16t-2 16q0 26 3.5 51.5t3.5 51.5q0 11 -1.5 21.5
t-1.5 21.5q0 26 2.5 53t2.5 53q0 34 -3 67.5t-3 67.5q0 9 7 16.5t16.5 12.5t20 9t18.5 7q8 0 17 0.5t17 0.5q27 0 53 -4t52 -9l7 1l33 1q69 3 138 3q10 0 20 -1.5t20 -3.5q-1 0 3 0.5t6 1.5l13 1l49 6q5 1 10 1h11q11 0 23 -2t23 -8q4 -3 8 -20t6.5 -38t4 -40t1.5 -25
q0 -34 -18.5 -48.5t-50.5 -14.5q-29 0 -56.5 5t-56.5 5t-58.5 2.5t-58.5 2.5q-17 0 -35.5 -4.5t-29.5 -19.5q-3 0 -3 -3q0 -1 1 -2q1 -10 1 -25t2.5 -29t9.5 -24t23 -10q22 0 43.5 4.5t43.5 4.5t43 -1.5t43 -0.5q20 1 39.5 3.5t39.5 2.5q26 0 41.5 -10.5t15.5 -38.5
q0 -4 -0.5 -7.5t-0.5 -7.5q-1 -17 -1 -38q0 -20 -4.5 -37.5t-16.5 -29.5t-37 -12q-32 0 -64 -1.5t-64 -1.5q-15 0 -39.5 8.5t-47.5 8.5q-8 0 -15 -1t-15 -4q-19 0 -28 -5.5t-12.5 -15t-3 -23t0.5 -28.5v-27t3.5 -25t12 -18.5t25.5 -7.5q21 0 44 4t46 6q37 2 73 2.5t73 2.5
q17 1 33.5 2.5t33.5 1.5q26 0 43 -10t17 -39q0 -11 -2.5 -20.5t-2.5 -20.5q0 -14 2 -27t2 -27q0 -20 -13.5 -39t-35.5 -19zM292 923q-14 10 -16 22t2 24.5t12 25t16 22.5q9 14 20.5 27.5t22.5 26.5v1q8 11 14.5 22t13.5 22q2 8 6.5 14t10.5 11q24 27 45 40t40.5 10.5
t40 -20.5t44.5 -52q-38 -60 -60.5 -95t-35.5 -54.5t-19.5 -28t-12.5 -16.5q-5 -7 -13 -17.5t-18 -19t-20.5 -12t-19.5 3.5l-22 15q-11 8 -25 13.5t-26 14.5z" />
    <glyph glyph-name="Ecircumflex" unicode="&#xca;" horiz-adv-x="710" 
d="M620 3h-81q-21 0 -42.5 2.5t-43.5 2.5q-11 0 -32 0.5t-43 -0.5t-41.5 -3t-27.5 -7q-20 0 -42.5 1t-42.5 -3t-42 -6.5t-42 -2.5q-48 0 -69 28t-21 73q0 36 7 71.5t7 70.5q0 10 -2 20t-3 20q-1 15 0 30.5t0 30.5q0 8 -2 16t-2 16q0 26 3.5 51.5t3.5 51.5q0 11 -1.5 21.5
t-1.5 21.5q0 26 2.5 53t2.5 53q0 34 -3 67.5t-3 67.5q0 9 7 16.5t16.5 12.5t20 9t18.5 7q8 0 17 0.5t17 0.5q27 0 53 -4t52 -9l7 1l33 1q69 3 138 3q10 0 20 -1.5t20 -3.5q-1 0 3 0.5t6 1.5l13 1l49 6q5 1 10 1h11q11 0 23 -2t23 -8q4 -3 8 -20t6.5 -38t4 -40t1.5 -25
q0 -34 -18.5 -48.5t-50.5 -14.5q-29 0 -56.5 5t-56.5 5t-58.5 2.5t-58.5 2.5q-17 0 -35.5 -4.5t-29.5 -19.5q-3 0 -3 -3q0 -1 1 -2q1 -10 1 -25t2.5 -29t9.5 -24t23 -10q22 0 43.5 4.5t43.5 4.5t43 -1.5t43 -0.5q20 1 39.5 3.5t39.5 2.5q26 0 41.5 -10.5t15.5 -38.5
q0 -4 -0.5 -7.5t-0.5 -7.5q-1 -17 -1 -38q0 -20 -4.5 -37.5t-16.5 -29.5t-37 -12q-32 0 -64 -1.5t-64 -1.5q-15 0 -39.5 8.5t-47.5 8.5q-8 0 -15 -1t-15 -4q-19 0 -28 -5.5t-12.5 -15t-3 -23t0.5 -28.5v-27t3.5 -25t12 -18.5t25.5 -7.5q21 0 44 4t46 6q37 2 73 2.5t73 2.5
q17 1 33.5 2.5t33.5 1.5q26 0 43 -10t17 -39q0 -11 -2.5 -20.5t-2.5 -20.5q0 -14 2 -27t2 -27q0 -20 -13.5 -39t-35.5 -19zM500 1083q11 -13 22.5 -26t20.5 -27q7 -10 15 -22.5t12.5 -25.5t2 -25t-15.5 -22q-12 -8 -26 -13.5t-25 -13.5l-22 -15q-9 -7 -19.5 -3.5t-20 11.5
t-18 18.5t-13.5 18.5q-11 15 -19.5 32t-16.5 34q-10 -18 -19 -35.5t-20 -33.5q-5 -7 -13 -17.5t-17.5 -19t-20 -12t-20.5 3.5l-21 15q-11 8 -25 13.5t-26 13.5q-14 10 -16 22t2 25t12 25.5t15 22.5q10 14 21.5 27t22.5 26v1q8 11 14 22t14 22q1 8 6 14t11 11q24 27 44 41.5
t39 14.5t39.5 -16t44.5 -50q9 -13 17.5 -27.5t18.5 -28.5v-1z" />
    <glyph glyph-name="Edieresis" unicode="&#xcb;" horiz-adv-x="710" 
d="M620 3h-81q-21 0 -42.5 2.5t-43.5 2.5q-11 0 -32 0.5t-43 -0.5t-41.5 -3t-27.5 -7q-20 0 -42.5 1t-42.5 -3t-42 -6.5t-42 -2.5q-48 0 -69 28t-21 73q0 36 7 71.5t7 70.5q0 10 -2 20t-3 20q-1 15 0 30.5t0 30.5q0 8 -2 16t-2 16q0 26 3.5 51.5t3.5 51.5q0 11 -1.5 21.5
t-1.5 21.5q0 26 2.5 53t2.5 53q0 34 -3 67.5t-3 67.5q0 9 7 16.5t16.5 12.5t20 9t18.5 7q8 0 17 0.5t17 0.5q27 0 53 -4t52 -9l7 1l33 1q69 3 138 3q10 0 20 -1.5t20 -3.5q-1 0 3 0.5t6 1.5l13 1l49 6q5 1 10 1h11q11 0 23 -2t23 -8q4 -3 8 -20t6.5 -38t4 -40t1.5 -25
q0 -34 -18.5 -48.5t-50.5 -14.5q-29 0 -56.5 5t-56.5 5t-58.5 2.5t-58.5 2.5q-17 0 -35.5 -4.5t-29.5 -19.5q-3 0 -3 -3q0 -1 1 -2q1 -10 1 -25t2.5 -29t9.5 -24t23 -10q22 0 43.5 4.5t43.5 4.5t43 -1.5t43 -0.5q20 1 39.5 3.5t39.5 2.5q26 0 41.5 -10.5t15.5 -38.5
q0 -4 -0.5 -7.5t-0.5 -7.5q-1 -17 -1 -38q0 -20 -4.5 -37.5t-16.5 -29.5t-37 -12q-32 0 -64 -1.5t-64 -1.5q-15 0 -39.5 8.5t-47.5 8.5q-8 0 -15 -1t-15 -4q-19 0 -28 -5.5t-12.5 -15t-3 -23t0.5 -28.5v-27t3.5 -25t12 -18.5t25.5 -7.5q21 0 44 4t46 6q37 2 73 2.5t73 2.5
q17 1 33.5 2.5t33.5 1.5q26 0 43 -10t17 -39q0 -11 -2.5 -20.5t-2.5 -20.5q0 -14 2 -27t2 -27q0 -20 -13.5 -39t-35.5 -19zM412 1005q1 -4 -1.5 0t-5 8.5t-2.5 5.5q-5 18 -5 32t4.5 25t15.5 19q13 10 30.5 20.5t36.5 19.5t38.5 15t36.5 6q22 0 36 -7t21.5 -19.5t10 -29
t2.5 -35.5q0 -12 -1 -24.5t-1 -24.5t-0.5 -32t-4 -39.5t-12.5 -33.5t-26 -14h-36q-19 0 -38 -5t-39 -5q-24 0 -36 12t-17 30t-5.5 38.5t-1.5 37.5zM59 997q1 -4 -1.5 0t-5 8.5t-2.5 5.5q-5 18 -5 32t4.5 25t15.5 19q13 10 30.5 20.5t36.5 19.5t38.5 15t36.5 6q22 0 36 -7
t21.5 -19.5t10 -29t2.5 -35.5q0 -12 -1 -24.5t-1 -24.5t-0.5 -32t-4 -39.5t-12.5 -33.5t-26 -14h-36q-19 0 -38 -5t-39 -5q-24 0 -36 12t-17 30t-5.5 38.5t-1.5 37.5z" />
    <glyph glyph-name="Igrave" unicode="&#xcc;" horiz-adv-x="326" 
d="M273 40q-15 -36 -40.5 -43t-61.5 -7h-30q-16 0 -32 3t-28.5 10.5t-18.5 22.5q-3 0 -3 9v12q-2 37 -5.5 73t-3.5 73q0 19 4.5 38t4.5 38q0 7 -3 15t-3 15q0 23 3 45t3 45q0 22 -2 43.5t-2 43.5t1 43t1 43q0 46 -3.5 91t-3.5 91q0 21 13 37.5t35 16.5q21 0 40.5 1t40.5 4
q18 -6 35.5 -8.5t31 -8t22 -18t8.5 -38.5q0 -32 -7 -64t-7 -64q0 -17 4.5 -39t4.5 -42q0 -9 -2.5 -18t-2.5 -18q0 -11 1 -23t1 -24q0 -29 -2 -56t-9 -56q3 -16 7.5 -34t4.5 -34q0 -23 -2 -46.5t-2 -46.5q0 -12 -0.5 -24.5t1.5 -24.5q2 -17 5 -35t3 -35q0 -5 -1 -6zM262 935
q13 10 15.5 22t-1.5 24.5t-12.5 25t-15.5 22.5q-9 14 -20.5 27.5t-22.5 26.5v1q-8 11 -14.5 22t-13.5 22q-2 8 -6.5 14t-10.5 11q-24 27 -45 40t-40.5 10.5t-40 -20.5t-44.5 -52q37 -60 60 -95t36 -54.5t19.5 -28t12.5 -16.5q5 -7 13 -17.5t18 -19t20.5 -12t19.5 3.5l22 15
q11 8 25 13.5t26 14.5z" />
    <glyph glyph-name="Iacute" unicode="&#xcd;" horiz-adv-x="326" 
d="M273 40q-15 -36 -40.5 -43t-61.5 -7h-30q-16 0 -32 3t-28.5 10.5t-18.5 22.5q-3 0 -3 9v12q-2 37 -5.5 73t-3.5 73q0 19 4.5 38t4.5 38q0 7 -3 15t-3 15q0 23 3 45t3 45q0 22 -2 43.5t-2 43.5t1 43t1 43q0 46 -3.5 91t-3.5 91q0 21 13 37.5t35 16.5q21 0 40.5 1t40.5 4
q18 -6 35.5 -8.5t31 -8t22 -18t8.5 -38.5q0 -32 -7 -64t-7 -64q0 -17 4.5 -39t4.5 -42q0 -9 -2.5 -18t-2.5 -18q0 -11 1 -23t1 -24q0 -29 -2 -56t-9 -56q3 -16 7.5 -34t4.5 -34q0 -23 -2 -46.5t-2 -46.5q0 -12 -0.5 -24.5t1.5 -24.5q2 -17 5 -35t3 -35q0 -5 -1 -6zM78 934
q-14 10 -16 22t2 24.5t12 25t16 22.5q9 14 20.5 27.5t22.5 26.5v1q8 11 14.5 22t13.5 22q2 8 6.5 14t10.5 11q24 27 45 40t40.5 10.5t40 -20.5t44.5 -52q-38 -60 -60.5 -95t-35.5 -54.5t-19.5 -28t-12.5 -16.5q-5 -7 -13 -17.5t-18 -19t-20.5 -12t-19.5 3.5l-22 15
q-11 8 -25 13.5t-26 14.5z" />
    <glyph glyph-name="Icircumflex" unicode="&#xce;" horiz-adv-x="326" 
d="M273 40q-15 -36 -40.5 -43t-61.5 -7h-30q-16 0 -32 3t-28.5 10.5t-18.5 22.5q-3 0 -3 9v12q-2 37 -5.5 73t-3.5 73q0 19 4.5 38t4.5 38q0 7 -3 15t-3 15q0 23 3 45t3 45q0 22 -2 43.5t-2 43.5t1 43t1 43q0 46 -3.5 91t-3.5 91q0 21 13 37.5t35 16.5q21 0 40.5 1t40.5 4
q18 -6 35.5 -8.5t31 -8t22 -18t8.5 -38.5q0 -32 -7 -64t-7 -64q0 -17 4.5 -39t4.5 -42q0 -9 -2.5 -18t-2.5 -18q0 -11 1 -23t1 -24q0 -29 -2 -56t-9 -56q3 -16 7.5 -34t4.5 -34q0 -23 -2 -46.5t-2 -46.5q0 -12 -0.5 -24.5t1.5 -24.5q2 -17 5 -35t3 -35q0 -5 -1 -6zM279 1070
q11 -13 22.5 -26t20.5 -27q7 -10 15 -22.5t12.5 -25.5t2 -25t-15.5 -22q-12 -8 -26 -13.5t-25 -13.5l-22 -15q-9 -7 -19.5 -3.5t-20 11.5t-18 18.5t-13.5 18.5q-11 15 -19.5 32t-16.5 34q-10 -18 -19 -35.5t-20 -33.5q-5 -7 -13 -17.5t-17.5 -19t-20 -12t-20.5 3.5l-21 15
q-11 8 -25 13.5t-26 13.5q-14 10 -16 22t2 25t12 25.5t15 22.5q10 14 21.5 27t22.5 26v1q8 11 14 22t14 22q1 8 6 14t11 11q24 27 44 41.5t39 14.5t39.5 -16t44.5 -50q9 -13 17.5 -27.5t18.5 -28.5v-1z" />
    <glyph glyph-name="Idieresis" unicode="&#xcf;" horiz-adv-x="326" 
d="M273 40q-15 -36 -40.5 -43t-61.5 -7h-30q-16 0 -32 3t-28.5 10.5t-18.5 22.5q-3 0 -3 9v12q-2 37 -5.5 73t-3.5 73q0 19 4.5 38t4.5 38q0 7 -3 15t-3 15q0 23 3 45t3 45q0 22 -2 43.5t-2 43.5t1 43t1 43q0 46 -3.5 91t-3.5 91q0 21 13 37.5t35 16.5q21 0 40.5 1t40.5 4
q18 -6 35.5 -8.5t31 -8t22 -18t8.5 -38.5q0 -32 -7 -64t-7 -64q0 -17 4.5 -39t4.5 -42q0 -9 -2.5 -18t-2.5 -18q0 -11 1 -23t1 -24q0 -29 -2 -56t-9 -56q3 -16 7.5 -34t4.5 -34q0 -23 -2 -46.5t-2 -46.5q0 -12 -0.5 -24.5t1.5 -24.5q2 -17 5 -35t3 -35q0 -5 -1 -6zM236 998
q1 -4 -1.5 0t-5 8.5t-2.5 5.5q-5 18 -5 32t4.5 25t15.5 19q13 10 30.5 20.5t36.5 19.5t38.5 15t36.5 6q22 0 36 -7t21.5 -19.5t10 -29t2.5 -35.5q0 -12 -1 -24.5t-1 -24.5t-0.5 -32t-4 -39.5t-12.5 -33.5t-26 -14h-36q-19 0 -38 -5t-39 -5q-24 0 -36 12t-17 30t-5.5 38.5
t-1.5 37.5zM-117 990q1 -4 -1.5 0t-5 8.5t-2.5 5.5q-5 18 -5 32t4.5 25t15.5 19q13 10 30.5 20.5t36.5 19.5t38.5 15t36.5 6q22 0 36 -7t21.5 -19.5t10 -29t2.5 -35.5q0 -12 -1 -24.5t-1 -24.5t-0.5 -32t-4 -39.5t-12.5 -33.5t-26 -14h-36q-19 0 -38 -5t-39 -5q-24 0 -36 12
t-17 30t-5.5 38.5t-1.5 37.5z" />
    <glyph glyph-name="Eth" unicode="&#xd0;" horiz-adv-x="883" 
d="M129 310q-16 0 -33 2.5t-31.5 10t-23.5 20t-9 32.5v25q0 31 3.5 47.5t13.5 25.5t26.5 14t42.5 13q9 -1 26 -3q1 23 3 45t2 45q0 29 -3 56.5t-3 56.5q0 20 1 33.5t6 24t14.5 19.5t27.5 20q58 -6 116.5 -9t117.5 -5h4q20 -1 40.5 3t40.5 4q25 0 47.5 -5t44.5 -13
t43.5 -17.5t44.5 -18.5q25 -24 44 -43t34.5 -38.5t30 -43t31.5 -55.5q5 -42 8.5 -83.5t3.5 -83.5q0 -28 -5.5 -55.5t-6.5 -55.5q-11 -26 -20 -52t-19 -52q-3 -9 -14 -23t-23.5 -28.5t-25.5 -27.5l-20 -20q-8 -8 -28 -17.5t-43 -18t-44.5 -14.5t-32.5 -6q-30 0 -58 -5.5
t-57 -7.5q-16 -2 -31 -0.5t-30 -2.5q-56 -12 -117 -12q-16 0 -37 2t-39.5 9t-31.5 20t-13 36q0 8 2 16.5t2 16.5t-2 15.5t-2 15.5q0 26 1 52.5t1 52.5v41t-1 42h-19zM378 601q-4 -8 -4.5 -17.5t-0.5 -17.5q0 -5 0.5 -10.5t0.5 -10.5v-24t-1 -24h41q22 0 37 -1t24 -7.5
t12.5 -20.5t3.5 -39v-12t-1 -12q2 -9 2 -20v-20q0 -15 -11.5 -29t-22.5 -24l-91 -1v-8l-1 -55l-1 -14v-3q0 -22 16.5 -29.5t35.5 -7.5q56 0 95.5 10t64 34t36 63t11.5 97q0 12 -2 32t-6 41t-10.5 39.5t-15.5 27.5q-19 18 -45 30t-54.5 19.5t-58 10.5t-54.5 3z" />
    <glyph glyph-name="Ntilde" unicode="&#xd1;" horiz-adv-x="796" 
d="M602 -8q-38 0 -60.5 11t-38 29t-29 41.5t-34.5 49.5q-5 28 -19 51.5t-28 47.5q-12 22 -22 45t-21 45q-5 9 -11 17.5t-11 18.5q-14 26 -25.5 53t-22.5 55v2q-4 0 -6.5 -5.5t-3.5 -12.5t-1 -14v-8q0 -17 4.5 -33t4.5 -33q0 -42 -1 -83.5t3 -82.5l6 -66t3 -66t-11.5 -45
t-27 -15t-33.5 -3q-17 0 -29 -8q-10 0 -25.5 0.5t-31 3t-29.5 7.5t-20 14q-4 5 -6 15.5t-3 22t-1.5 22.5t-0.5 17q-2 35 -3 70t-1 70q0 30 3 60t3 61q0 22 -4 44t-4 45q0 37 1.5 74.5t-0.5 74.5q-1 8 -2.5 16.5t-1.5 16.5q0 9 0.5 25t0.5 32q0 17 -1.5 31.5t-4.5 21.5
q-2 5 -4.5 11t-2.5 12q0 17 17 26t40 13t45.5 4.5t33.5 0.5q10 0 28 -1t37 -3.5t36 -7t25 -12.5t13 -18t9 -20.5l8 -21t10 -19.5q23 -35 43 -71t36 -74q4 -10 11 -19.5t12 -18.5q17 -29 34.5 -59.5t30.5 -60.5q5 -12 9.5 -27.5t8.5 -28.5v-2h11q0 41 -5 82t-9 82
q-5 49 -9 97.5t-4 97.5q0 32 2 51t11 29.5t27.5 14.5t51.5 6q7 0 18 1t22 2.5t21 4t16 6.5q31 -8 43 -24t13 -46v-150q0 -11 -3.5 -21.5t-3.5 -21.5q0 -14 2.5 -29t2.5 -29q0 -21 -3.5 -43t-3.5 -43q0 -17 0.5 -33.5t1.5 -33.5q0 -10 -2.5 -22.5l-4.5 -22.5q4 -13 6.5 -27
t2.5 -27q0 -21 -1 -41.5t-1 -41.5q0 -6 0.5 -23t0.5 -36v-34q0 -15 -1 -18q-6 -19 -23 -26t-33 -14h-18q-11 0 -23.5 -0.5t-23.5 -1.5t-16 -3zM293 878q-16 0 -33 2.5t-31.5 10t-23.5 20t-9 32.5v25q0 31 3.5 47.5t13.5 25.5t26.5 14t42.5 13q13 -2 33.5 -3.5t42 -2
t41.5 -0.5t33 1q16 1 35.5 1.5t38.5 0.5h38h34q22 0 37 -1t24 -7.5t12.5 -20.5t3.5 -39v-12t-1 -12q2 -9 2 -20v-20q0 -15 -11.5 -29t-22.5 -24z" />
    <glyph glyph-name="Ograve" unicode="&#xd2;" horiz-adv-x="866" 
d="M826 476q0 -56 -5.5 -116.5t-19.5 -114.5q-4 -16 -14.5 -35.5t-24 -39t-27.5 -37t-24 -30.5q-6 -8 -22 -21t-34 -26.5t-35 -24.5t-26 -14t-22 -7.5t-26 -8.5t-25.5 -7.5t-21.5 -5.5q-6 -2 -14.5 -3t-14.5 -1h-76q-9 0 -29.5 4.5t-44 11t-44.5 13.5t-31 11
q-27 11 -57.5 36t-57.5 56.5t-46.5 65.5t-25.5 63q-2 6 -5 21t-6 31.5t-5 30.5t-2 18q0 17 2.5 32.5t2.5 32.5q0 64 10.5 115.5t36.5 109.5q2 4 9.5 13t16 19t17 19t11.5 12q25 26 51.5 50t56.5 42t63 28.5t71 10.5q7 0 26.5 -1t41 -3t40 -4t24.5 -4q14 -5 27 -10t27 -10
q16 -5 32.5 -7.5t32.5 -10.5q3 -1 8.5 -5.5t12.5 -10t13 -11t9 -7.5q14 -11 31.5 -26.5t33.5 -33t29 -36.5t18 -36q5 -18 8 -38t8 -39q1 -4 3.5 -13.5t5.5 -19t5 -18t2 -10.5zM592 467q-9 18 -15.5 36t-14.5 36q-7 18 -21 33.5t-31 26.5t-37 17.5t-39 6.5q-12 0 -26.5 -4
t-25.5 -8q-32 -12 -54.5 -31.5t-37.5 -44.5t-22 -55t-7 -62q0 -38 10.5 -76.5t32 -69.5t53.5 -50.5t75 -19.5q15 0 29.5 6t28.5 12q21 10 32.5 15t18 11.5t12 17.5t14.5 32q4 8 9 15t9 15q1 3 2 22.5t2 43t1.5 45t1.5 30.5zM523 953q13 10 15.5 22t-1.5 24.5t-12.5 25
t-15.5 22.5q-9 14 -20.5 27.5t-22.5 26.5v1q-8 11 -14.5 22t-13.5 22q-2 8 -6.5 14t-10.5 11q-24 27 -45 40t-40.5 10.5t-40 -20.5t-44.5 -52q37 -60 60 -95t36 -54.5t19.5 -28t12.5 -16.5q5 -7 13 -17.5t18 -19t20.5 -12t19.5 3.5l22 15q11 8 25 13.5t26 14.5z" />
    <glyph glyph-name="Oacute" unicode="&#xd3;" horiz-adv-x="866" 
d="M826 476q0 -56 -5.5 -116.5t-19.5 -114.5q-4 -16 -14.5 -35.5t-24 -39t-27.5 -37t-24 -30.5q-6 -8 -22 -21t-34 -26.5t-35 -24.5t-26 -14t-22 -7.5t-26 -8.5t-25.5 -7.5t-21.5 -5.5q-6 -2 -14.5 -3t-14.5 -1h-76q-9 0 -29.5 4.5t-44 11t-44.5 13.5t-31 11
q-27 11 -57.5 36t-57.5 56.5t-46.5 65.5t-25.5 63q-2 6 -5 21t-6 31.5t-5 30.5t-2 18q0 17 2.5 32.5t2.5 32.5q0 64 10.5 115.5t36.5 109.5q2 4 9.5 13t16 19t17 19t11.5 12q25 26 51.5 50t56.5 42t63 28.5t71 10.5q7 0 26.5 -1t41 -3t40 -4t24.5 -4q14 -5 27 -10t27 -10
q16 -5 32.5 -7.5t32.5 -10.5q3 -1 8.5 -5.5t12.5 -10t13 -11t9 -7.5q14 -11 31.5 -26.5t33.5 -33t29 -36.5t18 -36q5 -18 8 -38t8 -39q1 -4 3.5 -13.5t5.5 -19t5 -18t2 -10.5zM592 467q-9 18 -15.5 36t-14.5 36q-7 18 -21 33.5t-31 26.5t-37 17.5t-39 6.5q-12 0 -26.5 -4
t-25.5 -8q-32 -12 -54.5 -31.5t-37.5 -44.5t-22 -55t-7 -62q0 -38 10.5 -76.5t32 -69.5t53.5 -50.5t75 -19.5q15 0 29.5 6t28.5 12q21 10 32.5 15t18 11.5t12 17.5t14.5 32q4 8 9 15t9 15q1 3 2 22.5t2 43t1.5 45t1.5 30.5zM329 946q-14 10 -16 22t2 24.5t12 25t16 22.5
q9 14 20.5 27.5t22.5 26.5v1q8 11 14.5 22t13.5 22q2 8 6.5 14t10.5 11q24 27 45 40t40.5 10.5t40 -20.5t44.5 -52q-38 -60 -60.5 -95t-35.5 -54.5t-19.5 -28t-12.5 -16.5q-5 -7 -13 -17.5t-18 -19t-20.5 -12t-19.5 3.5l-22 15q-11 8 -25 13.5t-26 14.5z" />
    <glyph glyph-name="Ocircumflex" unicode="&#xd4;" horiz-adv-x="866" 
d="M826 476q0 -56 -5.5 -116.5t-19.5 -114.5q-4 -16 -14.5 -35.5t-24 -39t-27.5 -37t-24 -30.5q-6 -8 -22 -21t-34 -26.5t-35 -24.5t-26 -14t-22 -7.5t-26 -8.5t-25.5 -7.5t-21.5 -5.5q-6 -2 -14.5 -3t-14.5 -1h-76q-9 0 -29.5 4.5t-44 11t-44.5 13.5t-31 11
q-27 11 -57.5 36t-57.5 56.5t-46.5 65.5t-25.5 63q-2 6 -5 21t-6 31.5t-5 30.5t-2 18q0 17 2.5 32.5t2.5 32.5q0 64 10.5 115.5t36.5 109.5q2 4 9.5 13t16 19t17 19t11.5 12q25 26 51.5 50t56.5 42t63 28.5t71 10.5q7 0 26.5 -1t41 -3t40 -4t24.5 -4q14 -5 27 -10t27 -10
q16 -5 32.5 -7.5t32.5 -10.5q3 -1 8.5 -5.5t12.5 -10t13 -11t9 -7.5q14 -11 31.5 -26.5t33.5 -33t29 -36.5t18 -36q5 -18 8 -38t8 -39q1 -4 3.5 -13.5t5.5 -19t5 -18t2 -10.5zM592 467q-9 18 -15.5 36t-14.5 36q-7 18 -21 33.5t-31 26.5t-37 17.5t-39 6.5q-12 0 -26.5 -4
t-25.5 -8q-32 -12 -54.5 -31.5t-37.5 -44.5t-22 -55t-7 -62q0 -38 10.5 -76.5t32 -69.5t53.5 -50.5t75 -19.5q15 0 29.5 6t28.5 12q21 10 32.5 15t18 11.5t12 17.5t14.5 32q4 8 9 15t9 15q1 3 2 22.5t2 43t1.5 45t1.5 30.5zM558 1099q11 -13 22.5 -26t20.5 -27
q7 -10 15 -22.5t12.5 -25.5t2 -25t-15.5 -22q-12 -8 -26 -13.5t-25 -13.5l-22 -15q-9 -7 -19.5 -3.5t-20 11.5t-18 18.5t-13.5 18.5q-11 15 -19.5 32t-16.5 34q-10 -18 -19 -35.5t-20 -33.5q-5 -7 -13 -17.5t-17.5 -19t-20 -12t-20.5 3.5l-21 15q-11 8 -25 13.5t-26 13.5
q-14 10 -16 22t2 25t12 25.5t15 22.5q10 14 21.5 27t22.5 26v1q8 11 14 22t14 22q1 8 6 14t11 11q24 27 44 41.5t39 14.5t39.5 -16t44.5 -50q9 -13 17.5 -27.5t18.5 -28.5v-1z" />
    <glyph glyph-name="Otilde" unicode="&#xd5;" horiz-adv-x="866" 
d="M826 476q0 -56 -5.5 -116.5t-19.5 -114.5q-4 -16 -14.5 -35.5t-24 -39t-27.5 -37t-24 -30.5q-6 -8 -22 -21t-34 -26.5t-35 -24.5t-26 -14t-22 -7.5t-26 -8.5t-25.5 -7.5t-21.5 -5.5q-6 -2 -14.5 -3t-14.5 -1h-76q-9 0 -29.5 4.5t-44 11t-44.5 13.5t-31 11
q-27 11 -57.5 36t-57.5 56.5t-46.5 65.5t-25.5 63q-2 6 -5 21t-6 31.5t-5 30.5t-2 18q0 17 2.5 32.5t2.5 32.5q0 64 10.5 115.5t36.5 109.5q2 4 9.5 13t16 19t17 19t11.5 12q25 26 51.5 50t56.5 42t63 28.5t71 10.5q7 0 26.5 -1t41 -3t40 -4t24.5 -4q14 -5 27 -10t27 -10
q16 -5 32.5 -7.5t32.5 -10.5q3 -1 8.5 -5.5t12.5 -10t13 -11t9 -7.5q14 -11 31.5 -26.5t33.5 -33t29 -36.5t18 -36q5 -18 8 -38t8 -39q1 -4 3.5 -13.5t5.5 -19t5 -18t2 -10.5zM592 467q-9 18 -15.5 36t-14.5 36q-7 18 -21 33.5t-31 26.5t-37 17.5t-39 6.5q-12 0 -26.5 -4
t-25.5 -8q-32 -12 -54.5 -31.5t-37.5 -44.5t-22 -55t-7 -62q0 -38 10.5 -76.5t32 -69.5t53.5 -50.5t75 -19.5q15 0 29.5 6t28.5 12q21 10 32.5 15t18 11.5t12 17.5t14.5 32q4 8 9 15t9 15q1 3 2 22.5t2 43t1.5 45t1.5 30.5zM305 904q-16 0 -33 2.5t-31.5 10t-23.5 20
t-9 32.5v25q0 31 3.5 47.5t13.5 25.5t26.5 14t42.5 13q13 -2 33.5 -3.5t42 -2t41.5 -0.5t33 1q16 1 35.5 1.5t38.5 0.5h38h34q22 0 37 -1t24 -7.5t12.5 -20.5t3.5 -39v-12t-1 -12q2 -9 2 -20v-20q0 -15 -11.5 -29t-22.5 -24z" />
    <glyph glyph-name="Odieresis" unicode="&#xd6;" horiz-adv-x="866" 
d="M826 476q0 -56 -5.5 -116.5t-19.5 -114.5q-4 -16 -14.5 -35.5t-24 -39t-27.5 -37t-24 -30.5q-6 -8 -22 -21t-34 -26.5t-35 -24.5t-26 -14t-22 -7.5t-26 -8.5t-25.5 -7.5t-21.5 -5.5q-6 -2 -14.5 -3t-14.5 -1h-76q-9 0 -29.5 4.5t-44 11t-44.5 13.5t-31 11
q-27 11 -57.5 36t-57.5 56.5t-46.5 65.5t-25.5 63q-2 6 -5 21t-6 31.5t-5 30.5t-2 18q0 17 2.5 32.5t2.5 32.5q0 64 10.5 115.5t36.5 109.5q2 4 9.5 13t16 19t17 19t11.5 12q25 26 51.5 50t56.5 42t63 28.5t71 10.5q7 0 26.5 -1t41 -3t40 -4t24.5 -4q14 -5 27 -10t27 -10
q16 -5 32.5 -7.5t32.5 -10.5q3 -1 8.5 -5.5t12.5 -10t13 -11t9 -7.5q14 -11 31.5 -26.5t33.5 -33t29 -36.5t18 -36q5 -18 8 -38t8 -39q1 -4 3.5 -13.5t5.5 -19t5 -18t2 -10.5zM592 467q-9 18 -15.5 36t-14.5 36q-7 18 -21 33.5t-31 26.5t-37 17.5t-39 6.5q-12 0 -26.5 -4
t-25.5 -8q-32 -12 -54.5 -31.5t-37.5 -44.5t-22 -55t-7 -62q0 -38 10.5 -76.5t32 -69.5t53.5 -50.5t75 -19.5q15 0 29.5 6t28.5 12q21 10 32.5 15t18 11.5t12 17.5t14.5 32q4 8 9 15t9 15q1 3 2 22.5t2 43t1.5 45t1.5 30.5zM143 1005q1 -4 -1.5 0t-5 8.5t-2.5 5.5
q-5 18 -5 32t4.5 25t15.5 19q13 10 30.5 20.5t36.5 19.5t38.5 15t36.5 6q22 0 36 -7t21.5 -19.5t10 -29t2.5 -35.5q0 -12 -1 -24.5t-1 -24.5t-0.5 -32t-4 -39.5t-12.5 -33.5t-26 -14h-36q-19 0 -38 -5t-39 -5q-24 0 -36 12t-17 30t-5.5 38.5t-1.5 37.5zM496 1013
q1 -4 -1.5 0t-5 8.5t-2.5 5.5q-5 18 -5 32t4.5 25t15.5 19q13 10 30.5 20.5t36.5 19.5t38.5 15t36.5 6q22 0 36 -7t21.5 -19.5t10 -29t2.5 -35.5q0 -12 -1 -24.5t-1 -24.5t-0.5 -32t-4 -39.5t-12.5 -33.5t-26 -14h-36q-19 0 -38 -5t-39 -5q-24 0 -36 12t-17 30t-5.5 38.5
t-1.5 37.5z" />
    <glyph glyph-name="Oslash" unicode="&#xd8;" horiz-adv-x="866" 
d="M375 -97q-10 -14 -19.5 -19.5t-19.5 -5.5q-9 0 -20 4.5t-23 10.5q-9 4 -20.5 10t-21 14.5t-16.5 20t-7 27.5q-2 2 0.5 10.5t2.5 10.5q2 10 4.5 19.5t4.5 20.5q-27 12 -57 37t-56 56t-44.5 64t-24.5 62q-2 6 -5 21t-6 31.5t-5 30.5t-2 18q0 17 2.5 32.5t2.5 32.5
q0 64 10.5 115.5t36.5 109.5q2 4 9.5 13t16 19t17 19t11.5 12q25 26 51.5 50t56.5 42t63 28.5t71 10.5q8 0 28 -1t42 -3q5 22 10.5 43t11.5 43q5 20 18.5 30.5t28.5 2.5q14 -8 27.5 -13.5t28.5 -10.5q11 -12 22 -20.5t19 -18.5t10.5 -24.5t-4.5 -38.5q-2 -8 -5 -16l-6 -16
q11 -3 20 -7q3 -1 8.5 -5.5t12.5 -10t13 -11t9 -7.5q14 -11 31.5 -26.5t33.5 -33t29 -36.5t18 -36q5 -18 8 -38t8 -39q1 -4 3.5 -13.5t5.5 -19t5 -18t2 -10.5q0 -56 -5.5 -116.5t-19.5 -114.5q-4 -16 -14.5 -35.5t-24 -39t-27.5 -37t-24 -30.5q-6 -8 -22 -21t-34 -26.5
t-35 -24.5t-26 -14t-22 -7.5t-26 -8.5t-25.5 -7.5t-21.5 -5.5q-6 -2 -14.5 -3t-14.5 -1h-79q-1 -2 -1 -7q-4 -17 -6 -34.5t-7 -33.5q0 -4 -2 -6zM592 467q-9 18 -15.5 36t-14.5 36q-2 5 -4.5 9t-4.5 8q-6 -18 -11.5 -37t-10.5 -35t-8 -27t-4 -13q-3 -11 -5.5 -22.5
t-5.5 -22.5q-8 -28 -16.5 -52.5t-20.5 -48.5q-1 -8 -6.5 -35t-13.5 -59q11 3 20.5 7t18.5 9q21 10 32.5 15t18 11.5t12 17.5t14.5 32q4 8 9 15t9 15q1 3 2 22.5t2 43t1.5 45t1.5 30.5zM382 611q-32 -12 -54.5 -31.5t-37.5 -44.5t-22 -55t-7 -62q0 -40 11 -79.5t34 -71.5
q7 28 12.5 51.5t7.5 26.5q6 21 13.5 41t13.5 41q6 20 10 41.5t10 41.5q2 10 10.5 41t19.5 67q-6 -2 -11 -3.5t-10 -3.5z" />
    <glyph glyph-name="Ugrave" unicode="&#xd9;" horiz-adv-x="767" 
d="M712 245q0 -7 -2.5 -19.5t-6 -26.5t-7.5 -26.5t-7 -19.5q-9 -19 -26 -37.5t-32 -32.5q-6 -6 -14.5 -13.5t-18.5 -15.5t-19.5 -14t-17.5 -9q-28 -9 -54.5 -18t-53.5 -20q-24 0 -57.5 1t-69 4t-68 10t-53.5 19q-25 14 -47.5 36t-42.5 43q-16 17 -29.5 37t-24.5 41v38
q0 19 -2 39q-1 2 -2.5 11t-2.5 19.5t-1.5 19.5t-0.5 11q0 23 3 47t3 48q0 17 -1.5 33.5t-1.5 33.5q0 28 1.5 55.5t1.5 55.5q0 41 -3.5 80.5t-4.5 80.5q7 19 23.5 28t37 11.5t41.5 1.5t38 -1h36t29.5 -5t19.5 -17.5t7 -37.5q0 -20 -4.5 -40.5t-6.5 -40.5t-2 -41v-41
q0 -25 1 -49.5t1 -49.5q0 -23 -4 -46.5t-4 -46.5q0 -16 2.5 -34.5t7.5 -33.5q-2 -12 0 -27t4 -27q13 -17 24.5 -32.5t25.5 -27t31 -18.5t41 -7q34 0 54.5 16t31 40.5t14 54t3.5 56.5v26q0 14 -2 27q-2 11 -4.5 22.5t-2.5 22.5q0 23 1.5 47t1.5 47q0 1 -1 5.5t-2 10t-2.5 10
t-1.5 6.5q3 19 3 38q0 26 -2 50.5t-2 49.5q0 43 7 61.5t22 25t38 8t55 12.5q13 0 31 -1.5t35 -6.5t29 -15t12 -28q0 -11 -3 -21.5t-3 -21.5q0 -4 1 -5q0 -17 2 -32.5t2 -32.5q0 -14 -5.5 -28.5t-5.5 -28.5q0 -12 2 -24.5t2 -24.5q0 -26 -2 -52l-4 -52q-2 -23 3.5 -53.5
t5.5 -55.5q0 -13 -1.5 -25.5t-1.5 -24.5q0 -8 1.5 -16t1.5 -16zM476 889q13 10 15.5 22t-1.5 24.5t-12.5 25t-15.5 22.5q-9 14 -20.5 27.5t-22.5 26.5v1q-8 11 -14.5 22t-13.5 22q-2 8 -6.5 14t-10.5 11q-24 27 -45 40t-40.5 10.5t-40 -20.5t-44.5 -52q37 -60 60 -95
t36 -54.5t19.5 -28t12.5 -16.5q5 -7 13 -17.5t18 -19t20.5 -12t19.5 3.5l22 15q11 8 25 13.5t26 14.5z" />
    <glyph glyph-name="Uacute" unicode="&#xda;" horiz-adv-x="767" 
d="M712 245q0 -7 -2.5 -19.5t-6 -26.5t-7.5 -26.5t-7 -19.5q-9 -19 -26 -37.5t-32 -32.5q-6 -6 -14.5 -13.5t-18.5 -15.5t-19.5 -14t-17.5 -9q-28 -9 -54.5 -18t-53.5 -20q-24 0 -57.5 1t-69 4t-68 10t-53.5 19q-25 14 -47.5 36t-42.5 43q-16 17 -29.5 37t-24.5 41v38
q0 19 -2 39q-1 2 -2.5 11t-2.5 19.5t-1.5 19.5t-0.5 11q0 23 3 47t3 48q0 17 -1.5 33.5t-1.5 33.5q0 28 1.5 55.5t1.5 55.5q0 41 -3.5 80.5t-4.5 80.5q7 19 23.5 28t37 11.5t41.5 1.5t38 -1h36t29.5 -5t19.5 -17.5t7 -37.5q0 -20 -4.5 -40.5t-6.5 -40.5t-2 -41v-41
q0 -25 1 -49.5t1 -49.5q0 -23 -4 -46.5t-4 -46.5q0 -16 2.5 -34.5t7.5 -33.5q-2 -12 0 -27t4 -27q13 -17 24.5 -32.5t25.5 -27t31 -18.5t41 -7q34 0 54.5 16t31 40.5t14 54t3.5 56.5v26q0 14 -2 27q-2 11 -4.5 22.5t-2.5 22.5q0 23 1.5 47t1.5 47q0 1 -1 5.5t-2 10t-2.5 10
t-1.5 6.5q3 19 3 38q0 26 -2 50.5t-2 49.5q0 43 7 61.5t22 25t38 8t55 12.5q13 0 31 -1.5t35 -6.5t29 -15t12 -28q0 -11 -3 -21.5t-3 -21.5q0 -4 1 -5q0 -17 2 -32.5t2 -32.5q0 -14 -5.5 -28.5t-5.5 -28.5q0 -12 2 -24.5t2 -24.5q0 -26 -2 -52l-4 -52q-2 -23 3.5 -53.5
t5.5 -55.5q0 -13 -1.5 -25.5t-1.5 -24.5q0 -8 1.5 -16t1.5 -16zM321 899q-14 10 -16 22t2 24.5t12 25t16 22.5q9 14 20.5 27.5t22.5 26.5v1q8 11 14.5 22t13.5 22q2 8 6.5 14t10.5 11q24 27 45 40t40.5 10.5t40 -20.5t44.5 -52q-38 -60 -60.5 -95t-35.5 -54.5t-19.5 -28
t-12.5 -16.5q-5 -7 -13 -17.5t-18 -19t-20.5 -12t-19.5 3.5l-22 15q-11 8 -25 13.5t-26 14.5z" />
    <glyph glyph-name="Ucircumflex" unicode="&#xdb;" horiz-adv-x="767" 
d="M712 245q0 -7 -2.5 -19.5t-6 -26.5t-7.5 -26.5t-7 -19.5q-9 -19 -26 -37.5t-32 -32.5q-6 -6 -14.5 -13.5t-18.5 -15.5t-19.5 -14t-17.5 -9q-28 -9 -54.5 -18t-53.5 -20q-24 0 -57.5 1t-69 4t-68 10t-53.5 19q-25 14 -47.5 36t-42.5 43q-16 17 -29.5 37t-24.5 41v38
q0 19 -2 39q-1 2 -2.5 11t-2.5 19.5t-1.5 19.5t-0.5 11q0 23 3 47t3 48q0 17 -1.5 33.5t-1.5 33.5q0 28 1.5 55.5t1.5 55.5q0 41 -3.5 80.5t-4.5 80.5q7 19 23.5 28t37 11.5t41.5 1.5t38 -1h36t29.5 -5t19.5 -17.5t7 -37.5q0 -20 -4.5 -40.5t-6.5 -40.5t-2 -41v-41
q0 -25 1 -49.5t1 -49.5q0 -23 -4 -46.5t-4 -46.5q0 -16 2.5 -34.5t7.5 -33.5q-2 -12 0 -27t4 -27q13 -17 24.5 -32.5t25.5 -27t31 -18.5t41 -7q34 0 54.5 16t31 40.5t14 54t3.5 56.5v26q0 14 -2 27q-2 11 -4.5 22.5t-2.5 22.5q0 23 1.5 47t1.5 47q0 1 -1 5.5t-2 10t-2.5 10
t-1.5 6.5q3 19 3 38q0 26 -2 50.5t-2 49.5q0 43 7 61.5t22 25t38 8t55 12.5q13 0 31 -1.5t35 -6.5t29 -15t12 -28q0 -11 -3 -21.5t-3 -21.5q0 -4 1 -5q0 -17 2 -32.5t2 -32.5q0 -14 -5.5 -28.5t-5.5 -28.5q0 -12 2 -24.5t2 -24.5q0 -26 -2 -52l-4 -52q-2 -23 3.5 -53.5
t5.5 -55.5q0 -13 -1.5 -25.5t-1.5 -24.5q0 -8 1.5 -16t1.5 -16zM515 1084q11 -13 22.5 -26t20.5 -27q7 -10 15 -22.5t12.5 -25.5t2 -25t-15.5 -22q-12 -8 -26 -13.5t-25 -13.5l-22 -15q-9 -7 -19.5 -3.5t-20 11.5t-18 18.5t-13.5 18.5q-11 15 -19.5 32t-16.5 34
q-10 -18 -19 -35.5t-20 -33.5q-5 -7 -13 -17.5t-17.5 -19t-20 -12t-20.5 3.5l-21 15q-11 8 -25 13.5t-26 13.5q-14 10 -16 22t2 25t12 25.5t15 22.5q10 14 21.5 27t22.5 26v1q8 11 14 22t14 22q1 8 6 14t11 11q24 27 44 41.5t39 14.5t39.5 -16t44.5 -50q9 -13 17.5 -27.5
t18.5 -28.5v-1z" />
    <glyph glyph-name="Udieresis" unicode="&#xdc;" horiz-adv-x="767" 
d="M712 245q0 -7 -2.5 -19.5t-6 -26.5t-7.5 -26.5t-7 -19.5q-9 -19 -26 -37.5t-32 -32.5q-6 -6 -14.5 -13.5t-18.5 -15.5t-19.5 -14t-17.5 -9q-28 -9 -54.5 -18t-53.5 -20q-24 0 -57.5 1t-69 4t-68 10t-53.5 19q-25 14 -47.5 36t-42.5 43q-16 17 -29.5 37t-24.5 41v38
q0 19 -2 39q-1 2 -2.5 11t-2.5 19.5t-1.5 19.5t-0.5 11q0 23 3 47t3 48q0 17 -1.5 33.5t-1.5 33.5q0 28 1.5 55.5t1.5 55.5q0 41 -3.5 80.5t-4.5 80.5q7 19 23.5 28t37 11.5t41.5 1.5t38 -1h36t29.5 -5t19.5 -17.5t7 -37.5q0 -20 -4.5 -40.5t-6.5 -40.5t-2 -41v-41
q0 -25 1 -49.5t1 -49.5q0 -23 -4 -46.5t-4 -46.5q0 -16 2.5 -34.5t7.5 -33.5q-2 -12 0 -27t4 -27q13 -17 24.5 -32.5t25.5 -27t31 -18.5t41 -7q34 0 54.5 16t31 40.5t14 54t3.5 56.5v26q0 14 -2 27q-2 11 -4.5 22.5t-2.5 22.5q0 23 1.5 47t1.5 47q0 1 -1 5.5t-2 10t-2.5 10
t-1.5 6.5q3 19 3 38q0 26 -2 50.5t-2 49.5q0 43 7 61.5t22 25t38 8t55 12.5q13 0 31 -1.5t35 -6.5t29 -15t12 -28q0 -11 -3 -21.5t-3 -21.5q0 -4 1 -5q0 -17 2 -32.5t2 -32.5q0 -14 -5.5 -28.5t-5.5 -28.5q0 -12 2 -24.5t2 -24.5q0 -26 -2 -52l-4 -52q-2 -23 3.5 -53.5
t5.5 -55.5q0 -13 -1.5 -25.5t-1.5 -24.5q0 -8 1.5 -16t1.5 -16zM457 1001q1 -4 -1.5 0t-5 8.5t-2.5 5.5q-5 18 -5 32t4.5 25t15.5 19q13 10 30.5 20.5t36.5 19.5t38.5 15t36.5 6q22 0 36 -7t21.5 -19.5t10 -29t2.5 -35.5q0 -12 -1 -24.5t-1 -24.5t-0.5 -32t-4 -39.5
t-12.5 -33.5t-26 -14h-36q-19 0 -38 -5t-39 -5q-24 0 -36 12t-17 30t-5.5 38.5t-1.5 37.5zM104 993q1 -4 -1.5 0t-5 8.5t-2.5 5.5q-5 18 -5 32t4.5 25t15.5 19q13 10 30.5 20.5t36.5 19.5t38.5 15t36.5 6q22 0 36 -7t21.5 -19.5t10 -29t2.5 -35.5q0 -12 -1 -24.5t-1 -24.5
t-0.5 -32t-4 -39.5t-12.5 -33.5t-26 -14h-36q-19 0 -38 -5t-39 -5q-24 0 -36 12t-17 30t-5.5 38.5t-1.5 37.5z" />
    <glyph glyph-name="Yacute" unicode="&#xdd;" horiz-adv-x="777" 
d="M767 737q0 -9 -5 -16.5t-10 -13.5q-33 -39 -65 -78.5t-63 -81.5q-19 -25 -33.5 -53t-33.5 -53q-12 -17 -27.5 -34t-29.5 -35q-1 -2 -2.5 -19.5t-3 -37.5t-2.5 -38t-1 -22q0 -13 3.5 -25t3.5 -25q0 -21 -0.5 -41.5t-1.5 -41.5q-1 -14 4 -28t5 -29q0 -25 -12.5 -38
t-30.5 -19t-39.5 -6.5t-39.5 -0.5q-20 0 -40.5 2t-36.5 9t-26 21.5t-10 40.5q0 20 4 41t4 42q0 16 -2.5 31t-2.5 31q0 17 2 35t2 36v38t-2 39q0 4 -10.5 17.5t-23 28.5t-24.5 29t-16 20q-14 23 -27 42.5t-29 40.5q-11 14 -19 31.5t-19 31.5q-22 29 -49 56.5t-44 60.5
q-2 4 -3 11.5t-1 12.5q0 22 12.5 32t28.5 13t30.5 2.5t18.5 2.5q6 0 25 -1.5t40.5 -3.5t40.5 -4.5t24 -3.5q9 -3 23.5 -20t30.5 -41t33 -53t32.5 -56.5t28 -50t19.5 -34.5v-4h9q0 3 2 7q14 27 22 55t21 55q2 5 11.5 15.5t13.5 15.5q6 21 16 40.5t24.5 34.5t33.5 24t43 9
q7 0 28.5 -1t44.5 -3t42 -4.5t22 -4.5q12 -2 24.5 -11t12.5 -22zM325 879q-14 10 -16 22t2 24.5t12 25t16 22.5q9 14 20.5 27.5t22.5 26.5v1q8 11 14.5 22t13.5 22q2 8 6.5 14t10.5 11q24 27 45 40t40.5 10.5t40 -20.5t44.5 -52q-38 -60 -60.5 -95t-35.5 -54.5t-19.5 -28
t-12.5 -16.5q-5 -7 -13 -17.5t-18 -19t-20.5 -12t-19.5 3.5l-22 15q-11 8 -25 13.5t-26 14.5z" />
    <glyph glyph-name="Thorn" unicode="&#xde;" horiz-adv-x="750" 
d="M715 426q0 -45 -6.5 -83t-22 -70.5t-41.5 -60t-65 -51.5q-8 -5 -16 -9.5t-18 -8.5q-27 0 -53 -9t-52 -9q-33 0 -65.5 6.5t-65.5 6.5q-14 0 -16 -3l-8 -12h-21q0 -5 1 -7q2 -17 5 -35t3 -35q0 -5 -1 -6q-15 -36 -40.5 -43t-61.5 -7h-30q-16 0 -32 3t-28.5 10.5t-18.5 22.5
q-3 0 -3 9v12q-2 37 -5.5 73t-3.5 73q0 19 4.5 38t4.5 38q0 7 -3 15t-3 15q0 23 3 45t3 45q0 22 -2 43.5t-2 43.5t1 43t1 43q0 46 -3.5 91t-3.5 91q0 21 13 37.5t35 16.5q21 0 40.5 1t40.5 4q18 -6 35.5 -8.5t31 -8t22 -18t8.5 -38.5q0 -22 -5 -47h3q21 0 32.5 -3.5
t32.5 -3.5q20 0 41.5 3.5t41.5 3.5q13 0 35 -3t46 -8t46 -10.5t35 -10.5q39 -14 64.5 -36.5t40 -52t20.5 -64t6 -72.5zM276 500q-4 -8 -5.5 -27.5t-2.5 -42.5q0 -9 -0.5 -17.5t-0.5 -17.5v-39q0 -12 -0.5 -21t1.5 -16t7.5 -10.5t17.5 -3.5q17 0 34.5 3.5t34.5 5.5q9 1 24 1
q16 0 32 2t30 6t19 13q10 17 17.5 40t7.5 43q0 21 -12.5 42t-36.5 24t-44 6t-39.5 5t-39.5 3t-44 1z" />
    <glyph glyph-name="germandbls" unicode="&#xdf;" horiz-adv-x="1508" 
d="M723 654q0 -14 -16 -33t-37.5 -36t-44.5 -29t-37 -12q-7 0 -32 12.5l-56 28t-62 28t-50 12.5q-13 0 -29.5 -2.5t-31 -8.5t-24.5 -17t-10 -27q0 -13 6 -22.5t16 -16t21.5 -10.5t22.5 -6q23 -4 47 -5.5t47 -3.5q17 -2 38 -4.5t43 -7t42 -9.5t35 -11q18 -7 38.5 -21.5
t38.5 -33t30.5 -39.5t15.5 -41q2 -14 3 -27.5t1 -27.5q0 -47 -13.5 -90.5t-39 -80t-62 -63.5t-82.5 -39q-14 -4 -26 -3.5t-26 -7.5q-10 0 -19 -2t-17 -7h-18h-28t-27.5 -1t-16.5 -2q-22 2 -54.5 4.5t-66 7.5t-63 14t-45.5 24q-17 14 -32 31t-31 32l-11 11t-13.5 15.5
t-11.5 17t-5 14.5q0 8 2.5 13.5t6.5 11.5q5 7 26.5 22t46.5 31t47 28t29 12q14 0 30.5 -14t40 -31t54.5 -31t74 -14q13 0 34 1.5t41 7t36 15t20 25.5q2 11 3 22.5t2 22.5h-5q-37 14 -83 20t-92 10.5t-87.5 10.5t-70.5 20q-6 3 -15.5 10.5t-19.5 16.5t-18.5 17.5l-13.5 13.5
q-27 27 -36.5 63.5t-9.5 73.5q0 60 17 120q2 9 19.5 28.5t39 41t42 39.5t29.5 23q7 4 17.5 4.5t18.5 2.5q11 3 27.5 8.5t34 11t33.5 9t27 3.5q41 0 82.5 -7.5t81.5 -15.5q12 -8 25 -16.5t27 -14.5q19 -8 41.5 -18.5t42 -24.5t33 -33t13.5 -44zM1449 652q0 -14 -16 -33
t-37.5 -36t-44.5 -29t-37 -12q-7 0 -32 12.5l-56 28t-62 28t-50 12.5q-13 0 -29.5 -2.5t-31 -8.5t-24.5 -17t-10 -27q0 -13 6 -22.5t16 -16t21.5 -10.5t22.5 -6q23 -4 47 -5.5t47 -3.5q17 -2 38 -4.5t43 -7t42 -9.5t35 -11q18 -7 38.5 -21.5t38.5 -33t30.5 -39.5t15.5 -41
q2 -14 3 -27.5t1 -27.5q0 -47 -13.5 -90.5t-39 -80t-62 -63.5t-82.5 -39q-14 -4 -26 -3.5t-26 -7.5q-10 0 -19 -2t-17 -7h-18h-28t-27.5 -1t-16.5 -2q-22 2 -54.5 4.5t-66 7.5t-63 14t-45.5 24q-17 14 -32 31t-31 32l-11 11t-13.5 15.5t-11.5 17t-5 14.5q0 8 2.5 13.5
t6.5 11.5q5 7 26.5 22t46.5 31t47 28t29 12q14 0 30.5 -14t40 -31t54.5 -31t74 -14q13 0 34 1.5t41 7t36 15t20 25.5q2 11 3 22.5t2 22.5h-5q-37 14 -83 20t-92 10.5t-87.5 10.5t-70.5 20q-6 3 -15.5 10.5t-19.5 16.5t-18.5 17.5l-13.5 13.5q-27 27 -36.5 63.5t-9.5 73.5
q0 60 17 120q2 9 19.5 28.5t39 41t42 39.5t29.5 23q7 4 17.5 4.5t18.5 2.5q11 3 27.5 8.5t34 11t33.5 9t27 3.5q41 0 82.5 -7.5t81.5 -15.5q12 -8 25 -16.5t27 -14.5q19 -8 41.5 -18.5t42 -24.5t33 -33t13.5 -44z" />
    <glyph glyph-name="agrave" unicode="&#xe0;" 
d="M627 0q-29 0 -48.5 10t-31 27t-16.5 40t-5 49h-5q0 5 -5 5q-4 0 -8 -1.5t-7 -3.5q-6 0 -33.5 0.5t-59.5 0.5q-31 0 -60 -1t-38 -4q-20 -6 -29.5 -18t-14.5 -27t-8 -31t-10 -29t-21.5 -21.5t-41.5 -8.5q-14 0 -27 1t-27 1q-9 0 -18 -2t-17 -2q-14 0 -29.5 2t-28 8
t-20.5 17t-8 29t5.5 34.5t13.5 32.5t16.5 31.5t14.5 31.5q2 6 2.5 13.5t2.5 14.5q5 22 10 47.5t14 46.5q11 25 21.5 49.5t21.5 49.5q5 11 5 25q0 15 4 27q5 15 15 30t14 30q3 11 5 24t5.5 25.5t8.5 24.5t13 21q4 25 14 48t24 44q3 18 8 36t15 33t24.5 25t35.5 12
q23 3 36.5 5.5t25.5 2.5q19 0 44.5 -4.5t49.5 -14.5t42.5 -25.5t24.5 -37.5q12 -48 27 -93t22 -96q7 -11 17 -30t20.5 -40t19 -40t11.5 -30t5.5 -21.5t5.5 -21.5t12.5 -24.5t14.5 -24.5q4 -10 6.5 -22l5 -24t5.5 -23.5t8 -20.5t15 -28.5t20.5 -41.5t18 -42.5t7.5 -31.5
q0 -12 -7 -21t-17.5 -16.5t-22 -13t-19.5 -10.5q-5 0 -18.5 -1t-29 -1.5t-29 -2t-17.5 -2.5zM512 941q13 10 15.5 22t-1.5 24.5t-12.5 25t-15.5 22.5q-9 14 -20.5 27.5t-22.5 26.5v1q-8 11 -14.5 22t-13.5 22q-2 8 -6.5 14t-10.5 11q-24 27 -45 40t-40.5 10.5t-40 -20.5
t-44.5 -52q37 -60 60 -95t36 -54.5t19.5 -28t12.5 -16.5q5 -7 13 -17.5t18 -19t20.5 -12t19.5 3.5l22 15q11 8 25 13.5t26 14.5zM393 556q-6 -20 -10 -38t-8 -38t-11 -40.5t-14 -40.5t-12.5 -40.5t-5.5 -41.5q0 -8 6 -12.5t14 -6.5t16.5 -2.5t14.5 -0.5q8 0 20 0.5t25 2.5
t24 5.5t17 9.5q1 0 1 1v1q0 3 -2.5 8.5t-4.5 7.5q-9 20 -14.5 43t-10.5 45q-3 13 -9.5 25t-8.5 24l-14 77q-1 3 -5.5 6.5t-7.5 4.5z" />
    <glyph glyph-name="aacute" unicode="&#xe1;" 
d="M627 0q-29 0 -48.5 10t-31 27t-16.5 40t-5 49h-5q0 5 -5 5q-4 0 -8 -1.5t-7 -3.5q-6 0 -33.5 0.5t-59.5 0.5q-31 0 -60 -1t-38 -4q-20 -6 -29.5 -18t-14.5 -27t-8 -31t-10 -29t-21.5 -21.5t-41.5 -8.5q-14 0 -27 1t-27 1q-9 0 -18 -2t-17 -2q-14 0 -29.5 2t-28 8
t-20.5 17t-8 29t5.5 34.5t13.5 32.5t16.5 31.5t14.5 31.5q2 6 2.5 13.5t2.5 14.5q5 22 10 47.5t14 46.5q11 25 21.5 49.5t21.5 49.5q5 11 5 25q0 15 4 27q5 15 15 30t14 30q3 11 5 24t5.5 25.5t8.5 24.5t13 21q4 25 14 48t24 44q3 18 8 36t15 33t24.5 25t35.5 12
q23 3 36.5 5.5t25.5 2.5q19 0 44.5 -4.5t49.5 -14.5t42.5 -25.5t24.5 -37.5q12 -48 27 -93t22 -96q7 -11 17 -30t20.5 -40t19 -40t11.5 -30t5.5 -21.5t5.5 -21.5t12.5 -24.5t14.5 -24.5q4 -10 6.5 -22l5 -24t5.5 -23.5t8 -20.5t15 -28.5t20.5 -41.5t18 -42.5t7.5 -31.5
q0 -12 -7 -21t-17.5 -16.5t-22 -13t-19.5 -10.5q-5 0 -18.5 -1t-29 -1.5t-29 -2t-17.5 -2.5zM299 939q-14 10 -16 22t2 24.5t12 25t16 22.5q9 14 20.5 27.5t22.5 26.5v1q8 11 14.5 22t13.5 22q2 8 6.5 14t10.5 11q24 27 45 40t40.5 10.5t40 -20.5t44.5 -52
q-38 -60 -60.5 -95t-35.5 -54.5t-19.5 -28t-12.5 -16.5q-5 -7 -13 -17.5t-18 -19t-20.5 -12t-19.5 3.5l-22 15q-11 8 -25 13.5t-26 14.5zM393 556q-6 -20 -10 -38t-8 -38t-11 -40.5t-14 -40.5t-12.5 -40.5t-5.5 -41.5q0 -8 6 -12.5t14 -6.5t16.5 -2.5t14.5 -0.5q8 0 20 0.5
t25 2.5t24 5.5t17 9.5q1 0 1 1v1q0 3 -2.5 8.5t-4.5 7.5q-9 20 -14.5 43t-10.5 45q-3 13 -9.5 25t-8.5 24l-14 77q-1 3 -5.5 6.5t-7.5 4.5z" />
    <glyph glyph-name="acircumflex" unicode="&#xe2;" 
d="M627 0q-29 0 -48.5 10t-31 27t-16.5 40t-5 49h-5q0 5 -5 5q-4 0 -8 -1.5t-7 -3.5q-6 0 -33.5 0.5t-59.5 0.5q-31 0 -60 -1t-38 -4q-20 -6 -29.5 -18t-14.5 -27t-8 -31t-10 -29t-21.5 -21.5t-41.5 -8.5q-14 0 -27 1t-27 1q-9 0 -18 -2t-17 -2q-14 0 -29.5 2t-28 8
t-20.5 17t-8 29t5.5 34.5t13.5 32.5t16.5 31.5t14.5 31.5q2 6 2.5 13.5t2.5 14.5q5 22 10 47.5t14 46.5q11 25 21.5 49.5t21.5 49.5q5 11 5 25q0 15 4 27q5 15 15 30t14 30q3 11 5 24t5.5 25.5t8.5 24.5t13 21q4 25 14 48t24 44q3 18 8 36t15 33t24.5 25t35.5 12
q23 3 36.5 5.5t25.5 2.5q19 0 44.5 -4.5t49.5 -14.5t42.5 -25.5t24.5 -37.5q12 -48 27 -93t22 -96q7 -11 17 -30t20.5 -40t19 -40t11.5 -30t5.5 -21.5t5.5 -21.5t12.5 -24.5t14.5 -24.5q4 -10 6.5 -22l5 -24t5.5 -23.5t8 -20.5t15 -28.5t20.5 -41.5t18 -42.5t7.5 -31.5
q0 -12 -7 -21t-17.5 -16.5t-22 -13t-19.5 -10.5q-5 0 -18.5 -1t-29 -1.5t-29 -2t-17.5 -2.5zM522 1062q11 -13 22.5 -26t20.5 -27q7 -10 15 -22.5t12.5 -25.5t2 -25t-15.5 -22q-12 -8 -26 -13.5t-25 -13.5l-22 -15q-9 -7 -19.5 -3.5t-20 11.5t-18 18.5t-13.5 18.5
q-11 15 -19.5 32t-16.5 34q-10 -18 -19 -35.5t-20 -33.5q-5 -7 -13 -17.5t-17.5 -19t-20 -12t-20.5 3.5l-21 15q-11 8 -25 13.5t-26 13.5q-14 10 -16 22t2 25t12 25.5t15 22.5q10 14 21.5 27t22.5 26v1q8 11 14 22t14 22q1 8 6 14t11 11q24 27 44 41.5t39 14.5t39.5 -16
t44.5 -50q9 -13 17.5 -27.5t18.5 -28.5v-1zM393 556q-6 -20 -10 -38t-8 -38t-11 -40.5t-14 -40.5t-12.5 -40.5t-5.5 -41.5q0 -8 6 -12.5t14 -6.5t16.5 -2.5t14.5 -0.5q8 0 20 0.5t25 2.5t24 5.5t17 9.5q1 0 1 1v1q0 3 -2.5 8.5t-4.5 7.5q-9 20 -14.5 43t-10.5 45
q-3 13 -9.5 25t-8.5 24l-14 77q-1 3 -5.5 6.5t-7.5 4.5z" />
    <glyph glyph-name="atilde" unicode="&#xe3;" 
d="M627 0q-29 0 -48.5 10t-31 27t-16.5 40t-5 49h-5q0 5 -5 5q-4 0 -8 -1.5t-7 -3.5q-6 0 -33.5 0.5t-59.5 0.5q-31 0 -60 -1t-38 -4q-20 -6 -29.5 -18t-14.5 -27t-8 -31t-10 -29t-21.5 -21.5t-41.5 -8.5q-14 0 -27 1t-27 1q-9 0 -18 -2t-17 -2q-14 0 -29.5 2t-28 8
t-20.5 17t-8 29t5.5 34.5t13.5 32.5t16.5 31.5t14.5 31.5q2 6 2.5 13.5t2.5 14.5q5 22 10 47.5t14 46.5q11 25 21.5 49.5t21.5 49.5q5 11 5 25q0 15 4 27q5 15 15 30t14 30q3 11 5 24t5.5 25.5t8.5 24.5t13 21q4 25 14 48t24 44q3 18 8 36t15 33t24.5 25t35.5 12
q23 3 36.5 5.5t25.5 2.5q19 0 44.5 -4.5t49.5 -14.5t42.5 -25.5t24.5 -37.5q12 -48 27 -93t22 -96q7 -11 17 -30t20.5 -40t19 -40t11.5 -30t5.5 -21.5t5.5 -21.5t12.5 -24.5t14.5 -24.5q4 -10 6.5 -22l5 -24t5.5 -23.5t8 -20.5t15 -28.5t20.5 -41.5t18 -42.5t7.5 -31.5
q0 -12 -7 -21t-17.5 -16.5t-22 -13t-19.5 -10.5q-5 0 -18.5 -1t-29 -1.5t-29 -2t-17.5 -2.5zM258 883q-16 0 -33 2.5t-31.5 10t-23.5 20t-9 32.5v25q0 31 3.5 47.5t13.5 25.5t26.5 14t42.5 13q13 -2 33.5 -3.5t42 -2t41.5 -0.5t33 1q16 1 35.5 1.5t38.5 0.5h38h34
q22 0 37 -1t24 -7.5t12.5 -20.5t3.5 -39v-12t-1 -12q2 -9 2 -20v-20q0 -15 -11.5 -29t-22.5 -24zM393 556q-6 -20 -10 -38t-8 -38t-11 -40.5t-14 -40.5t-12.5 -40.5t-5.5 -41.5q0 -8 6 -12.5t14 -6.5t16.5 -2.5t14.5 -0.5q8 0 20 0.5t25 2.5t24 5.5t17 9.5q1 0 1 1v1
q0 3 -2.5 8.5t-4.5 7.5q-9 20 -14.5 43t-10.5 45q-3 13 -9.5 25t-8.5 24l-14 77q-1 3 -5.5 6.5t-7.5 4.5z" />
    <glyph glyph-name="adieresis" unicode="&#xe4;" 
d="M627 0q-29 0 -48.5 10t-31 27t-16.5 40t-5 49h-5q0 5 -5 5q-4 0 -8 -1.5t-7 -3.5q-6 0 -33.5 0.5t-59.5 0.5q-31 0 -60 -1t-38 -4q-20 -6 -29.5 -18t-14.5 -27t-8 -31t-10 -29t-21.5 -21.5t-41.5 -8.5q-14 0 -27 1t-27 1q-9 0 -18 -2t-17 -2q-14 0 -29.5 2t-28 8
t-20.5 17t-8 29t5.5 34.5t13.5 32.5t16.5 31.5t14.5 31.5q2 6 2.5 13.5t2.5 14.5q5 22 10 47.5t14 46.5q11 25 21.5 49.5t21.5 49.5q5 11 5 25q0 15 4 27q5 15 15 30t14 30q3 11 5 24t5.5 25.5t8.5 24.5t13 21q4 25 14 48t24 44q3 18 8 36t15 33t24.5 25t35.5 12
q23 3 36.5 5.5t25.5 2.5q19 0 44.5 -4.5t49.5 -14.5t42.5 -25.5t24.5 -37.5q12 -48 27 -93t22 -96q7 -11 17 -30t20.5 -40t19 -40t11.5 -30t5.5 -21.5t5.5 -21.5t12.5 -24.5t14.5 -24.5q4 -10 6.5 -22l5 -24t5.5 -23.5t8 -20.5t15 -28.5t20.5 -41.5t18 -42.5t7.5 -31.5
q0 -12 -7 -21t-17.5 -16.5t-22 -13t-19.5 -10.5q-5 0 -18.5 -1t-29 -1.5t-29 -2t-17.5 -2.5zM466 988q1 -4 -1.5 0t-5 8.5t-2.5 5.5q-5 18 -5 32t4.5 25t15.5 19q13 10 30.5 20.5t36.5 19.5t38.5 15t36.5 6q22 0 36 -7t21.5 -19.5t10 -29t2.5 -35.5q0 -12 -1 -24.5t-1 -24.5
t-0.5 -32t-4 -39.5t-12.5 -33.5t-26 -14h-36q-19 0 -38 -5t-39 -5q-24 0 -36 12t-17 30t-5.5 38.5t-1.5 37.5zM113 980q1 -4 -1.5 0t-5 8.5t-2.5 5.5q-5 18 -5 32t4.5 25t15.5 19q13 10 30.5 20.5t36.5 19.5t38.5 15t36.5 6q22 0 36 -7t21.5 -19.5t10 -29t2.5 -35.5
q0 -12 -1 -24.5t-1 -24.5t-0.5 -32t-4 -39.5t-12.5 -33.5t-26 -14h-36q-19 0 -38 -5t-39 -5q-24 0 -36 12t-17 30t-5.5 38.5t-1.5 37.5zM393 556q-6 -20 -10 -38t-8 -38t-11 -40.5t-14 -40.5t-12.5 -40.5t-5.5 -41.5q0 -8 6 -12.5t14 -6.5t16.5 -2.5t14.5 -0.5q8 0 20 0.5
t25 2.5t24 5.5t17 9.5q1 0 1 1v1q0 3 -2.5 8.5t-4.5 7.5q-9 20 -14.5 43t-10.5 45q-3 13 -9.5 25t-8.5 24l-14 77q-1 3 -5.5 6.5t-7.5 4.5z" />
    <glyph glyph-name="aring" unicode="&#xe5;" 
d="M627 0q-29 0 -48.5 10t-31 27t-16.5 40t-5 49h-5q0 5 -5 5q-4 0 -8 -1.5t-7 -3.5q-6 0 -33.5 0.5t-59.5 0.5q-31 0 -60 -1t-38 -4q-20 -6 -29.5 -18t-14.5 -27t-8 -31t-10 -29t-21.5 -21.5t-41.5 -8.5q-14 0 -27 1t-27 1q-9 0 -18 -2t-17 -2q-14 0 -29.5 2t-28 8
t-20.5 17t-8 29t5.5 34.5t13.5 32.5t16.5 31.5t14.5 31.5q2 6 2.5 13.5t2.5 14.5q5 22 10 47.5t14 46.5q11 25 21.5 49.5t21.5 49.5q5 11 5 25q0 15 4 27q5 15 15 30t14 30q3 11 5 24t5.5 25.5t8.5 24.5t13 21q4 25 14 48t24 44q3 18 8 36t15 33t24.5 25t35.5 12
q23 3 36.5 5.5t25.5 2.5q19 0 44.5 -4.5t49.5 -14.5t42.5 -25.5t24.5 -37.5q12 -48 27 -93t22 -96q7 -11 17 -30t20.5 -40t19 -40t11.5 -30t5.5 -21.5t5.5 -21.5t12.5 -24.5t14.5 -24.5q4 -10 6.5 -22l5 -24t5.5 -23.5t8 -20.5t15 -28.5t20.5 -41.5t18 -42.5t7.5 -31.5
q0 -12 -7 -21t-17.5 -16.5t-22 -13t-19.5 -10.5q-5 0 -18.5 -1t-29 -1.5t-29 -2t-17.5 -2.5zM527 1019q0 2 -2.5 9.5t-3.5 11.5q-2 6 -3 13t-3 13q-3 11 -16 24.5t-22 20.5q-2 2 -7.5 7t-7.5 6q-5 2 -11 3.5t-12 3.5q-5 1 -9 2.5t-9 3.5q-2 0 -8.5 1t-14 1.5t-14.5 1
t-10 0.5q-26 0 -45.5 -13.5t-36.5 -31.5q-3 -2 -10.5 -10.5t-9.5 -11.5q-9 -20 -12 -37.5t-3 -40.5q0 -6 -1.5 -11.5t-1.5 -11.5q0 -1 1 -6t2 -10.5l2 -11t1 -7.5q2 -10 9 -21.5t16 -22.5t20 -19.5t21 -12.5q3 -1 10 -3.5t15 -5t15.5 -4.5t10.5 -2h26q3 0 5.5 1t4.5 2
q7 1 17 4t15 5q4 1 10 5t12 8.5t11.5 9t8.5 7.5q7 8 17.5 23t13.5 26q9 39 9 81zM393 556q-6 -20 -10 -38t-8 -38t-11 -40.5t-14 -40.5t-12.5 -40.5t-5.5 -41.5q0 -8 6 -12.5t14 -6.5t16.5 -2.5t14.5 -0.5q8 0 20 0.5t25 2.5t24 5.5t17 9.5q1 0 1 1v1q0 3 -2.5 8.5t-4.5 7.5
q-9 20 -14.5 43t-10.5 45q-3 13 -9.5 25t-8.5 24l-14 77q-1 3 -5.5 6.5t-7.5 4.5zM436 1004q0 -3 -0.5 -8.5t-0.5 -12.5v-11v-6q-1 -2 -2.5 -4t-1.5 -4q-5 -11 -8 -13.5t-15 -8.5q-3 0 -7 -1.5t-8 -1.5q-24 0 -35 19t-11 40q0 17 7.5 31t24.5 21q3 1 7 2t8 1q11 0 21 -6
t13 -17q5 -11 8 -20z" />
    <glyph glyph-name="ae" unicode="&#xe6;" horiz-adv-x="1238" 
d="M1159 3h-81q-21 0 -42.5 2.5t-43.5 2.5q-11 0 -32 0.5t-43 -0.5t-41.5 -3t-26.5 -7q-20 0 -42.5 1t-42.5 -3q-14 -3 -34 -3t-41 1.5t-40 3.5t-31 2q-29 0 -46 10t-24 27t-5.5 40t8.5 49h-5q2 5 -4 5q-4 0 -8.5 -1.5t-7.5 -3.5q-6 0 -33 0.5t-59 0.5t-61 -1t-39 -4
q-22 -6 -34.5 -18t-21.5 -27t-16.5 -31t-18 -29t-27.5 -21.5t-44 -8.5q-14 0 -26.5 1t-26.5 1q-9 0 -18 -2t-17 -2q-14 0 -29 2t-26 8t-16 17t0 29t15 34.5t22.5 32.5t25 31.5t22.5 31.5q3 6 5.5 13.5t6.5 14.5q10 22 22 47.5t27 46.5q17 25 35 49.5t35 49.5q7 11 11 25.5
t12 26.5q8 15 22.5 30t22.5 30q11 22 23.5 49.5t34.5 45.5q10 25 26.5 48t35.5 44q7 18 17.5 36t24.5 33t31.5 25t38.5 12q24 3 38 5.5t26 2.5q17 0 37.5 -2t40.5 -10q48 -1 82.5 -2t59.5 -1.5t43.5 -1t35.5 -0.5l110 4q5 1 10 1h11q11 0 23.5 -2t23.5 -8q5 -3 10.5 -20
t10.5 -38t8.5 -40t3.5 -25q4 -34 -13 -48.5t-49 -14.5q-29 0 -57 5t-57 5t-58.5 2.5t-58.5 2.5q-17 0 -35 -4.5t-28 -19.5q-1 0 -2 -1t0 -2q0 -1 1 -2q2 -10 3.5 -25t5.5 -29t12 -24t24 -10q22 0 43 4.5t43 4.5t43.5 -1.5t43.5 -0.5q19 1 38.5 3.5t39.5 2.5q26 0 42.5 -10.5
t19.5 -38.5q1 -4 0.5 -7.5t0.5 -7.5q1 -17 3 -37.5t-0.5 -38t-13.5 -29.5t-36 -12q-32 0 -63.5 -1.5t-63.5 -1.5q-8 0 -18.5 2.5t-22.5 6t-24.5 6t-23.5 2.5q-8 0 -15 -1t-15 -4q-25 0 -32.5 -9.5t-6.5 -24.5q0 -3 0.5 -6t0.5 -6q1 -6 1.5 -12.5t1.5 -13.5q1 -13 3 -27
t6.5 -25t14 -18.5t26.5 -7.5q21 0 43.5 4t45.5 6q36 2 72 2.5t73 2.5q17 1 33.5 2.5t33.5 1.5q26 0 44 -10t21 -39q1 -11 -0.5 -20.5t-0.5 -20.5q2 -14 5 -27t5 -27q2 -20 -9.5 -39t-33.5 -19zM534 556q-11 -20 -20 -38l-19 -38q-9 -20 -21.5 -40.5t-25 -40.5t-23.5 -40.5
t-17 -41.5q-2 -8 3 -12.5t12.5 -6.5t16 -2.5t14.5 -0.5q8 0 20 0.5t25 2.5t25 5.5t20 9.5q1 0 1.5 1l0.5 1q1 3 5.5 8t3.5 7q-3 20 -2.5 43t1.5 45q1 13 -2.5 25t-2.5 24q2 25 1 40t-3 23.5t-4.5 13t-2.5 7.5q-4 4 -6 5z" />
    <glyph glyph-name="ccedilla" unicode="&#xe7;" horiz-adv-x="748" 
d="M266 -56l-1 1q0 16 -1.5 32t-2.5 32q-33 13 -62.5 32t-55.5 47l-50 54q-5 16 -13.5 34t-17.5 37t-15.5 37.5t-6.5 34.5q0 35 3 70.5t3 70.5v46t2 46q3 28 14.5 58.5t28.5 59t37.5 54t41.5 42.5q22 18 56 37t61 30q1 1 12.5 3.5t25.5 5.5t25.5 5t12.5 2q37 0 76.5 -4.5
t78 -15.5t73.5 -29t62 -46q8 -9 16 -19t16 -19q12 -14 26 -33.5t14 -39.5q0 -5 -6 -14t-14 -19t-16 -18.5t-11 -12.5q-11 -6 -21 -14t-20 -15t-21.5 -11.5t-25.5 -4.5q-13 0 -24 6.5t-20 16.5t-17 21t-15 19q-8 9 -19 17t-23.5 15t-25.5 11t-25 4q-20 0 -36.5 -8.5
t-32.5 -18.5q-11 -8 -23.5 -14.5t-23.5 -14.5q-15 -11 -25.5 -29t-16.5 -39t-8.5 -42.5t-2.5 -39.5q0 -51 21.5 -100.5t51.5 -89.5q44 -29 97 -29q43 0 66.5 17t39 38t29 38t36.5 17q14 0 37 -8.5t44.5 -22t37.5 -30.5t16 -33q0 -25 -25 -57t-59 -62.5t-70 -54.5t-58 -33
q-14 2 -28 -0.5t-27 -4.5q2 -35 8.5 -69t6.5 -69q0 -12 -1 -29.5t-5 -34.5t-12.5 -29t-24.5 -12h-36q-19 0 -38 -5t-39 -5q-23 0 -35 11.5t-17.5 29t-6.5 37.5t-1 37q0 23 2 46.5t4 46.5z" />
    <glyph glyph-name="egrave" unicode="&#xe8;" horiz-adv-x="710" 
d="M620 3h-81q-21 0 -42.5 2.5t-43.5 2.5q-11 0 -32 0.5t-43 -0.5t-41.5 -3t-27.5 -7q-20 0 -42.5 1t-42.5 -3t-42 -6.5t-42 -2.5q-48 0 -69 28t-21 73q0 36 7 71.5t7 70.5q0 10 -2 20t-3 20q-1 15 0 30.5t0 30.5q0 8 -2 16t-2 16q0 26 3.5 51.5t3.5 51.5q0 11 -1.5 21.5
t-1.5 21.5q0 26 2.5 53t2.5 53q0 34 -3 67.5t-3 67.5q0 9 7 16.5t16.5 12.5t20 9t18.5 7q8 0 17 0.5t17 0.5q27 0 53 -4t52 -9l7 1l33 1q69 3 138 3q10 0 20 -1.5t20 -3.5q-1 0 3 0.5t6 1.5l13 1l49 6q5 1 10 1h11q11 0 23 -2t23 -8q4 -3 8 -20t6.5 -38t4 -40t1.5 -25
q0 -34 -18.5 -48.5t-50.5 -14.5q-29 0 -56.5 5t-56.5 5t-58.5 2.5t-58.5 2.5q-17 0 -35.5 -4.5t-29.5 -19.5q-3 0 -3 -3q0 -1 1 -2q1 -10 1 -25t2.5 -29t9.5 -24t23 -10q22 0 43.5 4.5t43.5 4.5t43 -1.5t43 -0.5q20 1 39.5 3.5t39.5 2.5q26 0 41.5 -10.5t15.5 -38.5
q0 -4 -0.5 -7.5t-0.5 -7.5q-1 -17 -1 -38q0 -20 -4.5 -37.5t-16.5 -29.5t-37 -12q-32 0 -64 -1.5t-64 -1.5q-15 0 -39.5 8.5t-47.5 8.5q-8 0 -15 -1t-15 -4q-19 0 -28 -5.5t-12.5 -15t-3 -23t0.5 -28.5v-27t3.5 -25t12 -18.5t25.5 -7.5q21 0 44 4t46 6q37 2 73 2.5t73 2.5
q17 1 33.5 2.5t33.5 1.5q26 0 43 -10t17 -39q0 -11 -2.5 -20.5t-2.5 -20.5q0 -14 2 -27t2 -27q0 -20 -13.5 -39t-35.5 -19zM448 920q13 10 15.5 22t-1.5 24.5t-12.5 25t-15.5 22.5q-9 14 -20.5 27.5t-22.5 26.5v1q-8 11 -14.5 22t-13.5 22q-2 8 -6.5 14t-10.5 11
q-24 27 -45 40t-40.5 10.5t-40 -20.5t-44.5 -52q37 -60 60 -95t36 -54.5t19.5 -28t12.5 -16.5q5 -7 13 -17.5t18 -19t20.5 -12t19.5 3.5l22 15q11 8 25 13.5t26 14.5z" />
    <glyph glyph-name="eacute" unicode="&#xe9;" horiz-adv-x="710" 
d="M620 3h-81q-21 0 -42.5 2.5t-43.5 2.5q-11 0 -32 0.5t-43 -0.5t-41.5 -3t-27.5 -7q-20 0 -42.5 1t-42.5 -3t-42 -6.5t-42 -2.5q-48 0 -69 28t-21 73q0 36 7 71.5t7 70.5q0 10 -2 20t-3 20q-1 15 0 30.5t0 30.5q0 8 -2 16t-2 16q0 26 3.5 51.5t3.5 51.5q0 11 -1.5 21.5
t-1.5 21.5q0 26 2.5 53t2.5 53q0 34 -3 67.5t-3 67.5q0 9 7 16.5t16.5 12.5t20 9t18.5 7q8 0 17 0.5t17 0.5q27 0 53 -4t52 -9l7 1l33 1q69 3 138 3q10 0 20 -1.5t20 -3.5q-1 0 3 0.5t6 1.5l13 1l49 6q5 1 10 1h11q11 0 23 -2t23 -8q4 -3 8 -20t6.5 -38t4 -40t1.5 -25
q0 -34 -18.5 -48.5t-50.5 -14.5q-29 0 -56.5 5t-56.5 5t-58.5 2.5t-58.5 2.5q-17 0 -35.5 -4.5t-29.5 -19.5q-3 0 -3 -3q0 -1 1 -2q1 -10 1 -25t2.5 -29t9.5 -24t23 -10q22 0 43.5 4.5t43.5 4.5t43 -1.5t43 -0.5q20 1 39.5 3.5t39.5 2.5q26 0 41.5 -10.5t15.5 -38.5
q0 -4 -0.5 -7.5t-0.5 -7.5q-1 -17 -1 -38q0 -20 -4.5 -37.5t-16.5 -29.5t-37 -12q-32 0 -64 -1.5t-64 -1.5q-15 0 -39.5 8.5t-47.5 8.5q-8 0 -15 -1t-15 -4q-19 0 -28 -5.5t-12.5 -15t-3 -23t0.5 -28.5v-27t3.5 -25t12 -18.5t25.5 -7.5q21 0 44 4t46 6q37 2 73 2.5t73 2.5
q17 1 33.5 2.5t33.5 1.5q26 0 43 -10t17 -39q0 -11 -2.5 -20.5t-2.5 -20.5q0 -14 2 -27t2 -27q0 -20 -13.5 -39t-35.5 -19zM292 923q-14 10 -16 22t2 24.5t12 25t16 22.5q9 14 20.5 27.5t22.5 26.5v1q8 11 14.5 22t13.5 22q2 8 6.5 14t10.5 11q24 27 45 40t40.5 10.5
t40 -20.5t44.5 -52q-38 -60 -60.5 -95t-35.5 -54.5t-19.5 -28t-12.5 -16.5q-5 -7 -13 -17.5t-18 -19t-20.5 -12t-19.5 3.5l-22 15q-11 8 -25 13.5t-26 14.5z" />
    <glyph glyph-name="ecircumflex" unicode="&#xea;" horiz-adv-x="710" 
d="M620 3h-81q-21 0 -42.5 2.5t-43.5 2.5q-11 0 -32 0.5t-43 -0.5t-41.5 -3t-27.5 -7q-20 0 -42.5 1t-42.5 -3t-42 -6.5t-42 -2.5q-48 0 -69 28t-21 73q0 36 7 71.5t7 70.5q0 10 -2 20t-3 20q-1 15 0 30.5t0 30.5q0 8 -2 16t-2 16q0 26 3.5 51.5t3.5 51.5q0 11 -1.5 21.5
t-1.5 21.5q0 26 2.5 53t2.5 53q0 34 -3 67.5t-3 67.5q0 9 7 16.5t16.5 12.5t20 9t18.5 7q8 0 17 0.5t17 0.5q27 0 53 -4t52 -9l7 1l33 1q69 3 138 3q10 0 20 -1.5t20 -3.5q-1 0 3 0.5t6 1.5l13 1l49 6q5 1 10 1h11q11 0 23 -2t23 -8q4 -3 8 -20t6.5 -38t4 -40t1.5 -25
q0 -34 -18.5 -48.5t-50.5 -14.5q-29 0 -56.5 5t-56.5 5t-58.5 2.5t-58.5 2.5q-17 0 -35.5 -4.5t-29.5 -19.5q-3 0 -3 -3q0 -1 1 -2q1 -10 1 -25t2.5 -29t9.5 -24t23 -10q22 0 43.5 4.5t43.5 4.5t43 -1.5t43 -0.5q20 1 39.5 3.5t39.5 2.5q26 0 41.5 -10.5t15.5 -38.5
q0 -4 -0.5 -7.5t-0.5 -7.5q-1 -17 -1 -38q0 -20 -4.5 -37.5t-16.5 -29.5t-37 -12q-32 0 -64 -1.5t-64 -1.5q-15 0 -39.5 8.5t-47.5 8.5q-8 0 -15 -1t-15 -4q-19 0 -28 -5.5t-12.5 -15t-3 -23t0.5 -28.5v-27t3.5 -25t12 -18.5t25.5 -7.5q21 0 44 4t46 6q37 2 73 2.5t73 2.5
q17 1 33.5 2.5t33.5 1.5q26 0 43 -10t17 -39q0 -11 -2.5 -20.5t-2.5 -20.5q0 -14 2 -27t2 -27q0 -20 -13.5 -39t-35.5 -19zM500 1083q11 -13 22.5 -26t20.5 -27q7 -10 15 -22.5t12.5 -25.5t2 -25t-15.5 -22q-12 -8 -26 -13.5t-25 -13.5l-22 -15q-9 -7 -19.5 -3.5t-20 11.5
t-18 18.5t-13.5 18.5q-11 15 -19.5 32t-16.5 34q-10 -18 -19 -35.5t-20 -33.5q-5 -7 -13 -17.5t-17.5 -19t-20 -12t-20.5 3.5l-21 15q-11 8 -25 13.5t-26 13.5q-14 10 -16 22t2 25t12 25.5t15 22.5q10 14 21.5 27t22.5 26v1q8 11 14 22t14 22q1 8 6 14t11 11q24 27 44 41.5
t39 14.5t39.5 -16t44.5 -50q9 -13 17.5 -27.5t18.5 -28.5v-1z" />
    <glyph glyph-name="edieresis" unicode="&#xeb;" horiz-adv-x="710" 
d="M620 3h-81q-21 0 -42.5 2.5t-43.5 2.5q-11 0 -32 0.5t-43 -0.5t-41.5 -3t-27.5 -7q-20 0 -42.5 1t-42.5 -3t-42 -6.5t-42 -2.5q-48 0 -69 28t-21 73q0 36 7 71.5t7 70.5q0 10 -2 20t-3 20q-1 15 0 30.5t0 30.5q0 8 -2 16t-2 16q0 26 3.5 51.5t3.5 51.5q0 11 -1.5 21.5
t-1.5 21.5q0 26 2.5 53t2.5 53q0 34 -3 67.5t-3 67.5q0 9 7 16.5t16.5 12.5t20 9t18.5 7q8 0 17 0.5t17 0.5q27 0 53 -4t52 -9l7 1l33 1q69 3 138 3q10 0 20 -1.5t20 -3.5q-1 0 3 0.5t6 1.5l13 1l49 6q5 1 10 1h11q11 0 23 -2t23 -8q4 -3 8 -20t6.5 -38t4 -40t1.5 -25
q0 -34 -18.5 -48.5t-50.5 -14.5q-29 0 -56.5 5t-56.5 5t-58.5 2.5t-58.5 2.5q-17 0 -35.5 -4.5t-29.5 -19.5q-3 0 -3 -3q0 -1 1 -2q1 -10 1 -25t2.5 -29t9.5 -24t23 -10q22 0 43.5 4.5t43.5 4.5t43 -1.5t43 -0.5q20 1 39.5 3.5t39.5 2.5q26 0 41.5 -10.5t15.5 -38.5
q0 -4 -0.5 -7.5t-0.5 -7.5q-1 -17 -1 -38q0 -20 -4.5 -37.5t-16.5 -29.5t-37 -12q-32 0 -64 -1.5t-64 -1.5q-15 0 -39.5 8.5t-47.5 8.5q-8 0 -15 -1t-15 -4q-19 0 -28 -5.5t-12.5 -15t-3 -23t0.5 -28.5v-27t3.5 -25t12 -18.5t25.5 -7.5q21 0 44 4t46 6q37 2 73 2.5t73 2.5
q17 1 33.5 2.5t33.5 1.5q26 0 43 -10t17 -39q0 -11 -2.5 -20.5t-2.5 -20.5q0 -14 2 -27t2 -27q0 -20 -13.5 -39t-35.5 -19zM412 1005q1 -4 -1.5 0t-5 8.5t-2.5 5.5q-5 18 -5 32t4.5 25t15.5 19q13 10 30.5 20.5t36.5 19.5t38.5 15t36.5 6q22 0 36 -7t21.5 -19.5t10 -29
t2.5 -35.5q0 -12 -1 -24.5t-1 -24.5t-0.5 -32t-4 -39.5t-12.5 -33.5t-26 -14h-36q-19 0 -38 -5t-39 -5q-24 0 -36 12t-17 30t-5.5 38.5t-1.5 37.5zM59 997q1 -4 -1.5 0t-5 8.5t-2.5 5.5q-5 18 -5 32t4.5 25t15.5 19q13 10 30.5 20.5t36.5 19.5t38.5 15t36.5 6q22 0 36 -7
t21.5 -19.5t10 -29t2.5 -35.5q0 -12 -1 -24.5t-1 -24.5t-0.5 -32t-4 -39.5t-12.5 -33.5t-26 -14h-36q-19 0 -38 -5t-39 -5q-24 0 -36 12t-17 30t-5.5 38.5t-1.5 37.5z" />
    <glyph glyph-name="igrave" unicode="&#xec;" horiz-adv-x="326" 
d="M273 40q-15 -36 -40.5 -43t-61.5 -7h-30q-16 0 -32 3t-28.5 10.5t-18.5 22.5q-3 0 -3 9v12q-2 37 -5.5 73t-3.5 73q0 19 4.5 38t4.5 38q0 7 -3 15t-3 15q0 23 3 45t3 45q0 22 -2 43.5t-2 43.5t1 43t1 43q0 46 -3.5 91t-3.5 91q0 21 13 37.5t35 16.5q21 0 40.5 1t40.5 4
q18 -6 35.5 -8.5t31 -8t22 -18t8.5 -38.5q0 -32 -7 -64t-7 -64q0 -17 4.5 -39t4.5 -42q0 -9 -2.5 -18t-2.5 -18q0 -11 1 -23t1 -24q0 -29 -2 -56t-9 -56q3 -16 7.5 -34t4.5 -34q0 -23 -2 -46.5t-2 -46.5q0 -12 -0.5 -24.5t1.5 -24.5q2 -17 5 -35t3 -35q0 -5 -1 -6zM262 935
q13 10 15.5 22t-1.5 24.5t-12.5 25t-15.5 22.5q-9 14 -20.5 27.5t-22.5 26.5v1q-8 11 -14.5 22t-13.5 22q-2 8 -6.5 14t-10.5 11q-24 27 -45 40t-40.5 10.5t-40 -20.5t-44.5 -52q37 -60 60 -95t36 -54.5t19.5 -28t12.5 -16.5q5 -7 13 -17.5t18 -19t20.5 -12t19.5 3.5l22 15
q11 8 25 13.5t26 14.5z" />
    <glyph glyph-name="iacute" unicode="&#xed;" horiz-adv-x="326" 
d="M273 40q-15 -36 -40.5 -43t-61.5 -7h-30q-16 0 -32 3t-28.5 10.5t-18.5 22.5q-3 0 -3 9v12q-2 37 -5.5 73t-3.5 73q0 19 4.5 38t4.5 38q0 7 -3 15t-3 15q0 23 3 45t3 45q0 22 -2 43.5t-2 43.5t1 43t1 43q0 46 -3.5 91t-3.5 91q0 21 13 37.5t35 16.5q21 0 40.5 1t40.5 4
q18 -6 35.5 -8.5t31 -8t22 -18t8.5 -38.5q0 -32 -7 -64t-7 -64q0 -17 4.5 -39t4.5 -42q0 -9 -2.5 -18t-2.5 -18q0 -11 1 -23t1 -24q0 -29 -2 -56t-9 -56q3 -16 7.5 -34t4.5 -34q0 -23 -2 -46.5t-2 -46.5q0 -12 -0.5 -24.5t1.5 -24.5q2 -17 5 -35t3 -35q0 -5 -1 -6zM78 934
q-14 10 -16 22t2 24.5t12 25t16 22.5q9 14 20.5 27.5t22.5 26.5v1q8 11 14.5 22t13.5 22q2 8 6.5 14t10.5 11q24 27 45 40t40.5 10.5t40 -20.5t44.5 -52q-38 -60 -60.5 -95t-35.5 -54.5t-19.5 -28t-12.5 -16.5q-5 -7 -13 -17.5t-18 -19t-20.5 -12t-19.5 3.5l-22 15
q-11 8 -25 13.5t-26 14.5z" />
    <glyph glyph-name="icircumflex" unicode="&#xee;" horiz-adv-x="326" 
d="M273 40q-15 -36 -40.5 -43t-61.5 -7h-30q-16 0 -32 3t-28.5 10.5t-18.5 22.5q-3 0 -3 9v12q-2 37 -5.5 73t-3.5 73q0 19 4.5 38t4.5 38q0 7 -3 15t-3 15q0 23 3 45t3 45q0 22 -2 43.5t-2 43.5t1 43t1 43q0 46 -3.5 91t-3.5 91q0 21 13 37.5t35 16.5q21 0 40.5 1t40.5 4
q18 -6 35.5 -8.5t31 -8t22 -18t8.5 -38.5q0 -32 -7 -64t-7 -64q0 -17 4.5 -39t4.5 -42q0 -9 -2.5 -18t-2.5 -18q0 -11 1 -23t1 -24q0 -29 -2 -56t-9 -56q3 -16 7.5 -34t4.5 -34q0 -23 -2 -46.5t-2 -46.5q0 -12 -0.5 -24.5t1.5 -24.5q2 -17 5 -35t3 -35q0 -5 -1 -6zM279 1070
q11 -13 22.5 -26t20.5 -27q7 -10 15 -22.5t12.5 -25.5t2 -25t-15.5 -22q-12 -8 -26 -13.5t-25 -13.5l-22 -15q-9 -7 -19.5 -3.5t-20 11.5t-18 18.5t-13.5 18.5q-11 15 -19.5 32t-16.5 34q-10 -18 -19 -35.5t-20 -33.5q-5 -7 -13 -17.5t-17.5 -19t-20 -12t-20.5 3.5l-21 15
q-11 8 -25 13.5t-26 13.5q-14 10 -16 22t2 25t12 25.5t15 22.5q10 14 21.5 27t22.5 26v1q8 11 14 22t14 22q1 8 6 14t11 11q24 27 44 41.5t39 14.5t39.5 -16t44.5 -50q9 -13 17.5 -27.5t18.5 -28.5v-1z" />
    <glyph glyph-name="idieresis" unicode="&#xef;" horiz-adv-x="326" 
d="M273 40q-15 -36 -40.5 -43t-61.5 -7h-30q-16 0 -32 3t-28.5 10.5t-18.5 22.5q-3 0 -3 9v12q-2 37 -5.5 73t-3.5 73q0 19 4.5 38t4.5 38q0 7 -3 15t-3 15q0 23 3 45t3 45q0 22 -2 43.5t-2 43.5t1 43t1 43q0 46 -3.5 91t-3.5 91q0 21 13 37.5t35 16.5q21 0 40.5 1t40.5 4
q18 -6 35.5 -8.5t31 -8t22 -18t8.5 -38.5q0 -32 -7 -64t-7 -64q0 -17 4.5 -39t4.5 -42q0 -9 -2.5 -18t-2.5 -18q0 -11 1 -23t1 -24q0 -29 -2 -56t-9 -56q3 -16 7.5 -34t4.5 -34q0 -23 -2 -46.5t-2 -46.5q0 -12 -0.5 -24.5t1.5 -24.5q2 -17 5 -35t3 -35q0 -5 -1 -6zM236 998
q1 -4 -1.5 0t-5 8.5t-2.5 5.5q-5 18 -5 32t4.5 25t15.5 19q13 10 30.5 20.5t36.5 19.5t38.5 15t36.5 6q22 0 36 -7t21.5 -19.5t10 -29t2.5 -35.5q0 -12 -1 -24.5t-1 -24.5t-0.5 -32t-4 -39.5t-12.5 -33.5t-26 -14h-36q-19 0 -38 -5t-39 -5q-24 0 -36 12t-17 30t-5.5 38.5
t-1.5 37.5zM-117 990q1 -4 -1.5 0t-5 8.5t-2.5 5.5q-5 18 -5 32t4.5 25t15.5 19q13 10 30.5 20.5t36.5 19.5t38.5 15t36.5 6q22 0 36 -7t21.5 -19.5t10 -29t2.5 -35.5q0 -12 -1 -24.5t-1 -24.5t-0.5 -32t-4 -39.5t-12.5 -33.5t-26 -14h-36q-19 0 -38 -5t-39 -5q-24 0 -36 12
t-17 30t-5.5 38.5t-1.5 37.5z" />
    <glyph glyph-name="eth" unicode="&#xf0;" horiz-adv-x="883" 
d="M129 310q-16 0 -33 2.5t-31.5 10t-23.5 20t-9 32.5v25q0 31 3.5 47.5t13.5 25.5t26.5 14t42.5 13q9 -1 26 -3q1 23 3 45t2 45q0 29 -3 56.5t-3 56.5q0 20 1 33.5t6 24t14.5 19.5t27.5 20q58 -6 116.5 -9t117.5 -5h4q20 -1 40.5 3t40.5 4q25 0 47.5 -5t44.5 -13
t43.5 -17.5t44.5 -18.5q25 -24 44 -43t34.5 -38.5t30 -43t31.5 -55.5q5 -42 8.5 -83.5t3.5 -83.5q0 -28 -5.5 -55.5t-6.5 -55.5q-11 -26 -20 -52t-19 -52q-3 -9 -14 -23t-23.5 -28.5t-25.5 -27.5l-20 -20q-8 -8 -28 -17.5t-43 -18t-44.5 -14.5t-32.5 -6q-30 0 -58 -5.5
t-57 -7.5q-16 -2 -31 -0.5t-30 -2.5q-56 -12 -117 -12q-16 0 -37 2t-39.5 9t-31.5 20t-13 36q0 8 2 16.5t2 16.5t-2 15.5t-2 15.5q0 26 1 52.5t1 52.5v41t-1 42h-19zM378 601q-4 -8 -4.5 -17.5t-0.5 -17.5q0 -5 0.5 -10.5t0.5 -10.5v-24t-1 -24h41q22 0 37 -1t24 -7.5
t12.5 -20.5t3.5 -39v-12t-1 -12q2 -9 2 -20v-20q0 -15 -11.5 -29t-22.5 -24l-91 -1v-8l-1 -55l-1 -14v-3q0 -22 16.5 -29.5t35.5 -7.5q56 0 95.5 10t64 34t36 63t11.5 97q0 12 -2 32t-6 41t-10.5 39.5t-15.5 27.5q-19 18 -45 30t-54.5 19.5t-58 10.5t-54.5 3z" />
    <glyph glyph-name="ntilde" unicode="&#xf1;" horiz-adv-x="796" 
d="M602 -8q-38 0 -60.5 11t-38 29t-29 41.5t-34.5 49.5q-5 28 -19 51.5t-28 47.5q-12 22 -22 45t-21 45q-5 9 -11 17.5t-11 18.5q-14 26 -25.5 53t-22.5 55v2q-4 0 -6.5 -5.5t-3.5 -12.5t-1 -14v-8q0 -17 4.5 -33t4.5 -33q0 -42 -1 -83.5t3 -82.5l6 -66t3 -66t-11.5 -45
t-27 -15t-33.5 -3q-17 0 -29 -8q-10 0 -25.5 0.5t-31 3t-29.5 7.5t-20 14q-4 5 -6 15.5t-3 22t-1.5 22.5t-0.5 17q-2 35 -3 70t-1 70q0 30 3 60t3 61q0 22 -4 44t-4 45q0 37 1.5 74.5t-0.5 74.5q-1 8 -2.5 16.5t-1.5 16.5q0 9 0.5 25t0.5 32q0 17 -1.5 31.5t-4.5 21.5
q-2 5 -4.5 11t-2.5 12q0 17 17 26t40 13t45.5 4.5t33.5 0.5q10 0 28 -1t37 -3.5t36 -7t25 -12.5t13 -18t9 -20.5l8 -21t10 -19.5q23 -35 43 -71t36 -74q4 -10 11 -19.5t12 -18.5q17 -29 34.5 -59.5t30.5 -60.5q5 -12 9.5 -27.5t8.5 -28.5v-2h11q0 41 -5 82t-9 82
q-5 49 -9 97.5t-4 97.5q0 32 2 51t11 29.5t27.5 14.5t51.5 6q7 0 18 1t22 2.5t21 4t16 6.5q31 -8 43 -24t13 -46v-150q0 -11 -3.5 -21.5t-3.5 -21.5q0 -14 2.5 -29t2.5 -29q0 -21 -3.5 -43t-3.5 -43q0 -17 0.5 -33.5t1.5 -33.5q0 -10 -2.5 -22.5l-4.5 -22.5q4 -13 6.5 -27
t2.5 -27q0 -21 -1 -41.5t-1 -41.5q0 -6 0.5 -23t0.5 -36v-34q0 -15 -1 -18q-6 -19 -23 -26t-33 -14h-18q-11 0 -23.5 -0.5t-23.5 -1.5t-16 -3zM293 878q-16 0 -33 2.5t-31.5 10t-23.5 20t-9 32.5v25q0 31 3.5 47.5t13.5 25.5t26.5 14t42.5 13q13 -2 33.5 -3.5t42 -2
t41.5 -0.5t33 1q16 1 35.5 1.5t38.5 0.5h38h34q22 0 37 -1t24 -7.5t12.5 -20.5t3.5 -39v-12t-1 -12q2 -9 2 -20v-20q0 -15 -11.5 -29t-22.5 -24z" />
    <glyph glyph-name="ograve" unicode="&#xf2;" horiz-adv-x="866" 
d="M826 476q0 -56 -5.5 -116.5t-19.5 -114.5q-4 -16 -14.5 -35.5t-24 -39t-27.5 -37t-24 -30.5q-6 -8 -22 -21t-34 -26.5t-35 -24.5t-26 -14t-22 -7.5t-26 -8.5t-25.5 -7.5t-21.5 -5.5q-6 -2 -14.5 -3t-14.5 -1h-76q-9 0 -29.5 4.5t-44 11t-44.5 13.5t-31 11
q-27 11 -57.5 36t-57.5 56.5t-46.5 65.5t-25.5 63q-2 6 -5 21t-6 31.5t-5 30.5t-2 18q0 17 2.5 32.5t2.5 32.5q0 64 10.5 115.5t36.5 109.5q2 4 9.5 13t16 19t17 19t11.5 12q25 26 51.5 50t56.5 42t63 28.5t71 10.5q7 0 26.5 -1t41 -3t40 -4t24.5 -4q14 -5 27 -10t27 -10
q16 -5 32.5 -7.5t32.5 -10.5q3 -1 8.5 -5.5t12.5 -10t13 -11t9 -7.5q14 -11 31.5 -26.5t33.5 -33t29 -36.5t18 -36q5 -18 8 -38t8 -39q1 -4 3.5 -13.5t5.5 -19t5 -18t2 -10.5zM592 467q-9 18 -15.5 36t-14.5 36q-7 18 -21 33.5t-31 26.5t-37 17.5t-39 6.5q-12 0 -26.5 -4
t-25.5 -8q-32 -12 -54.5 -31.5t-37.5 -44.5t-22 -55t-7 -62q0 -38 10.5 -76.5t32 -69.5t53.5 -50.5t75 -19.5q15 0 29.5 6t28.5 12q21 10 32.5 15t18 11.5t12 17.5t14.5 32q4 8 9 15t9 15q1 3 2 22.5t2 43t1.5 45t1.5 30.5zM523 953q13 10 15.5 22t-1.5 24.5t-12.5 25
t-15.5 22.5q-9 14 -20.5 27.5t-22.5 26.5v1q-8 11 -14.5 22t-13.5 22q-2 8 -6.5 14t-10.5 11q-24 27 -45 40t-40.5 10.5t-40 -20.5t-44.5 -52q37 -60 60 -95t36 -54.5t19.5 -28t12.5 -16.5q5 -7 13 -17.5t18 -19t20.5 -12t19.5 3.5l22 15q11 8 25 13.5t26 14.5z" />
    <glyph glyph-name="oacute" unicode="&#xf3;" horiz-adv-x="866" 
d="M826 476q0 -56 -5.5 -116.5t-19.5 -114.5q-4 -16 -14.5 -35.5t-24 -39t-27.5 -37t-24 -30.5q-6 -8 -22 -21t-34 -26.5t-35 -24.5t-26 -14t-22 -7.5t-26 -8.5t-25.5 -7.5t-21.5 -5.5q-6 -2 -14.5 -3t-14.5 -1h-76q-9 0 -29.5 4.5t-44 11t-44.5 13.5t-31 11
q-27 11 -57.5 36t-57.5 56.5t-46.5 65.5t-25.5 63q-2 6 -5 21t-6 31.5t-5 30.5t-2 18q0 17 2.5 32.5t2.5 32.5q0 64 10.5 115.5t36.5 109.5q2 4 9.5 13t16 19t17 19t11.5 12q25 26 51.5 50t56.5 42t63 28.5t71 10.5q7 0 26.5 -1t41 -3t40 -4t24.5 -4q14 -5 27 -10t27 -10
q16 -5 32.5 -7.5t32.5 -10.5q3 -1 8.5 -5.5t12.5 -10t13 -11t9 -7.5q14 -11 31.5 -26.5t33.5 -33t29 -36.5t18 -36q5 -18 8 -38t8 -39q1 -4 3.5 -13.5t5.5 -19t5 -18t2 -10.5zM592 467q-9 18 -15.5 36t-14.5 36q-7 18 -21 33.5t-31 26.5t-37 17.5t-39 6.5q-12 0 -26.5 -4
t-25.5 -8q-32 -12 -54.5 -31.5t-37.5 -44.5t-22 -55t-7 -62q0 -38 10.5 -76.5t32 -69.5t53.5 -50.5t75 -19.5q15 0 29.5 6t28.5 12q21 10 32.5 15t18 11.5t12 17.5t14.5 32q4 8 9 15t9 15q1 3 2 22.5t2 43t1.5 45t1.5 30.5zM329 946q-14 10 -16 22t2 24.5t12 25t16 22.5
q9 14 20.5 27.5t22.5 26.5v1q8 11 14.5 22t13.5 22q2 8 6.5 14t10.5 11q24 27 45 40t40.5 10.5t40 -20.5t44.5 -52q-38 -60 -60.5 -95t-35.5 -54.5t-19.5 -28t-12.5 -16.5q-5 -7 -13 -17.5t-18 -19t-20.5 -12t-19.5 3.5l-22 15q-11 8 -25 13.5t-26 14.5z" />
    <glyph glyph-name="ocircumflex" unicode="&#xf4;" horiz-adv-x="866" 
d="M826 476q0 -56 -5.5 -116.5t-19.5 -114.5q-4 -16 -14.5 -35.5t-24 -39t-27.5 -37t-24 -30.5q-6 -8 -22 -21t-34 -26.5t-35 -24.5t-26 -14t-22 -7.5t-26 -8.5t-25.5 -7.5t-21.5 -5.5q-6 -2 -14.5 -3t-14.5 -1h-76q-9 0 -29.5 4.5t-44 11t-44.5 13.5t-31 11
q-27 11 -57.5 36t-57.5 56.5t-46.5 65.5t-25.5 63q-2 6 -5 21t-6 31.5t-5 30.5t-2 18q0 17 2.5 32.5t2.5 32.5q0 64 10.5 115.5t36.5 109.5q2 4 9.5 13t16 19t17 19t11.5 12q25 26 51.5 50t56.5 42t63 28.5t71 10.5q7 0 26.5 -1t41 -3t40 -4t24.5 -4q14 -5 27 -10t27 -10
q16 -5 32.5 -7.5t32.5 -10.5q3 -1 8.5 -5.5t12.5 -10t13 -11t9 -7.5q14 -11 31.5 -26.5t33.5 -33t29 -36.5t18 -36q5 -18 8 -38t8 -39q1 -4 3.5 -13.5t5.5 -19t5 -18t2 -10.5zM592 467q-9 18 -15.5 36t-14.5 36q-7 18 -21 33.5t-31 26.5t-37 17.5t-39 6.5q-12 0 -26.5 -4
t-25.5 -8q-32 -12 -54.5 -31.5t-37.5 -44.5t-22 -55t-7 -62q0 -38 10.5 -76.5t32 -69.5t53.5 -50.5t75 -19.5q15 0 29.5 6t28.5 12q21 10 32.5 15t18 11.5t12 17.5t14.5 32q4 8 9 15t9 15q1 3 2 22.5t2 43t1.5 45t1.5 30.5zM558 1099q11 -13 22.5 -26t20.5 -27
q7 -10 15 -22.5t12.5 -25.5t2 -25t-15.5 -22q-12 -8 -26 -13.5t-25 -13.5l-22 -15q-9 -7 -19.5 -3.5t-20 11.5t-18 18.5t-13.5 18.5q-11 15 -19.5 32t-16.5 34q-10 -18 -19 -35.5t-20 -33.5q-5 -7 -13 -17.5t-17.5 -19t-20 -12t-20.5 3.5l-21 15q-11 8 -25 13.5t-26 13.5
q-14 10 -16 22t2 25t12 25.5t15 22.5q10 14 21.5 27t22.5 26v1q8 11 14 22t14 22q1 8 6 14t11 11q24 27 44 41.5t39 14.5t39.5 -16t44.5 -50q9 -13 17.5 -27.5t18.5 -28.5v-1z" />
    <glyph glyph-name="otilde" unicode="&#xf5;" horiz-adv-x="866" 
d="M826 476q0 -56 -5.5 -116.5t-19.5 -114.5q-4 -16 -14.5 -35.5t-24 -39t-27.5 -37t-24 -30.5q-6 -8 -22 -21t-34 -26.5t-35 -24.5t-26 -14t-22 -7.5t-26 -8.5t-25.5 -7.5t-21.5 -5.5q-6 -2 -14.5 -3t-14.5 -1h-76q-9 0 -29.5 4.5t-44 11t-44.5 13.5t-31 11
q-27 11 -57.5 36t-57.5 56.5t-46.5 65.5t-25.5 63q-2 6 -5 21t-6 31.5t-5 30.5t-2 18q0 17 2.5 32.5t2.5 32.5q0 64 10.5 115.5t36.5 109.5q2 4 9.5 13t16 19t17 19t11.5 12q25 26 51.5 50t56.5 42t63 28.5t71 10.5q7 0 26.5 -1t41 -3t40 -4t24.5 -4q14 -5 27 -10t27 -10
q16 -5 32.5 -7.5t32.5 -10.5q3 -1 8.5 -5.5t12.5 -10t13 -11t9 -7.5q14 -11 31.5 -26.5t33.5 -33t29 -36.5t18 -36q5 -18 8 -38t8 -39q1 -4 3.5 -13.5t5.5 -19t5 -18t2 -10.5zM592 467q-9 18 -15.5 36t-14.5 36q-7 18 -21 33.5t-31 26.5t-37 17.5t-39 6.5q-12 0 -26.5 -4
t-25.5 -8q-32 -12 -54.5 -31.5t-37.5 -44.5t-22 -55t-7 -62q0 -38 10.5 -76.5t32 -69.5t53.5 -50.5t75 -19.5q15 0 29.5 6t28.5 12q21 10 32.5 15t18 11.5t12 17.5t14.5 32q4 8 9 15t9 15q1 3 2 22.5t2 43t1.5 45t1.5 30.5zM305 904q-16 0 -33 2.5t-31.5 10t-23.5 20
t-9 32.5v25q0 31 3.5 47.5t13.5 25.5t26.5 14t42.5 13q13 -2 33.5 -3.5t42 -2t41.5 -0.5t33 1q16 1 35.5 1.5t38.5 0.5h38h34q22 0 37 -1t24 -7.5t12.5 -20.5t3.5 -39v-12t-1 -12q2 -9 2 -20v-20q0 -15 -11.5 -29t-22.5 -24z" />
    <glyph glyph-name="odieresis" unicode="&#xf6;" horiz-adv-x="866" 
d="M826 476q0 -56 -5.5 -116.5t-19.5 -114.5q-4 -16 -14.5 -35.5t-24 -39t-27.5 -37t-24 -30.5q-6 -8 -22 -21t-34 -26.5t-35 -24.5t-26 -14t-22 -7.5t-26 -8.5t-25.5 -7.5t-21.5 -5.5q-6 -2 -14.5 -3t-14.5 -1h-76q-9 0 -29.5 4.5t-44 11t-44.5 13.5t-31 11
q-27 11 -57.5 36t-57.5 56.5t-46.5 65.5t-25.5 63q-2 6 -5 21t-6 31.5t-5 30.5t-2 18q0 17 2.5 32.5t2.5 32.5q0 64 10.5 115.5t36.5 109.5q2 4 9.5 13t16 19t17 19t11.5 12q25 26 51.5 50t56.5 42t63 28.5t71 10.5q7 0 26.5 -1t41 -3t40 -4t24.5 -4q14 -5 27 -10t27 -10
q16 -5 32.5 -7.5t32.5 -10.5q3 -1 8.5 -5.5t12.5 -10t13 -11t9 -7.5q14 -11 31.5 -26.5t33.5 -33t29 -36.5t18 -36q5 -18 8 -38t8 -39q1 -4 3.5 -13.5t5.5 -19t5 -18t2 -10.5zM592 467q-9 18 -15.5 36t-14.5 36q-7 18 -21 33.5t-31 26.5t-37 17.5t-39 6.5q-12 0 -26.5 -4
t-25.5 -8q-32 -12 -54.5 -31.5t-37.5 -44.5t-22 -55t-7 -62q0 -38 10.5 -76.5t32 -69.5t53.5 -50.5t75 -19.5q15 0 29.5 6t28.5 12q21 10 32.5 15t18 11.5t12 17.5t14.5 32q4 8 9 15t9 15q1 3 2 22.5t2 43t1.5 45t1.5 30.5zM143 1005q1 -4 -1.5 0t-5 8.5t-2.5 5.5
q-5 18 -5 32t4.5 25t15.5 19q13 10 30.5 20.5t36.5 19.5t38.5 15t36.5 6q22 0 36 -7t21.5 -19.5t10 -29t2.5 -35.5q0 -12 -1 -24.5t-1 -24.5t-0.5 -32t-4 -39.5t-12.5 -33.5t-26 -14h-36q-19 0 -38 -5t-39 -5q-24 0 -36 12t-17 30t-5.5 38.5t-1.5 37.5zM496 1013
q1 -4 -1.5 0t-5 8.5t-2.5 5.5q-5 18 -5 32t4.5 25t15.5 19q13 10 30.5 20.5t36.5 19.5t38.5 15t36.5 6q22 0 36 -7t21.5 -19.5t10 -29t2.5 -35.5q0 -12 -1 -24.5t-1 -24.5t-0.5 -32t-4 -39.5t-12.5 -33.5t-26 -14h-36q-19 0 -38 -5t-39 -5q-24 0 -36 12t-17 30t-5.5 38.5
t-1.5 37.5z" />
    <glyph glyph-name="oslash" unicode="&#xf8;" horiz-adv-x="866" 
d="M375 -97q-10 -14 -19.5 -19.5t-19.5 -5.5q-9 0 -20 4.5t-23 10.5q-9 4 -20.5 10t-21 14.5t-16.5 20t-7 27.5q-2 2 0.5 10.5t2.5 10.5q2 10 4.5 19.5t4.5 20.5q-27 12 -57 37t-56 56t-44.5 64t-24.5 62q-2 6 -5 21t-6 31.5t-5 30.5t-2 18q0 17 2.5 32.5t2.5 32.5
q0 64 10.5 115.5t36.5 109.5q2 4 9.5 13t16 19t17 19t11.5 12q25 26 51.5 50t56.5 42t63 28.5t71 10.5q8 0 28 -1t42 -3q5 22 10.5 43t11.5 43q5 20 18.5 30.5t28.5 2.5q14 -8 27.5 -13.5t28.5 -10.5q11 -12 22 -20.5t19 -18.5t10.5 -24.5t-4.5 -38.5q-2 -8 -5 -16l-6 -16
q11 -3 20 -7q3 -1 8.5 -5.5t12.5 -10t13 -11t9 -7.5q14 -11 31.5 -26.5t33.5 -33t29 -36.5t18 -36q5 -18 8 -38t8 -39q1 -4 3.5 -13.5t5.5 -19t5 -18t2 -10.5q0 -56 -5.5 -116.5t-19.5 -114.5q-4 -16 -14.5 -35.5t-24 -39t-27.5 -37t-24 -30.5q-6 -8 -22 -21t-34 -26.5
t-35 -24.5t-26 -14t-22 -7.5t-26 -8.5t-25.5 -7.5t-21.5 -5.5q-6 -2 -14.5 -3t-14.5 -1h-79q-1 -2 -1 -7q-4 -17 -6 -34.5t-7 -33.5q0 -4 -2 -6zM592 467q-9 18 -15.5 36t-14.5 36q-2 5 -4.5 9t-4.5 8q-6 -18 -11.5 -37t-10.5 -35t-8 -27t-4 -13q-3 -11 -5.5 -22.5
t-5.5 -22.5q-8 -28 -16.5 -52.5t-20.5 -48.5q-1 -8 -6.5 -35t-13.5 -59q11 3 20.5 7t18.5 9q21 10 32.5 15t18 11.5t12 17.5t14.5 32q4 8 9 15t9 15q1 3 2 22.5t2 43t1.5 45t1.5 30.5zM382 611q-32 -12 -54.5 -31.5t-37.5 -44.5t-22 -55t-7 -62q0 -40 11 -79.5t34 -71.5
q7 28 12.5 51.5t7.5 26.5q6 21 13.5 41t13.5 41q6 20 10 41.5t10 41.5q2 10 10.5 41t19.5 67q-6 -2 -11 -3.5t-10 -3.5z" />
    <glyph glyph-name="ugrave" unicode="&#xf9;" horiz-adv-x="767" 
d="M712 245q0 -7 -2.5 -19.5t-6 -26.5t-7.5 -26.5t-7 -19.5q-9 -19 -26 -37.5t-32 -32.5q-6 -6 -14.5 -13.5t-18.5 -15.5t-19.5 -14t-17.5 -9q-28 -9 -54.5 -18t-53.5 -20q-24 0 -57.5 1t-69 4t-68 10t-53.5 19q-25 14 -47.5 36t-42.5 43q-16 17 -29.5 37t-24.5 41v38
q0 19 -2 39q-1 2 -2.5 11t-2.5 19.5t-1.5 19.5t-0.5 11q0 23 3 47t3 48q0 17 -1.5 33.5t-1.5 33.5q0 28 1.5 55.5t1.5 55.5q0 41 -3.5 80.5t-4.5 80.5q7 19 23.5 28t37 11.5t41.5 1.5t38 -1h36t29.5 -5t19.5 -17.5t7 -37.5q0 -20 -4.5 -40.5t-6.5 -40.5t-2 -41v-41
q0 -25 1 -49.5t1 -49.5q0 -23 -4 -46.5t-4 -46.5q0 -16 2.5 -34.5t7.5 -33.5q-2 -12 0 -27t4 -27q13 -17 24.5 -32.5t25.5 -27t31 -18.5t41 -7q34 0 54.5 16t31 40.5t14 54t3.5 56.5v26q0 14 -2 27q-2 11 -4.5 22.5t-2.5 22.5q0 23 1.5 47t1.5 47q0 1 -1 5.5t-2 10t-2.5 10
t-1.5 6.5q3 19 3 38q0 26 -2 50.5t-2 49.5q0 43 7 61.5t22 25t38 8t55 12.5q13 0 31 -1.5t35 -6.5t29 -15t12 -28q0 -11 -3 -21.5t-3 -21.5q0 -4 1 -5q0 -17 2 -32.5t2 -32.5q0 -14 -5.5 -28.5t-5.5 -28.5q0 -12 2 -24.5t2 -24.5q0 -26 -2 -52l-4 -52q-2 -23 3.5 -53.5
t5.5 -55.5q0 -13 -1.5 -25.5t-1.5 -24.5q0 -8 1.5 -16t1.5 -16zM476 889q13 10 15.5 22t-1.5 24.5t-12.5 25t-15.5 22.5q-9 14 -20.5 27.5t-22.5 26.5v1q-8 11 -14.5 22t-13.5 22q-2 8 -6.5 14t-10.5 11q-24 27 -45 40t-40.5 10.5t-40 -20.5t-44.5 -52q37 -60 60 -95
t36 -54.5t19.5 -28t12.5 -16.5q5 -7 13 -17.5t18 -19t20.5 -12t19.5 3.5l22 15q11 8 25 13.5t26 14.5z" />
    <glyph glyph-name="uacute" unicode="&#xfa;" horiz-adv-x="767" 
d="M712 245q0 -7 -2.5 -19.5t-6 -26.5t-7.5 -26.5t-7 -19.5q-9 -19 -26 -37.5t-32 -32.5q-6 -6 -14.5 -13.5t-18.5 -15.5t-19.5 -14t-17.5 -9q-28 -9 -54.5 -18t-53.5 -20q-24 0 -57.5 1t-69 4t-68 10t-53.5 19q-25 14 -47.5 36t-42.5 43q-16 17 -29.5 37t-24.5 41v38
q0 19 -2 39q-1 2 -2.5 11t-2.5 19.5t-1.5 19.5t-0.5 11q0 23 3 47t3 48q0 17 -1.5 33.5t-1.5 33.5q0 28 1.5 55.5t1.5 55.5q0 41 -3.5 80.5t-4.5 80.5q7 19 23.5 28t37 11.5t41.5 1.5t38 -1h36t29.5 -5t19.5 -17.5t7 -37.5q0 -20 -4.5 -40.5t-6.5 -40.5t-2 -41v-41
q0 -25 1 -49.5t1 -49.5q0 -23 -4 -46.5t-4 -46.5q0 -16 2.5 -34.5t7.5 -33.5q-2 -12 0 -27t4 -27q13 -17 24.5 -32.5t25.5 -27t31 -18.5t41 -7q34 0 54.5 16t31 40.5t14 54t3.5 56.5v26q0 14 -2 27q-2 11 -4.5 22.5t-2.5 22.5q0 23 1.5 47t1.5 47q0 1 -1 5.5t-2 10t-2.5 10
t-1.5 6.5q3 19 3 38q0 26 -2 50.5t-2 49.5q0 43 7 61.5t22 25t38 8t55 12.5q13 0 31 -1.5t35 -6.5t29 -15t12 -28q0 -11 -3 -21.5t-3 -21.5q0 -4 1 -5q0 -17 2 -32.5t2 -32.5q0 -14 -5.5 -28.5t-5.5 -28.5q0 -12 2 -24.5t2 -24.5q0 -26 -2 -52l-4 -52q-2 -23 3.5 -53.5
t5.5 -55.5q0 -13 -1.5 -25.5t-1.5 -24.5q0 -8 1.5 -16t1.5 -16zM321 899q-14 10 -16 22t2 24.5t12 25t16 22.5q9 14 20.5 27.5t22.5 26.5v1q8 11 14.5 22t13.5 22q2 8 6.5 14t10.5 11q24 27 45 40t40.5 10.5t40 -20.5t44.5 -52q-38 -60 -60.5 -95t-35.5 -54.5t-19.5 -28
t-12.5 -16.5q-5 -7 -13 -17.5t-18 -19t-20.5 -12t-19.5 3.5l-22 15q-11 8 -25 13.5t-26 14.5z" />
    <glyph glyph-name="ucircumflex" unicode="&#xfb;" horiz-adv-x="767" 
d="M712 245q0 -7 -2.5 -19.5t-6 -26.5t-7.5 -26.5t-7 -19.5q-9 -19 -26 -37.5t-32 -32.5q-6 -6 -14.5 -13.5t-18.5 -15.5t-19.5 -14t-17.5 -9q-28 -9 -54.5 -18t-53.5 -20q-24 0 -57.5 1t-69 4t-68 10t-53.5 19q-25 14 -47.5 36t-42.5 43q-16 17 -29.5 37t-24.5 41v38
q0 19 -2 39q-1 2 -2.5 11t-2.5 19.5t-1.5 19.5t-0.5 11q0 23 3 47t3 48q0 17 -1.5 33.5t-1.5 33.5q0 28 1.5 55.5t1.5 55.5q0 41 -3.5 80.5t-4.5 80.5q7 19 23.5 28t37 11.5t41.5 1.5t38 -1h36t29.5 -5t19.5 -17.5t7 -37.5q0 -20 -4.5 -40.5t-6.5 -40.5t-2 -41v-41
q0 -25 1 -49.5t1 -49.5q0 -23 -4 -46.5t-4 -46.5q0 -16 2.5 -34.5t7.5 -33.5q-2 -12 0 -27t4 -27q13 -17 24.5 -32.5t25.5 -27t31 -18.5t41 -7q34 0 54.5 16t31 40.5t14 54t3.5 56.5v26q0 14 -2 27q-2 11 -4.5 22.5t-2.5 22.5q0 23 1.5 47t1.5 47q0 1 -1 5.5t-2 10t-2.5 10
t-1.5 6.5q3 19 3 38q0 26 -2 50.5t-2 49.5q0 43 7 61.5t22 25t38 8t55 12.5q13 0 31 -1.5t35 -6.5t29 -15t12 -28q0 -11 -3 -21.5t-3 -21.5q0 -4 1 -5q0 -17 2 -32.5t2 -32.5q0 -14 -5.5 -28.5t-5.5 -28.5q0 -12 2 -24.5t2 -24.5q0 -26 -2 -52l-4 -52q-2 -23 3.5 -53.5
t5.5 -55.5q0 -13 -1.5 -25.5t-1.5 -24.5q0 -8 1.5 -16t1.5 -16zM515 1084q11 -13 22.5 -26t20.5 -27q7 -10 15 -22.5t12.5 -25.5t2 -25t-15.5 -22q-12 -8 -26 -13.5t-25 -13.5l-22 -15q-9 -7 -19.5 -3.5t-20 11.5t-18 18.5t-13.5 18.5q-11 15 -19.5 32t-16.5 34
q-10 -18 -19 -35.5t-20 -33.5q-5 -7 -13 -17.5t-17.5 -19t-20 -12t-20.5 3.5l-21 15q-11 8 -25 13.5t-26 13.5q-14 10 -16 22t2 25t12 25.5t15 22.5q10 14 21.5 27t22.5 26v1q8 11 14 22t14 22q1 8 6 14t11 11q24 27 44 41.5t39 14.5t39.5 -16t44.5 -50q9 -13 17.5 -27.5
t18.5 -28.5v-1z" />
    <glyph glyph-name="udieresis" unicode="&#xfc;" horiz-adv-x="767" 
d="M712 245q0 -7 -2.5 -19.5t-6 -26.5t-7.5 -26.5t-7 -19.5q-9 -19 -26 -37.5t-32 -32.5q-6 -6 -14.5 -13.5t-18.5 -15.5t-19.5 -14t-17.5 -9q-28 -9 -54.5 -18t-53.5 -20q-24 0 -57.5 1t-69 4t-68 10t-53.5 19q-25 14 -47.5 36t-42.5 43q-16 17 -29.5 37t-24.5 41v38
q0 19 -2 39q-1 2 -2.5 11t-2.5 19.5t-1.5 19.5t-0.5 11q0 23 3 47t3 48q0 17 -1.5 33.5t-1.5 33.5q0 28 1.5 55.5t1.5 55.5q0 41 -3.5 80.5t-4.5 80.5q7 19 23.5 28t37 11.5t41.5 1.5t38 -1h36t29.5 -5t19.5 -17.5t7 -37.5q0 -20 -4.5 -40.5t-6.5 -40.5t-2 -41v-41
q0 -25 1 -49.5t1 -49.5q0 -23 -4 -46.5t-4 -46.5q0 -16 2.5 -34.5t7.5 -33.5q-2 -12 0 -27t4 -27q13 -17 24.5 -32.5t25.5 -27t31 -18.5t41 -7q34 0 54.5 16t31 40.5t14 54t3.5 56.5v26q0 14 -2 27q-2 11 -4.5 22.5t-2.5 22.5q0 23 1.5 47t1.5 47q0 1 -1 5.5t-2 10t-2.5 10
t-1.5 6.5q3 19 3 38q0 26 -2 50.5t-2 49.5q0 43 7 61.5t22 25t38 8t55 12.5q13 0 31 -1.5t35 -6.5t29 -15t12 -28q0 -11 -3 -21.5t-3 -21.5q0 -4 1 -5q0 -17 2 -32.5t2 -32.5q0 -14 -5.5 -28.5t-5.5 -28.5q0 -12 2 -24.5t2 -24.5q0 -26 -2 -52l-4 -52q-2 -23 3.5 -53.5
t5.5 -55.5q0 -13 -1.5 -25.5t-1.5 -24.5q0 -8 1.5 -16t1.5 -16zM457 1001q1 -4 -1.5 0t-5 8.5t-2.5 5.5q-5 18 -5 32t4.5 25t15.5 19q13 10 30.5 20.5t36.5 19.5t38.5 15t36.5 6q22 0 36 -7t21.5 -19.5t10 -29t2.5 -35.5q0 -12 -1 -24.5t-1 -24.5t-0.5 -32t-4 -39.5
t-12.5 -33.5t-26 -14h-36q-19 0 -38 -5t-39 -5q-24 0 -36 12t-17 30t-5.5 38.5t-1.5 37.5zM104 993q1 -4 -1.5 0t-5 8.5t-2.5 5.5q-5 18 -5 32t4.5 25t15.5 19q13 10 30.5 20.5t36.5 19.5t38.5 15t36.5 6q22 0 36 -7t21.5 -19.5t10 -29t2.5 -35.5q0 -12 -1 -24.5t-1 -24.5
t-0.5 -32t-4 -39.5t-12.5 -33.5t-26 -14h-36q-19 0 -38 -5t-39 -5q-24 0 -36 12t-17 30t-5.5 38.5t-1.5 37.5z" />
    <glyph glyph-name="yacute" unicode="&#xfd;" horiz-adv-x="777" 
d="M767 737q0 -9 -5 -16.5t-10 -13.5q-33 -39 -65 -78.5t-63 -81.5q-19 -25 -33.5 -53t-33.5 -53q-12 -17 -27.5 -34t-29.5 -35q-1 -2 -2.5 -19.5t-3 -37.5t-2.5 -38t-1 -22q0 -13 3.5 -25t3.5 -25q0 -21 -0.5 -41.5t-1.5 -41.5q-1 -14 4 -28t5 -29q0 -25 -12.5 -38
t-30.5 -19t-39.5 -6.5t-39.5 -0.5q-20 0 -40.5 2t-36.5 9t-26 21.5t-10 40.5q0 20 4 41t4 42q0 16 -2.5 31t-2.5 31q0 17 2 35t2 36v38t-2 39q0 4 -10.5 17.5t-23 28.5t-24.5 29t-16 20q-14 23 -27 42.5t-29 40.5q-11 14 -19 31.5t-19 31.5q-22 29 -49 56.5t-44 60.5
q-2 4 -3 11.5t-1 12.5q0 22 12.5 32t28.5 13t30.5 2.5t18.5 2.5q6 0 25 -1.5t40.5 -3.5t40.5 -4.5t24 -3.5q9 -3 23.5 -20t30.5 -41t33 -53t32.5 -56.5t28 -50t19.5 -34.5v-4h9q0 3 2 7q14 27 22 55t21 55q2 5 11.5 15.5t13.5 15.5q6 21 16 40.5t24.5 34.5t33.5 24t43 9
q7 0 28.5 -1t44.5 -3t42 -4.5t22 -4.5q12 -2 24.5 -11t12.5 -22zM325 879q-14 10 -16 22t2 24.5t12 25t16 22.5q9 14 20.5 27.5t22.5 26.5v1q8 11 14.5 22t13.5 22q2 8 6.5 14t10.5 11q24 27 45 40t40.5 10.5t40 -20.5t44.5 -52q-38 -60 -60.5 -95t-35.5 -54.5t-19.5 -28
t-12.5 -16.5q-5 -7 -13 -17.5t-18 -19t-20.5 -12t-19.5 3.5l-22 15q-11 8 -25 13.5t-26 14.5z" />
    <glyph glyph-name="thorn" unicode="&#xfe;" horiz-adv-x="750" 
d="M715 426q0 -45 -6.5 -83t-22 -70.5t-41.5 -60t-65 -51.5q-8 -5 -16 -9.5t-18 -8.5q-27 0 -53 -9t-52 -9q-33 0 -65.5 6.5t-65.5 6.5q-14 0 -16 -3l-8 -12h-21q0 -5 1 -7q2 -17 5 -35t3 -35q0 -5 -1 -6q-15 -36 -40.5 -43t-61.5 -7h-30q-16 0 -32 3t-28.5 10.5t-18.5 22.5
q-3 0 -3 9v12q-2 37 -5.5 73t-3.5 73q0 19 4.5 38t4.5 38q0 7 -3 15t-3 15q0 23 3 45t3 45q0 22 -2 43.5t-2 43.5t1 43t1 43q0 46 -3.5 91t-3.5 91q0 21 13 37.5t35 16.5q21 0 40.5 1t40.5 4q18 -6 35.5 -8.5t31 -8t22 -18t8.5 -38.5q0 -22 -5 -47h3q21 0 32.5 -3.5
t32.5 -3.5q20 0 41.5 3.5t41.5 3.5q13 0 35 -3t46 -8t46 -10.5t35 -10.5q39 -14 64.5 -36.5t40 -52t20.5 -64t6 -72.5zM276 500q-4 -8 -5.5 -27.5t-2.5 -42.5q0 -9 -0.5 -17.5t-0.5 -17.5v-39q0 -12 -0.5 -21t1.5 -16t7.5 -10.5t17.5 -3.5q17 0 34.5 3.5t34.5 5.5q9 1 24 1
q16 0 32 2t30 6t19 13q10 17 17.5 40t7.5 43q0 21 -12.5 42t-36.5 24t-44 6t-39.5 5t-39.5 3t-44 1z" />
    <glyph glyph-name="ydieresis" unicode="&#xff;" horiz-adv-x="777" 
d="M767 737q0 -9 -5 -16.5t-10 -13.5q-33 -39 -65 -78.5t-63 -81.5q-19 -25 -33.5 -53t-33.5 -53q-12 -17 -27.5 -34t-29.5 -35q-1 -2 -2.5 -19.5t-3 -37.5t-2.5 -38t-1 -22q0 -13 3.5 -25t3.5 -25q0 -21 -0.5 -41.5t-1.5 -41.5q-1 -14 4 -28t5 -29q0 -25 -12.5 -38
t-30.5 -19t-39.5 -6.5t-39.5 -0.5q-20 0 -40.5 2t-36.5 9t-26 21.5t-10 40.5q0 20 4 41t4 42q0 16 -2.5 31t-2.5 31q0 17 2 35t2 36v38t-2 39q0 4 -10.5 17.5t-23 28.5t-24.5 29t-16 20q-14 23 -27 42.5t-29 40.5q-11 14 -19 31.5t-19 31.5q-22 29 -49 56.5t-44 60.5
q-2 4 -3 11.5t-1 12.5q0 22 12.5 32t28.5 13t30.5 2.5t18.5 2.5q6 0 25 -1.5t40.5 -3.5t40.5 -4.5t24 -3.5q9 -3 23.5 -20t30.5 -41t33 -53t32.5 -56.5t28 -50t19.5 -34.5v-4h9q0 3 2 7q14 27 22 55t21 55q2 5 11.5 15.5t13.5 15.5q6 21 16 40.5t24.5 34.5t33.5 24t43 9
q7 0 28.5 -1t44.5 -3t42 -4.5t22 -4.5q12 -2 24.5 -11t12.5 -22zM465 1008q1 -4 -1.5 0t-5 8.5t-2.5 5.5q-5 18 -5 32t4.5 25t15.5 19q13 10 30.5 20.5t36.5 19.5t38.5 15t36.5 6q22 0 36 -7t21.5 -19.5t10 -29t2.5 -35.5q0 -12 -1 -24.5t-1 -24.5t-0.5 -32t-4 -39.5
t-12.5 -33.5t-26 -14h-36q-19 0 -38 -5t-39 -5q-24 0 -36 12t-17 30t-5.5 38.5t-1.5 37.5zM112 1000q1 -4 -1.5 0t-5 8.5t-2.5 5.5q-5 18 -5 32t4.5 25t15.5 19q13 10 30.5 20.5t36.5 19.5t38.5 15t36.5 6q22 0 36 -7t21.5 -19.5t10 -29t2.5 -35.5q0 -12 -1 -24.5t-1 -24.5
t-0.5 -32t-4 -39.5t-12.5 -33.5t-26 -14h-36q-19 0 -38 -5t-39 -5q-24 0 -36 12t-17 30t-5.5 38.5t-1.5 37.5z" />
    <glyph glyph-name="Amacron" unicode="&#x100;" 
d="M627 0q-29 0 -48.5 10t-31 27t-16.5 40t-5 49h-5q0 5 -5 5q-4 0 -8 -1.5t-7 -3.5q-6 0 -33.5 0.5t-59.5 0.5q-31 0 -60 -1t-38 -4q-20 -6 -29.5 -18t-14.5 -27t-8 -31t-10 -29t-21.5 -21.5t-41.5 -8.5q-14 0 -27 1t-27 1q-9 0 -18 -2t-17 -2q-14 0 -29.5 2t-28 8
t-20.5 17t-8 29t5.5 34.5t13.5 32.5t16.5 31.5t14.5 31.5q2 6 2.5 13.5t2.5 14.5q5 22 10 47.5t14 46.5q11 25 21.5 49.5t21.5 49.5q5 11 5 25q0 15 4 27q5 15 15 30t14 30q3 11 5 24t5.5 25.5t8.5 24.5t13 21q4 25 14 48t24 44q3 18 8 36t15 33t24.5 25t35.5 12
q23 3 36.5 5.5t25.5 2.5q19 0 44.5 -4.5t49.5 -14.5t42.5 -25.5t24.5 -37.5q12 -48 27 -93t22 -96q7 -11 17 -30t20.5 -40t19 -40t11.5 -30t5.5 -21.5t5.5 -21.5t12.5 -24.5t14.5 -24.5q4 -10 6.5 -22l5 -24t5.5 -23.5t8 -20.5t15 -28.5t20.5 -41.5t18 -42.5t7.5 -31.5
q0 -12 -7 -21t-17.5 -16.5t-22 -13t-19.5 -10.5q-5 0 -18.5 -1t-29 -1.5t-29 -2t-17.5 -2.5zM258 883q-16 0 -33 2.5t-31.5 10t-23.5 20t-9 32.5v25q0 31 3.5 47.5t13.5 25.5t26.5 14t42.5 13q13 -2 33.5 -3.5t42 -2t41.5 -0.5t33 1q16 1 35.5 1.5t38.5 0.5h38h34
q22 0 37 -1t24 -7.5t12.5 -20.5t3.5 -39v-12t-1 -12q2 -9 2 -20v-20q0 -15 -11.5 -29t-22.5 -24zM393 556q-6 -20 -10 -38t-8 -38t-11 -40.5t-14 -40.5t-12.5 -40.5t-5.5 -41.5q0 -8 6 -12.5t14 -6.5t16.5 -2.5t14.5 -0.5q8 0 20 0.5t25 2.5t24 5.5t17 9.5q1 0 1 1v1
q0 3 -2.5 8.5t-4.5 7.5q-9 20 -14.5 43t-10.5 45q-3 13 -9.5 25t-8.5 24l-14 77q-1 3 -5.5 6.5t-7.5 4.5z" />
    <glyph glyph-name="amacron" unicode="&#x101;" 
d="M627 0q-29 0 -48.5 10t-31 27t-16.5 40t-5 49h-5q0 5 -5 5q-4 0 -8 -1.5t-7 -3.5q-6 0 -33.5 0.5t-59.5 0.5q-31 0 -60 -1t-38 -4q-20 -6 -29.5 -18t-14.5 -27t-8 -31t-10 -29t-21.5 -21.5t-41.5 -8.5q-14 0 -27 1t-27 1q-9 0 -18 -2t-17 -2q-14 0 -29.5 2t-28 8
t-20.5 17t-8 29t5.5 34.5t13.5 32.5t16.5 31.5t14.5 31.5q2 6 2.5 13.5t2.5 14.5q5 22 10 47.5t14 46.5q11 25 21.5 49.5t21.5 49.5q5 11 5 25q0 15 4 27q5 15 15 30t14 30q3 11 5 24t5.5 25.5t8.5 24.5t13 21q4 25 14 48t24 44q3 18 8 36t15 33t24.5 25t35.5 12
q23 3 36.5 5.5t25.5 2.5q19 0 44.5 -4.5t49.5 -14.5t42.5 -25.5t24.5 -37.5q12 -48 27 -93t22 -96q7 -11 17 -30t20.5 -40t19 -40t11.5 -30t5.5 -21.5t5.5 -21.5t12.5 -24.5t14.5 -24.5q4 -10 6.5 -22l5 -24t5.5 -23.5t8 -20.5t15 -28.5t20.5 -41.5t18 -42.5t7.5 -31.5
q0 -12 -7 -21t-17.5 -16.5t-22 -13t-19.5 -10.5q-5 0 -18.5 -1t-29 -1.5t-29 -2t-17.5 -2.5zM258 883q-16 0 -33 2.5t-31.5 10t-23.5 20t-9 32.5v25q0 31 3.5 47.5t13.5 25.5t26.5 14t42.5 13q13 -2 33.5 -3.5t42 -2t41.5 -0.5t33 1q16 1 35.5 1.5t38.5 0.5h38h34
q22 0 37 -1t24 -7.5t12.5 -20.5t3.5 -39v-12t-1 -12q2 -9 2 -20v-20q0 -15 -11.5 -29t-22.5 -24zM393 556q-6 -20 -10 -38t-8 -38t-11 -40.5t-14 -40.5t-12.5 -40.5t-5.5 -41.5q0 -8 6 -12.5t14 -6.5t16.5 -2.5t14.5 -0.5q8 0 20 0.5t25 2.5t24 5.5t17 9.5q1 0 1 1v1
q0 3 -2.5 8.5t-4.5 7.5q-9 20 -14.5 43t-10.5 45q-3 13 -9.5 25t-8.5 24l-14 77q-1 3 -5.5 6.5t-7.5 4.5z" />
    <glyph glyph-name="Abreve" unicode="&#x102;" 
d="M627 0q-29 0 -48.5 10t-31 27t-16.5 40t-5 49h-5q0 5 -5 5q-4 0 -8 -1.5t-7 -3.5q-6 0 -33.5 0.5t-59.5 0.5q-31 0 -60 -1t-38 -4q-20 -6 -29.5 -18t-14.5 -27t-8 -31t-10 -29t-21.5 -21.5t-41.5 -8.5q-14 0 -27 1t-27 1q-9 0 -18 -2t-17 -2q-14 0 -29.5 2t-28 8
t-20.5 17t-8 29t5.5 34.5t13.5 32.5t16.5 31.5t14.5 31.5q2 6 2.5 13.5t2.5 14.5q5 22 10 47.5t14 46.5q11 25 21.5 49.5t21.5 49.5q5 11 5 25q0 15 4 27q5 15 15 30t14 30q3 11 5 24t5.5 25.5t8.5 24.5t13 21q4 25 14 48t24 44q3 18 8 36t15 33t24.5 25t35.5 12
q23 3 36.5 5.5t25.5 2.5q19 0 44.5 -4.5t49.5 -14.5t42.5 -25.5t24.5 -37.5q12 -48 27 -93t22 -96q7 -11 17 -30t20.5 -40t19 -40t11.5 -30t5.5 -21.5t5.5 -21.5t12.5 -24.5t14.5 -24.5q4 -10 6.5 -22l5 -24t5.5 -23.5t8 -20.5t15 -28.5t20.5 -41.5t18 -42.5t7.5 -31.5
q0 -12 -7 -21t-17.5 -16.5t-22 -13t-19.5 -10.5q-5 0 -18.5 -1t-29 -1.5t-29 -2t-17.5 -2.5zM263 1018q0 -6 -1.5 -11.5t-1.5 -11.5q0 -1 1 -6t2 -10.5l2 -11t1 -7.5q2 -10 9 -21.5t16 -22.5t20 -19.5t21 -12.5q3 -1 10 -3.5t15 -5t15.5 -4.5t10.5 -2h26q3 0 5.5 1t4.5 2
q7 1 17 4t15 5q4 1 10 5t12 8.5t11.5 9t8.5 7.5q7 8 17.5 23t13.5 26q5 22 8 40t-1 40q-28 2 -44 2t-24.5 -1.5t-12.5 -5t-8 -9.5q0 -3 -0.5 -8.5t-0.5 -12.5v-11v-6q-1 -2 -2.5 -4t-1.5 -4q-5 -11 -8 -13.5t-15 -8.5q-3 0 -7 -1.5t-8 -1.5q-24 0 -35 19t-11 40
q-19 13 -35.5 17t-28.5 2.5t-19 -6.5t-7 -9zM393 556q-6 -20 -10 -38t-8 -38t-11 -40.5t-14 -40.5t-12.5 -40.5t-5.5 -41.5q0 -8 6 -12.5t14 -6.5t16.5 -2.5t14.5 -0.5q8 0 20 0.5t25 2.5t24 5.5t17 9.5q1 0 1 1v1q0 3 -2.5 8.5t-4.5 7.5q-9 20 -14.5 43t-10.5 45
q-3 13 -9.5 25t-8.5 24l-14 77q-1 3 -5.5 6.5t-7.5 4.5z" />
    <glyph glyph-name="abreve" unicode="&#x103;" 
d="M627 0q-29 0 -48.5 10t-31 27t-16.5 40t-5 49h-5q0 5 -5 5q-4 0 -8 -1.5t-7 -3.5q-6 0 -33.5 0.5t-59.5 0.5q-31 0 -60 -1t-38 -4q-20 -6 -29.5 -18t-14.5 -27t-8 -31t-10 -29t-21.5 -21.5t-41.5 -8.5q-14 0 -27 1t-27 1q-9 0 -18 -2t-17 -2q-14 0 -29.5 2t-28 8
t-20.5 17t-8 29t5.5 34.5t13.5 32.5t16.5 31.5t14.5 31.5q2 6 2.5 13.5t2.5 14.5q5 22 10 47.5t14 46.5q11 25 21.5 49.5t21.5 49.5q5 11 5 25q0 15 4 27q5 15 15 30t14 30q3 11 5 24t5.5 25.5t8.5 24.5t13 21q4 25 14 48t24 44q3 18 8 36t15 33t24.5 25t35.5 12
q23 3 36.5 5.5t25.5 2.5q19 0 44.5 -4.5t49.5 -14.5t42.5 -25.5t24.5 -37.5q12 -48 27 -93t22 -96q7 -11 17 -30t20.5 -40t19 -40t11.5 -30t5.5 -21.5t5.5 -21.5t12.5 -24.5t14.5 -24.5q4 -10 6.5 -22l5 -24t5.5 -23.5t8 -20.5t15 -28.5t20.5 -41.5t18 -42.5t7.5 -31.5
q0 -12 -7 -21t-17.5 -16.5t-22 -13t-19.5 -10.5q-5 0 -18.5 -1t-29 -1.5t-29 -2t-17.5 -2.5zM263 1016q0 -6 -1.5 -11.5t-1.5 -11.5q0 -1 1 -6t2 -10.5l2 -11t1 -7.5q2 -10 9 -21.5t16 -22.5t20 -19.5t21 -12.5q3 -1 10 -3.5t15 -5t15.5 -4.5t10.5 -2h26q3 0 5.5 1t4.5 2
q7 1 17 4t15 5q4 1 10 5t12 8.5t11.5 9t8.5 7.5q7 8 17.5 23t13.5 26q5 22 8 40t-1 40q-28 2 -44 2t-24.5 -1.5t-12.5 -5t-8 -9.5q0 -3 -0.5 -8.5t-0.5 -12.5v-11v-6q-1 -2 -2.5 -4t-1.5 -4q-5 -11 -8 -13.5t-15 -8.5q-3 0 -7 -1.5t-8 -1.5q-24 0 -35 19t-11 40
q-19 13 -35.5 17t-28.5 2.5t-19 -6.5t-7 -9zM393 556q-6 -20 -10 -38t-8 -38t-11 -40.5t-14 -40.5t-12.5 -40.5t-5.5 -41.5q0 -8 6 -12.5t14 -6.5t16.5 -2.5t14.5 -0.5q8 0 20 0.5t25 2.5t24 5.5t17 9.5q1 0 1 1v1q0 3 -2.5 8.5t-4.5 7.5q-9 20 -14.5 43t-10.5 45
q-3 13 -9.5 25t-8.5 24l-14 77q-1 3 -5.5 6.5t-7.5 4.5z" />
    <glyph glyph-name="Aogonek" unicode="&#x104;" 
d="M539 -80l-1 1q0 23 -2 45.5t-2 44.5v27q0 13 1 24q-5 14 -7 30.5t-2 33.5h-5q0 5 -5 5q-4 0 -8 -1.5t-7 -3.5q-6 0 -33.5 0.5t-59.5 0.5q-31 0 -60 -1t-38 -4q-20 -6 -29.5 -18t-14.5 -27t-8 -31t-10 -29t-21.5 -21.5t-41.5 -8.5q-14 0 -27 1t-27 1q-9 0 -18 -2t-17 -2
q-14 0 -29.5 2t-28 8t-20.5 17t-8 29t5.5 34.5t13.5 32.5t16.5 31.5t14.5 31.5q2 6 2.5 13.5t2.5 14.5q5 22 10 47.5t14 46.5q11 25 21.5 49.5t21.5 49.5q5 11 5 25q0 15 4 27q5 15 15 30t14 30q3 11 5 24t5.5 25.5t8.5 24.5t13 21q4 25 14 48t24 44q3 18 8 36t15 33
t24.5 25t35.5 12q23 3 36.5 5.5t25.5 2.5q19 0 44.5 -4.5t49.5 -14.5t42.5 -25.5t24.5 -37.5q12 -48 27 -93t22 -96q7 -11 17 -30t20.5 -40t19 -40t11.5 -30t5.5 -21.5t5.5 -21.5t12.5 -24.5t14.5 -24.5q4 -10 6.5 -22l5 -24t5.5 -23.5t8 -20.5t15 -28.5t20.5 -41.5
t18 -42.5t7.5 -31.5q0 -19 -17.5 -32t-34.5 -22q-1 -6 -1.5 -12t-0.5 -12q0 -41 8 -81.5t8 -81.5q0 -12 -1 -29.5t-5 -34.5t-12.5 -29t-24.5 -12h-36q-19 0 -38 -5t-39 -5q-23 0 -35 11.5t-17.5 29t-6.5 37.5t-1 37q0 23 2 46.5t4 46.5zM393 556q-6 -20 -10 -38t-8 -38
t-11 -40.5t-14 -40.5t-12.5 -40.5t-5.5 -41.5q0 -8 6 -12.5t14 -6.5t16.5 -2.5t14.5 -0.5q8 0 20 0.5t25 2.5t24 5.5t17 9.5q1 0 1 1v1q0 3 -2.5 8.5t-4.5 7.5q-9 20 -14.5 43t-10.5 45q-3 13 -9.5 25t-8.5 24l-14 77q-1 3 -5.5 6.5t-7.5 4.5z" />
    <glyph glyph-name="aogonek" unicode="&#x105;" 
d="M539 -80l-1 1q0 23 -2 45.5t-2 44.5v27q0 13 1 24q-5 14 -7 30.5t-2 33.5h-5q0 5 -5 5q-4 0 -8 -1.5t-7 -3.5q-6 0 -33.5 0.5t-59.5 0.5q-31 0 -60 -1t-38 -4q-20 -6 -29.5 -18t-14.5 -27t-8 -31t-10 -29t-21.5 -21.5t-41.5 -8.5q-14 0 -27 1t-27 1q-9 0 -18 -2t-17 -2
q-14 0 -29.5 2t-28 8t-20.5 17t-8 29t5.5 34.5t13.5 32.5t16.5 31.5t14.5 31.5q2 6 2.5 13.5t2.5 14.5q5 22 10 47.5t14 46.5q11 25 21.5 49.5t21.5 49.5q5 11 5 25q0 15 4 27q5 15 15 30t14 30q3 11 5 24t5.5 25.5t8.5 24.5t13 21q4 25 14 48t24 44q3 18 8 36t15 33
t24.5 25t35.5 12q23 3 36.5 5.5t25.5 2.5q19 0 44.5 -4.5t49.5 -14.5t42.5 -25.5t24.5 -37.5q12 -48 27 -93t22 -96q7 -11 17 -30t20.5 -40t19 -40t11.5 -30t5.5 -21.5t5.5 -21.5t12.5 -24.5t14.5 -24.5q4 -10 6.5 -22l5 -24t5.5 -23.5t8 -20.5t15 -28.5t20.5 -41.5
t18 -42.5t7.5 -31.5q0 -19 -17.5 -32t-34.5 -22q-1 -6 -1.5 -12t-0.5 -12q0 -41 8 -81.5t8 -81.5q0 -12 -1 -29.5t-5 -34.5t-12.5 -29t-24.5 -12h-36q-19 0 -38 -5t-39 -5q-23 0 -35 11.5t-17.5 29t-6.5 37.5t-1 37q0 23 2 46.5t4 46.5zM393 556q-6 -20 -10 -38t-8 -38
t-11 -40.5t-14 -40.5t-12.5 -40.5t-5.5 -41.5q0 -8 6 -12.5t14 -6.5t16.5 -2.5t14.5 -0.5q8 0 20 0.5t25 2.5t24 5.5t17 9.5q1 0 1 1v1q0 3 -2.5 8.5t-4.5 7.5q-9 20 -14.5 43t-10.5 45q-3 13 -9.5 25t-8.5 24l-14 77q-1 3 -5.5 6.5t-7.5 4.5z" />
    <glyph glyph-name="Cacute" unicode="&#x106;" horiz-adv-x="748" 
d="M516 -6q-27 2 -52 -5t-45 -7q-77 0 -149.5 23.5t-126.5 82.5l-50 54q-5 16 -13.5 34t-17.5 37t-15.5 37.5t-6.5 34.5q0 35 3 70.5t3 70.5v46t2 46q3 28 14.5 58.5t28.5 59t37.5 54t41.5 42.5q22 18 56 37t61 30q1 1 12.5 3.5t25.5 5.5t25.5 5t12.5 2q37 0 76.5 -4.5
t78 -15.5t73.5 -29t62 -46q8 -9 16 -19t16 -19q12 -14 26 -33.5t14 -39.5q0 -5 -6 -14t-14 -19t-16 -18.5t-11 -12.5q-11 -6 -21 -14t-20 -15t-21.5 -11.5t-25.5 -4.5q-13 0 -24 6.5t-20 16.5t-17 21t-15 19q-8 9 -19 17t-23.5 15t-25.5 11t-25 4q-20 0 -36.5 -8.5
t-32.5 -18.5q-11 -8 -23.5 -14.5t-23.5 -14.5q-15 -11 -25.5 -29t-16.5 -39t-8.5 -42.5t-2.5 -39.5q0 -51 21.5 -100.5t51.5 -89.5q44 -29 97 -29q43 0 66.5 17t39 38t29 38t36.5 17q14 0 37 -8.5t44.5 -22t37.5 -30.5t16 -33q0 -25 -25 -57t-59 -62.5t-70 -54.5t-58 -33z
M256 922q-14 10 -16 22t2 24.5t12 25t16 22.5q9 14 20.5 27.5t22.5 26.5v1q8 11 14.5 22t13.5 22q2 8 6.5 14t10.5 11q24 27 45 40t40.5 10.5t40 -20.5t44.5 -52q-38 -60 -60.5 -95t-35.5 -54.5t-19.5 -28t-12.5 -16.5q-5 -7 -13 -17.5t-18 -19t-20.5 -12t-19.5 3.5l-22 15
q-11 8 -25 13.5t-26 14.5z" />
    <glyph glyph-name="cacute" unicode="&#x107;" horiz-adv-x="748" 
d="M516 -6q-27 2 -52 -5t-45 -7q-77 0 -149.5 23.5t-126.5 82.5l-50 54q-5 16 -13.5 34t-17.5 37t-15.5 37.5t-6.5 34.5q0 35 3 70.5t3 70.5v46t2 46q3 28 14.5 58.5t28.5 59t37.5 54t41.5 42.5q22 18 56 37t61 30q1 1 12.5 3.5t25.5 5.5t25.5 5t12.5 2q37 0 76.5 -4.5
t78 -15.5t73.5 -29t62 -46q8 -9 16 -19t16 -19q12 -14 26 -33.5t14 -39.5q0 -5 -6 -14t-14 -19t-16 -18.5t-11 -12.5q-11 -6 -21 -14t-20 -15t-21.5 -11.5t-25.5 -4.5q-13 0 -24 6.5t-20 16.5t-17 21t-15 19q-8 9 -19 17t-23.5 15t-25.5 11t-25 4q-20 0 -36.5 -8.5
t-32.5 -18.5q-11 -8 -23.5 -14.5t-23.5 -14.5q-15 -11 -25.5 -29t-16.5 -39t-8.5 -42.5t-2.5 -39.5q0 -51 21.5 -100.5t51.5 -89.5q44 -29 97 -29q43 0 66.5 17t39 38t29 38t36.5 17q14 0 37 -8.5t44.5 -22t37.5 -30.5t16 -33q0 -25 -25 -57t-59 -62.5t-70 -54.5t-58 -33z
M310 920q-14 10 -16 22t2 24.5t12 25t16 22.5q9 14 20.5 27.5t22.5 26.5v1q8 11 14.5 22t13.5 22q2 8 6.5 14t10.5 11q24 27 45 40t40.5 10.5t40 -20.5t44.5 -52q-38 -60 -60.5 -95t-35.5 -54.5t-19.5 -28t-12.5 -16.5q-5 -7 -13 -17.5t-18 -19t-20.5 -12t-19.5 3.5l-22 15
q-11 8 -25 13.5t-26 14.5z" />
    <glyph glyph-name="Ccircumflex" unicode="&#x108;" horiz-adv-x="748" 
d="M516 -6q-27 2 -52 -5t-45 -7q-77 0 -149.5 23.5t-126.5 82.5l-50 54q-5 16 -13.5 34t-17.5 37t-15.5 37.5t-6.5 34.5q0 35 3 70.5t3 70.5v46t2 46q3 28 14.5 58.5t28.5 59t37.5 54t41.5 42.5q22 18 56 37t61 30q1 1 12.5 3.5t25.5 5.5t25.5 5t12.5 2q37 0 76.5 -4.5
t78 -15.5t73.5 -29t62 -46q8 -9 16 -19t16 -19q12 -14 26 -33.5t14 -39.5q0 -5 -6 -14t-14 -19t-16 -18.5t-11 -12.5q-11 -6 -21 -14t-20 -15t-21.5 -11.5t-25.5 -4.5q-13 0 -24 6.5t-20 16.5t-17 21t-15 19q-8 9 -19 17t-23.5 15t-25.5 11t-25 4q-20 0 -36.5 -8.5
t-32.5 -18.5q-11 -8 -23.5 -14.5t-23.5 -14.5q-15 -11 -25.5 -29t-16.5 -39t-8.5 -42.5t-2.5 -39.5q0 -51 21.5 -100.5t51.5 -89.5q44 -29 97 -29q43 0 66.5 17t39 38t29 38t36.5 17q14 0 37 -8.5t44.5 -22t37.5 -30.5t16 -33q0 -25 -25 -57t-59 -62.5t-70 -54.5t-58 -33z
M516 1055q11 -13 22.5 -26t20.5 -27q7 -10 15 -22.5t12.5 -25.5t2 -25t-15.5 -22q-12 -8 -26 -13.5t-25 -13.5l-22 -15q-9 -7 -19.5 -3.5t-20 11.5t-18 18.5t-13.5 18.5q-11 15 -19.5 32t-16.5 34q-10 -18 -19 -35.5t-20 -33.5q-5 -7 -13 -17.5t-17.5 -19t-20 -12t-20.5 3.5
l-21 15q-11 8 -25 13.5t-26 13.5q-14 10 -16 22t2 25t12 25.5t15 22.5q10 14 21.5 27t22.5 26v1q8 11 14 22t14 22q1 8 6 14t11 11q24 27 44 41.5t39 14.5t39.5 -16t44.5 -50q9 -13 17.5 -27.5t18.5 -28.5v-1z" />
    <glyph glyph-name="ccircumflex" unicode="&#x109;" horiz-adv-x="748" 
d="M516 -6q-27 2 -52 -5t-45 -7q-77 0 -149.5 23.5t-126.5 82.5l-50 54q-5 16 -13.5 34t-17.5 37t-15.5 37.5t-6.5 34.5q0 35 3 70.5t3 70.5v46t2 46q3 28 14.5 58.5t28.5 59t37.5 54t41.5 42.5q22 18 56 37t61 30q1 1 12.5 3.5t25.5 5.5t25.5 5t12.5 2q37 0 76.5 -4.5
t78 -15.5t73.5 -29t62 -46q8 -9 16 -19t16 -19q12 -14 26 -33.5t14 -39.5q0 -5 -6 -14t-14 -19t-16 -18.5t-11 -12.5q-11 -6 -21 -14t-20 -15t-21.5 -11.5t-25.5 -4.5q-13 0 -24 6.5t-20 16.5t-17 21t-15 19q-8 9 -19 17t-23.5 15t-25.5 11t-25 4q-20 0 -36.5 -8.5
t-32.5 -18.5q-11 -8 -23.5 -14.5t-23.5 -14.5q-15 -11 -25.5 -29t-16.5 -39t-8.5 -42.5t-2.5 -39.5q0 -51 21.5 -100.5t51.5 -89.5q44 -29 97 -29q43 0 66.5 17t39 38t29 38t36.5 17q14 0 37 -8.5t44.5 -22t37.5 -30.5t16 -33q0 -25 -25 -57t-59 -62.5t-70 -54.5t-58 -33z
M516 1055q11 -13 22.5 -26t20.5 -27q7 -10 15 -22.5t12.5 -25.5t2 -25t-15.5 -22q-12 -8 -26 -13.5t-25 -13.5l-22 -15q-9 -7 -19.5 -3.5t-20 11.5t-18 18.5t-13.5 18.5q-11 15 -19.5 32t-16.5 34q-10 -18 -19 -35.5t-20 -33.5q-5 -7 -13 -17.5t-17.5 -19t-20 -12t-20.5 3.5
l-21 15q-11 8 -25 13.5t-26 13.5q-14 10 -16 22t2 25t12 25.5t15 22.5q10 14 21.5 27t22.5 26v1q8 11 14 22t14 22q1 8 6 14t11 11q24 27 44 41.5t39 14.5t39.5 -16t44.5 -50q9 -13 17.5 -27.5t18.5 -28.5v-1z" />
    <glyph glyph-name="uni010A" unicode="&#x10a;" horiz-adv-x="748" 
d="M516 -6q-27 2 -52 -5t-45 -7q-77 0 -149.5 23.5t-126.5 82.5l-50 54q-5 16 -13.5 34t-17.5 37t-15.5 37.5t-6.5 34.5q0 35 3 70.5t3 70.5v46t2 46q3 28 14.5 58.5t28.5 59t37.5 54t41.5 42.5q22 18 56 37t61 30q1 1 12.5 3.5t25.5 5.5t25.5 5t12.5 2q37 0 76.5 -4.5
t78 -15.5t73.5 -29t62 -46q8 -9 16 -19t16 -19q12 -14 26 -33.5t14 -39.5q0 -5 -6 -14t-14 -19t-16 -18.5t-11 -12.5q-11 -6 -21 -14t-20 -15t-21.5 -11.5t-25.5 -4.5q-13 0 -24 6.5t-20 16.5t-17 21t-15 19q-8 9 -19 17t-23.5 15t-25.5 11t-25 4q-20 0 -36.5 -8.5
t-32.5 -18.5q-11 -8 -23.5 -14.5t-23.5 -14.5q-15 -11 -25.5 -29t-16.5 -39t-8.5 -42.5t-2.5 -39.5q0 -51 21.5 -100.5t51.5 -89.5q44 -29 97 -29q43 0 66.5 17t39 38t29 38t36.5 17q14 0 37 -8.5t44.5 -22t37.5 -30.5t16 -33q0 -25 -25 -57t-59 -62.5t-70 -54.5t-58 -33z
M296 999q1 -4 -1.5 0t-5 8.5t-2.5 5.5q-5 18 -5 32t4.5 25t15.5 19q13 10 30.5 20.5t36.5 19.5t38.5 15t36.5 6q22 0 36 -7t21.5 -19.5t10 -29t2.5 -35.5q0 -12 -1 -24.5t-1 -24.5t-0.5 -32t-4 -39.5t-12.5 -33.5t-26 -14h-36q-19 0 -38 -5t-39 -5q-24 0 -36 12t-17 30
t-5.5 38.5t-1.5 37.5z" />
    <glyph glyph-name="uni010B" unicode="&#x10b;" horiz-adv-x="748" 
d="M516 -6q-27 2 -52 -5t-45 -7q-77 0 -149.5 23.5t-126.5 82.5l-50 54q-5 16 -13.5 34t-17.5 37t-15.5 37.5t-6.5 34.5q0 35 3 70.5t3 70.5v46t2 46q3 28 14.5 58.5t28.5 59t37.5 54t41.5 42.5q22 18 56 37t61 30q1 1 12.5 3.5t25.5 5.5t25.5 5t12.5 2q37 0 76.5 -4.5
t78 -15.5t73.5 -29t62 -46q8 -9 16 -19t16 -19q12 -14 26 -33.5t14 -39.5q0 -5 -6 -14t-14 -19t-16 -18.5t-11 -12.5q-11 -6 -21 -14t-20 -15t-21.5 -11.5t-25.5 -4.5q-13 0 -24 6.5t-20 16.5t-17 21t-15 19q-8 9 -19 17t-23.5 15t-25.5 11t-25 4q-20 0 -36.5 -8.5
t-32.5 -18.5q-11 -8 -23.5 -14.5t-23.5 -14.5q-15 -11 -25.5 -29t-16.5 -39t-8.5 -42.5t-2.5 -39.5q0 -51 21.5 -100.5t51.5 -89.5q44 -29 97 -29q43 0 66.5 17t39 38t29 38t36.5 17q14 0 37 -8.5t44.5 -22t37.5 -30.5t16 -33q0 -25 -25 -57t-59 -62.5t-70 -54.5t-58 -33z
M296 999q1 -4 -1.5 0t-5 8.5t-2.5 5.5q-5 18 -5 32t4.5 25t15.5 19q13 10 30.5 20.5t36.5 19.5t38.5 15t36.5 6q22 0 36 -7t21.5 -19.5t10 -29t2.5 -35.5q0 -12 -1 -24.5t-1 -24.5t-0.5 -32t-4 -39.5t-12.5 -33.5t-26 -14h-36q-19 0 -38 -5t-39 -5q-24 0 -36 12t-17 30
t-5.5 38.5t-1.5 37.5z" />
    <glyph glyph-name="Ccaron" unicode="&#x10c;" horiz-adv-x="748" 
d="M516 -6q-27 2 -52 -5t-45 -7q-77 0 -149.5 23.5t-126.5 82.5l-50 54q-5 16 -13.5 34t-17.5 37t-15.5 37.5t-6.5 34.5q0 35 3 70.5t3 70.5v46t2 46q3 28 14.5 58.5t28.5 59t37.5 54t41.5 42.5q22 18 56 37t61 30q1 1 12.5 3.5t25.5 5.5t25.5 5t12.5 2q37 0 76.5 -4.5
t78 -15.5t73.5 -29t62 -46q8 -9 16 -19t16 -19q12 -14 26 -33.5t14 -39.5q0 -5 -6 -14t-14 -19t-16 -18.5t-11 -12.5q-11 -6 -21 -14t-20 -15t-21.5 -11.5t-25.5 -4.5q-13 0 -24 6.5t-20 16.5t-17 21t-15 19q-8 9 -19 17t-23.5 15t-25.5 11t-25 4q-20 0 -36.5 -8.5
t-32.5 -18.5q-11 -8 -23.5 -14.5t-23.5 -14.5q-15 -11 -25.5 -29t-16.5 -39t-8.5 -42.5t-2.5 -39.5q0 -51 21.5 -100.5t51.5 -89.5q44 -29 97 -29q43 0 66.5 17t39 38t29 38t36.5 17q14 0 37 -8.5t44.5 -22t37.5 -30.5t16 -33q0 -25 -25 -57t-59 -62.5t-70 -54.5t-58 -33z
M498 962q11 13 22.5 26t20.5 27q7 10 15 22.5t12.5 25.5t2 25t-15.5 22q-12 8 -26 13.5t-25 13.5l-22 15q-9 7 -19.5 3.5t-20 -12t-18 -19t-13.5 -17.5q-11 -15 -19.5 -32t-16.5 -34q-10 18 -19 35.5t-20 33.5q-5 7 -13 17.5t-17.5 19t-20 12t-20.5 -3.5l-21 -15
q-11 -8 -25 -13.5t-26 -13.5q-14 -10 -16 -22t2 -25t12 -25.5t15 -22.5q10 -14 21.5 -27t22.5 -26v-1q8 -11 14 -22t14 -22q1 -8 6 -14t11 -11q24 -27 44 -41.5t39 -14.5t39.5 16t44.5 50q9 13 17.5 27.5t18.5 28.5v1z" />
    <glyph glyph-name="ccaron" unicode="&#x10d;" horiz-adv-x="748" 
d="M516 -6q-27 2 -52 -5t-45 -7q-77 0 -149.5 23.5t-126.5 82.5l-50 54q-5 16 -13.5 34t-17.5 37t-15.5 37.5t-6.5 34.5q0 35 3 70.5t3 70.5v46t2 46q3 28 14.5 58.5t28.5 59t37.5 54t41.5 42.5q22 18 56 37t61 30q1 1 12.5 3.5t25.5 5.5t25.5 5t12.5 2q37 0 76.5 -4.5
t78 -15.5t73.5 -29t62 -46q8 -9 16 -19t16 -19q12 -14 26 -33.5t14 -39.5q0 -5 -6 -14t-14 -19t-16 -18.5t-11 -12.5q-11 -6 -21 -14t-20 -15t-21.5 -11.5t-25.5 -4.5q-13 0 -24 6.5t-20 16.5t-17 21t-15 19q-8 9 -19 17t-23.5 15t-25.5 11t-25 4q-20 0 -36.5 -8.5
t-32.5 -18.5q-11 -8 -23.5 -14.5t-23.5 -14.5q-15 -11 -25.5 -29t-16.5 -39t-8.5 -42.5t-2.5 -39.5q0 -51 21.5 -100.5t51.5 -89.5q44 -29 97 -29q43 0 66.5 17t39 38t29 38t36.5 17q14 0 37 -8.5t44.5 -22t37.5 -30.5t16 -33q0 -25 -25 -57t-59 -62.5t-70 -54.5t-58 -33z
M524 981q11 13 22.5 26t20.5 27q7 10 15 22.5t12.5 25.5t2 25t-15.5 22q-12 8 -26 13.5t-25 13.5l-22 15q-9 7 -19.5 3.5t-20 -12t-18 -19t-13.5 -17.5q-11 -15 -19.5 -32t-16.5 -34q-10 18 -19 35.5t-20 33.5q-5 7 -13 17.5t-17.5 19t-20 12t-20.5 -3.5l-21 -15
q-11 -8 -25 -13.5t-26 -13.5q-14 -10 -16 -22t2 -25t12 -25.5t15 -22.5q10 -14 21.5 -27t22.5 -26v-1q8 -11 14 -22t14 -22q1 -8 6 -14t11 -11q24 -27 44 -41.5t39 -14.5t39.5 16t44.5 50q9 13 17.5 27.5t18.5 28.5v1z" />
    <glyph glyph-name="Dcaron" unicode="&#x10e;" horiz-adv-x="790" 
d="M738 278q-11 -26 -20 -52t-19 -52q-3 -9 -14 -23t-23.5 -28.5t-25.5 -27.5l-20 -20q-8 -8 -28 -17.5t-43 -18t-44.5 -14.5t-32.5 -6q-30 0 -58 -5.5t-57 -7.5q-16 -2 -31 -0.5t-30 -2.5q-56 -12 -117 -12q-16 0 -37 2t-39.5 9t-31.5 20t-13 36q0 8 2 16.5t2 16.5t-2 15.5
t-2 15.5q0 26 1 52.5t1 52.5q0 60 -1.5 120.5t-3.5 120.5v8q-1 28 2 55.5t3 55.5q0 29 -3 56.5t-3 56.5q0 20 1 33.5t6 24t14.5 19.5t27.5 20q58 -6 116.5 -9t117.5 -5h4q20 -1 40.5 3t40.5 4q25 0 47.5 -5t44.5 -13t43.5 -17.5t44.5 -18.5q25 -24 44 -43t34.5 -38.5t30 -43
t31.5 -55.5q5 -42 8.5 -83.5t3.5 -83.5q0 -28 -5.5 -55.5t-6.5 -55.5zM285 601q-4 -8 -4.5 -17.5t-0.5 -17.5q0 -5 0.5 -10.5t0.5 -10.5q-1 -60 -3 -120.5t-4 -121.5l-1 -55l-1 -14v-3q0 -22 16.5 -29.5t35.5 -7.5q56 0 95.5 10t64 34t36 63t11.5 97q0 12 -2 32t-6 41
t-10.5 39.5t-15.5 27.5q-19 18 -45 30t-54.5 19.5t-58 10.5t-54.5 3zM519 962q11 13 22.5 26t20.5 27q7 10 15 22.5t12.5 25.5t2 25t-15.5 22q-12 8 -26 13.5t-25 13.5l-22 15q-9 7 -19.5 3.5t-20 -12t-18 -19t-13.5 -17.5q-11 -15 -19.5 -32t-16.5 -34q-10 18 -19 35.5
t-20 33.5q-5 7 -13 17.5t-17.5 19t-20 12t-20.5 -3.5l-21 -15q-11 -8 -25 -13.5t-26 -13.5q-14 -10 -16 -22t2 -25t12 -25.5t15 -22.5q10 -14 21.5 -27t22.5 -26v-1q8 -11 14 -22t14 -22q1 -8 6 -14t11 -11q24 -27 44 -41.5t39 -14.5t39.5 16t44.5 50q9 13 17.5 27.5
t18.5 28.5v1z" />
    <glyph glyph-name="dcaron" unicode="&#x10f;" horiz-adv-x="790" 
d="M738 278q-11 -26 -20 -52t-19 -52q-3 -9 -14 -23t-23.5 -28.5t-25.5 -27.5l-20 -20q-8 -8 -28 -17.5t-43 -18t-44.5 -14.5t-32.5 -6q-30 0 -58 -5.5t-57 -7.5q-16 -2 -31 -0.5t-30 -2.5q-56 -12 -117 -12q-16 0 -37 2t-39.5 9t-31.5 20t-13 36q0 8 2 16.5t2 16.5t-2 15.5
t-2 15.5q0 26 1 52.5t1 52.5q0 60 -1.5 120.5t-3.5 120.5v8q-1 28 2 55.5t3 55.5q0 29 -3 56.5t-3 56.5q0 20 1 33.5t6 24t14.5 19.5t27.5 20q58 -6 116.5 -9t117.5 -5h4q20 -1 40.5 3t40.5 4q25 0 47.5 -5t44.5 -13t43.5 -17.5t44.5 -18.5q25 -24 44 -43t34.5 -38.5t30 -43
t31.5 -55.5q5 -42 8.5 -83.5t3.5 -83.5q0 -28 -5.5 -55.5t-6.5 -55.5zM285 601q-4 -8 -4.5 -17.5t-0.5 -17.5q0 -5 0.5 -10.5t0.5 -10.5q-1 -60 -3 -120.5t-4 -121.5l-1 -55l-1 -14v-3q0 -22 16.5 -29.5t35.5 -7.5q56 0 95.5 10t64 34t36 63t11.5 97q0 12 -2 32t-6 41
t-10.5 39.5t-15.5 27.5q-19 18 -45 30t-54.5 19.5t-58 10.5t-54.5 3zM485 957q11 13 22.5 26t20.5 27q7 10 15 22.5t12.5 25.5t2 25t-15.5 22q-12 8 -26 13.5t-25 13.5l-22 15q-9 7 -19.5 3.5t-20 -12t-18 -19t-13.5 -17.5q-11 -15 -19.5 -32t-16.5 -34q-10 18 -19 35.5
t-20 33.5q-5 7 -13 17.5t-17.5 19t-20 12t-20.5 -3.5l-21 -15q-11 -8 -25 -13.5t-26 -13.5q-14 -10 -16 -22t2 -25t12 -25.5t15 -22.5q10 -14 21.5 -27t22.5 -26v-1q8 -11 14 -22t14 -22q1 -8 6 -14t11 -11q24 -27 44 -41.5t39 -14.5t39.5 16t44.5 50q9 13 17.5 27.5
t18.5 28.5v1z" />
    <glyph glyph-name="Dcroat" unicode="&#x110;" horiz-adv-x="790" 
d="M738 278q-11 -26 -20 -52t-19 -52q-3 -9 -14 -23t-23.5 -28.5t-25.5 -27.5l-20 -20q-8 -8 -28 -17.5t-43 -18t-44.5 -14.5t-32.5 -6q-30 0 -58 -5.5t-57 -7.5q-16 -2 -31 -0.5t-30 -2.5q-56 -12 -117 -12q-16 0 -37 2t-39.5 9t-31.5 20t-13 36q0 8 2 16.5t2 16.5t-2 15.5
t-2 15.5q0 26 1 52.5t1 52.5q0 60 -1.5 120.5t-3.5 120.5v8q-1 28 2 55.5t3 55.5q0 29 -3 56.5t-3 56.5q0 20 1 33.5t6 24t14.5 19.5t27.5 20q58 -6 116.5 -9t117.5 -5h4q20 -1 40.5 3t40.5 4q25 0 47.5 -5t44.5 -13t43.5 -17.5t44.5 -18.5q25 -24 44 -43t34.5 -38.5t30 -43
t31.5 -55.5q5 -42 8.5 -83.5t3.5 -83.5q0 -28 -5.5 -55.5t-6.5 -55.5zM285 601q-4 -8 -4.5 -17.5t-0.5 -17.5q0 -5 0.5 -10.5t0.5 -10.5q-1 -60 -3 -120.5t-4 -121.5l-1 -55l-1 -14v-3q0 -22 16.5 -29.5t35.5 -7.5q56 0 95.5 10t64 34t36 63t11.5 97q0 12 -2 32t-6 41
t-10.5 39.5t-15.5 27.5q-19 18 -45 30t-54.5 19.5t-58 10.5t-54.5 3z" />
    <glyph glyph-name="dcroat" unicode="&#x111;" horiz-adv-x="790" 
d="M738 278q-11 -26 -20 -52t-19 -52q-3 -9 -14 -23t-23.5 -28.5t-25.5 -27.5l-20 -20q-8 -8 -28 -17.5t-43 -18t-44.5 -14.5t-32.5 -6q-30 0 -58 -5.5t-57 -7.5q-16 -2 -31 -0.5t-30 -2.5q-56 -12 -117 -12q-16 0 -37 2t-39.5 9t-31.5 20t-13 36q0 8 2 16.5t2 16.5t-2 15.5
t-2 15.5q0 26 1 52.5t1 52.5q0 60 -1.5 120.5t-3.5 120.5v8q-1 28 2 55.5t3 55.5q0 29 -3 56.5t-3 56.5q0 20 1 33.5t6 24t14.5 19.5t27.5 20q58 -6 116.5 -9t117.5 -5h4q20 -1 40.5 3t40.5 4q25 0 47.5 -5t44.5 -13t43.5 -17.5t44.5 -18.5q25 -24 44 -43t34.5 -38.5t30 -43
t31.5 -55.5q5 -42 8.5 -83.5t3.5 -83.5q0 -28 -5.5 -55.5t-6.5 -55.5zM285 601q-4 -8 -4.5 -17.5t-0.5 -17.5q0 -5 0.5 -10.5t0.5 -10.5q-1 -60 -3 -120.5t-4 -121.5l-1 -55l-1 -14v-3q0 -22 16.5 -29.5t35.5 -7.5q56 0 95.5 10t64 34t36 63t11.5 97q0 12 -2 32t-6 41
t-10.5 39.5t-15.5 27.5q-19 18 -45 30t-54.5 19.5t-58 10.5t-54.5 3zM485 957q11 13 22.5 26t20.5 27q7 10 15 22.5t12.5 25.5t2 25t-15.5 22q-12 8 -26 13.5t-25 13.5l-22 15q-9 7 -19.5 3.5t-20 -12t-18 -19t-13.5 -17.5q-11 -15 -19.5 -32t-16.5 -34q-10 18 -19 35.5
t-20 33.5q-5 7 -13 17.5t-17.5 19t-20 12t-20.5 -3.5l-21 -15q-11 -8 -25 -13.5t-26 -13.5q-14 -10 -16 -22t2 -25t12 -25.5t15 -22.5q10 -14 21.5 -27t22.5 -26v-1q8 -11 14 -22t14 -22q1 -8 6 -14t11 -11q24 -27 44 -41.5t39 -14.5t39.5 16t44.5 50q9 13 17.5 27.5
t18.5 28.5v1z" />
    <glyph glyph-name="Emacron" unicode="&#x112;" horiz-adv-x="710" 
d="M620 3h-81q-21 0 -42.5 2.5t-43.5 2.5q-11 0 -32 0.5t-43 -0.5t-41.5 -3t-27.5 -7q-20 0 -42.5 1t-42.5 -3t-42 -6.5t-42 -2.5q-48 0 -69 28t-21 73q0 36 7 71.5t7 70.5q0 10 -2 20t-3 20q-1 15 0 30.5t0 30.5q0 8 -2 16t-2 16q0 26 3.5 51.5t3.5 51.5q0 11 -1.5 21.5
t-1.5 21.5q0 26 2.5 53t2.5 53q0 34 -3 67.5t-3 67.5q0 9 7 16.5t16.5 12.5t20 9t18.5 7q8 0 17 0.5t17 0.5q27 0 53 -4t52 -9l7 1l33 1q69 3 138 3q10 0 20 -1.5t20 -3.5q-1 0 3 0.5t6 1.5l13 1l49 6q5 1 10 1h11q11 0 23 -2t23 -8q4 -3 8 -20t6.5 -38t4 -40t1.5 -25
q0 -34 -18.5 -48.5t-50.5 -14.5q-29 0 -56.5 5t-56.5 5t-58.5 2.5t-58.5 2.5q-17 0 -35.5 -4.5t-29.5 -19.5q-3 0 -3 -3q0 -1 1 -2q1 -10 1 -25t2.5 -29t9.5 -24t23 -10q22 0 43.5 4.5t43.5 4.5t43 -1.5t43 -0.5q20 1 39.5 3.5t39.5 2.5q26 0 41.5 -10.5t15.5 -38.5
q0 -4 -0.5 -7.5t-0.5 -7.5q-1 -17 -1 -38q0 -20 -4.5 -37.5t-16.5 -29.5t-37 -12q-32 0 -64 -1.5t-64 -1.5q-15 0 -39.5 8.5t-47.5 8.5q-8 0 -15 -1t-15 -4q-19 0 -28 -5.5t-12.5 -15t-3 -23t0.5 -28.5v-27t3.5 -25t12 -18.5t25.5 -7.5q21 0 44 4t46 6q37 2 73 2.5t73 2.5
q17 1 33.5 2.5t33.5 1.5q26 0 43 -10t17 -39q0 -11 -2.5 -20.5t-2.5 -20.5q0 -14 2 -27t2 -27q0 -20 -13.5 -39t-35.5 -19zM236 873q-16 0 -33 2.5t-31.5 10t-23.5 20t-9 32.5v25q0 31 3.5 47.5t13.5 25.5t26.5 14t42.5 13q13 -2 33.5 -3.5t42 -2t41.5 -0.5t33 1
q16 1 35.5 1.5t38.5 0.5h38h34q22 0 37 -1t24 -7.5t12.5 -20.5t3.5 -39v-12t-1 -12q2 -9 2 -20v-20q0 -15 -11.5 -29t-22.5 -24z" />
    <glyph glyph-name="emacron" unicode="&#x113;" horiz-adv-x="710" 
d="M620 3h-81q-21 0 -42.5 2.5t-43.5 2.5q-11 0 -32 0.5t-43 -0.5t-41.5 -3t-27.5 -7q-20 0 -42.5 1t-42.5 -3t-42 -6.5t-42 -2.5q-48 0 -69 28t-21 73q0 36 7 71.5t7 70.5q0 10 -2 20t-3 20q-1 15 0 30.5t0 30.5q0 8 -2 16t-2 16q0 26 3.5 51.5t3.5 51.5q0 11 -1.5 21.5
t-1.5 21.5q0 26 2.5 53t2.5 53q0 34 -3 67.5t-3 67.5q0 9 7 16.5t16.5 12.5t20 9t18.5 7q8 0 17 0.5t17 0.5q27 0 53 -4t52 -9l7 1l33 1q69 3 138 3q10 0 20 -1.5t20 -3.5q-1 0 3 0.5t6 1.5l13 1l49 6q5 1 10 1h11q11 0 23 -2t23 -8q4 -3 8 -20t6.5 -38t4 -40t1.5 -25
q0 -34 -18.5 -48.5t-50.5 -14.5q-29 0 -56.5 5t-56.5 5t-58.5 2.5t-58.5 2.5q-17 0 -35.5 -4.5t-29.5 -19.5q-3 0 -3 -3q0 -1 1 -2q1 -10 1 -25t2.5 -29t9.5 -24t23 -10q22 0 43.5 4.5t43.5 4.5t43 -1.5t43 -0.5q20 1 39.5 3.5t39.5 2.5q26 0 41.5 -10.5t15.5 -38.5
q0 -4 -0.5 -7.5t-0.5 -7.5q-1 -17 -1 -38q0 -20 -4.5 -37.5t-16.5 -29.5t-37 -12q-32 0 -64 -1.5t-64 -1.5q-15 0 -39.5 8.5t-47.5 8.5q-8 0 -15 -1t-15 -4q-19 0 -28 -5.5t-12.5 -15t-3 -23t0.5 -28.5v-27t3.5 -25t12 -18.5t25.5 -7.5q21 0 44 4t46 6q37 2 73 2.5t73 2.5
q17 1 33.5 2.5t33.5 1.5q26 0 43 -10t17 -39q0 -11 -2.5 -20.5t-2.5 -20.5q0 -14 2 -27t2 -27q0 -20 -13.5 -39t-35.5 -19zM236 873q-16 0 -33 2.5t-31.5 10t-23.5 20t-9 32.5v25q0 31 3.5 47.5t13.5 25.5t26.5 14t42.5 13q13 -2 33.5 -3.5t42 -2t41.5 -0.5t33 1
q16 1 35.5 1.5t38.5 0.5h38h34q22 0 37 -1t24 -7.5t12.5 -20.5t3.5 -39v-12t-1 -12q2 -9 2 -20v-20q0 -15 -11.5 -29t-22.5 -24z" />
    <glyph glyph-name="Ebreve" unicode="&#x114;" horiz-adv-x="710" 
d="M620 3h-81q-21 0 -42.5 2.5t-43.5 2.5q-11 0 -32 0.5t-43 -0.5t-41.5 -3t-27.5 -7q-20 0 -42.5 1t-42.5 -3t-42 -6.5t-42 -2.5q-48 0 -69 28t-21 73q0 36 7 71.5t7 70.5q0 10 -2 20t-3 20q-1 15 0 30.5t0 30.5q0 8 -2 16t-2 16q0 26 3.5 51.5t3.5 51.5q0 11 -1.5 21.5
t-1.5 21.5q0 26 2.5 53t2.5 53q0 34 -3 67.5t-3 67.5q0 9 7 16.5t16.5 12.5t20 9t18.5 7q8 0 17 0.5t17 0.5q27 0 53 -4t52 -9l7 1l33 1q69 3 138 3q10 0 20 -1.5t20 -3.5q-1 0 3 0.5t6 1.5l13 1l49 6q5 1 10 1h11q11 0 23 -2t23 -8q4 -3 8 -20t6.5 -38t4 -40t1.5 -25
q0 -34 -18.5 -48.5t-50.5 -14.5q-29 0 -56.5 5t-56.5 5t-58.5 2.5t-58.5 2.5q-17 0 -35.5 -4.5t-29.5 -19.5q-3 0 -3 -3q0 -1 1 -2q1 -10 1 -25t2.5 -29t9.5 -24t23 -10q22 0 43.5 4.5t43.5 4.5t43 -1.5t43 -0.5q20 1 39.5 3.5t39.5 2.5q26 0 41.5 -10.5t15.5 -38.5
q0 -4 -0.5 -7.5t-0.5 -7.5q-1 -17 -1 -38q0 -20 -4.5 -37.5t-16.5 -29.5t-37 -12q-32 0 -64 -1.5t-64 -1.5q-15 0 -39.5 8.5t-47.5 8.5q-8 0 -15 -1t-15 -4q-19 0 -28 -5.5t-12.5 -15t-3 -23t0.5 -28.5v-27t3.5 -25t12 -18.5t25.5 -7.5q21 0 44 4t46 6q37 2 73 2.5t73 2.5
q17 1 33.5 2.5t33.5 1.5q26 0 43 -10t17 -39q0 -11 -2.5 -20.5t-2.5 -20.5q0 -14 2 -27t2 -27q0 -20 -13.5 -39t-35.5 -19zM238 1016q0 -6 -1.5 -11.5t-1.5 -11.5q0 -1 1 -6t2 -10.5l2 -11t1 -7.5q2 -10 9 -21.5t16 -22.5t20 -19.5t21 -12.5q3 -1 10 -3.5t15 -5t15.5 -4.5
t10.5 -2h26q3 0 5.5 1t4.5 2q7 1 17 4t15 5q4 1 10 5t12 8.5t11.5 9t8.5 7.5q7 8 17.5 23t13.5 26q5 22 8 40t-1 40q-28 2 -44 2t-24.5 -1.5t-12.5 -5t-8 -9.5q0 -3 -0.5 -8.5t-0.5 -12.5v-11v-6q-1 -2 -2.5 -4t-1.5 -4q-5 -11 -8 -13.5t-15 -8.5q-3 0 -7 -1.5t-8 -1.5
q-24 0 -35 19t-11 40q-19 13 -35.5 17t-28.5 2.5t-19 -6.5t-7 -9z" />
    <glyph glyph-name="ebreve" unicode="&#x115;" horiz-adv-x="710" 
d="M620 3h-81q-21 0 -42.5 2.5t-43.5 2.5q-11 0 -32 0.5t-43 -0.5t-41.5 -3t-27.5 -7q-20 0 -42.5 1t-42.5 -3t-42 -6.5t-42 -2.5q-48 0 -69 28t-21 73q0 36 7 71.5t7 70.5q0 10 -2 20t-3 20q-1 15 0 30.5t0 30.5q0 8 -2 16t-2 16q0 26 3.5 51.5t3.5 51.5q0 11 -1.5 21.5
t-1.5 21.5q0 26 2.5 53t2.5 53q0 34 -3 67.5t-3 67.5q0 9 7 16.5t16.5 12.5t20 9t18.5 7q8 0 17 0.5t17 0.5q27 0 53 -4t52 -9l7 1l33 1q69 3 138 3q10 0 20 -1.5t20 -3.5q-1 0 3 0.5t6 1.5l13 1l49 6q5 1 10 1h11q11 0 23 -2t23 -8q4 -3 8 -20t6.5 -38t4 -40t1.5 -25
q0 -34 -18.5 -48.5t-50.5 -14.5q-29 0 -56.5 5t-56.5 5t-58.5 2.5t-58.5 2.5q-17 0 -35.5 -4.5t-29.5 -19.5q-3 0 -3 -3q0 -1 1 -2q1 -10 1 -25t2.5 -29t9.5 -24t23 -10q22 0 43.5 4.5t43.5 4.5t43 -1.5t43 -0.5q20 1 39.5 3.5t39.5 2.5q26 0 41.5 -10.5t15.5 -38.5
q0 -4 -0.5 -7.5t-0.5 -7.5q-1 -17 -1 -38q0 -20 -4.5 -37.5t-16.5 -29.5t-37 -12q-32 0 -64 -1.5t-64 -1.5q-15 0 -39.5 8.5t-47.5 8.5q-8 0 -15 -1t-15 -4q-19 0 -28 -5.5t-12.5 -15t-3 -23t0.5 -28.5v-27t3.5 -25t12 -18.5t25.5 -7.5q21 0 44 4t46 6q37 2 73 2.5t73 2.5
q17 1 33.5 2.5t33.5 1.5q26 0 43 -10t17 -39q0 -11 -2.5 -20.5t-2.5 -20.5q0 -14 2 -27t2 -27q0 -20 -13.5 -39t-35.5 -19zM238 1016q0 -6 -1.5 -11.5t-1.5 -11.5q0 -1 1 -6t2 -10.5l2 -11t1 -7.5q2 -10 9 -21.5t16 -22.5t20 -19.5t21 -12.5q3 -1 10 -3.5t15 -5t15.5 -4.5
t10.5 -2h26q3 0 5.5 1t4.5 2q7 1 17 4t15 5q4 1 10 5t12 8.5t11.5 9t8.5 7.5q7 8 17.5 23t13.5 26q5 22 8 40t-1 40q-28 2 -44 2t-24.5 -1.5t-12.5 -5t-8 -9.5q0 -3 -0.5 -8.5t-0.5 -12.5v-11v-6q-1 -2 -2.5 -4t-1.5 -4q-5 -11 -8 -13.5t-15 -8.5q-3 0 -7 -1.5t-8 -1.5
q-24 0 -35 19t-11 40q-19 13 -35.5 17t-28.5 2.5t-19 -6.5t-7 -9z" />
    <glyph glyph-name="Edotaccent" unicode="&#x116;" horiz-adv-x="710" 
d="M620 3h-81q-21 0 -42.5 2.5t-43.5 2.5q-11 0 -32 0.5t-43 -0.5t-41.5 -3t-27.5 -7q-20 0 -42.5 1t-42.5 -3t-42 -6.5t-42 -2.5q-48 0 -69 28t-21 73q0 36 7 71.5t7 70.5q0 10 -2 20t-3 20q-1 15 0 30.5t0 30.5q0 8 -2 16t-2 16q0 26 3.5 51.5t3.5 51.5q0 11 -1.5 21.5
t-1.5 21.5q0 26 2.5 53t2.5 53q0 34 -3 67.5t-3 67.5q0 9 7 16.5t16.5 12.5t20 9t18.5 7q8 0 17 0.5t17 0.5q27 0 53 -4t52 -9l7 1l33 1q69 3 138 3q10 0 20 -1.5t20 -3.5q-1 0 3 0.5t6 1.5l13 1l49 6q5 1 10 1h11q11 0 23 -2t23 -8q4 -3 8 -20t6.5 -38t4 -40t1.5 -25
q0 -34 -18.5 -48.5t-50.5 -14.5q-29 0 -56.5 5t-56.5 5t-58.5 2.5t-58.5 2.5q-17 0 -35.5 -4.5t-29.5 -19.5q-3 0 -3 -3q0 -1 1 -2q1 -10 1 -25t2.5 -29t9.5 -24t23 -10q22 0 43.5 4.5t43.5 4.5t43 -1.5t43 -0.5q20 1 39.5 3.5t39.5 2.5q26 0 41.5 -10.5t15.5 -38.5
q0 -4 -0.5 -7.5t-0.5 -7.5q-1 -17 -1 -38q0 -20 -4.5 -37.5t-16.5 -29.5t-37 -12q-32 0 -64 -1.5t-64 -1.5q-15 0 -39.5 8.5t-47.5 8.5q-8 0 -15 -1t-15 -4q-19 0 -28 -5.5t-12.5 -15t-3 -23t0.5 -28.5v-27t3.5 -25t12 -18.5t25.5 -7.5q21 0 44 4t46 6q37 2 73 2.5t73 2.5
q17 1 33.5 2.5t33.5 1.5q26 0 43 -10t17 -39q0 -11 -2.5 -20.5t-2.5 -20.5q0 -14 2 -27t2 -27q0 -20 -13.5 -39t-35.5 -19zM265 988q1 -4 -1.5 0t-5 8.5t-2.5 5.5q-5 18 -5 32t4.5 25t15.5 19q13 10 30.5 20.5t36.5 19.5t38.5 15t36.5 6q22 0 36 -7t21.5 -19.5t10 -29
t2.5 -35.5q0 -12 -1 -24.5t-1 -24.5t-0.5 -32t-4 -39.5t-12.5 -33.5t-26 -14h-36q-19 0 -38 -5t-39 -5q-24 0 -36 12t-17 30t-5.5 38.5t-1.5 37.5z" />
    <glyph glyph-name="edotaccent" unicode="&#x117;" horiz-adv-x="710" 
d="M620 3h-81q-21 0 -42.5 2.5t-43.5 2.5q-11 0 -32 0.5t-43 -0.5t-41.5 -3t-27.5 -7q-20 0 -42.5 1t-42.5 -3t-42 -6.5t-42 -2.5q-48 0 -69 28t-21 73q0 36 7 71.5t7 70.5q0 10 -2 20t-3 20q-1 15 0 30.5t0 30.5q0 8 -2 16t-2 16q0 26 3.5 51.5t3.5 51.5q0 11 -1.5 21.5
t-1.5 21.5q0 26 2.5 53t2.5 53q0 34 -3 67.5t-3 67.5q0 9 7 16.5t16.5 12.5t20 9t18.5 7q8 0 17 0.5t17 0.5q27 0 53 -4t52 -9l7 1l33 1q69 3 138 3q10 0 20 -1.5t20 -3.5q-1 0 3 0.5t6 1.5l13 1l49 6q5 1 10 1h11q11 0 23 -2t23 -8q4 -3 8 -20t6.5 -38t4 -40t1.5 -25
q0 -34 -18.5 -48.5t-50.5 -14.5q-29 0 -56.5 5t-56.5 5t-58.5 2.5t-58.5 2.5q-17 0 -35.5 -4.5t-29.5 -19.5q-3 0 -3 -3q0 -1 1 -2q1 -10 1 -25t2.5 -29t9.5 -24t23 -10q22 0 43.5 4.5t43.5 4.5t43 -1.5t43 -0.5q20 1 39.5 3.5t39.5 2.5q26 0 41.5 -10.5t15.5 -38.5
q0 -4 -0.5 -7.5t-0.5 -7.5q-1 -17 -1 -38q0 -20 -4.5 -37.5t-16.5 -29.5t-37 -12q-32 0 -64 -1.5t-64 -1.5q-15 0 -39.5 8.5t-47.5 8.5q-8 0 -15 -1t-15 -4q-19 0 -28 -5.5t-12.5 -15t-3 -23t0.5 -28.5v-27t3.5 -25t12 -18.5t25.5 -7.5q21 0 44 4t46 6q37 2 73 2.5t73 2.5
q17 1 33.5 2.5t33.5 1.5q26 0 43 -10t17 -39q0 -11 -2.5 -20.5t-2.5 -20.5q0 -14 2 -27t2 -27q0 -20 -13.5 -39t-35.5 -19zM265 988q1 -4 -1.5 0t-5 8.5t-2.5 5.5q-5 18 -5 32t4.5 25t15.5 19q13 10 30.5 20.5t36.5 19.5t38.5 15t36.5 6q22 0 36 -7t21.5 -19.5t10 -29
t2.5 -35.5q0 -12 -1 -24.5t-1 -24.5t-0.5 -32t-4 -39.5t-12.5 -33.5t-26 -14h-36q-19 0 -38 -5t-39 -5q-24 0 -36 12t-17 30t-5.5 38.5t-1.5 37.5z" />
    <glyph glyph-name="Eogonek" unicode="&#x118;" horiz-adv-x="710" 
d="M250 -21l-1 1v19q-13 0 -25 -3q-20 -4 -42 -6.5t-42 -2.5q-48 0 -69 28t-21 73q0 36 7 71.5t7 70.5q0 10 -2 20t-3 20q-1 15 0 30.5t0 30.5q0 8 -2 16t-2 16q0 26 3.5 51.5t3.5 51.5q0 11 -1.5 21.5t-1.5 21.5q0 26 2.5 53t2.5 53q0 34 -3 67.5t-3 67.5q0 9 7 16.5
t16.5 12.5t20 9t18.5 7q8 0 17 0.5t17 0.5q27 0 53 -4t52 -9l7 1l33 1q69 3 138 3q10 0 20 -1.5t20 -3.5q-1 0 3 0.5t6 1.5l13 1l49 6q5 1 10 1h11q11 0 23 -2t23 -8q4 -3 8 -20t6.5 -38t4 -40t1.5 -25q0 -34 -18.5 -48.5t-50.5 -14.5q-29 0 -56.5 5t-56.5 5t-58.5 2.5
t-58.5 2.5q-17 0 -35.5 -4.5t-29.5 -19.5q-3 0 -3 -3q0 -1 1 -2q1 -10 1 -25t2.5 -29t9.5 -24t23 -10q22 0 43.5 4.5t43.5 4.5t43 -1.5t43 -0.5q20 1 39.5 3.5t39.5 2.5q26 0 41.5 -10.5t15.5 -38.5q0 -4 -0.5 -7.5t-0.5 -7.5q-1 -17 -1 -38q0 -20 -4.5 -37.5t-16.5 -29.5
t-37 -12q-32 0 -64 -1.5t-64 -1.5q-15 0 -39.5 8.5t-47.5 8.5q-8 0 -15 -1t-15 -4q-19 0 -28 -5.5t-12.5 -15t-3 -23t0.5 -28.5q0 -18 0.5 -37t10.5 -30q15 8 39.5 10.5t63.5 3.5l21 1q13 0 30 -1.5t28 -11.5q21 1 42 1t42 1q17 1 33.5 2.5t33.5 1.5q26 0 43 -10t17 -39
q0 -11 -2.5 -20.5t-2.5 -20.5q0 -14 2 -27t2 -27q0 -20 -13.5 -39t-35.5 -19h-81q-21 0 -42.5 2.5t-43.5 2.5h-7q4 -30 9 -60.5t5 -61.5q0 -12 -1 -29.5t-5 -34.5t-12.5 -29t-24.5 -12h-36q-19 0 -38 -5t-39 -5q-23 0 -35 11.5t-17.5 29t-6.5 37.5t-1 37q0 23 2 46.5t4 46.5
z" />
    <glyph glyph-name="eogonek" unicode="&#x119;" horiz-adv-x="710" 
d="M424 -97l-1 1q0 23 -2 45.5t-2 44.5v14q-15 0 -32 -0.5t-32.5 -1.5t-27.5 -3t-18 -5q-20 0 -42.5 1t-42.5 -3t-42 -6.5t-42 -2.5q-48 0 -69 28t-21 73q0 36 7 71.5t7 70.5q0 10 -2 20t-3 20q-1 15 0 30.5t0 30.5q0 8 -2 16t-2 16q0 26 3.5 51.5t3.5 51.5q0 11 -1.5 21.5
t-1.5 21.5q0 26 2.5 53t2.5 53q0 34 -3 67.5t-3 67.5q0 9 7 16.5t16.5 12.5t20 9t18.5 7q8 0 17 0.5t17 0.5q27 0 53 -4t52 -9l7 1l33 1q69 3 138 3q10 0 20 -1.5t20 -3.5q-1 0 3 0.5t6 1.5l13 1l49 6q5 1 10 1h11q11 0 23 -2t23 -8q4 -3 8 -20t6.5 -38t4 -40t1.5 -25
q0 -34 -18.5 -48.5t-50.5 -14.5q-29 0 -56.5 5t-56.5 5t-58.5 2.5t-58.5 2.5q-17 0 -35.5 -4.5t-29.5 -19.5q-3 0 -3 -3q0 -1 1 -2q1 -10 1 -25t2.5 -29t9.5 -24t23 -10q22 0 43.5 4.5t43.5 4.5t43 -1.5t43 -0.5q20 1 39.5 3.5t39.5 2.5q26 0 41.5 -10.5t15.5 -38.5
q0 -4 -0.5 -7.5t-0.5 -7.5q-1 -17 -1 -38q0 -20 -4.5 -37.5t-16.5 -29.5t-37 -12q-32 0 -64 -1.5t-64 -1.5q-15 0 -39.5 8.5t-47.5 8.5q-8 0 -15 -1t-15 -4q-19 0 -28 -5.5t-12.5 -15t-3 -23t0.5 -28.5v-27t3.5 -25t12 -18.5t25.5 -7.5q21 0 44 4t46 6q37 2 73 2.5t73 2.5
q17 1 33.5 2.5t33.5 1.5q26 0 43 -10t17 -39q0 -11 -2.5 -20.5t-2.5 -20.5q0 -14 2 -27t2 -27q0 -20 -13.5 -39t-35.5 -19q-1 -7 -1.5 -14.5t-0.5 -15.5q0 -41 8 -81.5t8 -81.5q0 -12 -1 -29.5t-5 -34.5t-12.5 -29t-24.5 -12h-36q-19 0 -38 -5t-39 -5q-23 0 -35 11.5
t-17.5 29t-6.5 37.5t-1 37q0 23 2 46.5t4 46.5z" />
    <glyph glyph-name="Ecaron" unicode="&#x11a;" horiz-adv-x="710" 
d="M620 3h-81q-21 0 -42.5 2.5t-43.5 2.5q-11 0 -32 0.5t-43 -0.5t-41.5 -3t-27.5 -7q-20 0 -42.5 1t-42.5 -3t-42 -6.5t-42 -2.5q-48 0 -69 28t-21 73q0 36 7 71.5t7 70.5q0 10 -2 20t-3 20q-1 15 0 30.5t0 30.5q0 8 -2 16t-2 16q0 26 3.5 51.5t3.5 51.5q0 11 -1.5 21.5
t-1.5 21.5q0 26 2.5 53t2.5 53q0 34 -3 67.5t-3 67.5q0 9 7 16.5t16.5 12.5t20 9t18.5 7q8 0 17 0.5t17 0.5q27 0 53 -4t52 -9l7 1l33 1q69 3 138 3q10 0 20 -1.5t20 -3.5q-1 0 3 0.5t6 1.5l13 1l49 6q5 1 10 1h11q11 0 23 -2t23 -8q4 -3 8 -20t6.5 -38t4 -40t1.5 -25
q0 -34 -18.5 -48.5t-50.5 -14.5q-29 0 -56.5 5t-56.5 5t-58.5 2.5t-58.5 2.5q-17 0 -35.5 -4.5t-29.5 -19.5q-3 0 -3 -3q0 -1 1 -2q1 -10 1 -25t2.5 -29t9.5 -24t23 -10q22 0 43.5 4.5t43.5 4.5t43 -1.5t43 -0.5q20 1 39.5 3.5t39.5 2.5q26 0 41.5 -10.5t15.5 -38.5
q0 -4 -0.5 -7.5t-0.5 -7.5q-1 -17 -1 -38q0 -20 -4.5 -37.5t-16.5 -29.5t-37 -12q-32 0 -64 -1.5t-64 -1.5q-15 0 -39.5 8.5t-47.5 8.5q-8 0 -15 -1t-15 -4q-19 0 -28 -5.5t-12.5 -15t-3 -23t0.5 -28.5v-27t3.5 -25t12 -18.5t25.5 -7.5q21 0 44 4t46 6q37 2 73 2.5t73 2.5
q17 1 33.5 2.5t33.5 1.5q26 0 43 -10t17 -39q0 -11 -2.5 -20.5t-2.5 -20.5q0 -14 2 -27t2 -27q0 -20 -13.5 -39t-35.5 -19zM479 962q11 13 22.5 26t20.5 27q7 10 15 22.5t12.5 25.5t2 25t-15.5 22q-12 8 -26 13.5t-25 13.5l-22 15q-9 7 -19.5 3.5t-20 -12t-18 -19
t-13.5 -17.5q-11 -15 -19.5 -32t-16.5 -34q-10 18 -19 35.5t-20 33.5q-5 7 -13 17.5t-17.5 19t-20 12t-20.5 -3.5l-21 -15q-11 -8 -25 -13.5t-26 -13.5q-14 -10 -16 -22t2 -25t12 -25.5t15 -22.5q10 -14 21.5 -27t22.5 -26v-1q8 -11 14 -22t14 -22q1 -8 6 -14t11 -11
q24 -27 44 -41.5t39 -14.5t39.5 16t44.5 50q9 13 17.5 27.5t18.5 28.5v1z" />
    <glyph glyph-name="ecaron" unicode="&#x11b;" horiz-adv-x="710" 
d="M620 3h-81q-21 0 -42.5 2.5t-43.5 2.5q-11 0 -32 0.5t-43 -0.5t-41.5 -3t-27.5 -7q-20 0 -42.5 1t-42.5 -3t-42 -6.5t-42 -2.5q-48 0 -69 28t-21 73q0 36 7 71.5t7 70.5q0 10 -2 20t-3 20q-1 15 0 30.5t0 30.5q0 8 -2 16t-2 16q0 26 3.5 51.5t3.5 51.5q0 11 -1.5 21.5
t-1.5 21.5q0 26 2.5 53t2.5 53q0 34 -3 67.5t-3 67.5q0 9 7 16.5t16.5 12.5t20 9t18.5 7q8 0 17 0.5t17 0.5q27 0 53 -4t52 -9l7 1l33 1q69 3 138 3q10 0 20 -1.5t20 -3.5q-1 0 3 0.5t6 1.5l13 1l49 6q5 1 10 1h11q11 0 23 -2t23 -8q4 -3 8 -20t6.5 -38t4 -40t1.5 -25
q0 -34 -18.5 -48.5t-50.5 -14.5q-29 0 -56.5 5t-56.5 5t-58.5 2.5t-58.5 2.5q-17 0 -35.5 -4.5t-29.5 -19.5q-3 0 -3 -3q0 -1 1 -2q1 -10 1 -25t2.5 -29t9.5 -24t23 -10q22 0 43.5 4.5t43.5 4.5t43 -1.5t43 -0.5q20 1 39.5 3.5t39.5 2.5q26 0 41.5 -10.5t15.5 -38.5
q0 -4 -0.5 -7.5t-0.5 -7.5q-1 -17 -1 -38q0 -20 -4.5 -37.5t-16.5 -29.5t-37 -12q-32 0 -64 -1.5t-64 -1.5q-15 0 -39.5 8.5t-47.5 8.5q-8 0 -15 -1t-15 -4q-19 0 -28 -5.5t-12.5 -15t-3 -23t0.5 -28.5v-27t3.5 -25t12 -18.5t25.5 -7.5q21 0 44 4t46 6q37 2 73 2.5t73 2.5
q17 1 33.5 2.5t33.5 1.5q26 0 43 -10t17 -39q0 -11 -2.5 -20.5t-2.5 -20.5q0 -14 2 -27t2 -27q0 -20 -13.5 -39t-35.5 -19zM479 960q11 13 22.5 26t20.5 27q7 10 15 22.5t12.5 25.5t2 25t-15.5 22q-12 8 -26 13.5t-25 13.5l-22 15q-9 7 -19.5 3.5t-20 -12t-18 -19
t-13.5 -17.5q-11 -15 -19.5 -32t-16.5 -34q-10 18 -19 35.5t-20 33.5q-5 7 -13 17.5t-17.5 19t-20 12t-20.5 -3.5l-21 -15q-11 -8 -25 -13.5t-26 -13.5q-14 -10 -16 -22t2 -25t12 -25.5t15 -22.5q10 -14 21.5 -27t22.5 -26v-1q8 -11 14 -22t14 -22q1 -8 6 -14t11 -11
q24 -27 44 -41.5t39 -14.5t39.5 16t44.5 50q9 13 17.5 27.5t18.5 28.5v1z" />
    <glyph glyph-name="Gbreve" unicode="&#x11e;" horiz-adv-x="818" 
d="M772 355q0 -24 1 -48t1 -49q0 -23 -3.5 -45.5t-3.5 -44.5q0 -29 5.5 -57t5.5 -57q0 -19 -8 -30t-21 -16t-28 -6.5t-30 -1.5q-24 0 -40 1.5t-25.5 8.5t-14 21t-4.5 38h-6q-4 -4 -14.5 -14t-22.5 -20.5t-22 -19t-13 -9.5q-17 -6 -34 -11.5t-34 -10.5q-14 2 -29.5 0
t-29.5 -2q-75 0 -132 23t-110 76q-6 6 -13 11.5t-14 10.5q-5 4 -15.5 19t-21.5 33t-20.5 34.5t-12.5 23.5q-4 8 -6.5 21.5t-4 28.5t-2 29.5t-0.5 23.5q0 24 4 48t4 47q0 19 -1 38t-1 38q0 42 10.5 74.5t29 60t43.5 52t54 50.5q13 11 26.5 23t27.5 20q2 1 21.5 7t42 13
t40.5 12.5l18 5.5q33 0 67.5 -1.5t69 -7t67 -16t61.5 -27.5q26 -16 51 -40.5t48 -44.5q5 -5 12.5 -12t15 -15.5t12.5 -17.5t5 -16q0 -14 -19.5 -30.5t-44.5 -30.5t-49 -23.5t-33 -9.5q-27 0 -42.5 13.5t-33 30t-43 30t-70.5 13.5q-50 0 -83.5 -16t-54 -44.5t-29 -67
t-8.5 -83.5q0 -41 9.5 -78.5t30.5 -66t54 -45.5t79 -17q30 0 50 8t36 21t31 30t34 35v5h-5q0 5 -7 5q-5 0 -9 -1.5t-9 -3.5q-38 -7 -64 -5.5t-42.5 14t-23.5 37t-7 63.5q0 25 5 39.5t15.5 22t27.5 9.5t40 2q37 0 74 -4.5t74 -4.5q17 0 33.5 2.5t33.5 2.5q20 0 34 -9t16 -30
l-2 -4q-1 -4 -1 -8q0 -3 -1 -7q-1 -11 -1.5 -23t-0.5 -23zM293 1005q0 -6 -1.5 -11.5t-1.5 -11.5q0 -1 1 -6t2 -10.5l2 -11t1 -7.5q2 -10 9 -21.5t16 -22.5t20 -19.5t21 -12.5q3 -1 10 -3.5t15 -5t15.5 -4.5t10.5 -2h26q3 0 5.5 1t4.5 2q7 1 17 4t15 5q4 1 10 5t12 8.5
t11.5 9t8.5 7.5q7 8 17.5 23t13.5 26q5 22 8 40t-1 40q-28 2 -44 2t-24.5 -1.5t-12.5 -5t-8 -9.5q0 -3 -0.5 -8.5t-0.5 -12.5v-11v-6q-1 -2 -2.5 -4t-1.5 -4q-5 -11 -8 -13.5t-15 -8.5q-3 0 -7 -1.5t-8 -1.5q-24 0 -35 19t-11 40q-19 13 -35.5 17t-28.5 2.5t-19 -6.5t-7 -9z
" />
    <glyph glyph-name="gbreve" unicode="&#x11f;" horiz-adv-x="818" 
d="M772 355q0 -24 1 -48t1 -49q0 -23 -3.5 -45.5t-3.5 -44.5q0 -29 5.5 -57t5.5 -57q0 -19 -8 -30t-21 -16t-28 -6.5t-30 -1.5q-24 0 -40 1.5t-25.5 8.5t-14 21t-4.5 38h-6q-4 -4 -14.5 -14t-22.5 -20.5t-22 -19t-13 -9.5q-17 -6 -34 -11.5t-34 -10.5q-14 2 -29.5 0
t-29.5 -2q-75 0 -132 23t-110 76q-6 6 -13 11.5t-14 10.5q-5 4 -15.5 19t-21.5 33t-20.5 34.5t-12.5 23.5q-4 8 -6.5 21.5t-4 28.5t-2 29.5t-0.5 23.5q0 24 4 48t4 47q0 19 -1 38t-1 38q0 42 10.5 74.5t29 60t43.5 52t54 50.5q13 11 26.5 23t27.5 20q2 1 21.5 7t42 13
t40.5 12.5l18 5.5q33 0 67.5 -1.5t69 -7t67 -16t61.5 -27.5q26 -16 51 -40.5t48 -44.5q5 -5 12.5 -12t15 -15.5t12.5 -17.5t5 -16q0 -14 -19.5 -30.5t-44.5 -30.5t-49 -23.5t-33 -9.5q-27 0 -42.5 13.5t-33 30t-43 30t-70.5 13.5q-50 0 -83.5 -16t-54 -44.5t-29 -67
t-8.5 -83.5q0 -41 9.5 -78.5t30.5 -66t54 -45.5t79 -17q30 0 50 8t36 21t31 30t34 35v5h-5q0 5 -7 5q-5 0 -9 -1.5t-9 -3.5q-38 -7 -64 -5.5t-42.5 14t-23.5 37t-7 63.5q0 25 5 39.5t15.5 22t27.5 9.5t40 2q37 0 74 -4.5t74 -4.5q17 0 33.5 2.5t33.5 2.5q20 0 34 -9t16 -30
l-2 -4q-1 -4 -1 -8q0 -3 -1 -7q-1 -11 -1.5 -23t-0.5 -23zM293 1005q0 -6 -1.5 -11.5t-1.5 -11.5q0 -1 1 -6t2 -10.5l2 -11t1 -7.5q2 -10 9 -21.5t16 -22.5t20 -19.5t21 -12.5q3 -1 10 -3.5t15 -5t15.5 -4.5t10.5 -2h26q3 0 5.5 1t4.5 2q7 1 17 4t15 5q4 1 10 5t12 8.5
t11.5 9t8.5 7.5q7 8 17.5 23t13.5 26q5 22 8 40t-1 40q-28 2 -44 2t-24.5 -1.5t-12.5 -5t-8 -9.5q0 -3 -0.5 -8.5t-0.5 -12.5v-11v-6q-1 -2 -2.5 -4t-1.5 -4q-5 -11 -8 -13.5t-15 -8.5q-3 0 -7 -1.5t-8 -1.5q-24 0 -35 19t-11 40q-19 13 -35.5 17t-28.5 2.5t-19 -6.5t-7 -9z
" />
    <glyph glyph-name="Gcommaaccent" unicode="&#x122;" horiz-adv-x="818" 
d="M772 355q0 -24 1 -48t1 -49q0 -23 -3.5 -45.5t-3.5 -44.5q0 -29 5.5 -57t5.5 -57q0 -19 -8 -30t-21 -16t-28 -6.5t-30 -1.5q-24 0 -40 1.5t-25.5 8.5t-14 21t-4.5 38h-6q-4 -4 -14.5 -14t-22.5 -20.5t-22 -19t-13 -9.5q-17 -6 -34 -11.5t-34 -10.5q-14 2 -29.5 0
t-29.5 -2q-75 0 -132 23t-110 76q-6 6 -13 11.5t-14 10.5q-5 4 -15.5 19t-21.5 33t-20.5 34.5t-12.5 23.5q-4 8 -6.5 21.5t-4 28.5t-2 29.5t-0.5 23.5q0 24 4 48t4 47q0 19 -1 38t-1 38q0 42 10.5 74.5t29 60t43.5 52t54 50.5q13 11 26.5 23t27.5 20q2 1 21.5 7t42 13
t40.5 12.5l18 5.5q33 0 67.5 -1.5t69 -7t67 -16t61.5 -27.5q26 -16 51 -40.5t48 -44.5q5 -5 12.5 -12t15 -15.5t12.5 -17.5t5 -16q0 -14 -19.5 -30.5t-44.5 -30.5t-49 -23.5t-33 -9.5q-27 0 -42.5 13.5t-33 30t-43 30t-70.5 13.5q-50 0 -83.5 -16t-54 -44.5t-29 -67
t-8.5 -83.5q0 -41 9.5 -78.5t30.5 -66t54 -45.5t79 -17q30 0 50 8t36 21t31 30t34 35v5h-5q0 5 -7 5q-5 0 -9 -1.5t-9 -3.5q-38 -7 -64 -5.5t-42.5 14t-23.5 37t-7 63.5q0 25 5 39.5t15.5 22t27.5 9.5t40 2q37 0 74 -4.5t74 -4.5q17 0 33.5 2.5t33.5 2.5q20 0 34 -9t16 -30
l-2 -4q-1 -4 -1 -8q0 -3 -1 -7q-1 -11 -1.5 -23t-0.5 -23zM317 -224h-1q0 16 -1.5 31.5t-1.5 30.5q0 34 3 53t15.5 28t38 11.5t69.5 3.5l20 1q8 0 19 -0.5t20.5 -2.5t16 -6.5t6.5 -13.5q0 -19 -11 -41.5t-11 -46.5q0 -28 7.5 -56t7.5 -56q0 -8 -1 -20t-4.5 -23.5t-11.5 -20
t-23 -8.5h-34q-17 0 -35.5 -3.5t-36.5 -3.5q-21 0 -32.5 8t-17 20t-6 25.5t-0.5 25.5q0 15 2 31.5t3 32.5z" />
    </font>
</defs>
</svg>
