<?xml version="1.0" encoding="utf-8"?>
<!-- Generator: Adobe Illustrator 16.0.0, SVG Export Plug-In . SVG Version: 6.00 Build 0)  -->
<!DOCTYPE svg PUBLIC "-//W3C//DTD SVG 1.1//EN" "http://www.w3.org/Graphics/SVG/1.1/DTD/svg11.dtd">
<svg version="1.1" xmlns="http://www.w3.org/2000/svg" xmlns:xlink="http://www.w3.org/1999/xlink" x="0px" y="0px"
	 width="1417.323px" height="1417.323px" viewBox="-308.662 -408.662 1417.323 1417.323"
	 enable-background="new -308.662 -408.662 1417.323 1417.323" xml:space="preserve">
<g id="Calque_2" display="none">
	<rect x="-308.662" y="-408.662" display="inline" fill="#333333" width="1417.323" height="1417.323"/>
	<path display="inline" fill="#FFFFFF" d="M954.233,93.418l-60.004,28.391c26.238,63.137,40.781,132.355,40.781,204.984
		c0,295.28-239.352,534.623-534.64,534.623c-295.281,0-534.648-239.343-534.648-534.623c0-72.355,14.44-141.307,40.491-204.242
		l-59.944-28.545c-30.117,71.594-46.782,150.236-46.782,232.787c0,331.859,269.016,600.858,600.875,600.858
		c331.867,0,600.875-268.999,600.875-600.858C1001.246,244.024,984.504,165.164,954.233,93.418z"/>
	<path display="inline" fill="#FFFFFF" d="M749.211,190.342c16.546,42.299,25.743,88.283,25.743,136.451
		c0,206.873-167.702,374.566-374.583,374.566c-206.881,0-374.593-167.693-374.593-374.566c0-47.716,9.019-93.297,25.275-135.267
		l-64.923-30.919c-20.638,51.378-32.095,107.431-32.095,166.194c0,246.503,199.832,446.317,446.335,446.317
		c246.503,0,446.334-199.814,446.334-446.317c0-59.155-11.61-115.575-32.521-167.233L749.211,190.342z"/>
	<path display="inline" fill="#FFFFFF" d="M608.488,256.994h-2.361c7.434,21.908,11.517,45.363,11.517,69.79
		c0,120.009-97.273,217.273-217.281,217.273s-217.29-97.265-217.29-217.273c0-24.427,4.092-47.882,11.525-69.79h-6.069
		l-62.519-29.775c-11.278,31.076-17.45,64.594-17.45,99.574c0,161.147,130.646,291.777,291.802,291.777
		c161.155,0,291.794-130.63,291.794-291.777c0-35.482-6.351-69.475-17.944-100.934L608.488,256.994z"/>
	<path display="inline" fill="#FFFFFF" d="M400.507-332.334c-244.286,0-414.768,231.026-414.768,231.026
		s152.759,245.122,399.373,245.122c285.895,0,429.899-245.122,429.899-245.122S644.785-332.334,400.507-332.334z M385.112,65.253
		c-139.588,0-246.528-101.583-298.357-162.878c56.807-58.537,172.681-156.147,313.752-156.147
		c141.626,0,257.738,98.394,314.248,156.897C663.863-36.146,553.65,65.253,385.112,65.253z"/>
	<path display="inline" fill="#FFFFFF" d="M400.371-224.828c-72.118,0-130.57,58.462-130.57,130.57
		c0,72.113,58.453,130.57,130.57,130.57c72.108,0,130.561-58.457,130.561-130.57C530.932-166.366,472.479-224.828,400.371-224.828z
		 M400.371-37.07c-31.592,0-57.191-25.604-57.191-57.184c0-31.583,25.608-57.186,57.191-57.186
		c31.574,0,57.182,25.603,57.182,57.186C457.553-62.683,431.945-37.07,400.371-37.07z"/>
</g>
<g id="Calque_2_-_copie">
	<path fill="#333333" d="M954.233,93.418l-60.004,28.391c26.238,63.137,40.781,132.355,40.781,204.984
		c0,295.28-239.352,534.623-534.64,534.623c-295.281,0-534.648-239.343-534.648-534.623c0-72.355,14.44-141.307,40.491-204.242
		l-59.944-28.545c-30.117,71.594-46.782,150.236-46.782,232.787c0,331.859,269.016,600.858,600.875,600.858
		c331.867,0,600.875-268.999,600.875-600.858C1001.246,244.024,984.504,165.164,954.233,93.418z"/>
	<path fill="#333333" d="M749.211,190.342c16.546,42.299,25.743,88.283,25.743,136.451c0,206.873-167.702,374.566-374.583,374.566
		c-206.881,0-374.593-167.693-374.593-374.566c0-47.716,9.019-93.297,25.275-135.267l-64.923-30.919
		c-20.638,51.378-32.095,107.431-32.095,166.194c0,246.503,199.832,446.317,446.335,446.317
		c246.503,0,446.334-199.814,446.334-446.317c0-59.155-11.61-115.575-32.521-167.233L749.211,190.342z"/>
	<path fill="#333333" d="M608.488,256.994h-2.361c7.434,21.908,11.517,45.363,11.517,69.79
		c0,120.009-97.273,217.273-217.281,217.273s-217.29-97.265-217.29-217.273c0-24.427,4.092-47.882,11.525-69.79h-6.069
		l-62.519-29.775c-11.278,31.076-17.45,64.594-17.45,99.574c0,161.147,130.646,291.777,291.802,291.777
		c161.155,0,291.794-130.63,291.794-291.777c0-35.482-6.351-69.475-17.944-100.934L608.488,256.994z"/>
	<path fill="#333333" d="M400.507-332.334c-244.286,0-414.768,231.026-414.768,231.026s152.759,245.122,399.373,245.122
		c285.895,0,429.899-245.122,429.899-245.122S644.785-332.334,400.507-332.334z M385.112,65.253
		c-139.588,0-246.528-101.583-298.357-162.878c56.807-58.537,172.681-156.147,313.752-156.147
		c141.626,0,257.738,98.394,314.248,156.897C663.863-36.146,553.65,65.253,385.112,65.253z"/>
	<path fill="#333333" d="M400.371-224.828c-72.118,0-130.57,58.462-130.57,130.57c0,72.113,58.453,130.57,130.57,130.57
		c72.108,0,130.561-58.457,130.561-130.57C530.932-166.366,472.479-224.828,400.371-224.828z M400.371-37.07
		c-31.592,0-57.191-25.604-57.191-57.184c0-31.583,25.608-57.186,57.191-57.186c31.574,0,57.182,25.603,57.182,57.186
		C457.553-62.683,431.945-37.07,400.371-37.07z"/>
</g>
</svg>
