<?xml version="1.0" encoding="utf-8"?>
<!-- Generator: Adobe Illustrator 16.0.0, SVG Export Plug-In . SVG Version: 6.00 Build 0)  -->
<!DOCTYPE svg PUBLIC "-//W3C//DTD SVG 1.1//EN" "http://www.w3.org/Graphics/SVG/1.1/DTD/svg11.dtd">
<svg version="1.1" xmlns="http://www.w3.org/2000/svg" xmlns:xlink="http://www.w3.org/1999/xlink" x="0px" y="0px"
	 width="181.417px" height="181.417px" viewBox="1355.726 -34.413 181.417 181.417"
	 enable-background="new 1355.726 -34.413 181.417 181.417" xml:space="preserve">
<g id="Calque_2">
	<rect x="1355.819" y="-34.319" fill="#333333" width="181.323" height="181.323"/>
	<path fill="#FFFFFF" d="M1517.386,29.913l-7.677,3.633c3.357,8.077,5.218,16.933,5.218,26.224
		c0,37.776-30.621,68.396-68.398,68.396c-37.776,0-68.399-30.62-68.399-68.396c0-9.257,1.848-18.078,5.18-26.129l-7.668-3.651
		c-3.854,9.159-5.986,19.22-5.986,29.781c0,42.457,34.416,76.871,76.872,76.871c42.457,0,76.872-34.414,76.872-76.871
		C1523.4,49.181,1521.259,39.093,1517.386,29.913z"/>
	<path fill="#FFFFFF" d="M1491.156,42.313c2.117,5.411,3.294,11.294,3.294,17.457c0,26.467-21.454,47.919-47.922,47.919
		c-26.466,0-47.923-21.453-47.923-47.919c0-6.104,1.154-11.936,3.232-17.305l-8.305-3.956c-2.641,6.573-4.106,13.744-4.106,21.262
		c0,31.537,25.565,57.099,57.102,57.099c31.535,0,57.102-25.563,57.102-57.099c0-7.568-1.485-14.786-4.161-21.395L1491.156,42.313z"
		/>
	<path fill="#FFFFFF" d="M1473.153,50.84h-0.302c0.951,2.804,1.474,5.804,1.474,8.929c0,15.354-12.445,27.796-27.799,27.796
		c-15.353,0-27.798-12.443-27.798-27.796c0-3.125,0.523-6.125,1.475-8.929h-0.776l-7.999-3.809
		c-1.442,3.976-2.232,8.264-2.232,12.739c0,20.617,16.715,37.328,37.331,37.328c20.618,0,37.33-16.711,37.33-37.328
		c0-4.54-0.812-8.887-2.295-12.913L1473.153,50.84z"/>
	<path fill="#FFFFFF" d="M1446.544-24.554c-31.251,0-53.062,29.555-53.062,29.555s19.543,31.36,51.093,31.36
		c36.576,0,54.999-31.36,54.999-31.36S1477.797-24.554,1446.544-24.554z M1444.575,26.311c-17.856,0-31.538-12.996-38.169-20.837
		c7.267-7.489,22.092-19.977,40.138-19.977c18.12,0,32.975,12.588,40.204,20.073C1480.238,13.338,1466.139,26.311,1444.575,26.311z"
		/>
	<path fill="#FFFFFF" d="M1446.528-10.801c-9.227,0-16.704,7.479-16.704,16.705c0,9.225,7.478,16.704,16.704,16.704
		c9.226,0,16.702-7.479,16.702-16.704C1463.23-3.322,1455.754-10.801,1446.528-10.801z M1446.528,13.22
		c-4.042,0-7.317-3.276-7.317-7.316c0-4.041,3.277-7.316,7.317-7.316c4.039,0,7.315,3.275,7.315,7.316
		C1453.844,9.943,1450.567,13.22,1446.528,13.22z"/>
</g>
<g id="Calque_2_-_copie">
</g>
</svg>
