<?xml version="1.0" encoding="UTF-8"?>
<!-- Generator: Adobe Illustrator 16.0.0, SVG Export Plug-In . SVG Version: 6.00 Build 0)  -->
<!DOCTYPE svg PUBLIC "-//W3C//DTD SVG 1.1//EN" "http://www.w3.org/Graphics/SVG/1.1/DTD/svg11.dtd">
<svg version="1.1" id="Calque_1" xmlns="http://www.w3.org/2000/svg" xmlns:xlink="http://www.w3.org/1999/xlink" x="0px" y="0px" width="1417.324px" height="1417.324px" viewBox="0 0 1417.324 1417.324" enable-background="new 0 0 1417.324 1417.324" xml:space="preserve">
<g id="Calque_2">
	<rect fill="#333333" width="1417.324" height="1417.324"/>
	<path fill="#FFFFFF" d="M1262.896,502.08l-60.006,28.391c26.238,63.137,40.781,132.355,40.781,204.983   c0,295.281-239.352,534.623-534.639,534.623c-295.282,0-534.649-239.342-534.649-534.623c0-72.354,14.44-141.307,40.491-204.242   l-59.944-28.545c-30.117,71.594-46.782,150.236-46.782,232.787c0,331.859,269.016,600.859,600.875,600.859   c331.866,0,600.876-269,600.876-600.859C1309.908,652.686,1293.166,573.826,1262.896,502.08z"/>
	<path fill="#FFFFFF" d="M1057.873,599.004c16.547,42.299,25.744,88.283,25.744,136.451c0,206.873-167.703,374.566-374.584,374.566   S334.44,942.328,334.44,735.455c0-47.715,9.019-93.296,25.275-135.267l-64.923-30.919   c-20.638,51.378-32.095,107.431-32.095,166.193c0,246.504,199.832,446.318,446.335,446.318   c246.502,0,446.334-199.814,446.334-446.318c0-59.154-11.611-115.574-32.521-167.232L1057.873,599.004z"/>
	<path fill="#FFFFFF" d="M917.15,665.656h-2.361c7.435,21.908,11.518,45.363,11.518,69.791   c0,120.008-97.273,217.271-217.281,217.271s-217.29-97.264-217.29-217.271c0-24.428,4.092-47.883,11.525-69.791h-6.069   l-62.519-29.775c-11.278,31.076-17.45,64.594-17.45,99.574c0,161.148,130.646,291.777,291.802,291.777   c161.155,0,291.794-130.629,291.794-291.777c0-35.481-6.351-69.475-17.943-100.934L917.15,665.656z"/>
	<path fill="#FFFFFF" d="M709.169,76.328c-244.286,0-414.769,231.026-414.769,231.026S447.16,552.476,693.774,552.476   c285.896,0,429.899-245.122,429.899-245.122S953.447,76.328,709.169,76.328z M693.774,473.915   c-139.588,0-246.528-101.583-298.357-162.878C452.224,252.5,568.098,154.89,709.169,154.89   c141.625,0,257.738,98.394,314.248,156.897C972.525,372.516,862.312,473.915,693.774,473.915z"/>
	<path fill="#FFFFFF" d="M709.033,183.834c-72.118,0-130.57,58.462-130.57,130.57c0,72.113,58.453,130.57,130.57,130.57   c72.108,0,130.562-58.457,130.562-130.57C839.594,242.296,781.141,183.834,709.033,183.834z M709.033,371.592   c-31.592,0-57.19-25.604-57.19-57.184c0-31.583,25.608-57.186,57.19-57.186c31.574,0,57.183,25.603,57.183,57.186   C766.215,345.979,740.607,371.592,709.033,371.592z"/>
</g>
<g id="Calque_2_-_copie" display="none">
	<path display="inline" fill="#333333" d="M954.234,93.418l-60.006,28.391c26.238,63.137,40.781,132.355,40.781,204.984   c0,295.28-239.351,534.623-534.639,534.623c-295.281,0-534.648-239.342-534.648-534.623c0-72.355,14.44-141.307,40.491-204.242   l-59.944-28.545c-30.117,71.594-46.782,150.236-46.782,232.787c0,331.859,269.016,600.859,600.875,600.859   c331.866,0,600.876-269,600.876-600.859C1001.246,244.024,984.503,165.164,954.234,93.418z"/>
	<path display="inline" fill="#333333" d="M749.21,190.342c16.547,42.299,25.744,88.283,25.744,136.451   c0,206.873-167.703,374.566-374.583,374.566c-206.881,0-374.593-167.693-374.593-374.566c0-47.716,9.019-93.297,25.275-135.267   l-64.923-30.919c-20.638,51.378-32.095,107.431-32.095,166.194c0,246.503,199.832,446.318,446.335,446.318   s446.334-199.815,446.334-446.318c0-59.155-11.611-115.575-32.521-167.233L749.21,190.342z"/>
	<path display="inline" fill="#333333" d="M608.488,256.994h-2.361c7.434,21.908,11.517,45.363,11.517,69.79   c0,120.009-97.273,217.272-217.281,217.272c-120.008,0-217.29-97.265-217.29-217.272c0-24.427,4.092-47.882,11.525-69.79h-6.069   l-62.519-29.775c-11.278,31.076-17.45,64.594-17.45,99.574c0,161.147,130.646,291.777,291.802,291.777   c161.155,0,291.794-130.63,291.794-291.777c0-35.482-6.351-69.475-17.944-100.934L608.488,256.994z"/>
	<path display="inline" fill="#333333" d="M400.507-332.334c-244.286,0-414.768,231.026-414.768,231.026   s152.759,245.122,399.373,245.122c285.895,0,429.899-245.122,429.899-245.122S644.785-332.334,400.507-332.334z M385.112,65.253   c-139.588,0-246.528-101.583-298.357-162.878c56.807-58.537,172.681-156.147,313.752-156.147   c141.626,0,257.738,98.394,314.249,156.897C663.863-36.146,553.65,65.253,385.112,65.253z"/>
	<path display="inline" fill="#333333" d="M400.371-224.828c-72.118,0-130.57,58.462-130.57,130.57   c0,72.113,58.453,130.57,130.57,130.57c72.108,0,130.561-58.457,130.561-130.57C530.932-166.366,472.479-224.828,400.371-224.828z    M400.371-37.07c-31.592,0-57.191-25.604-57.191-57.184c0-31.583,25.608-57.186,57.191-57.186   c31.574,0,57.182,25.603,57.182,57.186C457.553-62.683,431.945-37.07,400.371-37.07z"/>
</g>
</svg>